<?xml  version="1.0" encoding="UTF-8"?>
<!DOCTYPE svg PUBLIC "-//W3C//DTD SVG 1.0//EN" "http://www.w3.org/TR/2001/REC-SVG-20010904/DTD/svg10.dtd" >
<svg xmlns="http://www.w3.org/2000/svg" >
<metadata>
<version>1.0</version>
<id><![CDATA[Eurostile Next W02 UltLt]]></id>
<vendor>Monotype Imaging Inc.</vendor>
<credits>
<name>Fonts.com WebFonts</name>
<URL>http://webfonts.fonts.com</URL>
<role>Home of the Web fonts</role>
</credits>
<license>
<URL>http://webfonts.fonts.com/Legal</URL>
</license>
<copyright><![CDATA[Copyright © 2007 Linotype GmbH, www.linotype.com. All rights reserved. This font software may not be reproduced, modified, disclosed or transferred without the express written approval of Linotype GmbH. Eurostile is a trademark of Linotype GmbH and may be registered in certain jurisdictions. This typeface is original artwork of Linotype Design Studio. The design may be protected in certain jurisdictions.]]></copyright>
<trademark><![CDATA[Eurostile is a trademark of Linotype GmbH and may be registered in certain jurisdictions.]]></trademark>
<licensee>
<name></name>
</licensee>
</metadata>
<defs >
<font horiz-adv-x="475" id="4adecd23-9560-4e07-92e9-817cc706cb96">
<font-face font-family="" panose-1="2 11 2 4 2 2 2 5 2 4" ascent="861" descent="-205" units-per-em="1000" alphabetic="0">
</font-face>
<missing-glyph horiz-adv-x="0" />

<glyph unicode="&#xA;" />
<glyph unicode="&#xD;" />
<glyph unicode=" " horiz-adv-x="246" />
<glyph unicode="!" horiz-adv-x="190" d="M108 0H82V66H108V0ZM105 145H85V680H105V145Z"  />
<glyph unicode="&quot;" horiz-adv-x="291" d="M90 480H68V708H90V480ZM223 480H201V708H223V480Z"  />
<glyph unicode="#" horiz-adv-x="587" d="M337 0H316L358 228H187L145 0H124L166 228H47V248H170L212 480H85V500H216L249 680H270L237 500H408L441 680H462L429 500H558V480H425L383 248H519V228H379L337 0ZM362 248L404 480H233L191 248H362Z"  />
<glyph unicode="$" horiz-adv-x="594" d="M314 -81H292V-5Q218 -5 174 1T105 28T74 87T66 187V211H88V187Q88 132 94 98T121 46T182 21T292 15V340Q226 344 185 352T119 376T87 421T78 493V510Q78 562 87 596T121 649T186 677T292 685V750H314V685Q377 685 417 677T481 647T513 589T522 494V478H500V493Q500 547 493 580T464 632T407 658T314 665V359Q385 354 429 346T497 319T529 271T537 193V179Q537 123 528 87T494 31T426 3T314 -5V-81ZM314 15Q377 15 416 21T477 45T507 95T515 179V193Q515 234 508 260T480 302T420 325T314 338V15ZM100 494Q100 458 106 434T132 395T190 373T292 361V665Q232 665 195 659T136 635T108 587T100 510V494Z"  />
<glyph unicode="%" horiz-adv-x="648" d="M163 395Q133 395 114 400T83 420T67 462T63 534V542Q63 586 67 613T82 656T113 676T163 681H170Q200 681 219 676T250 656T266 614T270 542V534Q270 490 266 463T251 420T220 400T170 395H163ZM170 413Q195 413 210 416T235 432T247 469T250 534V542Q250 583 247 607T235 643T211 659T170 663H163Q138 663 123 660T98 644T86 607T83 542V534Q83 493 86 469T98 433T122 417T163 413H170ZM205 0H183L436 680H457L205 0ZM478 -1Q448 -1 429 4T398 24T382 66T378 138V146Q378 190 382 217T397 260T428 280T478 285H485Q515 285 534 280T565 260T581 218T585 146V138Q585 94 581 67T566 24T535 4T485 -1H478ZM485 17Q510 17 525 20T550 36T562 73T565 138V146Q565 187 562 211T550 247T526 263T485 267H478Q453 267 438 264T413 248T401 211T398 146V138Q398 97 401 73T413 37T437 21T478 17H485Z"  />
<glyph unicode="&amp;" horiz-adv-x="665" d="M637 16L624 0L538 73Q527 49 511 34T468 10T406 -2T318 -5H301Q218 -5 170 2T96 32T63 96T56 205V218Q56 263 59 296T74 352T106 387T159 404Q136 424 123 450T110 527V540Q110 586 118 614T148 658T207 679T301 685H319Q378 685 414 679T469 656T495 608T502 528V499H480V528Q480 573 475 600T454 641T405 660T319 665H301Q247 665 214 661T162 643T138 605T132 540V527Q132 501 134 484T145 451T170 419T213 379L526 110Q531 131 532 163T533 232V317H555V232Q555 186 553 152T545 94L637 16ZM318 15Q370 15 405 18T463 30T499 52T520 88L173 387Q142 385 123 376T94 347T81 296T78 218V205Q78 142 84 105T113 47T180 21T301 15H318Z"  />
<glyph unicode="&apos;" horiz-adv-x="158" d="M90 480H68V708H90V480Z"  />
<glyph unicode="(" horiz-adv-x="260" d="M205 -8H192Q164 -8 143 -5T107 9T83 42T67 101T59 195T57 330V350Q57 429 59 485T67 578T82 638T107 671T143 685T192 688H205V669H192Q156 669 134 662T99 623T82 526T78 346V334Q78 219 82 154T98 58T133 19T192 11H205V-8Z"  />
<glyph unicode=")" horiz-adv-x="260" d="M55 -8V11H67Q103 11 125 18T160 57T177 154T182 334V346Q182 461 178 526T161 622T126 661T67 669H55V688H67Q95 688 116 685T152 671T177 638T192 579T200 485T203 350V330Q203 251 201 195T193 102T177 42T152 9T116 -5T67 -8H55Z"  />
<glyph unicode="*" horiz-adv-x="395" d="M208 685L205 558H190L187 685H208ZM341 591L237 534L229 546L331 609L341 591ZM331 431L229 494L237 506L341 449L331 431ZM187 355L190 482H205L208 355H187ZM54 449L158 506L166 494L64 431L54 449ZM64 609L166 546L158 534L54 591L64 609Z"  />
<glyph unicode="+" horiz-adv-x="500" d="M261 105H239V296H61V316H239V504H261V316H439V296H261V105Z"  />
<glyph unicode="&#x2c;" horiz-adv-x="158" d="M93 -43Q93 -78 82 -89T50 -101V-86Q65 -86 71 -77T77 -39V0H65V66H93V-43Z"  />
<glyph unicode="-" horiz-adv-x="341" d="M284 243H57V263H284V243Z"  />
<glyph unicode="." horiz-adv-x="156" d="M91 0H65V66H91V0Z"  />
<glyph unicode="/" horiz-adv-x="381" d="M71 -8H49L311 688H333L71 -8Z"  />
<glyph unicode="0" horiz-adv-x="594" d="M305 15Q371 15 412 22T475 61T504 156T512 332V348Q512 460 505 523T475 618T412 657T305 665H289Q223 665 182 658T119 619T90 524T82 348V332Q82 220 89 157T119 62T182 23T289 15H305ZM289 -5Q218 -5 173 3T103 46T69 147T60 330V350Q60 466 69 533T103 633T173 676T289 685H305Q376 685 421 676T491 634T525 533T534 350V330Q534 214 525 147T491 46T421 4T305 -5H289Z"  />
<glyph unicode="1" horiz-adv-x="330" d="M222 0H200V658H197L38 463L21 476L187 680H222V0Z"  />
<glyph unicode="2" horiz-adv-x="572" d="M521 0H62V73Q62 145 70 187T104 253T175 287T295 307Q358 314 397 324T458 354T487 406T495 489V506Q495 557 488 588T460 636T402 659T303 665H290Q229 665 192 660T134 635T106 581T99 485V465H77V485Q77 548 85 587T116 648T181 677T290 685H303Q369 685 410 678T476 651T508 596T517 506V489Q517 431 507 395T470 337T401 304T293 286Q221 278 180 268T117 236T90 176T84 71V20H521V0Z"  />
<glyph unicode="3" horiz-adv-x="583" d="M529 178Q529 118 519 82T483 27T412 1T298 -5H278Q208 -5 166 2T101 32T71 93T63 196V214H85V196Q85 136 91 100T118 45T176 21T278 15H298Q363 15 403 20T467 42T498 91T507 178V194Q507 240 500 269T477 313T435 334T372 340H222V360H362Q402 360 427 365T468 384T489 424T495 489V506Q495 557 488 588T461 636T402 659T300 665H286Q226 665 189 660T131 635T104 581T97 485V465H75V485Q75 548 83 587T114 648T178 677T286 685H300Q369 685 412 678T478 651T509 596T517 506V489Q517 454 513 431T500 391T477 366T441 352V351Q462 347 478 339T505 313T523 267T529 195V178Z"  />
<glyph unicode="4" horiz-adv-x="595" d="M461 0H439V171H51V198L422 680H461V191H544V171H461V0ZM439 191V662H435L76 194V191H439Z"  />
<glyph unicode="5" horiz-adv-x="588" d="M281 -5Q211 -5 169 2T103 30T73 89T65 190V206H87V190Q87 131 93 97T121 44T180 21T281 15H300Q366 15 408 20T473 45T504 102T513 201V222Q513 286 508 325T482 384T424 411T322 418H302Q255 418 221 416T163 407T123 388T97 355H75V680H521V660H97V382H98Q113 414 160 426T302 438H322Q393 438 435 430T499 399T528 334T535 223V201Q535 135 526 95T490 32T418 3T300 -5H281Z"  />
<glyph unicode="6" horiz-adv-x="586" d="M286 -5Q211 -5 166 3T98 37T68 110T61 234V348Q61 463 69 530T102 632T172 675T293 685H307Q371 685 412 678T477 651T509 595T518 500V479H496V500Q496 554 489 586T461 636T403 659T307 665H293Q247 665 214 662T158 649T120 620T97 567T86 485T83 367V311H84Q92 330 105 344T142 367T200 380T286 385H301Q370 385 414 379T484 354T519 297T529 197V178Q529 121 520 85T486 29T416 2T301 -5H286ZM301 15Q367 15 407 21T470 44T499 94T507 178V196Q507 251 500 284T470 335T407 359T301 365H286Q232 365 194 359T131 339T95 299T83 234V218Q83 150 90 110T119 49T180 22T286 15H301Z"  />
<glyph unicode="7" horiz-adv-x="562" d="M164 0H138L499 658V660H41V680H522V657L164 0Z"  />
<glyph unicode="8" horiz-adv-x="587" d="M303 366Q366 366 404 370T462 390T489 433T495 511V523Q495 568 488 596T459 639T401 660T304 665H283Q223 665 186 660T128 640T100 596T92 523V511Q92 463 98 434T124 390T183 371T284 366H303ZM303 15Q366 15 406 19T468 40T498 88T506 173V183Q506 238 498 270T468 319T406 341T303 346H284Q221 346 182 341T120 319T89 270T81 183V173Q81 120 89 89T120 42T182 20T284 15H303ZM284 -5Q215 -5 172 1T103 26T69 80T59 173V183Q59 237 66 269T87 320T121 345T166 355V357Q141 360 123 367T93 390T76 435T70 511V523Q70 575 79 607T113 656T178 679T283 685H304Q368 685 409 679T475 656T508 607T517 523V511Q517 464 512 436T494 391T464 367T421 357V355Q446 352 466 345T499 320T520 270T528 183V173Q528 115 519 80T484 26T416 1T303 -5H284Z"  />
<glyph unicode="9" horiz-adv-x="586" d="M274 -5Q209 -5 168 2T104 29T71 85T62 180V201H84V180Q84 126 91 94T119 44T177 21T274 15H288Q335 15 369 18T427 31T465 60T488 113T499 195T502 313V369H501Q493 350 481 336T445 313T387 300T300 295H284Q215 295 171 300T101 325T66 382T56 483V502Q56 559 65 595T99 651T169 678T284 685H300Q375 685 419 677T487 643T517 570T524 446V332Q524 255 521 200T509 108T484 48T441 14T377 -1T288 -5H274ZM300 315Q354 315 392 321T454 341T490 381T502 446V462Q502 530 495 570T467 631T405 658T300 665H284Q218 665 178 659T116 636T86 586T78 502V484Q78 429 85 396T115 345T178 321T284 315H300Z"  />
<glyph unicode=":" horiz-adv-x="168" d="M97 414H71V480H97V414ZM97 0H71V66H97V0Z"  />
<glyph unicode=";" horiz-adv-x="170" d="M99 -43Q99 -78 88 -89T56 -101V-86Q71 -86 77 -77T83 -39V0H71V66H99V-43ZM98 414H72V480H98V414Z"  />
<glyph unicode="&lt;" horiz-adv-x="500" d="M439 107L61 293V317L439 502V480L80 305V304L439 130V107Z"  />
<glyph unicode="=" horiz-adv-x="500" d="M439 379H61V399H439V379ZM439 209H61V229H439V209Z"  />
<glyph unicode="&gt;" horiz-adv-x="500" d="M439 293L61 107V130L420 304V305L61 480V502L439 317V293Z"  />
<glyph unicode="?" horiz-adv-x="514" d="M233 192H212V206Q212 231 216 248T231 278T260 298T308 312Q351 321 378 331T419 361T439 410T444 489V506Q444 555 439 586T415 635T363 658T272 665H257Q197 665 161 659T106 635T80 582T74 492V467H52V492Q52 553 60 591T91 650T154 678T257 685H272Q335 685 373 677T432 649T459 594T466 506V489Q466 437 460 404T437 349T390 315T314 293Q289 288 274 282T249 267T237 243T233 209V192ZM236 0H210V66H236V0Z"  />
<glyph unicode="@" horiz-adv-x="804" d="M413 83Q453 83 478 89T518 115T538 171T543 266V279Q543 331 537 366T516 422T476 452T412 461H394Q350 461 325 455T285 430T267 375T263 279V266Q263 205 267 169T285 113T325 89T395 83H413ZM720 4Q720 -28 709 -49T666 -84T577 -102T428 -108H399Q328 -108 276 -105T188 -91T128 -57T92 2T74 95T69 230V290Q69 368 74 423T92 516T127 576T185 611T271 626T389 630H416Q522 630 585 621T681 579T725 479T735 300V250Q735 191 732 157T717 103T685 79T632 73Q586 73 568 85T545 133H543Q538 117 530 104T507 82T469 68T413 63H395Q347 63 317 69T270 96T247 157T241 266V279Q241 345 247 385T270 446T317 474T394 481H412Q444 481 465 478T502 466T526 444T541 407H543V473H565V173Q565 146 568 131T580 107T600 96T632 93Q659 93 675 97T700 116T710 164T713 254V296Q713 369 710 421T695 508T664 563T612 593T531 607T417 610H389Q324 610 276 607T195 592T142 559T110 502T95 413T91 286V234Q91 159 95 106T110 17T143 -40T198 -71T281 -85T399 -88H427Q517 -88 571 -83T653 -68T690 -40T699 4V14H720V4Z"  />
<glyph unicode="A" horiz-adv-x="571" d="M562 0H540L477 168H95L31 0H9L272 680H308L562 0ZM469 188L293 662H286L103 188H469Z"  />
<glyph unicode="B" horiz-adv-x="604" d="M78 0V680H338Q394 680 431 674T491 650T523 599T533 512Q533 472 528 445T511 399T483 371T444 356V355Q473 351 493 340T527 309T547 258T554 182Q554 126 544 91T511 35T448 8T350 0H78ZM351 20Q407 20 442 26T498 51T525 100T532 182Q532 231 524 263T498 313T454 338T393 345H100V20H351ZM387 365Q420 365 443 370T482 392T504 437T511 512Q511 559 503 588T476 633T422 654T336 660H100V365H387Z"  />
<glyph unicode="C" horiz-adv-x="632" d="M316 -5Q263 -5 223 -2T155 13T108 47T79 106T64 198T60 330V350Q60 462 70 528T107 630T185 675T316 685H333Q406 685 452 678T524 651T559 596T569 506V494H547V506Q547 555 540 586T509 634T444 658T333 665H316Q242 665 196 657T125 617T91 522T82 348V332Q82 221 90 158T124 63T195 23T316 15H333Q402 15 445 20T512 42T544 90T552 175V185H574V175Q574 118 564 83T528 28T454 2T334 -5H316Z"  />
<glyph unicode="D" horiz-adv-x="667" d="M603 329Q603 220 593 155T554 56T471 11T332 0H78V680H332Q417 680 470 670T552 626T592 527T603 350V329ZM332 20Q413 20 462 29T537 69T572 163T581 331V348Q581 455 572 517T535 611T460 651T332 660H100V20H332Z"  />
<glyph unicode="E" horiz-adv-x="526" d="M484 0H78V680H484V660H100V365H466V345H100V20H484V0Z"  />
<glyph unicode="F" horiz-adv-x="510" d="M100 0H78V680H484V660H100V355H466V335H100V0Z"  />
<glyph unicode="G" horiz-adv-x="634" d="M312 -5Q233 -5 184 4T108 48T70 148T60 329V350Q60 426 64 480T78 571T107 631T154 665T222 681T316 685H333Q407 685 453 678T524 650T559 596T568 506V494H546V506Q546 554 539 585T509 634T444 658T333 665H316Q241 665 195 657T124 617T91 522T82 348V331Q82 221 90 158T123 63T193 23T312 15H329Q402 15 446 21T513 46T544 101T552 200V294H293V314H574V201Q574 135 564 95T527 32T453 3T329 -5H312Z"  />
<glyph unicode="H" horiz-adv-x="660" d="M582 0H560V347H100V0H78V680H100V367H560V680H582V0Z"  />
<glyph unicode="I" horiz-adv-x="178" d="M100 0H78V680H100V0Z"  />
<glyph unicode="J" horiz-adv-x="493" d="M199 -5Q142 -5 108 1T54 28T29 87T22 191V201H44V191Q44 132 49 98T70 45T116 21T199 15H216Q277 15 313 21T368 50T392 115T398 230V680H420V230Q420 154 413 108T385 36T323 3T216 -5H199Z"  />
<glyph unicode="K" horiz-adv-x="580" d="M576 0H542L185 336H100V0H78V680H100V356H185L528 680H559L203 347L576 0Z"  />
<glyph unicode="L" horiz-adv-x="468" d="M462 0H78V680H100V20H462V0Z"  />
<glyph unicode="M" horiz-adv-x="828" d="M750 0H728V662H726L433 0H399L102 662H100V0H78V680H118L415 20H418L710 680H750V0Z"  />
<glyph unicode="N" horiz-adv-x="673" d="M595 0H555L103 661H100V0H78V680H118L570 19H573V680H595V0Z"  />
<glyph unicode="O" horiz-adv-x="657" d="M320 -5Q239 -5 189 4T110 48T71 149T60 330V350Q60 464 70 530T109 631T188 675T320 685H337Q418 685 468 676T547 632T586 531T597 350V330Q597 216 587 150T548 49T469 5T337 -5H320ZM337 15Q412 15 459 23T531 63T566 158T575 332V348Q575 458 566 521T532 617T459 657T337 665H320Q245 665 198 657T126 617T91 522T82 348V332Q82 222 91 159T125 63T198 23T320 15H337Z"  />
<glyph unicode="P" horiz-adv-x="593" d="M320 321Q390 321 432 326T495 349T523 398T530 482V499Q530 552 524 584T496 633T433 655T320 660H100V321H320ZM100 0H78V680H326Q399 680 443 674T512 649T544 594T552 498V483Q552 425 544 389T511 334T442 308T326 301H100V0Z"  />
<glyph unicode="Q" horiz-adv-x="656" d="M320 -5Q239 -5 189 4T110 48T71 149T60 330V350Q60 464 70 530T109 631T188 675T320 685H337Q418 685 468 676T547 632T586 531T597 350V330Q597 236 590 176T566 77L625 24L612 9L556 59Q528 18 476 7T337 -5H320ZM337 15Q378 15 410 17T466 25T509 42T539 74L353 244L367 258L549 93Q564 128 569 185T575 332V348Q575 458 566 521T532 617T459 657T337 665H320Q245 665 198 657T126 617T91 522T82 348V332Q82 222 91 159T125 63T198 23T320 15H337Z"  />
<glyph unicode="R" horiz-adv-x="615" d="M393 325Q466 325 495 358T524 468V492Q524 548 517 581T490 631T434 654T338 660H100V325H393ZM544 0H522V90Q522 162 518 205T498 270T451 298T366 305H100V0H78V680H342Q405 680 444 674T506 647T537 590T546 493V467Q546 427 540 401T521 357T492 330T452 316V315Q479 310 496 300T524 269T539 215T544 130V0Z"  />
<glyph unicode="S" horiz-adv-x="593" d="M533 179Q533 122 524 86T489 30T418 2T300 -5H281Q211 -5 168 1T102 28T70 87T62 187V211H84V187Q84 132 90 98T117 46T177 21T281 15H300Q366 15 407 20T472 43T503 93T511 179V193Q511 236 504 262T475 304T410 327T298 340Q229 344 186 351T118 375T84 420T75 493V510Q75 562 84 596T118 650T184 677T290 685H303Q369 685 410 678T476 649T509 591T518 494V478H496V493Q496 548 488 581T459 633T401 658T303 665H290Q230 665 193 659T134 635T105 587T97 510V494Q97 456 103 432T132 394T195 372T304 360Q378 355 423 347T492 320T525 272T533 193V179Z"  />
<glyph unicode="T" horiz-adv-x="509" d="M265 0H243V660H6V680H503V660H265V0Z"  />
<glyph unicode="U" horiz-adv-x="648" d="M316 -5Q242 -5 195 1T121 30T84 96T73 212V680H95V212Q95 146 104 107T137 47T203 21T312 15H333Q400 15 442 20T509 46T543 106T553 212V680H575V212Q575 140 565 97T526 32T451 2T329 -5H316Z"  />
<glyph unicode="V" horiz-adv-x="563" d="M300 0H266L9 680H32L282 19H285L531 680H554L300 0Z"  />
<glyph unicode="W" horiz-adv-x="892" d="M677 0H642L447 662H446L250 0H216L12 680H34L232 19H234L430 680H463L659 19H661L858 680H880L677 0Z"  />
<glyph unicode="X" horiz-adv-x="586" d="M566 0H539L293 346L47 0H20L277 359L45 680H73L293 372L514 680H541L308 359L566 0Z"  />
<glyph unicode="Y" horiz-adv-x="561" d="M290 0H268V252L6 680H32L279 275H281L529 680H555L290 252V0Z"  />
<glyph unicode="Z" horiz-adv-x="571" d="M531 0H41V20L505 659V660H60V680H528V657L67 21V20H531V0Z"  />
<glyph unicode="[" horiz-adv-x="260" d="M194 -8H72V688H194V668H94V12H194V-8Z"  />
<glyph unicode="\" horiz-adv-x="429" d="M333 -8H311L49 688H71L333 -8Z"  />
<glyph unicode="]" horiz-adv-x="260" d="M188 -8H66V12H166V668H66V688H188V-8Z"  />
<glyph unicode="^" horiz-adv-x="500" d="M450 302H428L251 663H250L72 302H50L237 680H263L450 302Z"  />
<glyph unicode="_" horiz-adv-x="392" d="M392 -113H0V-94H392V-113Z"  />
<glyph unicode="`" horiz-adv-x="352" d="M223 564L103 686L120 699L235 574L223 564Z"  />
<glyph unicode="a" horiz-adv-x="473" d="M407 0H385V59H384Q367 24 333 10T233 -5H223Q172 -5 140 0T88 21T62 65T54 137V143Q54 186 62 213T89 257T138 278T213 284H223Q262 284 289 282T334 273T364 257T383 231H385V255Q385 328 381 370T361 433T316 459T235 465H225Q183 465 157 460T117 443T97 408T91 350V340H69V351Q69 393 77 419T103 459T151 479T225 485H235Q292 485 326 479T378 449T401 381T407 261V0ZM233 15Q273 15 301 20T348 38T376 75T385 137V142Q385 182 377 206T351 243T301 260T225 264H214Q173 264 147 260T104 242T82 205T76 142V138Q76 99 82 75T104 38T149 20T223 15H233Z"  />
<glyph unicode="b" horiz-adv-x="508" d="M261 -5Q222 -5 194 -1T147 13T117 39T98 80H96V0H74V680H96V402H98Q105 426 117 441T148 467T195 481T261 485H273Q327 485 361 477T416 443T445 370T453 247V234Q453 158 445 111T417 39T362 4T273 -5H261ZM273 15Q322 15 353 22T401 53T425 120T431 234V247Q431 318 425 361T402 427T353 457T273 465H261Q212 465 180 458T130 429T104 370T96 271V210Q96 152 103 115T128 55T178 24T261 15H273Z"  />
<glyph unicode="c" horiz-adv-x="484" d="M244 -5Q186 -5 149 3T91 37T63 110T55 234V247Q55 326 63 373T92 445T150 477T244 485H256Q308 485 341 479T393 456T420 408T428 329V322H406V329Q406 371 401 397T379 439T333 459T256 465H244Q191 465 158 458T107 429T83 363T77 247V234Q77 162 83 119T108 53T158 22T244 15H256Q303 15 333 21T380 42T403 85T409 155V165H431V155Q431 107 423 76T394 27T340 2T256 -5H244Z"  />
<glyph unicode="d" horiz-adv-x="508" d="M434 0H412V80H410Q404 56 393 40T362 14T314 0T247 -5H235Q181 -5 147 4T92 38T63 111T55 234V247Q55 324 63 371T92 443T147 477T235 485H247Q285 485 313 481T360 467T391 442T410 402H412V680H434V0ZM247 15Q296 15 328 22T379 51T405 111T412 210V271Q412 329 405 366T380 426T329 456T247 465H235Q187 465 157 458T108 427T84 361T77 247V234Q77 164 83 121T107 55T155 23T235 15H247Z"  />
<glyph unicode="e" horiz-adv-x="482" d="M243 -5Q184 -5 148 3T91 36T63 108T55 234V246Q55 324 63 371T91 443T148 477T241 485H254Q307 485 340 477T393 448T419 390T426 292V250H77V235Q77 161 83 118T106 52T156 22T243 15H255Q302 15 331 20T378 41T401 84T407 155V165H429V155Q429 107 421 76T392 27T339 2T255 -5H243ZM404 270V292Q404 347 399 381T377 433T331 458T254 465H241Q189 465 158 458T108 430T84 371T77 270H404Z"  />
<glyph unicode="f" horiz-adv-x="206" d="M99 0H77V460H15V480H77V529Q77 574 82 604T101 652T136 677T191 685Q201 685 214 684T236 681V662Q215 665 191 665Q163 665 146 660T118 640T103 599T99 529V480H215V460H99V0Z"  />
<glyph unicode="g" horiz-adv-x="504" d="M227 -178Q177 -178 145 -172T94 -149T68 -105T60 -34V-23H80V-34Q80 -70 85 -94T107 -132T151 -152T227 -158H242Q297 -158 330 -153T381 -128T404 -72T410 29V106H409Q401 84 390 69T360 43T312 29T241 24H229Q177 24 143 33T89 66T61 132T53 242V256Q53 329 61 373T89 443T144 476T230 485H242Q282 485 310 481T358 467T389 441T409 402H410V480H432V30Q432 -38 425 -79T397 -142T339 -171T242 -178H227ZM241 44Q294 44 327 52T378 83T403 143T410 242V256Q410 321 403 361T378 425T327 456T242 465H230Q183 465 153 458T106 428T82 365T75 256V242Q75 180 81 141T105 81T152 52T229 44H241Z"  />
<glyph unicode="h" horiz-adv-x="510" d="M441 0H419V290Q419 346 414 380T392 433T348 458T273 465H262Q220 465 189 458T138 432T107 379T96 291V0H74V680H96V394H97Q104 416 114 433T144 461T191 479T262 485H273Q323 485 355 478T407 452T433 399T441 309V0Z"  />
<glyph unicode="i" horiz-adv-x="170" d="M96 0H74V480H96V0ZM97 615H73V680H97V615Z"  />
<glyph unicode="j" horiz-adv-x="170" d="M96 -56Q96 -89 93 -111T83 -147T64 -166T32 -172Q27 -172 21 -172T8 -170V-152Q15 -154 19 -154T29 -154Q43 -154 51 -150T65 -136T72 -106T74 -56V480H96V-56ZM97 615H73V680H97V615Z"  />
<glyph unicode="k" horiz-adv-x="420" d="M414 0H382L124 249H96V0H74V680H96V268H127L356 480H386L143 258L414 0Z"  />
<glyph unicode="l" horiz-adv-x="170" d="M96 0H74V680H96V0Z"  />
<glyph unicode="m" horiz-adv-x="801" d="M732 0H710V290Q710 347 705 381T686 434T645 459T575 465H564Q528 465 501 458T454 432T424 377T414 286V0H392V290Q392 348 386 382T365 435T324 459T258 465H247Q211 465 183 458T136 431T106 378T96 291V0H74V480H96V394H97Q110 441 145 463T247 485H258Q299 485 326 480T370 462T395 431T408 384H409Q414 406 424 424T452 456T497 477T564 485H575Q623 485 653 478T701 451T725 397T732 311V0Z"  />
<glyph unicode="n" horiz-adv-x="510" d="M441 0H419V290Q419 346 414 380T392 433T348 458T273 465H262Q220 465 189 458T138 432T107 379T96 291V0H74V480H96V394H97Q104 416 114 433T144 461T191 479T262 485H273Q323 485 355 478T407 452T433 399T441 309V0Z"  />
<glyph unicode="o" horiz-adv-x="501" d="M245 -5Q188 -5 151 3T93 37T64 109T55 233V247Q55 323 63 370T93 442T151 476T245 485H256Q313 485 350 477T408 443T437 370T446 247V233Q446 156 438 110T408 38T350 4T256 -5H245ZM256 15Q309 15 342 22T393 53T417 119T424 233V247Q424 318 418 361T393 427T342 457T256 465H245Q192 465 159 458T108 427T84 361T77 247V233Q77 162 83 119T108 53T159 23T245 15H256Z"  />
<glyph unicode="p" horiz-adv-x="508" d="M96 -170H74V480H96V401H98Q104 424 115 440T146 466T193 480T261 485H273Q327 485 361 477T416 443T445 370T453 247V234Q453 157 445 111T417 38T362 4T273 -5H261Q224 -5 197 -1T150 12T118 38T98 79H96V-170ZM273 15Q322 15 353 22T401 53T425 120T431 234V247Q431 318 425 361T401 427T353 457T273 465H261Q211 465 180 458T129 429T103 370T96 271V210Q96 152 103 114T128 54T179 24T261 15H273Z"  />
<glyph unicode="q" horiz-adv-x="508" d="M434 -170H412V79H410Q403 55 391 39T360 13T313 -1T247 -5H235Q181 -5 147 3T92 38T63 110T55 234V247Q55 324 63 370T92 442T147 476T235 485H247Q287 485 315 481T362 466T392 440T410 401H412V480H434V-170ZM247 15Q296 15 328 22T378 51T404 111T412 210V271Q412 329 405 366T380 426T329 456T247 465H235Q187 465 157 458T108 428T84 362T77 247V234Q77 164 83 121T106 55T154 23T235 15H247Z"  />
<glyph unicode="r" horiz-adv-x="409" d="M96 0H74V480H96V394H97Q111 443 143 464T240 485H247Q292 485 319 479T362 456T382 414T387 347V322H365V343Q365 382 361 406T343 443T307 460T247 465H240Q207 465 181 458T136 430T107 374T96 279V0Z"  />
<glyph unicode="s" horiz-adv-x="471" d="M233 -5Q177 -5 142 0T88 20T61 62T54 134V144H76V135Q76 97 81 74T103 37T151 20T233 15H256Q300 15 327 20T370 38T390 72T396 125V135Q396 163 391 181T368 210T319 228T235 237Q182 241 149 247T98 267T73 300T66 350V363Q66 398 73 421T99 459T148 479T226 485H244Q293 485 324 480T374 459T399 418T406 349V339H384V349Q384 384 379 406T359 442T317 460T244 465H226Q183 465 156 461T114 445T94 414T88 364V350Q88 326 93 310T114 284T159 267T239 258Q295 254 330 247T384 227T411 191T418 136V125Q418 86 410 61T383 22T333 1T256 -5H233Z"  />
<glyph unicode="t" horiz-adv-x="368" d="M197 -5Q161 -5 138 0T103 24T86 79T81 179V460H12V480H81V605H103V480H335V460H103V177Q103 120 106 88T120 40T148 19T197 15H211Q244 15 264 20T294 41T308 87T312 166V220H333V165Q333 110 328 77T309 25T271 1T211 -5H197Z"  />
<glyph unicode="u" horiz-adv-x="506" d="M432 0H410V86H409Q402 64 392 47T362 19T315 1T244 -5H233Q182 -5 150 1T99 27T73 81T66 171V480H88V190Q88 133 93 99T113 46T156 21T233 15H244Q286 15 317 22T368 48T399 101T410 189V480H432V0Z"  />
<glyph unicode="v" horiz-adv-x="430" d="M228 0H198L12 480H36L213 18H214L395 480H418L228 0Z"  />
<glyph unicode="w" horiz-adv-x="679" d="M509 0H478L341 463H339L201 0H170L22 480H45L184 19H187L325 480H355L493 19H495L635 480H657L509 0Z"  />
<glyph unicode="x" horiz-adv-x="424" d="M412 0H384L212 227L39 0H12L198 245L24 480H51L212 262L375 480H402L226 245L412 0Z"  />
<glyph unicode="y" horiz-adv-x="423" d="M47 -151Q55 -152 66 -152T86 -152Q108 -152 124 -148T154 -128T182 -81T217 4H205L12 480H37L221 22H223L388 480H411L259 54Q232 -23 213 -68T175 -136T137 -165T86 -172Q76 -172 66 -172T47 -171V-151Z"  />
<glyph unicode="z" horiz-adv-x="382" d="M356 0H28V23L334 459V460H39V480H358V460L51 21V20H356V0Z"  />
<glyph unicode="{" horiz-adv-x="259" d="M204 -8H184Q158 -8 141 -3T115 15T101 51T97 111V229Q97 252 95 271T86 305T67 327T33 335V351Q54 351 66 359T85 381T94 414T97 457V569Q97 606 101 629T114 665T141 683T184 688H204V669H179Q160 669 148 665T130 651T121 620T118 569V460Q118 406 106 378T55 344V342Q94 336 106 308T118 226V111Q118 79 120 60T129 30T148 15T179 11H204V-8Z"  />
<glyph unicode="|" horiz-adv-x="268" d="M145 -70H123V750H145V-70Z"  />
<glyph unicode="}" horiz-adv-x="260" d="M56 -8V11H81Q100 11 111 15T130 29T139 59T142 111V226Q142 280 154 308T205 342V344Q166 350 154 378T142 460V569Q142 600 140 620T130 650T112 665T81 669H56V688H76Q102 688 119 683T145 665T159 629T163 569V457Q163 434 165 415T174 381T193 359T227 351V335Q206 335 194 327T175 305T166 272T163 229V111Q163 74 159 51T146 15T119 -3T76 -8H56Z"  />
<glyph unicode="~" horiz-adv-x="500" d="M436 342Q416 297 393 278T336 259Q308 259 286 270T244 296Q224 310 205 320T162 330Q133 330 116 312T82 259L64 267Q84 313 108 331T164 350Q192 350 213 339T255 314Q275 300 294 290T338 279Q367 279 384 297T418 350L436 342Z"  />
<glyph unicode="&#xA0;" horiz-adv-x="246" />
<glyph unicode="&#xA1;" horiz-adv-x="190" d="M108 414H82V480H108V414ZM105 -200H85V335H105V-200Z"  />
<glyph unicode="&#xA2;" horiz-adv-x="512" d="M270 -42H248V83Q191 83 155 91T98 125T71 197T63 322V334Q63 413 70 460T98 532T154 565T248 573V680H270V573Q323 573 357 568T412 547T440 502T448 423V410H426V422Q426 464 420 490T398 530T350 548T270 553V103Q320 103 351 108T399 129T423 172T429 243V253H451V242Q451 192 443 161T413 113T357 90T270 83V-42ZM85 321Q85 249 91 206T114 141T164 111T248 103V553Q195 553 163 546T114 517T91 451T85 335V321Z"  />
<glyph unicode="&#xA3;" horiz-adv-x="595" d="M541 0H65V24Q87 34 101 49T124 95T136 178T139 313H55V333H139V352Q139 463 145 529T172 629T231 674T333 685H347Q400 685 434 679T488 653T515 601T523 514V500H501V514Q501 561 495 590T473 636T426 659T347 665H333Q275 665 241 656T189 615T166 520T161 348V333H400V313H161Q161 226 158 174T146 91T125 46T94 22V20H541V0Z"  />
<glyph unicode="&#xA4;" horiz-adv-x="569" d="M478 119L403 194Q380 174 351 164T286 153Q215 153 167 196L91 119L76 135L152 211Q113 258 113 327Q113 362 123 390T151 441L76 516L91 531L165 457Q188 477 218 489T286 501Q322 501 352 490T405 458L478 531L493 516L420 443Q459 396 459 327Q459 292 449 262T419 209L493 135L478 119ZM286 172Q321 172 349 184T397 216T427 265T438 327Q438 360 428 388T397 437T349 470T286 482Q251 482 223 470T175 438T145 389T134 327Q134 294 144 266T175 217T223 184T286 172Z"  />
<glyph unicode="&#xA5;" horiz-adv-x="597" d="M311 258V249H522V229H310V0H288V229H75V249H286V258L216 379H75V399H204L42 680H68L299 278H300L529 680H555L392 399H522V379H381L311 258Z"  />
<glyph unicode="&#xA6;" horiz-adv-x="268" d="M145 427H123V750H145V427ZM145 -70H123V259H145V-70Z"  />
<glyph unicode="&#xA7;" horiz-adv-x="587" d="M521 -41Q521 -83 513 -110T481 -153T415 -176T304 -183H285Q213 -183 169 -177T101 -153T69 -105T61 -26V-11H83V-26Q83 -68 90 -94T118 -136T179 -157T285 -163H304Q368 -163 406 -158T465 -139T492 -101T499 -41V-25Q499 9 493 32T467 70T410 91T311 97H278Q213 97 174 104T112 130T82 177T74 250V265Q74 300 79 324T98 365T133 389T188 402V403Q152 406 130 415T96 439T79 475T74 526V540Q74 584 83 612T115 656T180 679T287 685H300Q370 685 414 679T483 656T516 606T525 520V504H503V519Q503 567 496 596T466 640T404 660T300 665H287Q227 665 190 660T132 641T104 603T96 540V527Q96 497 101 476T125 441T179 421T275 414H307Q374 414 416 407T481 383T512 337T521 262V248Q521 214 517 189T500 148T467 122T412 109V108Q445 104 466 95T499 69T516 29T521 -25V-41ZM304 117Q368 117 407 122T466 142T492 182T499 248V262Q499 300 493 325T467 366T408 387T307 394H291Q228 394 190 388T130 366T103 327T96 265V250Q96 214 102 189T127 147T182 124T278 117H304Z"  />
<glyph unicode="&#xA8;" horiz-adv-x="352" d="M124 615H100V680H124V615ZM251 615H227V680H251V615Z"  />
<glyph unicode="&#xA9;" horiz-adv-x="808" d="M406 141Q357 141 327 147T279 173T255 233T249 338V350Q249 415 255 453T279 512T325 539T402 545H415Q457 545 485 541T529 524T551 486T558 420V408H536V418Q536 452 532 473T514 505T477 521T415 525H402Q360 525 334 520T294 496T276 443T271 350V338Q271 278 275 243T294 190T334 167T406 161H420Q457 161 480 166T516 184T534 219T539 274V284H561V273Q561 232 554 207T530 167T486 147T420 141H406ZM418 15Q483 15 531 18T612 33T665 65T697 122T712 209T716 334V346Q716 419 712 471T697 558T666 614T612 647T531 661T418 665H390Q292 665 233 656T143 615T103 519T93 346V334Q93 225 102 162T143 66T233 24T390 15H418ZM390 -5Q287 -5 225 5T128 49T83 150T71 330V350Q71 463 82 529T128 630T224 675T390 685H418Q521 685 583 675T680 631T726 530T738 350V330Q738 217 727 151T681 50T584 5T418 -5H390Z"  />
<glyph unicode="&#xAA;" horiz-adv-x="339" d="M166 394Q221 394 242 408T263 465V470Q263 508 243 522T164 537H152Q127 537 111 534T86 524T74 503T70 469V463Q70 442 73 429T86 408T112 397T155 394H166ZM282 379H263V413H262Q251 392 231 384T166 376H155Q123 376 103 380T72 394T56 421T51 464V470Q51 522 74 538T152 555H164Q189 555 206 553T233 547T250 536T262 520H263V540Q263 581 260 605T248 642T222 658T176 662H166Q139 662 122 659T95 649T82 630T78 600V591H59V601Q59 647 83 663T166 680H176Q210 680 230 676T262 656T278 614T282 541V379Z"  />
<glyph unicode="&#xAB;" horiz-adv-x="335" d="M172 81L155 71L42 271L155 472L172 462L64 271L172 81ZM294 81L277 71L164 271L277 472L294 462L186 271L294 81Z"  />
<glyph unicode="&#xAC;" horiz-adv-x="500" d="M439 187H417V378H61V398H439V187Z"  />
<glyph unicode="&#xAD;" horiz-adv-x="341" d="M284 243H57V263H284V243Z"  />
<glyph unicode="&#xAE;" horiz-adv-x="543" d="M295 472Q323 472 334 483T346 518V526Q346 560 335 570T289 580H205V472H295ZM366 350H346V384Q346 408 344 422T335 443T315 452T281 454H205V350H185V597H296Q334 597 350 585T366 528V519Q366 491 355 480T331 465V464Q349 460 357 448T366 399V350ZM279 286Q337 286 372 292T427 317T453 372T460 469V479Q460 540 454 576T428 631T373 656T279 662H263Q205 662 170 656T115 631T89 576T82 479V469Q82 409 88 373T114 317T169 292T263 286H279ZM263 267Q203 267 164 273T102 301T70 363T61 469V479Q61 546 70 586T101 647T163 674T263 681H279Q339 681 378 675T440 647T472 586T481 479V469Q481 403 472 363T441 302T379 274T279 267H263Z"  />
<glyph unicode="&#xAF;" horiz-adv-x="352" d="M261 633H94V653H261V633Z"  />
<glyph unicode="&#xB0;" horiz-adv-x="321" d="M160 470Q111 470 79 502T47 584Q47 633 79 665T160 697Q210 697 242 665T274 584Q274 534 242 502T160 470ZM160 490Q201 490 226 516T252 583Q252 624 227 650T160 677Q120 677 95 651T69 583Q69 543 94 517T160 490Z"  />
<glyph unicode="&#xB1;" horiz-adv-x="500" d="M439 35H61V55H439V35ZM439 317H260V141H238V317H61V337H238V515H260V337H439V317Z"  />
<glyph unicode="&#xB2;" horiz-adv-x="360" d="M326 453H43V492Q43 531 48 554T68 591T112 611T187 623Q223 627 245 632T281 648T299 675T304 718V727Q304 752 300 768T284 793T249 806T191 810H182Q148 810 127 807T93 794T77 767T72 723V707H52V723Q52 754 58 774T79 807T119 823T182 828H191Q232 828 258 823T298 807T318 776T324 727V718Q324 686 317 666T294 634T251 616T186 605Q144 600 120 595T83 578T67 546T63 491V471H326V453Z"  />
<glyph unicode="&#xB3;" horiz-adv-x="366" d="M180 450Q136 450 109 454T66 471T46 504T40 561V573H60V561Q60 531 64 513T80 485T117 472T180 468H191Q230 468 253 471T288 484T305 510T309 550V559Q309 604 292 620T227 637H140V655H227Q270 655 285 670T300 723V733Q300 757 296 772T279 795T245 807T191 810H183Q147 810 125 807T90 795T74 770T69 725V705H49V725Q49 757 54 777T75 808T116 824T183 828H191Q230 828 255 824T294 808T314 779T320 733V723Q320 688 310 671T275 647V646Q287 644 297 639T314 625T325 600T329 560V550Q329 520 323 501T302 470T260 455T191 450H180Z"  />
<glyph unicode="&#xB4;" horiz-adv-x="352" d="M136 564L124 574L239 699L256 686L136 564Z"  />
<glyph unicode="&#xB5;" horiz-adv-x="518" d="M443 0H421V85H420Q414 64 403 47T374 19T329 1T261 -5H250Q213 -5 187 -1T144 14T115 38T97 73H96V-186H74V480H96V194Q96 140 104 105T131 50T179 23T250 15H261Q302 15 332 22T382 49T411 102T421 189V480H443V0Z"  />
<glyph unicode="&#xB6;" horiz-adv-x="488" d="M413 -164H391V660H322V-164H300V300H258Q196 300 157 308T97 338T68 394T60 484V498Q60 556 68 591T102 646T172 673T289 680H413V-164Z"  />
<glyph unicode="&#xB7;" horiz-adv-x="156" d="M91 233H65V299H91V233Z"  />
<glyph unicode="&#xB8;" horiz-adv-x="278" d="M64 -146L51 -137L155 -6L172 -18L64 -146Z"  />
<glyph unicode="&#xB9;" horiz-adv-x="241" d="M152 453H132V800H130L32 680L17 692L124 825H152V453Z"  />
<glyph unicode="&#xBA;" horiz-adv-x="344" d="M177 394Q210 394 230 398T261 417T276 456T280 524V533Q280 574 277 599T262 639T230 657T177 662H167Q134 662 114 658T82 639T68 600T64 533V524Q64 482 67 457T82 418T113 399T167 394H177ZM167 376Q130 376 106 381T69 401T50 446T45 524V533Q45 581 50 610T68 654T106 675T167 680H177Q214 680 238 675T275 655T294 610T299 533V524Q299 476 294 447T276 402T238 381T177 376H167Z"  />
<glyph unicode="&#xBB;" horiz-adv-x="335" d="M58 71L41 81L149 271L41 462L58 472L171 271L58 71ZM180 71L163 81L271 271L163 462L180 472L293 271L180 71Z"  />
<glyph unicode="&#xBC;" horiz-adv-x="708" d="M213 0H191L443 680H465L213 0ZM195 308H175V655H173L75 535L60 547L167 680H195V308ZM615 0H595V89H359V112L583 372H615V107H660V89H615V0ZM595 107V354H593L382 109V107H595Z"  />
<glyph unicode="&#xBD;" horiz-adv-x="758" d="M213 0H191L443 680H465L213 0ZM195 308H175V655H173L75 535L60 547L167 680H195V308ZM701 0H418V39Q418 78 423 101T443 138T487 158T562 170Q598 174 620 179T656 195T674 222T679 265V274Q679 299 675 315T659 340T624 353T566 357H557Q523 357 502 354T468 341T452 314T447 270V254H427V270Q427 301 433 321T454 354T494 370T557 375H566Q607 375 633 370T673 354T693 323T699 274V265Q699 233 692 213T669 181T626 163T561 152Q519 147 495 142T458 125T442 93T438 38V18H701V0Z"  />
<glyph unicode="&#xBE;" horiz-adv-x="835" d="M340 0H318L570 680H592L340 0ZM742 0H722V89H486V112L710 372H742V107H787V89H742V0ZM722 107V354H720L509 109V107H722ZM206 305Q162 305 135 309T92 326T72 359T66 416V428H86V416Q86 386 90 368T106 340T143 327T206 323H217Q256 323 279 326T314 339T331 365T335 405V414Q335 459 318 475T253 492H166V510H253Q296 510 311 525T326 578V588Q326 612 322 627T305 650T271 662T217 665H209Q173 665 151 662T116 650T100 625T95 580V560H75V580Q75 612 80 632T101 663T142 679T209 683H217Q256 683 281 679T320 663T340 634T346 588V578Q346 543 336 526T301 502V501Q313 499 323 494T340 480T351 455T355 415V405Q355 375 349 356T328 325T286 310T217 305H206Z"  />
<glyph unicode="&#xBF;" horiz-adv-x="511" d="M281 288H302V274Q302 249 298 232T283 202T254 182T206 168Q162 159 136 149T95 119T75 70T70 -9V-26Q70 -76 75 -107T99 -155T151 -178T242 -185H257Q317 -185 353 -179T408 -155T434 -102T440 -12V13H462V-12Q462 -74 454 -111T423 -170T360 -198T257 -205H242Q179 -205 141 -197T82 -169T55 -114T48 -26V-9Q48 43 54 76T77 131T123 165T200 187Q225 192 240 198T265 213T277 237T281 271V288ZM278 480H304V414H278V480Z"  />
<glyph unicode="&#xC0;" horiz-adv-x="571" d="M562 0H540L477 168H95L31 0H9L272 680H308L562 0ZM469 188L293 662H286L103 188H469ZM292 741L147 828L160 844L301 752L292 741Z"  />
<glyph unicode="&#xC1;" horiz-adv-x="571" d="M562 0H540L477 168H95L31 0H9L272 680H308L562 0ZM469 188L293 662H286L103 188H469ZM430 827L285 740L275 752L416 843L430 827Z"  />
<glyph unicode="&#xC2;" horiz-adv-x="571" d="M562 0H540L477 168H95L31 0H9L272 680H308L562 0ZM469 188L293 662H286L103 188H469ZM388 746L291 824L194 746L182 758L291 849L400 758L388 746Z"  />
<glyph unicode="&#xC3;" horiz-adv-x="571" d="M562 0H540L477 168H95L31 0H9L272 680H308L562 0ZM469 188L293 662H286L103 188H469ZM400 827Q396 792 381 776T343 760Q326 760 312 768T283 789Q268 801 258 806T237 811Q221 811 211 801T196 759L180 762Q185 798 200 814T237 830Q254 830 266 823T295 803Q312 790 322 784T344 778Q361 778 370 789T384 830L400 827Z"  />
<glyph unicode="&#xC4;" horiz-adv-x="571" d="M562 0H540L477 168H95L31 0H9L272 680H308L562 0ZM469 188L293 662H286L103 188H469ZM239 755H215V820H239V755ZM366 755H342V820H366V755Z"  />
<glyph unicode="&#xC5;" horiz-adv-x="571" d="M562 0H540L477 168H95L31 0H9L272 680H308L562 0ZM469 188L293 662H286L103 188H469ZM287 723Q239 723 220 738T200 789V795Q200 830 219 845T287 861H293Q341 861 360 846T379 795V789Q379 754 360 739T293 723H287ZM293 740Q330 740 344 750T359 789V795Q359 823 345 833T293 844H287Q249 844 235 834T220 795V789Q220 761 234 751T287 740H293Z"  />
<glyph unicode="&#xC6;" horiz-adv-x="921" d="M879 0H473V168H131L30 0H6L411 680H879V660H495V365H861V345H495V20H879V0ZM473 188V660H425L143 188H473Z"  />
<glyph unicode="&#xC7;" horiz-adv-x="632" d="M316 -5Q263 -5 223 -2T155 13T108 47T79 106T64 198T60 330V350Q60 462 70 528T107 630T185 675T316 685H333Q406 685 452 678T524 651T559 596T569 506V494H547V506Q547 555 540 586T509 634T444 658T333 665H316Q242 665 196 657T125 617T91 522T82 348V332Q82 221 90 158T124 63T195 23T316 15H333Q402 15 445 20T512 42T544 90T552 175V185H574V175Q574 118 564 83T528 28T454 2T334 -5H316ZM252 -146L239 -137L343 -6L360 -18L252 -146Z"  />
<glyph unicode="&#xC8;" horiz-adv-x="526" d="M484 0H78V680H484V660H100V365H466V345H100V20H484V0ZM344 741L199 828L212 844L353 752L344 741Z"  />
<glyph unicode="&#xC9;" horiz-adv-x="526" d="M484 0H78V680H484V660H100V365H466V345H100V20H484V0ZM361 827L216 740L206 752L347 843L361 827Z"  />
<glyph unicode="&#xCA;" horiz-adv-x="526" d="M484 0H78V680H484V660H100V365H466V345H100V20H484V0ZM378 746L281 824L184 746L172 758L281 849L390 758L378 746Z"  />
<glyph unicode="&#xCB;" horiz-adv-x="526" d="M484 0H78V680H484V660H100V365H466V345H100V20H484V0ZM226 755H202V820H226V755ZM353 755H329V820H353V755Z"  />
<glyph unicode="&#xCC;" horiz-adv-x="178" d="M100 0H78V680H100V0ZM92 741L-53 828L-40 844L101 752L92 741Z"  />
<glyph unicode="&#xCD;" horiz-adv-x="178" d="M100 0H78V680H100V0ZM233 827L88 740L78 752L219 843L233 827Z"  />
<glyph unicode="&#xCE;" horiz-adv-x="178" d="M100 0H78V680H100V0ZM187 746L90 824L-7 746L-19 758L90 849L199 758L187 746Z"  />
<glyph unicode="&#xCF;" horiz-adv-x="178" d="M100 0H78V680H100V0ZM39 755H15V820H39V755ZM166 755H142V820H166V755Z"  />
<glyph unicode="&#xD0;" horiz-adv-x="667" d="M603 329Q603 220 593 155T554 56T471 11T332 0H78V345H23V365H78V680H332Q417 680 470 670T552 626T592 527T603 350V329ZM332 20Q413 20 462 29T537 69T572 163T581 331V348Q581 455 572 517T535 611T460 651T332 660H100V365H297V345H100V20H332Z"  />
<glyph unicode="&#xD1;" horiz-adv-x="673" d="M595 0H555L103 661H100V0H78V680H118L570 19H573V680H595V0ZM453 827Q449 792 434 776T396 760Q379 760 365 768T336 789Q321 801 311 806T290 811Q274 811 264 801T249 759L233 762Q238 798 253 814T290 830Q307 830 319 823T348 803Q365 790 375 784T397 778Q414 778 423 789T437 830L453 827Z"  />
<glyph unicode="&#xD2;" horiz-adv-x="657" d="M320 -5Q239 -5 189 4T110 48T71 149T60 330V350Q60 464 70 530T109 631T188 675T320 685H337Q418 685 468 676T547 632T586 531T597 350V330Q597 216 587 150T548 49T469 5T337 -5H320ZM337 15Q412 15 459 23T531 63T566 158T575 332V348Q575 458 566 521T532 617T459 657T337 665H320Q245 665 198 657T126 617T91 522T82 348V332Q82 222 91 159T125 63T198 23T320 15H337ZM395 741L250 828L263 844L404 752L395 741Z"  />
<glyph unicode="&#xD3;" horiz-adv-x="657" d="M320 -5Q239 -5 189 4T110 48T71 149T60 330V350Q60 464 70 530T109 631T188 675T320 685H337Q418 685 468 676T547 632T586 531T597 350V330Q597 216 587 150T548 49T469 5T337 -5H320ZM337 15Q412 15 459 23T531 63T566 158T575 332V348Q575 458 566 521T532 617T459 657T337 665H320Q245 665 198 657T126 617T91 522T82 348V332Q82 222 91 159T125 63T198 23T320 15H337ZM405 827L260 740L250 752L391 843L405 827Z"  />
<glyph unicode="&#xD4;" horiz-adv-x="657" d="M320 -5Q239 -5 189 4T110 48T71 149T60 330V350Q60 464 70 530T109 631T188 675T320 685H337Q418 685 468 676T547 632T586 531T597 350V330Q597 216 587 150T548 49T469 5T337 -5H320ZM337 15Q412 15 459 23T531 63T566 158T575 332V348Q575 458 566 521T532 617T459 657T337 665H320Q245 665 198 657T126 617T91 522T82 348V332Q82 222 91 159T125 63T198 23T320 15H337ZM425 746L328 824L231 746L219 758L328 849L437 758L425 746Z"  />
<glyph unicode="&#xD5;" horiz-adv-x="657" d="M320 -5Q239 -5 189 4T110 48T71 149T60 330V350Q60 464 70 530T109 631T188 675T320 685H337Q418 685 468 676T547 632T586 531T597 350V330Q597 216 587 150T548 49T469 5T337 -5H320ZM337 15Q412 15 459 23T531 63T566 158T575 332V348Q575 458 566 521T532 617T459 657T337 665H320Q245 665 198 657T126 617T91 522T82 348V332Q82 222 91 159T125 63T198 23T320 15H337ZM438 827Q434 792 419 776T381 760Q364 760 350 768T321 789Q306 801 296 806T275 811Q259 811 249 801T234 759L218 762Q223 798 238 814T275 830Q292 830 304 823T333 803Q350 790 360 784T382 778Q399 778 408 789T422 830L438 827Z"  />
<glyph unicode="&#xD6;" horiz-adv-x="657" d="M320 -5Q239 -5 189 4T110 48T71 149T60 330V350Q60 464 70 530T109 631T188 675T320 685H337Q418 685 468 676T547 632T586 531T597 350V330Q597 216 587 150T548 49T469 5T337 -5H320ZM337 15Q412 15 459 23T531 63T566 158T575 332V348Q575 458 566 521T532 617T459 657T337 665H320Q245 665 198 657T126 617T91 522T82 348V332Q82 222 91 159T125 63T198 23T320 15H337ZM277 755H253V820H277V755ZM404 755H380V820H404V755Z"  />
<glyph unicode="&#xD7;" horiz-adv-x="500" d="M416 145L402 132L250 293L98 132L84 145L236 308L88 467L101 480L250 322L399 480L412 467L263 308L416 145Z"  />
<glyph unicode="&#xD8;" horiz-adv-x="657" d="M582 693L598 682L554 622Q579 587 588 522T597 350V330Q597 216 587 150T548 49T469 5T337 -5H320Q247 -5 199 2T122 35L80 -22L64 -11L108 49Q80 84 70 150T60 330V350Q60 464 70 530T109 631T188 675T320 685H337Q414 685 463 677T541 638L582 693ZM320 665Q245 665 198 657T126 617T91 522T82 348V332Q82 225 90 163T122 68L528 620Q502 650 456 657T337 665H320ZM337 15Q412 15 459 23T531 63T566 158T575 332V348Q575 448 568 509T540 604L135 53Q161 28 206 22T320 15H337Z"  />
<glyph unicode="&#xD9;" horiz-adv-x="648" d="M316 -5Q242 -5 195 1T121 30T84 96T73 212V680H95V212Q95 146 104 107T137 47T203 21T312 15H333Q400 15 442 20T509 46T543 106T553 212V680H575V212Q575 140 565 97T526 32T451 2T329 -5H316ZM382 741L237 828L250 844L391 752L382 741Z"  />
<glyph unicode="&#xDA;" horiz-adv-x="648" d="M316 -5Q242 -5 195 1T121 30T84 96T73 212V680H95V212Q95 146 104 107T137 47T203 21T312 15H333Q400 15 442 20T509 46T543 106T553 212V680H575V212Q575 140 565 97T526 32T451 2T329 -5H316ZM416 827L271 740L261 752L402 843L416 827Z"  />
<glyph unicode="&#xDB;" horiz-adv-x="648" d="M316 -5Q242 -5 195 1T121 30T84 96T73 212V680H95V212Q95 146 104 107T137 47T203 21T312 15H333Q400 15 442 20T509 46T543 106T553 212V680H575V212Q575 140 565 97T526 32T451 2T329 -5H316ZM421 746L324 824L227 746L215 758L324 849L433 758L421 746Z"  />
<glyph unicode="&#xDC;" horiz-adv-x="648" d="M316 -5Q242 -5 195 1T121 30T84 96T73 212V680H95V212Q95 146 104 107T137 47T203 21T312 15H333Q400 15 442 20T509 46T543 106T553 212V680H575V212Q575 140 565 97T526 32T451 2T329 -5H316ZM273 755H249V820H273V755ZM400 755H376V820H400V755Z"  />
<glyph unicode="&#xDD;" horiz-adv-x="561" d="M290 0H268V252L6 680H32L279 275H281L529 680H555L290 252V0ZM384 827L239 740L229 752L370 843L384 827Z"  />
<glyph unicode="&#xDE;" horiz-adv-x="594" d="M100 0H78V680H100V551H326Q399 551 443 545T512 520T544 464T552 369V353Q552 295 544 260T511 205T442 179T326 172H100V0ZM320 192Q390 192 432 197T495 220T523 269T530 353V370Q530 423 524 455T496 504T432 526T320 531H100V192H320Z"  />
<glyph unicode="&#xDF;" horiz-adv-x="536" d="M309 -5Q278 -5 257 -4T221 -1T195 6T175 15L181 34Q189 29 199 26T223 20T258 16T309 15Q354 15 383 21T428 49T451 116T458 235V249Q458 319 452 360T430 422T384 450T308 457H228V477H290Q330 477 354 482T392 499T410 526T415 565V577Q415 602 409 619T387 646T344 660T273 665H255Q208 665 178 658T129 633T104 581T96 493V0H74V492Q74 553 83 591T114 650T170 678T255 685H273Q321 685 352 680T403 662T429 628T437 577V565Q437 518 419 497T363 471H364Q398 468 420 458T456 424T474 357T480 246V234Q480 154 472 107T445 34T392 2T309 -5Z"  />
<glyph unicode="&#xE0;" horiz-adv-x="473" d="M407 0H385V59H384Q367 24 333 10T233 -5H223Q172 -5 140 0T88 21T62 65T54 137V143Q54 186 62 213T89 257T138 278T213 284H223Q262 284 289 282T334 273T364 257T383 231H385V255Q385 328 381 370T361 433T316 459T235 465H225Q183 465 157 460T117 443T97 408T91 350V340H69V351Q69 393 77 419T103 459T151 479T225 485H235Q292 485 326 479T378 449T401 381T407 261V0ZM233 15Q273 15 301 20T348 38T376 75T385 137V142Q385 182 377 206T351 243T301 260T225 264H214Q173 264 147 260T104 242T82 205T76 142V138Q76 99 82 75T104 38T149 20T223 15H233ZM288 564L168 686L185 699L300 574L288 564Z"  />
<glyph unicode="&#xE1;" horiz-adv-x="473" d="M407 0H385V59H384Q367 24 333 10T233 -5H223Q172 -5 140 0T88 21T62 65T54 137V143Q54 186 62 213T89 257T138 278T213 284H223Q262 284 289 282T334 273T364 257T383 231H385V255Q385 328 381 370T361 433T316 459T235 465H225Q183 465 157 460T117 443T97 408T91 350V340H69V351Q69 393 77 419T103 459T151 479T225 485H235Q292 485 326 479T378 449T401 381T407 261V0ZM233 15Q273 15 301 20T348 38T376 75T385 137V142Q385 182 377 206T351 243T301 260T225 264H214Q173 264 147 260T104 242T82 205T76 142V138Q76 99 82 75T104 38T149 20T223 15H233ZM179 564L167 574L282 699L299 686L179 564Z"  />
<glyph unicode="&#xE2;" horiz-adv-x="473" d="M407 0H385V59H384Q367 24 333 10T233 -5H223Q172 -5 140 0T88 21T62 65T54 137V143Q54 186 62 213T89 257T138 278T213 284H223Q262 284 289 282T334 273T364 257T383 231H385V255Q385 328 381 370T361 433T316 459T235 465H225Q183 465 157 460T117 443T97 408T91 350V340H69V351Q69 393 77 419T103 459T151 479T225 485H235Q292 485 326 479T378 449T401 381T407 261V0ZM233 15Q273 15 301 20T348 38T376 75T385 137V142Q385 182 377 206T351 243T301 260T225 264H214Q173 264 147 260T104 242T82 205T76 142V138Q76 99 82 75T104 38T149 20T223 15H233ZM325 577L235 674L144 577L131 589L235 700L338 589L325 577Z"  />
<glyph unicode="&#xE3;" horiz-adv-x="473" d="M407 0H385V59H384Q367 24 333 10T233 -5H223Q172 -5 140 0T88 21T62 65T54 137V143Q54 186 62 213T89 257T138 278T213 284H223Q262 284 289 282T334 273T364 257T383 231H385V255Q385 328 381 370T361 433T316 459T235 465H225Q183 465 157 460T117 443T97 408T91 350V340H69V351Q69 393 77 419T103 459T151 479T225 485H235Q292 485 326 479T378 449T401 381T407 261V0ZM233 15Q273 15 301 20T348 38T376 75T385 137V142Q385 182 377 206T351 243T301 260T225 264H214Q173 264 147 260T104 242T82 205T76 142V138Q76 99 82 75T104 38T149 20T223 15H233ZM343 673Q339 638 324 622T286 606Q269 606 255 614T226 635Q211 647 201 652T180 657Q164 657 154 647T139 605L123 608Q128 644 143 660T180 676Q197 676 209 669T238 649Q255 636 265 630T287 624Q304 624 313 635T327 676L343 673Z"  />
<glyph unicode="&#xE4;" horiz-adv-x="473" d="M407 0H385V59H384Q367 24 333 10T233 -5H223Q172 -5 140 0T88 21T62 65T54 137V143Q54 186 62 213T89 257T138 278T213 284H223Q262 284 289 282T334 273T364 257T383 231H385V255Q385 328 381 370T361 433T316 459T235 465H225Q183 465 157 460T117 443T97 408T91 350V340H69V351Q69 393 77 419T103 459T151 479T225 485H235Q292 485 326 479T378 449T401 381T407 261V0ZM233 15Q273 15 301 20T348 38T376 75T385 137V142Q385 182 377 206T351 243T301 260T225 264H214Q173 264 147 260T104 242T82 205T76 142V138Q76 99 82 75T104 38T149 20T223 15H233ZM183 615H159V680H183V615ZM310 615H286V680H310V615Z"  />
<glyph unicode="&#xE5;" horiz-adv-x="473" d="M407 0H385V59H384Q367 24 333 10T233 -5H223Q172 -5 140 0T88 21T62 65T54 137V143Q54 186 62 213T89 257T138 278T213 284H223Q262 284 289 282T334 273T364 257T383 231H385V255Q385 328 381 370T361 433T316 459T235 465H225Q183 465 157 460T117 443T97 408T91 350V340H69V351Q69 393 77 419T103 459T151 479T225 485H235Q292 485 326 479T378 449T401 381T407 261V0ZM233 15Q273 15 301 20T348 38T376 75T385 137V142Q385 182 377 206T351 243T301 260T225 264H214Q173 264 147 260T104 242T82 205T76 142V138Q76 99 82 75T104 38T149 20T223 15H233ZM232 565Q184 565 165 580T145 631V637Q145 673 164 688T232 703H238Q286 703 305 688T324 637V631Q324 596 305 581T238 565H232ZM238 582Q275 582 289 592T304 631V637Q304 665 290 675T238 686H232Q194 686 180 676T165 637V631Q165 603 179 593T232 582H238Z"  />
<glyph unicode="&#xE6;" horiz-adv-x="805" d="M752 155Q752 107 744 76T716 27T663 2T582 -5H569Q530 -5 501 -2T452 10T418 38T399 85H398Q392 55 378 38T342 11T294 -2T233 -5H223Q172 -5 139 0T88 22T62 65T54 138V144Q54 187 62 214T90 257T139 278T213 284H223Q263 284 290 282T336 273T366 256T384 229H385V255Q385 327 381 369T361 432T316 459T235 465H225Q184 465 158 461T117 444T97 409T91 350V340H69V351Q69 393 77 419T104 460T152 480T225 485H235Q277 485 306 482T355 468T385 438T398 387H399Q404 418 416 437T448 467T498 481T568 485H580Q631 485 664 478T715 449T741 390T749 292V250H407V207Q407 144 414 106T440 48T489 21T569 15H582Q627 15 655 20T700 41T723 84T730 155V165H752V155ZM233 15Q273 15 301 20T349 38T377 75T386 137V142Q386 181 378 205T351 242T301 259T225 264H214Q173 264 147 260T104 242T82 205T76 143V139Q76 100 82 76T104 38T148 20T223 15H233ZM727 270V292Q727 348 721 382T699 434T654 459T580 465H568Q518 465 487 459T439 432T415 373T407 270H727Z"  />
<glyph unicode="&#xE7;" horiz-adv-x="484" d="M244 -5Q186 -5 149 3T91 37T63 110T55 234V247Q55 326 63 373T92 445T150 477T244 485H256Q308 485 341 479T393 456T420 408T428 329V322H406V329Q406 371 401 397T379 439T333 459T256 465H244Q191 465 158 458T107 429T83 363T77 247V234Q77 162 83 119T108 53T158 22T244 15H256Q303 15 333 21T380 42T403 85T409 155V165H431V155Q431 107 423 76T394 27T340 2T256 -5H244ZM174 -146L161 -137L265 -6L282 -18L174 -146Z"  />
<glyph unicode="&#xE8;" horiz-adv-x="482" d="M243 -5Q184 -5 148 3T91 36T63 108T55 234V246Q55 324 63 371T91 443T148 477T241 485H254Q307 485 340 477T393 448T419 390T426 292V250H77V235Q77 161 83 118T106 52T156 22T243 15H255Q302 15 331 20T378 41T401 84T407 155V165H429V155Q429 107 421 76T392 27T339 2T255 -5H243ZM404 270V292Q404 347 399 381T377 433T331 458T254 465H241Q189 465 158 458T108 430T84 371T77 270H404ZM293 564L173 686L190 699L305 574L293 564Z"  />
<glyph unicode="&#xE9;" horiz-adv-x="482" d="M243 -5Q184 -5 148 3T91 36T63 108T55 234V246Q55 324 63 371T91 443T148 477T241 485H254Q307 485 340 477T393 448T419 390T426 292V250H77V235Q77 161 83 118T106 52T156 22T243 15H255Q302 15 331 20T378 41T401 84T407 155V165H429V155Q429 107 421 76T392 27T339 2T255 -5H243ZM404 270V292Q404 347 399 381T377 433T331 458T254 465H241Q189 465 158 458T108 430T84 371T77 270H404ZM188 564L176 574L291 699L308 686L188 564Z"  />
<glyph unicode="&#xEA;" horiz-adv-x="482" d="M243 -5Q184 -5 148 3T91 36T63 108T55 234V246Q55 324 63 371T91 443T148 477T241 485H254Q307 485 340 477T393 448T419 390T426 292V250H77V235Q77 161 83 118T106 52T156 22T243 15H255Q302 15 331 20T378 41T401 84T407 155V165H429V155Q429 107 421 76T392 27T339 2T255 -5H243ZM404 270V292Q404 347 399 381T377 433T331 458T254 465H241Q189 465 158 458T108 430T84 371T77 270H404ZM333 577L243 674L152 577L139 589L243 700L346 589L333 577Z"  />
<glyph unicode="&#xEB;" horiz-adv-x="482" d="M243 -5Q184 -5 148 3T91 36T63 108T55 234V246Q55 324 63 371T91 443T148 477T241 485H254Q307 485 340 477T393 448T419 390T426 292V250H77V235Q77 161 83 118T106 52T156 22T243 15H255Q302 15 331 20T378 41T401 84T407 155V165H429V155Q429 107 421 76T392 27T339 2T255 -5H243ZM404 270V292Q404 347 399 381T377 433T331 458T254 465H241Q189 465 158 458T108 430T84 371T77 270H404ZM191 615H167V680H191V615ZM318 615H294V680H318V615Z"  />
<glyph unicode="&#xEC;" horiz-adv-x="170" d="M96 0H74V480H96V0ZM86 564L-34 686L-17 699L98 574L86 564Z"  />
<glyph unicode="&#xED;" horiz-adv-x="170" d="M96 0H74V480H96V0ZM90 564L78 574L193 699L210 686L90 564Z"  />
<glyph unicode="&#xEE;" horiz-adv-x="170" d="M96 0H74V480H96V0ZM176 577L86 674L-5 577L-18 589L86 700L189 589L176 577Z"  />
<glyph unicode="&#xEF;" horiz-adv-x="170" d="M96 0H74V480H96V0ZM39 615H15V680H39V615ZM166 615H142V680H166V615Z"  />
<glyph unicode="&#xF0;" horiz-adv-x="505" d="M213 559L206 576L296 618Q263 636 215 647T99 665L104 683Q170 677 221 666T317 629L413 674L421 658L336 618Q370 594 391 561T425 483T441 381T446 252V232Q446 156 438 110T409 38T350 4T256 -5H244Q187 -5 151 3T93 37T63 109T55 232V245Q55 320 64 366T95 437T150 472T236 481H246Q317 481 362 462T421 387H422Q417 428 410 460T391 519T361 567T315 607L213 559ZM256 15Q310 15 343 23T394 55T418 121T424 232V274Q424 331 414 367T381 424T326 453T246 461H236Q189 461 158 453T109 420T84 354T77 245V232Q77 163 83 121T108 55T158 23T244 15H256Z"  />
<glyph unicode="&#xF1;" horiz-adv-x="510" d="M441 0H419V290Q419 346 414 380T392 433T348 458T273 465H262Q220 465 189 458T138 432T107 379T96 291V0H74V480H96V394H97Q104 416 114 433T144 461T191 479T262 485H273Q323 485 355 478T407 452T433 399T441 309V0ZM371 673Q367 638 352 622T314 606Q297 606 283 614T254 635Q239 647 229 652T208 657Q192 657 182 647T167 605L151 608Q156 644 171 660T208 676Q225 676 237 669T266 649Q283 636 293 630T315 624Q332 624 341 635T355 676L371 673Z"  />
<glyph unicode="&#xF2;" horiz-adv-x="501" d="M245 -5Q188 -5 151 3T93 37T64 109T55 233V247Q55 323 63 370T93 442T151 476T245 485H256Q313 485 350 477T408 443T437 370T446 247V233Q446 156 438 110T408 38T350 4T256 -5H245ZM256 15Q309 15 342 22T393 53T417 119T424 233V247Q424 318 418 361T393 427T342 457T256 465H245Q192 465 159 458T108 427T84 361T77 247V233Q77 162 83 119T108 53T159 23T245 15H256ZM308 564L188 686L205 699L320 574L308 564Z"  />
<glyph unicode="&#xF3;" horiz-adv-x="501" d="M245 -5Q188 -5 151 3T93 37T64 109T55 233V247Q55 323 63 370T93 442T151 476T245 485H256Q313 485 350 477T408 443T437 370T446 247V233Q446 156 438 110T408 38T350 4T256 -5H245ZM256 15Q309 15 342 22T393 53T417 119T424 233V247Q424 318 418 361T393 427T342 457T256 465H245Q192 465 159 458T108 427T84 361T77 247V233Q77 162 83 119T108 53T159 23T245 15H256ZM194 564L182 574L297 699L314 686L194 564Z"  />
<glyph unicode="&#xF4;" horiz-adv-x="501" d="M245 -5Q188 -5 151 3T93 37T64 109T55 233V247Q55 323 63 370T93 442T151 476T245 485H256Q313 485 350 477T408 443T437 370T446 247V233Q446 156 438 110T408 38T350 4T256 -5H245ZM256 15Q309 15 342 22T393 53T417 119T424 233V247Q424 318 418 361T393 427T342 457T256 465H245Q192 465 159 458T108 427T84 361T77 247V233Q77 162 83 119T108 53T159 23T245 15H256ZM341 577L251 674L160 577L147 589L251 700L354 589L341 577Z"  />
<glyph unicode="&#xF5;" horiz-adv-x="501" d="M245 -5Q188 -5 151 3T93 37T64 109T55 233V247Q55 323 63 370T93 442T151 476T245 485H256Q313 485 350 477T408 443T437 370T446 247V233Q446 156 438 110T408 38T350 4T256 -5H245ZM256 15Q309 15 342 22T393 53T417 119T424 233V247Q424 318 418 361T393 427T342 457T256 465H245Q192 465 159 458T108 427T84 361T77 247V233Q77 162 83 119T108 53T159 23T245 15H256ZM360 673Q356 638 341 622T303 606Q286 606 272 614T243 635Q228 647 218 652T197 657Q181 657 171 647T156 605L140 608Q145 644 160 660T197 676Q214 676 226 669T255 649Q272 636 282 630T304 624Q321 624 330 635T344 676L360 673Z"  />
<glyph unicode="&#xF6;" horiz-adv-x="501" d="M245 -5Q188 -5 151 3T93 37T64 109T55 233V247Q55 323 63 370T93 442T151 476T245 485H256Q313 485 350 477T408 443T437 370T446 247V233Q446 156 438 110T408 38T350 4T256 -5H245ZM256 15Q309 15 342 22T393 53T417 119T424 233V247Q424 318 418 361T393 427T342 457T256 465H245Q192 465 159 458T108 427T84 361T77 247V233Q77 162 83 119T108 53T159 23T245 15H256ZM199 615H175V680H199V615ZM326 615H302V680H326V615Z"  />
<glyph unicode="&#xF7;" horiz-adv-x="500" d="M281 429Q281 416 272 407T250 397Q237 397 228 406T219 429Q219 443 228 452T250 462Q263 462 272 453T281 429ZM281 182Q281 168 272 159T250 150Q237 150 228 159T219 182Q219 196 228 205T250 214Q263 214 272 205T281 182ZM439 296H61V316H439V296Z"  />
<glyph unicode="&#xF8;" horiz-adv-x="501" d="M245 -5Q194 -5 160 1T104 26L72 -17L56 -4L90 41Q70 67 63 112T55 233V247Q55 323 63 370T93 442T151 476T245 485H256Q308 485 343 478T400 450L432 492L447 480L413 435Q432 409 439 364T446 247V233Q446 156 438 110T408 38T350 4T256 -5H245ZM245 465Q192 465 159 458T108 427T84 361T77 247V233Q77 166 82 125T103 59L387 433Q368 453 337 459T256 465H245ZM256 15Q309 15 342 22T393 53T417 119T424 233V247Q424 311 419 352T399 417L117 43Q137 26 167 21T245 15H256Z"  />
<glyph unicode="&#xF9;" horiz-adv-x="506" d="M432 0H410V86H409Q402 64 392 47T362 19T315 1T244 -5H233Q182 -5 150 1T99 27T73 81T66 171V480H88V190Q88 133 93 99T113 46T156 21T233 15H244Q286 15 317 22T368 48T399 101T410 189V480H432V0ZM311 564L191 686L208 699L323 574L311 564Z"  />
<glyph unicode="&#xFA;" horiz-adv-x="506" d="M432 0H410V86H409Q402 64 392 47T362 19T315 1T244 -5H233Q182 -5 150 1T99 27T73 81T66 171V480H88V190Q88 133 93 99T113 46T156 21T233 15H244Q286 15 317 22T368 48T399 101T410 189V480H432V0ZM206 564L194 574L309 699L326 686L206 564Z"  />
<glyph unicode="&#xFB;" horiz-adv-x="506" d="M432 0H410V86H409Q402 64 392 47T362 19T315 1T244 -5H233Q182 -5 150 1T99 27T73 81T66 171V480H88V190Q88 133 93 99T113 46T156 21T233 15H244Q286 15 317 22T368 48T399 101T410 189V480H432V0ZM342 577L252 674L161 577L148 589L252 700L355 589L342 577Z"  />
<glyph unicode="&#xFC;" horiz-adv-x="506" d="M432 0H410V86H409Q402 64 392 47T362 19T315 1T244 -5H233Q182 -5 150 1T99 27T73 81T66 171V480H88V190Q88 133 93 99T113 46T156 21T233 15H244Q286 15 317 22T368 48T399 101T410 189V480H432V0ZM201 615H177V680H201V615ZM328 615H304V680H328V615Z"  />
<glyph unicode="&#xFD;" horiz-adv-x="423" d="M47 -151Q55 -152 66 -152T86 -152Q108 -152 124 -148T154 -128T182 -81T217 4H205L12 480H37L221 22H223L388 480H411L259 54Q232 -23 213 -68T175 -136T137 -165T86 -172Q76 -172 66 -172T47 -171V-151ZM183 564L171 574L286 699L303 686L183 564Z"  />
<glyph unicode="&#xFE;" horiz-adv-x="508" d="M96 -170H74V680H96V401H98Q104 424 115 440T146 466T193 480T261 485H273Q327 485 361 477T416 443T445 370T453 247V234Q453 157 445 111T417 38T362 4T273 -5H261Q224 -5 197 -1T150 12T118 38T98 79H96V-170ZM273 15Q322 15 353 22T401 53T425 120T431 234V247Q431 318 425 361T401 427T353 457T273 465H261Q211 465 180 458T129 429T103 370T96 271V210Q96 152 103 114T128 54T179 24T261 15H273Z"  />
<glyph unicode="&#xFF;" horiz-adv-x="423" d="M47 -151Q55 -152 66 -152T86 -152Q108 -152 124 -148T154 -128T182 -81T217 4H205L12 480H37L221 22H223L388 480H411L259 54Q232 -23 213 -68T175 -136T137 -165T86 -172Q76 -172 66 -172T47 -171V-151ZM166 615H142V680H166V615ZM293 615H269V680H293V615Z"  />
<glyph unicode="&#x100;" horiz-adv-x="571" d="M562 0H540L477 168H95L31 0H9L272 680H308L562 0ZM469 188L293 662H286L103 188H469ZM373 780H206V800H373V780Z"  />
<glyph unicode="&#x101;" horiz-adv-x="473" d="M407 0H385V59H384Q367 24 333 10T233 -5H223Q172 -5 140 0T88 21T62 65T54 137V143Q54 186 62 213T89 257T138 278T213 284H223Q262 284 289 282T334 273T364 257T383 231H385V255Q385 328 381 370T361 433T316 459T235 465H225Q183 465 157 460T117 443T97 408T91 350V340H69V351Q69 393 77 419T103 459T151 479T225 485H235Q292 485 326 479T378 449T401 381T407 261V0ZM233 15Q273 15 301 20T348 38T376 75T385 137V142Q385 182 377 206T351 243T301 260T225 264H214Q173 264 147 260T104 242T82 205T76 142V138Q76 99 82 75T104 38T149 20T223 15H233ZM319 633H152V653H319V633Z"  />
<glyph unicode="&#x102;" horiz-adv-x="571" d="M562 0H540L477 168H95L31 0H9L272 680H308L562 0ZM469 188L293 662H286L103 188H469ZM387 832Q383 779 360 757T291 735Q246 735 222 756T194 832H213Q218 786 238 770T291 754Q326 754 345 769T369 832H387Z"  />
<glyph unicode="&#x103;" horiz-adv-x="473" d="M407 0H385V59H384Q367 24 333 10T233 -5H223Q172 -5 140 0T88 21T62 65T54 137V143Q54 186 62 213T89 257T138 278T213 284H223Q262 284 289 282T334 273T364 257T383 231H385V255Q385 328 381 370T361 433T316 459T235 465H225Q183 465 157 460T117 443T97 408T91 350V340H69V351Q69 393 77 419T103 459T151 479T225 485H235Q292 485 326 479T378 449T401 381T407 261V0ZM233 15Q273 15 301 20T348 38T376 75T385 137V142Q385 182 377 206T351 243T301 260T225 264H214Q173 264 147 260T104 242T82 205T76 142V138Q76 99 82 75T104 38T149 20T223 15H233ZM333 681Q329 628 306 606T237 584Q192 584 168 605T140 681H159Q164 635 184 619T237 603Q272 603 291 618T315 681H333Z"  />
<glyph unicode="&#x104;" horiz-adv-x="571" d="M31 0H9L272 680H308L562 0Q526 -24 503 -42T467 -74T449 -101T444 -126Q444 -146 456 -154T494 -163Q508 -163 525 -161T559 -153V-171Q526 -182 490 -182Q422 -182 422 -129Q422 -97 448 -68T538 2L477 168H95L31 0ZM469 188L293 662H286L103 188H469Z"  />
<glyph unicode="&#x105;" horiz-adv-x="473" d="M404 -171Q373 -182 335 -182Q268 -182 268 -129Q268 -99 294 -69T385 1V59H384Q367 24 333 10T233 -5H223Q172 -5 140 0T88 21T62 65T54 137V143Q54 186 62 213T89 257T138 278T213 284H223Q262 284 289 282T334 273T364 257T383 231H385V255Q385 328 381 370T361 433T316 459T235 465H225Q183 465 157 460T117 443T97 408T91 350V340H69V351Q69 393 77 419T103 459T151 479T225 485H235Q292 485 326 479T378 449T401 381T407 261V0Q371 -24 348 -42T312 -76T295 -103T290 -126Q290 -146 303 -154T340 -163Q354 -163 370 -161T404 -153V-171ZM233 15Q273 15 301 20T348 38T376 75T385 137V142Q385 182 377 206T351 243T301 260T225 264H214Q173 264 147 260T104 242T82 205T76 142V138Q76 99 82 75T104 38T149 20T223 15H233Z"  />
<glyph unicode="&#x106;" horiz-adv-x="632" d="M316 -5Q263 -5 223 -2T155 13T108 47T79 106T64 198T60 330V350Q60 462 70 528T107 630T185 675T316 685H333Q406 685 452 678T524 651T559 596T569 506V494H547V506Q547 555 540 586T509 634T444 658T333 665H316Q242 665 196 657T125 617T91 522T82 348V332Q82 221 90 158T124 63T195 23T316 15H333Q402 15 445 20T512 42T544 90T552 175V185H574V175Q574 118 564 83T528 28T454 2T334 -5H316ZM409 827L264 740L254 752L395 843L409 827Z"  />
<glyph unicode="&#x107;" horiz-adv-x="484" d="M244 -5Q186 -5 149 3T91 37T63 110T55 234V247Q55 326 63 373T92 445T150 477T244 485H256Q308 485 341 479T393 456T420 408T428 329V322H406V329Q406 371 401 397T379 439T333 459T256 465H244Q191 465 158 458T107 429T83 363T77 247V234Q77 162 83 119T108 53T158 22T244 15H256Q303 15 333 21T380 42T403 85T409 155V165H431V155Q431 107 423 76T394 27T340 2T256 -5H244ZM195 564L183 574L298 699L315 686L195 564Z"  />
<glyph unicode="&#x108;" horiz-adv-x="632" d="M316 -5Q263 -5 223 -2T155 13T108 47T79 106T64 198T60 330V350Q60 462 70 528T107 630T185 675T316 685H333Q406 685 452 678T524 651T559 596T569 506V494H547V506Q547 555 540 586T509 634T444 658T333 665H316Q242 665 196 657T125 617T91 522T82 348V332Q82 221 90 158T124 63T195 23T316 15H333Q402 15 445 20T512 42T544 90T552 175V185H574V175Q574 118 564 83T528 28T454 2T334 -5H316ZM421 746L324 824L227 746L215 758L324 849L433 758L421 746Z"  />
<glyph unicode="&#x109;" horiz-adv-x="484" d="M244 -5Q186 -5 149 3T91 37T63 110T55 234V247Q55 326 63 373T92 445T150 477T244 485H256Q308 485 341 479T393 456T420 408T428 329V322H406V329Q406 371 401 397T379 439T333 459T256 465H244Q191 465 158 458T107 429T83 363T77 247V234Q77 162 83 119T108 53T158 22T244 15H256Q303 15 333 21T380 42T403 85T409 155V165H431V155Q431 107 423 76T394 27T340 2T256 -5H244ZM332 577L242 674L151 577L138 589L242 700L345 589L332 577Z"  />
<glyph unicode="&#x10A;" horiz-adv-x="632" d="M316 -5Q263 -5 223 -2T155 13T108 47T79 106T64 198T60 330V350Q60 462 70 528T107 630T185 675T316 685H333Q406 685 452 678T524 651T559 596T569 506V494H547V506Q547 555 540 586T509 634T444 658T333 665H316Q242 665 196 657T125 617T91 522T82 348V332Q82 221 90 158T124 63T195 23T316 15H333Q402 15 445 20T512 42T544 90T552 175V185H574V175Q574 118 564 83T528 28T454 2T334 -5H316ZM335 755H311V820H335V755Z"  />
<glyph unicode="&#x10B;" horiz-adv-x="484" d="M244 -5Q186 -5 149 3T91 37T63 110T55 234V247Q55 326 63 373T92 445T150 477T244 485H256Q308 485 341 479T393 456T420 408T428 329V322H406V329Q406 371 401 397T379 439T333 459T256 465H244Q191 465 158 458T107 429T83 363T77 247V234Q77 162 83 119T108 53T158 22T244 15H256Q303 15 333 21T380 42T403 85T409 155V165H431V155Q431 107 423 76T394 27T340 2T256 -5H244ZM254 615H230V680H254V615Z"  />
<glyph unicode="&#x10C;" horiz-adv-x="632" d="M316 -5Q263 -5 223 -2T155 13T108 47T79 106T64 198T60 330V350Q60 462 70 528T107 630T185 675T316 685H333Q406 685 452 678T524 651T559 596T569 506V494H547V506Q547 555 540 586T509 634T444 658T333 665H316Q242 665 196 657T125 617T91 522T82 348V332Q82 221 90 158T124 63T195 23T316 15H333Q402 15 445 20T512 42T544 90T552 175V185H574V175Q574 118 564 83T528 28T454 2T334 -5H316ZM324 736L215 826L227 838L324 760L421 838L433 826L324 736Z"  />
<glyph unicode="&#x10D;" horiz-adv-x="484" d="M244 -5Q186 -5 149 3T91 37T63 110T55 234V247Q55 326 63 373T92 445T150 477T244 485H256Q308 485 341 479T393 456T420 408T428 329V322H406V329Q406 371 401 397T379 439T333 459T256 465H244Q191 465 158 458T107 429T83 363T77 247V234Q77 162 83 119T108 53T158 22T244 15H256Q303 15 333 21T380 42T403 85T409 155V165H431V155Q431 107 423 76T394 27T340 2T256 -5H244ZM242 566L138 677L150 688L243 592L334 688L345 677L242 566Z"  />
<glyph unicode="&#x10E;" horiz-adv-x="667" d="M603 329Q603 220 593 155T554 56T471 11T332 0H78V680H332Q417 680 470 670T552 626T592 527T603 350V329ZM332 20Q413 20 462 29T537 69T572 163T581 331V348Q581 455 572 517T535 611T460 651T332 660H100V20H332ZM319 736L210 826L222 838L319 760L416 838L428 826L319 736Z"  />
<glyph unicode="&#x10F;" horiz-adv-x="508" d="M434 0H412V80H410Q404 56 393 40T362 14T314 0T247 -5H235Q181 -5 147 4T92 38T63 111T55 234V247Q55 324 63 371T92 443T147 477T235 485H247Q285 485 313 481T360 467T391 442T410 402H412V680H434V0ZM247 15Q296 15 328 22T379 51T405 111T412 210V271Q412 329 405 366T380 426T329 456T247 465H235Q187 465 157 458T108 427T84 361T77 247V234Q77 164 83 121T107 55T155 23T235 15H247ZM518 617Q518 590 517 574T512 549T502 535T487 528V544Q491 547 494 550T499 560T501 581T502 617V624H494V680H518V617Z"  />
<glyph unicode="&#x110;" horiz-adv-x="667" d="M603 329Q603 220 593 155T554 56T471 11T332 0H78V345H23V365H78V680H332Q417 680 470 670T552 626T592 527T603 350V329ZM332 20Q413 20 462 29T537 69T572 163T581 331V348Q581 455 572 517T535 611T460 651T332 660H100V365H297V345H100V20H332Z"  />
<glyph unicode="&#x111;" horiz-adv-x="508" d="M263 585H412V680H434V585H473V565H434V0H412V80H410Q404 56 393 40T362 14T314 0T247 -5H235Q181 -5 147 4T92 38T63 111T55 234V247Q55 324 63 371T92 443T147 477T235 485H247Q285 485 313 481T360 467T391 442T410 402H412V565H263V585ZM247 15Q296 15 328 22T379 51T405 111T412 210V271Q412 329 405 366T380 426T329 456T247 465H235Q187 465 157 458T108 427T84 361T77 247V234Q77 164 83 121T107 55T155 23T235 15H247Z"  />
<glyph unicode="&#x112;" horiz-adv-x="526" d="M484 0H78V680H484V660H100V365H466V345H100V20H484V0ZM361 780H194V800H361V780Z"  />
<glyph unicode="&#x113;" horiz-adv-x="482" d="M243 -5Q184 -5 148 3T91 36T63 108T55 234V246Q55 324 63 371T91 443T148 477T241 485H254Q307 485 340 477T393 448T419 390T426 292V250H77V235Q77 161 83 118T106 52T156 22T243 15H255Q302 15 331 20T378 41T401 84T407 155V165H429V155Q429 107 421 76T392 27T339 2T255 -5H243ZM404 270V292Q404 347 399 381T377 433T331 458T254 465H241Q189 465 158 458T108 430T84 371T77 270H404ZM326 633H159V653H326V633Z"  />
<glyph unicode="&#x114;" horiz-adv-x="526" d="M484 0H78V680H484V660H100V365H466V345H100V20H484V0ZM375 832Q371 779 348 757T279 735Q234 735 210 756T182 832H201Q206 786 226 770T279 754Q314 754 333 769T357 832H375Z"  />
<glyph unicode="&#x115;" horiz-adv-x="482" d="M243 -5Q184 -5 148 3T91 36T63 108T55 234V246Q55 324 63 371T91 443T148 477T241 485H254Q307 485 340 477T393 448T419 390T426 292V250H77V235Q77 161 83 118T106 52T156 22T243 15H255Q302 15 331 20T378 41T401 84T407 155V165H429V155Q429 107 421 76T392 27T339 2T255 -5H243ZM404 270V292Q404 347 399 381T377 433T331 458T254 465H241Q189 465 158 458T108 430T84 371T77 270H404ZM339 681Q335 628 312 606T243 584Q198 584 174 605T146 681H165Q170 635 190 619T243 603Q278 603 297 618T321 681H339Z"  />
<glyph unicode="&#x116;" horiz-adv-x="526" d="M484 0H78V680H484V660H100V365H466V345H100V20H484V0ZM290 755H266V820H290V755Z"  />
<glyph unicode="&#x117;" horiz-adv-x="482" d="M243 -5Q184 -5 148 3T91 36T63 108T55 234V246Q55 324 63 371T91 443T148 477T241 485H254Q307 485 340 477T393 448T419 390T426 292V250H77V235Q77 161 83 118T106 52T156 22T243 15H255Q302 15 331 20T378 41T401 84T407 155V165H429V155Q429 107 421 76T392 27T339 2T255 -5H243ZM404 270V292Q404 347 399 381T377 433T331 458T254 465H241Q189 465 158 458T108 430T84 371T77 270H404ZM254 615H230V680H254V615Z"  />
<glyph unicode="&#x118;" horiz-adv-x="526" d="M471 -170Q455 -175 437 -178T401 -182Q333 -182 333 -130Q333 -98 357 -68T431 0H78V680H484V660H100V365H466V345H100V20H484V0H454Q397 -45 376 -73T355 -126Q355 -146 367 -154T405 -163Q419 -163 435 -161T471 -153V-170Z"  />
<glyph unicode="&#x119;" horiz-adv-x="482" d="M367 -171Q336 -182 298 -182Q230 -182 230 -129Q230 -99 254 -70T333 0Q317 -2 298 -3T255 -5H243Q184 -5 148 3T91 36T63 108T55 234V246Q55 324 63 371T91 443T148 477T241 485H254Q307 485 340 477T393 448T419 390T426 292V250H77V235Q77 161 83 118T106 52T156 22T243 15H255Q302 15 331 20T378 41T401 84T407 155V165H429V155Q429 97 417 64T374 14Q339 -12 316 -32T278 -69T258 -100T252 -126Q252 -146 265 -154T303 -163Q317 -163 333 -161T367 -153V-171ZM404 270V292Q404 348 398 382T376 434T330 459T254 465H241Q189 465 158 458T108 430T84 371T77 270H404Z"  />
<glyph unicode="&#x11A;" horiz-adv-x="526" d="M484 0H78V680H484V660H100V365H466V345H100V20H484V0ZM276 736L167 826L179 838L276 760L373 838L385 826L276 736Z"  />
<glyph unicode="&#x11B;" horiz-adv-x="482" d="M243 -5Q184 -5 148 3T91 36T63 108T55 234V246Q55 324 63 371T91 443T148 477T241 485H254Q307 485 340 477T393 448T419 390T426 292V250H77V235Q77 161 83 118T106 52T156 22T243 15H255Q302 15 331 20T378 41T401 84T407 155V165H429V155Q429 107 421 76T392 27T339 2T255 -5H243ZM404 270V292Q404 347 399 381T377 433T331 458T254 465H241Q189 465 158 458T108 430T84 371T77 270H404ZM242 566L138 677L150 688L243 592L334 688L345 677L242 566Z"  />
<glyph unicode="&#x11C;" horiz-adv-x="634" d="M312 -5Q233 -5 184 4T108 48T70 148T60 329V350Q60 426 64 480T78 571T107 631T154 665T222 681T316 685H333Q407 685 453 678T524 650T559 596T568 506V494H546V506Q546 554 539 585T509 634T444 658T333 665H316Q241 665 195 657T124 617T91 522T82 348V331Q82 221 90 158T123 63T193 23T312 15H329Q402 15 446 21T513 46T544 101T552 200V294H293V314H574V201Q574 135 564 95T527 32T453 3T329 -5H312ZM421 746L324 824L227 746L215 758L324 849L433 758L421 746Z"  />
<glyph unicode="&#x11D;" horiz-adv-x="504" d="M227 -178Q177 -178 145 -172T94 -149T68 -105T60 -34V-23H80V-34Q80 -70 85 -94T107 -132T151 -152T227 -158H242Q297 -158 330 -153T381 -128T404 -72T410 29V106H409Q401 84 390 69T360 43T312 29T241 24H229Q177 24 143 33T89 66T61 132T53 242V256Q53 329 61 373T89 443T144 476T230 485H242Q282 485 310 481T358 467T389 441T409 402H410V480H432V30Q432 -38 425 -79T397 -142T339 -171T242 -178H227ZM241 44Q294 44 327 52T378 83T403 143T410 242V256Q410 321 403 361T378 425T327 456T242 465H230Q183 465 153 458T106 428T82 365T75 256V242Q75 180 81 141T105 81T152 52T229 44H241ZM329 577L239 674L148 577L135 589L239 700L342 589L329 577Z"  />
<glyph unicode="&#x11E;" horiz-adv-x="634" d="M312 -5Q233 -5 184 4T108 48T70 148T60 329V350Q60 426 64 480T78 571T107 631T154 665T222 681T316 685H333Q407 685 453 678T524 650T559 596T568 506V494H546V506Q546 554 539 585T509 634T444 658T333 665H316Q241 665 195 657T124 617T91 522T82 348V331Q82 221 90 158T123 63T193 23T312 15H329Q402 15 446 21T513 46T544 101T552 200V294H293V314H574V201Q574 135 564 95T527 32T453 3T329 -5H312ZM417 832Q413 779 390 757T321 735Q276 735 252 756T224 832H243Q248 786 268 770T321 754Q356 754 375 769T399 832H417Z"  />
<glyph unicode="&#x11F;" horiz-adv-x="504" d="M227 -178Q177 -178 145 -172T94 -149T68 -105T60 -34V-23H80V-34Q80 -70 85 -94T107 -132T151 -152T227 -158H242Q297 -158 330 -153T381 -128T404 -72T410 29V106H409Q401 84 390 69T360 43T312 29T241 24H229Q177 24 143 33T89 66T61 132T53 242V256Q53 329 61 373T89 443T144 476T230 485H242Q282 485 310 481T358 467T389 441T409 402H410V480H432V30Q432 -38 425 -79T397 -142T339 -171T242 -178H227ZM241 44Q294 44 327 52T378 83T403 143T410 242V256Q410 321 403 361T378 425T327 456T242 465H230Q183 465 153 458T106 428T82 365T75 256V242Q75 180 81 141T105 81T152 52T229 44H241ZM340 681Q336 628 313 606T244 584Q199 584 175 605T147 681H166Q171 635 191 619T244 603Q279 603 298 618T322 681H340Z"  />
<glyph unicode="&#x120;" horiz-adv-x="634" d="M312 -5Q233 -5 184 4T108 48T70 148T60 329V350Q60 426 64 480T78 571T107 631T154 665T222 681T316 685H333Q407 685 453 678T524 650T559 596T568 506V494H546V506Q546 554 539 585T509 634T444 658T333 665H316Q241 665 195 657T124 617T91 522T82 348V331Q82 221 90 158T123 63T193 23T312 15H329Q402 15 446 21T513 46T544 101T552 200V294H293V314H574V201Q574 135 564 95T527 32T453 3T329 -5H312ZM337 755H313V820H337V755Z"  />
<glyph unicode="&#x121;" horiz-adv-x="504" d="M227 -178Q177 -178 145 -172T94 -149T68 -105T60 -34V-23H80V-34Q80 -70 85 -94T107 -132T151 -152T227 -158H242Q297 -158 330 -153T381 -128T404 -72T410 29V106H409Q401 84 390 69T360 43T312 29T241 24H229Q177 24 143 33T89 66T61 132T53 242V256Q53 329 61 373T89 443T144 476T230 485H242Q282 485 310 481T358 467T389 441T409 402H410V480H432V30Q432 -38 425 -79T397 -142T339 -171T242 -178H227ZM241 44Q294 44 327 52T378 83T403 143T410 242V256Q410 321 403 361T378 425T327 456T242 465H230Q183 465 153 458T106 428T82 365T75 256V242Q75 180 81 141T105 81T152 52T229 44H241ZM251 615H227V680H251V615Z"  />
<glyph unicode="&#x122;" horiz-adv-x="634" d="M312 -5Q233 -5 184 4T108 48T70 148T60 329V350Q60 426 64 480T78 571T107 631T154 665T222 681T316 685H333Q407 685 453 678T524 650T559 596T568 506V494H546V506Q546 554 539 585T509 634T444 658T333 665H316Q241 665 195 657T124 617T91 522T82 348V331Q82 221 90 158T123 63T193 23T312 15H329Q402 15 446 21T513 46T544 101T552 200V294H293V314H574V201Q574 135 564 95T527 32T453 3T329 -5H312ZM346 -111Q346 -157 339 -175T307 -199V-184Q314 -181 319 -177T326 -165T329 -145T330 -111V-105H322V-49H346V-111Z"  />
<glyph unicode="&#x123;" horiz-adv-x="504" d="M227 -178Q177 -178 145 -172T94 -149T68 -105T60 -34V-23H80V-34Q80 -70 85 -94T107 -132T151 -152T227 -158H242Q297 -158 330 -153T381 -128T404 -72T410 29V106H409Q401 84 390 69T360 43T312 29T241 24H229Q177 24 143 33T89 66T61 132T53 242V256Q53 329 61 373T89 443T144 476T230 485H242Q282 485 310 481T358 467T389 441T409 402H410V480H432V30Q432 -38 425 -79T397 -142T339 -171T242 -178H227ZM241 44Q294 44 327 52T378 83T403 143T410 242V256Q410 321 403 361T378 425T327 456T242 465H230Q183 465 153 458T106 428T82 365T75 256V242Q75 180 81 141T105 81T152 52T229 44H241ZM251 546H227V608Q227 654 234 672T266 696V681Q258 678 254 674T247 662T244 642T243 608V602H251V546Z"  />
<glyph unicode="&#x124;" horiz-adv-x="660" d="M582 0H560V347H100V0H78V680H100V367H560V680H582V0ZM427 746L330 824L233 746L221 758L330 849L439 758L427 746Z"  />
<glyph unicode="&#x125;" horiz-adv-x="510" d="M441 0H419V290Q419 346 414 380T392 433T348 458T273 465H262Q220 465 189 458T138 432T107 379T96 291V0H74V680H96V394H97Q104 416 114 433T144 461T191 479T262 485H273Q323 485 355 478T407 452T433 399T441 309V0ZM173 746L83 843L-8 746L-21 758L83 869L186 758L173 746Z"  />
<glyph unicode="&#x126;" horiz-adv-x="660" d="M582 0H560V347H100V0H78V501H31V521H78V680H100V521H560V680H582V521H629V501H582V0ZM560 367V501H100V367H560Z"  />
<glyph unicode="&#x127;" horiz-adv-x="510" d="M441 0H419V290Q419 346 414 380T392 433T348 458T273 465H262Q220 465 189 458T138 432T107 379T96 291V0H74V565H30V585H74V680H96V585H240V565H96V394H97Q104 416 114 433T144 461T191 479T262 485H273Q323 485 355 478T407 452T433 399T441 309V0Z"  />
<glyph unicode="&#x128;" horiz-adv-x="178" d="M100 0H78V680H100V0ZM200 827Q196 792 181 776T143 760Q126 760 112 768T83 789Q68 801 58 806T37 811Q21 811 11 801T-4 759L-20 762Q-15 798 0 814T37 830Q54 830 66 823T95 803Q112 790 122 784T144 778Q161 778 170 789T184 830L200 827Z"  />
<glyph unicode="&#x129;" horiz-adv-x="170" d="M96 0H74V480H96V0ZM196 673Q192 638 177 622T139 606Q122 606 108 614T79 635Q64 647 54 652T33 657Q17 657 7 647T-8 605L-24 608Q-19 644 -4 660T33 676Q50 676 62 669T91 649Q108 636 118 630T140 624Q157 624 166 635T180 676L196 673Z"  />
<glyph unicode="&#x12A;" horiz-adv-x="178" d="M100 0H78V680H100V0ZM174 780H7V800H174V780Z"  />
<glyph unicode="&#x12B;" horiz-adv-x="170" d="M96 0H74V480H96V0ZM170 633H3V653H170V633Z"  />
<glyph unicode="&#x12E;" horiz-adv-x="178" d="M127 -172Q98 -182 63 -182Q-5 -182 -5 -129Q-5 -100 16 -68T78 1V680H100V0Q55 -39 36 -71T17 -127Q17 -147 30 -155T67 -163Q95 -163 127 -154V-172Z"  />
<glyph unicode="&#x12F;" horiz-adv-x="170" d="M123 -172Q108 -177 92 -179T59 -182Q-9 -182 -9 -129Q-9 -100 11 -69T74 0V480H96V0Q51 -41 32 -72T13 -127Q13 -147 26 -155T63 -163Q91 -163 123 -154V-172ZM97 615H73V680H97V615Z"  />
<glyph unicode="&#x130;" horiz-adv-x="178" d="M100 0H78V680H100V0ZM102 755H78V820H102V755Z"  />
<glyph unicode="&#x131;" horiz-adv-x="170" d="M96 0H74V480H96V0Z"  />
<glyph unicode="&#x132;" horiz-adv-x="693" d="M100 0H78V680H100V0ZM399 -5Q342 -5 308 1T254 28T229 87T222 191V201H244V191Q244 132 249 98T270 45T316 21T399 15H416Q477 15 513 21T568 50T592 115T598 230V680H620V230Q620 154 613 108T585 36T523 3T416 -5H399Z"  />
<glyph unicode="&#x133;" horiz-adv-x="340" d="M96 0H74V480H96V0ZM97 615H73V680H97V615ZM266 -56Q266 -89 263 -111T253 -147T234 -166T202 -172Q197 -172 191 -172T178 -170V-152Q185 -154 189 -154T199 -154Q213 -154 221 -150T235 -136T242 -106T244 -56V480H266V-56ZM267 615H243V680H267V615Z"  />
<glyph unicode="&#x134;" horiz-adv-x="493" d="M199 -5Q142 -5 108 1T54 28T29 87T22 191V201H44V191Q44 132 49 98T70 45T116 21T199 15H216Q277 15 313 21T368 50T392 115T398 230V680H420V230Q420 154 413 108T385 36T323 3T216 -5H199ZM502 746L405 824L308 746L296 758L405 849L514 758L502 746Z"  />
<glyph unicode="&#x135;" horiz-adv-x="170" d="M96 -56Q96 -89 93 -111T83 -147T64 -166T32 -172Q27 -172 21 -172T8 -170V-152Q15 -154 19 -154T29 -154Q43 -154 51 -150T65 -136T72 -106T74 -56V480H96V-56ZM173 577L83 674L-8 577L-21 589L83 700L186 589L173 577Z"  />
<glyph unicode="&#x136;" horiz-adv-x="580" d="M576 0H542L185 336H100V0H78V680H100V356H185L528 680H559L203 347L576 0ZM299 -111Q299 -157 292 -175T260 -199V-184Q267 -181 272 -177T279 -165T282 -145T283 -111V-105H275V-49H299V-111Z"  />
<glyph unicode="&#x137;" horiz-adv-x="420" d="M414 0H382L124 249H96V0H74V680H96V268H127L356 480H386L143 258L414 0ZM235 -111Q235 -157 228 -175T196 -199V-184Q203 -181 208 -177T215 -165T218 -145T219 -111V-105H211V-49H235V-111Z"  />
<glyph unicode="&#x139;" horiz-adv-x="468" d="M462 0H78V680H100V20H462V0ZM247 827L102 740L92 752L233 843L247 827Z"  />
<glyph unicode="&#x13A;" horiz-adv-x="170" d="M96 0H74V680H96V0ZM91 740L79 750L194 875L211 862L91 740Z"  />
<glyph unicode="&#x13B;" horiz-adv-x="468" d="M462 0H78V680H100V20H462V0ZM286 -111Q286 -157 279 -175T247 -199V-184Q254 -181 259 -177T266 -165T269 -145T270 -111V-105H262V-49H286V-111Z"  />
<glyph unicode="&#x13C;" horiz-adv-x="170" d="M96 0H74V680H96V0ZM98 -111Q98 -157 91 -175T59 -199V-184Q66 -181 71 -177T78 -165T81 -145T82 -111V-105H74V-49H98V-111Z"  />
<glyph unicode="&#x13D;" horiz-adv-x="468" d="M462 0H78V680H100V20H462V0ZM220 617Q220 590 219 574T214 549T204 535T189 528V544Q193 547 196 550T201 560T203 581T204 617V624H196V680H220V617Z"  />
<glyph unicode="&#x13E;" horiz-adv-x="170" d="M96 0H74V680H96V0ZM182 617Q182 590 181 574T176 549T166 535T151 528V544Q155 547 158 550T163 560T165 581T166 617V624H158V680H182V617Z"  />
<glyph unicode="&#x13F;" horiz-adv-x="468" d="M462 0H78V680H100V20H462V0ZM346 321H322V386H346V321Z"  />
<glyph unicode="&#x140;" horiz-adv-x="200" d="M96 0H74V680H96V0ZM196 321H172V386H196V321Z"  />
<glyph unicode="&#x141;" horiz-adv-x="468" d="M16 263V285L78 321V680H100V335L255 425V402L100 312V20H462V0H78V299L16 263Z"  />
<glyph unicode="&#x142;" horiz-adv-x="170" d="M96 0H74V339L24 296V320L74 363V680H96V379L146 424V399L96 355V0Z"  />
<glyph unicode="&#x143;" horiz-adv-x="673" d="M595 0H555L103 661H100V0H78V680H118L570 19H573V680H595V0ZM428 827L283 740L273 752L414 843L428 827Z"  />
<glyph unicode="&#x144;" horiz-adv-x="510" d="M441 0H419V290Q419 346 414 380T392 433T348 458T273 465H262Q220 465 189 458T138 432T107 379T96 291V0H74V480H96V394H97Q104 416 114 433T144 461T191 479T262 485H273Q323 485 355 478T407 452T433 399T441 309V0ZM208 564L196 574L311 699L328 686L208 564Z"  />
<glyph unicode="&#x145;" horiz-adv-x="673" d="M595 0H555L103 661H100V0H78V680H118L570 19H573V680H595V0ZM359 -111Q359 -157 352 -175T320 -199V-184Q327 -181 332 -177T339 -165T342 -145T343 -111V-105H335V-49H359V-111Z"  />
<glyph unicode="&#x146;" horiz-adv-x="510" d="M441 0H419V290Q419 346 414 380T392 433T348 458T273 465H262Q220 465 189 458T138 432T107 379T96 291V0H74V480H96V394H97Q104 416 114 433T144 461T191 479T262 485H273Q323 485 355 478T407 452T433 399T441 309V0ZM275 -111Q275 -157 268 -175T236 -199V-184Q243 -181 248 -177T255 -165T258 -145T259 -111V-105H251V-49H275V-111Z"  />
<glyph unicode="&#x147;" horiz-adv-x="673" d="M595 0H555L103 661H100V0H78V680H118L570 19H573V680H595V0ZM346 736L237 826L249 838L346 760L443 838L455 826L346 736Z"  />
<glyph unicode="&#x148;" horiz-adv-x="510" d="M441 0H419V290Q419 346 414 380T392 433T348 458T273 465H262Q220 465 189 458T138 432T107 379T96 291V0H74V480H96V394H97Q104 416 114 433T144 461T191 479T262 485H273Q323 485 355 478T407 452T433 399T441 309V0ZM262 566L158 677L170 688L263 592L354 688L365 677L262 566Z"  />
<glyph unicode="&#x149;" horiz-adv-x="510" d="M441 0H419V290Q419 346 414 380T392 433T348 458T273 465H262Q220 465 189 458T138 432T107 379T96 291V0H74V480H96V394H97Q104 416 114 433T144 461T191 479T262 485H273Q323 485 355 478T407 452T433 399T441 309V0ZM53 601Q53 574 52 558T47 533T37 519T22 512V528Q26 531 29 534T34 544T36 565T37 601V608H29V664H53V601Z"  />
<glyph unicode="&#x14C;" horiz-adv-x="657" d="M320 -5Q239 -5 189 4T110 48T71 149T60 330V350Q60 464 70 530T109 631T188 675T320 685H337Q418 685 468 676T547 632T586 531T597 350V330Q597 216 587 150T548 49T469 5T337 -5H320ZM337 15Q412 15 459 23T531 63T566 158T575 332V348Q575 458 566 521T532 617T459 657T337 665H320Q245 665 198 657T126 617T91 522T82 348V332Q82 222 91 159T125 63T198 23T320 15H337ZM412 780H245V800H412V780Z"  />
<glyph unicode="&#x14D;" horiz-adv-x="501" d="M245 -5Q188 -5 151 3T93 37T64 109T55 233V247Q55 323 63 370T93 442T151 476T245 485H256Q313 485 350 477T408 443T437 370T446 247V233Q446 156 438 110T408 38T350 4T256 -5H245ZM256 15Q309 15 342 22T393 53T417 119T424 233V247Q424 318 418 361T393 427T342 457T256 465H245Q192 465 159 458T108 427T84 361T77 247V233Q77 162 83 119T108 53T159 23T245 15H256ZM334 633H167V653H334V633Z"  />
<glyph unicode="&#x14E;" horiz-adv-x="657" d="M320 -5Q239 -5 189 4T110 48T71 149T60 330V350Q60 464 70 530T109 631T188 675T320 685H337Q418 685 468 676T547 632T586 531T597 350V330Q597 216 587 150T548 49T469 5T337 -5H320ZM337 15Q412 15 459 23T531 63T566 158T575 332V348Q575 458 566 521T532 617T459 657T337 665H320Q245 665 198 657T126 617T91 522T82 348V332Q82 222 91 159T125 63T198 23T320 15H337ZM425 832Q421 779 398 757T329 735Q284 735 260 756T232 832H251Q256 786 276 770T329 754Q364 754 383 769T407 832H425Z"  />
<glyph unicode="&#x14F;" horiz-adv-x="501" d="M245 -5Q188 -5 151 3T93 37T64 109T55 233V247Q55 323 63 370T93 442T151 476T245 485H256Q313 485 350 477T408 443T437 370T446 247V233Q446 156 438 110T408 38T350 4T256 -5H245ZM256 15Q309 15 342 22T393 53T417 119T424 233V247Q424 318 418 361T393 427T342 457T256 465H245Q192 465 159 458T108 427T84 361T77 247V233Q77 162 83 119T108 53T159 23T245 15H256ZM346 681Q342 628 319 606T250 584Q205 584 181 605T153 681H172Q177 635 197 619T250 603Q285 603 304 618T328 681H346Z"  />
<glyph unicode="&#x150;" horiz-adv-x="657" d="M320 -5Q239 -5 189 4T110 48T71 149T60 330V350Q60 464 70 530T109 631T188 675T320 685H337Q418 685 468 676T547 632T586 531T597 350V330Q597 216 587 150T548 49T469 5T337 -5H320ZM337 15Q412 15 459 23T531 63T566 158T575 332V348Q575 458 566 521T532 617T459 657T337 665H320Q245 665 198 657T126 617T91 522T82 348V332Q82 222 91 159T125 63T198 23T320 15H337ZM270 730L258 740L365 862L381 849L270 730ZM367 730L355 740L462 862L479 849L367 730Z"  />
<glyph unicode="&#x151;" horiz-adv-x="501" d="M245 -5Q188 -5 151 3T93 37T64 109T55 233V247Q55 323 63 370T93 442T151 476T245 485H256Q313 485 350 477T408 443T437 370T446 247V233Q446 156 438 110T408 38T350 4T256 -5H245ZM256 15Q309 15 342 22T393 53T417 119T424 233V247Q424 318 418 361T393 427T342 457T256 465H245Q192 465 159 458T108 427T84 361T77 247V233Q77 162 83 119T108 53T159 23T245 15H256ZM204 566L192 576L291 705L308 693L204 566ZM299 565L286 574L385 703L403 691L299 565Z"  />
<glyph unicode="&#x152;" horiz-adv-x="1023" d="M981 0H575V94H573Q561 67 546 48T506 18T440 1T337 -5H320Q239 -5 189 4T110 48T71 149T60 330V350Q60 464 70 530T109 631T188 675T320 685H337Q400 685 440 680T506 663T547 632T574 586H575V680H981V660H597V365H963V345H597V20H981V0ZM337 15Q412 15 458 24T531 63T566 144T575 282V407Q575 495 564 546T525 623T452 657T337 665H320Q245 665 198 657T126 617T91 522T82 348V332Q82 222 91 159T125 64T198 24T320 15H337Z"  />
<glyph unicode="&#x153;" horiz-adv-x="846" d="M793 155Q793 108 785 77T757 28T704 3T622 -5H610Q566 -5 536 -2T485 13T453 45T435 98H434Q428 66 415 46T381 15T330 -1T258 -5H246Q189 -5 152 3T94 38T64 110T55 234V247Q55 323 63 370T93 442T150 476T244 485H256Q297 485 327 481T378 466T413 435T435 383H436Q441 416 453 436T487 467T539 481T609 485H621Q673 485 706 477T758 448T784 390T791 292V250H446V235Q446 163 451 120T474 53T523 23T610 15H622Q668 15 697 21T742 42T765 85T771 155V165H793V155ZM258 15Q312 15 344 23T394 54T418 120T424 234V247Q424 319 417 362T391 428T340 458T256 465H244Q191 465 159 458T108 427T84 361T77 247V234Q77 163 83 120T108 54T159 23T246 15H258ZM769 270V292Q769 347 763 381T741 433T696 458T621 465H609Q557 465 525 458T476 430T453 371T446 270H769Z"  />
<glyph unicode="&#x154;" horiz-adv-x="615" d="M393 325Q466 325 495 358T524 468V492Q524 548 517 581T490 631T434 654T338 660H100V325H393ZM544 0H522V90Q522 162 518 205T498 270T451 298T366 305H100V0H78V680H342Q405 680 444 674T506 647T537 590T546 493V467Q546 427 540 401T521 357T492 330T452 316V315Q479 310 496 300T524 269T539 215T544 130V0ZM388 827L243 740L233 752L374 843L388 827Z"  />
<glyph unicode="&#x155;" horiz-adv-x="409" d="M96 0H74V480H96V394H97Q111 443 143 464T240 485H247Q292 485 319 479T362 456T382 414T387 347V322H365V343Q365 382 361 406T343 443T307 460T247 465H240Q207 465 181 458T136 430T107 374T96 279V0ZM168 564L156 574L271 699L288 686L168 564Z"  />
<glyph unicode="&#x156;" horiz-adv-x="615" d="M393 325Q466 325 495 358T524 468V492Q524 548 517 581T490 631T434 654T338 660H100V325H393ZM544 0H522V90Q522 162 518 205T498 270T451 298T366 305H100V0H78V680H342Q405 680 444 674T506 647T537 590T546 493V467Q546 427 540 401T521 357T492 330T452 316V315Q479 310 496 300T524 269T539 215T544 130V0ZM329 -111Q329 -157 322 -175T290 -199V-184Q297 -181 302 -177T309 -165T312 -145T313 -111V-105H305V-49H329V-111Z"  />
<glyph unicode="&#x157;" horiz-adv-x="409" d="M96 0H74V480H96V394H97Q111 443 143 464T240 485H247Q292 485 319 479T362 456T382 414T387 347V322H365V343Q365 382 361 406T343 443T307 460T247 465H240Q207 465 181 458T136 430T107 374T96 279V0ZM99 -111Q99 -157 92 -175T60 -199V-184Q67 -181 72 -177T79 -165T82 -145T83 -111V-105H75V-49H99V-111Z"  />
<glyph unicode="&#x158;" horiz-adv-x="615" d="M393 325Q466 325 495 358T524 468V492Q524 548 517 581T490 631T434 654T338 660H100V325H393ZM544 0H522V90Q522 162 518 205T498 270T451 298T366 305H100V0H78V680H342Q405 680 444 674T506 647T537 590T546 493V467Q546 427 540 401T521 357T492 330T452 316V315Q479 310 496 300T524 269T539 215T544 130V0ZM304 736L195 826L207 838L304 760L401 838L413 826L304 736Z"  />
<glyph unicode="&#x159;" horiz-adv-x="409" d="M96 0H74V480H96V394H97Q111 443 143 464T240 485H247Q292 485 319 479T362 456T382 414T387 347V322H365V343Q365 382 361 406T343 443T307 460T247 465H240Q207 465 181 458T136 430T107 374T96 279V0ZM214 566L110 677L122 688L215 592L306 688L317 677L214 566Z"  />
<glyph unicode="&#x15A;" horiz-adv-x="593" d="M533 179Q533 122 524 86T489 30T418 2T300 -5H281Q211 -5 168 1T102 28T70 87T62 187V211H84V187Q84 132 90 98T117 46T177 21T281 15H300Q366 15 407 20T472 43T503 93T511 179V193Q511 236 504 262T475 304T410 327T298 340Q229 344 186 351T118 375T84 420T75 493V510Q75 562 84 596T118 650T184 677T290 685H303Q369 685 410 678T476 649T509 591T518 494V478H496V493Q496 548 488 581T459 633T401 658T303 665H290Q230 665 193 659T134 635T105 587T97 510V494Q97 456 103 432T132 394T195 372T304 360Q378 355 423 347T492 320T525 272T533 193V179ZM386 827L241 740L231 752L372 843L386 827Z"  />
<glyph unicode="&#x15B;" horiz-adv-x="471" d="M233 -5Q177 -5 142 0T88 20T61 62T54 134V144H76V135Q76 97 81 74T103 37T151 20T233 15H256Q300 15 327 20T370 38T390 72T396 125V135Q396 163 391 181T368 210T319 228T235 237Q182 241 149 247T98 267T73 300T66 350V363Q66 398 73 421T99 459T148 479T226 485H244Q293 485 324 480T374 459T399 418T406 349V339H384V349Q384 384 379 406T359 442T317 460T244 465H226Q183 465 156 461T114 445T94 414T88 364V350Q88 326 93 310T114 284T159 267T239 258Q295 254 330 247T384 227T411 191T418 136V125Q418 86 410 61T383 22T333 1T256 -5H233ZM190 564L178 574L293 699L310 686L190 564Z"  />
<glyph unicode="&#x15C;" horiz-adv-x="593" d="M533 179Q533 122 524 86T489 30T418 2T300 -5H281Q211 -5 168 1T102 28T70 87T62 187V211H84V187Q84 132 90 98T117 46T177 21T281 15H300Q366 15 407 20T472 43T503 93T511 179V193Q511 236 504 262T475 304T410 327T298 340Q229 344 186 351T118 375T84 420T75 493V510Q75 562 84 596T118 650T184 677T290 685H303Q369 685 410 678T476 649T509 591T518 494V478H496V493Q496 548 488 581T459 633T401 658T303 665H290Q230 665 193 659T134 635T105 587T97 510V494Q97 456 103 432T132 394T195 372T304 360Q378 355 423 347T492 320T525 272T533 193V179ZM391 746L294 824L197 746L185 758L294 849L403 758L391 746Z"  />
<glyph unicode="&#x15D;" horiz-adv-x="471" d="M233 -5Q177 -5 142 0T88 20T61 62T54 134V144H76V135Q76 97 81 74T103 37T151 20T233 15H256Q300 15 327 20T370 38T390 72T396 125V135Q396 163 391 181T368 210T319 228T235 237Q182 241 149 247T98 267T73 300T66 350V363Q66 398 73 421T99 459T148 479T226 485H244Q293 485 324 480T374 459T399 418T406 349V339H384V349Q384 384 379 406T359 442T317 460T244 465H226Q183 465 156 461T114 445T94 414T88 364V350Q88 326 93 310T114 284T159 267T239 258Q295 254 330 247T384 227T411 191T418 136V125Q418 86 410 61T383 22T333 1T256 -5H233ZM323 577L233 674L142 577L129 589L233 700L336 589L323 577Z"  />
<glyph unicode="&#x15E;" horiz-adv-x="593" d="M533 179Q533 122 524 86T489 30T418 2T300 -5H281Q211 -5 168 1T102 28T70 87T62 187V211H84V187Q84 132 90 98T117 46T177 21T281 15H300Q366 15 407 20T472 43T503 93T511 179V193Q511 236 504 262T475 304T410 327T298 340Q229 344 186 351T118 375T84 420T75 493V510Q75 562 84 596T118 650T184 677T290 685H303Q369 685 410 678T476 649T509 591T518 494V478H496V493Q496 548 488 581T459 633T401 658T303 665H290Q230 665 193 659T134 635T105 587T97 510V494Q97 456 103 432T132 394T195 372T304 360Q378 355 423 347T492 320T525 272T533 193V179ZM223 -146L210 -137L314 -6L331 -18L223 -146Z"  />
<glyph unicode="&#x15F;" horiz-adv-x="471" d="M233 -5Q177 -5 142 0T88 20T61 62T54 134V144H76V135Q76 97 81 74T103 37T151 20T233 15H256Q300 15 327 20T370 38T390 72T396 125V135Q396 163 391 181T368 210T319 228T235 237Q182 241 149 247T98 267T73 300T66 350V363Q66 398 73 421T99 459T148 479T226 485H244Q293 485 324 480T374 459T399 418T406 349V339H384V349Q384 384 379 406T359 442T317 460T244 465H226Q183 465 156 461T114 445T94 414T88 364V350Q88 326 93 310T114 284T159 267T239 258Q295 254 330 247T384 227T411 191T418 136V125Q418 86 410 61T383 22T333 1T256 -5H233ZM160 -146L147 -137L251 -6L268 -18L160 -146Z"  />
<glyph unicode="&#x160;" horiz-adv-x="593" d="M533 179Q533 122 524 86T489 30T418 2T300 -5H281Q211 -5 168 1T102 28T70 87T62 187V211H84V187Q84 132 90 98T117 46T177 21T281 15H300Q366 15 407 20T472 43T503 93T511 179V193Q511 236 504 262T475 304T410 327T298 340Q229 344 186 351T118 375T84 420T75 493V510Q75 562 84 596T118 650T184 677T290 685H303Q369 685 410 678T476 649T509 591T518 494V478H496V493Q496 548 488 581T459 633T401 658T303 665H290Q230 665 193 659T134 635T105 587T97 510V494Q97 456 103 432T132 394T195 372T304 360Q378 355 423 347T492 320T525 272T533 193V179ZM296 736L187 826L199 838L296 760L393 838L405 826L296 736Z"  />
<glyph unicode="&#x161;" horiz-adv-x="471" d="M233 -5Q177 -5 142 0T88 20T61 62T54 134V144H76V135Q76 97 81 74T103 37T151 20T233 15H256Q300 15 327 20T370 38T390 72T396 125V135Q396 163 391 181T368 210T319 228T235 237Q182 241 149 247T98 267T73 300T66 350V363Q66 398 73 421T99 459T148 479T226 485H244Q293 485 324 480T374 459T399 418T406 349V339H384V349Q384 384 379 406T359 442T317 460T244 465H226Q183 465 156 461T114 445T94 414T88 364V350Q88 326 93 310T114 284T159 267T239 258Q295 254 330 247T384 227T411 191T418 136V125Q418 86 410 61T383 22T333 1T256 -5H233ZM233 566L129 677L141 688L234 592L325 688L336 677L233 566Z"  />
<glyph unicode="&#x162;" horiz-adv-x="509" d="M265 0H243V660H6V680H503V660H265V0ZM267 -111Q267 -157 260 -175T228 -199V-184Q235 -181 240 -177T247 -165T250 -145T251 -111V-105H243V-49H267V-111Z"  />
<glyph unicode="&#x163;" horiz-adv-x="368" d="M197 -5Q161 -5 138 0T103 24T86 79T81 179V460H12V480H81V605H103V480H335V460H103V177Q103 120 106 88T120 40T148 19T197 15H211Q244 15 264 20T294 41T308 87T312 166V220H333V165Q333 110 328 77T309 25T271 1T211 -5H197ZM223 -111Q223 -157 216 -175T184 -199V-184Q191 -181 196 -177T203 -165T206 -145T207 -111V-105H199V-49H223V-111Z"  />
<glyph unicode="&#x164;" horiz-adv-x="509" d="M265 0H243V660H6V680H503V660H265V0ZM255 736L146 826L158 838L255 760L352 838L364 826L255 736Z"  />
<glyph unicode="&#x165;" horiz-adv-x="368" d="M197 -5Q161 -5 138 0T103 24T86 79T81 179V460H12V480H81V605H103V480H335V460H103V177Q103 120 106 88T120 40T148 19T197 15H211Q244 15 264 20T294 41T308 87T312 166V220H333V165Q333 110 328 77T309 25T271 1T211 -5H197ZM345 617Q345 590 344 574T339 549T329 535T314 528V544Q318 547 321 550T326 560T328 581T329 617V624H321V680H345V617Z"  />
<glyph unicode="&#x166;" horiz-adv-x="509" d="M265 0H243V474H72V494H243V660H6V680H503V660H265V494H437V474H265V0Z"  />
<glyph unicode="&#x167;" horiz-adv-x="368" d="M333 165Q333 110 328 77T309 25T271 1T211 -5H197Q160 -5 138 0T103 24T86 79T81 179V343H32V363H81V460H12V480H81V605H103V480H335V460H103V363H255V343H103V177Q103 120 106 88T120 40T148 19T197 15H211Q244 15 263 20T294 41T308 87T312 166V220H333V165Z"  />
<glyph unicode="&#x168;" horiz-adv-x="648" d="M316 -5Q242 -5 195 1T121 30T84 96T73 212V680H95V212Q95 146 104 107T137 47T203 21T312 15H333Q400 15 442 20T509 46T543 106T553 212V680H575V212Q575 140 565 97T526 32T451 2T329 -5H316ZM434 827Q430 792 415 776T377 760Q360 760 346 768T317 789Q302 801 292 806T271 811Q255 811 245 801T230 759L214 762Q219 798 234 814T271 830Q288 830 300 823T329 803Q346 790 356 784T378 778Q395 778 404 789T418 830L434 827Z"  />
<glyph unicode="&#x169;" horiz-adv-x="506" d="M432 0H410V86H409Q402 64 392 47T362 19T315 1T244 -5H233Q182 -5 150 1T99 27T73 81T66 171V480H88V190Q88 133 93 99T113 46T156 21T233 15H244Q286 15 317 22T368 48T399 101T410 189V480H432V0ZM362 673Q358 638 343 622T305 606Q288 606 274 614T245 635Q230 647 220 652T199 657Q183 657 173 647T158 605L142 608Q147 644 162 660T199 676Q216 676 228 669T257 649Q274 636 284 630T306 624Q323 624 332 635T346 676L362 673Z"  />
<glyph unicode="&#x16A;" horiz-adv-x="648" d="M316 -5Q242 -5 195 1T121 30T84 96T73 212V680H95V212Q95 146 104 107T137 47T203 21T312 15H333Q400 15 442 20T509 46T543 106T553 212V680H575V212Q575 140 565 97T526 32T451 2T329 -5H316ZM408 780H241V800H408V780Z"  />
<glyph unicode="&#x16B;" horiz-adv-x="506" d="M432 0H410V86H409Q402 64 392 47T362 19T315 1T244 -5H233Q182 -5 150 1T99 27T73 81T66 171V480H88V190Q88 133 93 99T113 46T156 21T233 15H244Q286 15 317 22T368 48T399 101T410 189V480H432V0ZM336 633H169V653H336V633Z"  />
<glyph unicode="&#x16C;" horiz-adv-x="648" d="M316 -5Q242 -5 195 1T121 30T84 96T73 212V680H95V212Q95 146 104 107T137 47T203 21T312 15H333Q400 15 442 20T509 46T543 106T553 212V680H575V212Q575 140 565 97T526 32T451 2T329 -5H316ZM421 832Q417 779 394 757T325 735Q280 735 256 756T228 832H247Q252 786 272 770T325 754Q360 754 379 769T403 832H421Z"  />
<glyph unicode="&#x16D;" horiz-adv-x="506" d="M432 0H410V86H409Q402 64 392 47T362 19T315 1T244 -5H233Q182 -5 150 1T99 27T73 81T66 171V480H88V190Q88 133 93 99T113 46T156 21T233 15H244Q286 15 317 22T368 48T399 101T410 189V480H432V0ZM348 681Q344 628 321 606T252 584Q207 584 183 605T155 681H174Q179 635 199 619T252 603Q287 603 306 618T330 681H348Z"  />
<glyph unicode="&#x16E;" horiz-adv-x="648" d="M316 -5Q242 -5 195 1T121 30T84 96T73 212V680H95V212Q95 146 104 107T137 47T203 21T312 15H333Q400 15 442 20T509 46T543 106T553 212V680H575V212Q575 140 565 97T526 32T451 2T329 -5H316ZM322 723Q274 723 255 738T235 789V795Q235 830 254 845T322 861H328Q376 861 395 846T414 795V789Q414 754 395 739T328 723H322ZM328 740Q365 740 379 750T394 789V795Q394 823 380 833T328 844H322Q284 844 270 834T255 795V789Q255 761 269 751T322 740H328Z"  />
<glyph unicode="&#x16F;" horiz-adv-x="506" d="M432 0H410V86H409Q402 64 392 47T362 19T315 1T244 -5H233Q182 -5 150 1T99 27T73 81T66 171V480H88V190Q88 133 93 99T113 46T156 21T233 15H244Q286 15 317 22T368 48T399 101T410 189V480H432V0ZM249 565Q201 565 182 580T162 631V637Q162 673 181 688T249 703H255Q303 703 322 688T341 637V631Q341 596 322 581T255 565H249ZM255 582Q292 582 306 592T321 631V637Q321 665 307 675T255 686H249Q211 686 197 676T182 637V631Q182 603 196 593T249 582H255Z"  />
<glyph unicode="&#x170;" horiz-adv-x="648" d="M316 -5Q242 -5 195 1T121 30T84 96T73 212V680H95V212Q95 146 104 107T137 47T203 21T312 15H333Q400 15 442 20T509 46T543 106T553 212V680H575V212Q575 140 565 97T526 32T451 2T329 -5H316ZM264 730L252 740L359 862L375 849L264 730ZM361 730L349 740L456 862L473 849L361 730Z"  />
<glyph unicode="&#x171;" horiz-adv-x="506" d="M432 0H410V86H409Q402 64 392 47T362 19T315 1T244 -5H233Q182 -5 150 1T99 27T73 81T66 171V480H88V190Q88 133 93 99T113 46T156 21T233 15H244Q286 15 317 22T368 48T399 101T410 189V480H432V0ZM194 566L182 576L281 705L298 693L194 566ZM289 565L276 574L375 703L393 691L289 565Z"  />
<glyph unicode="&#x172;" horiz-adv-x="648" d="M395 -170Q379 -175 361 -178T324 -182Q256 -182 256 -130Q256 -101 277 -71T338 -5H316Q242 -5 195 1T121 30T84 96T73 212V680H95V212Q95 146 104 107T137 47T203 21T312 15H333Q400 15 442 20T509 46T543 106T553 212V680H575V212Q575 144 566 102T532 37T467 5T362 -5Q318 -43 298 -72T278 -127Q278 -147 291 -155T329 -163Q358 -163 395 -153V-170Z"  />
<glyph unicode="&#x173;" horiz-adv-x="506" d="M429 -171Q396 -182 360 -182Q293 -182 293 -129Q293 -99 319 -69T410 2V86H409Q402 64 392 47T362 19T315 1T244 -5H233Q182 -5 150 1T99 27T73 81T66 171V480H88V190Q88 133 93 99T113 46T156 21T233 15H244Q286 15 317 22T368 48T399 101T410 189V480H432V0Q375 -38 345 -67T315 -126Q315 -146 327 -154T364 -163Q378 -163 395 -161T429 -153V-171Z"  />
<glyph unicode="&#x174;" horiz-adv-x="892" d="M677 0H642L447 662H446L250 0H216L12 680H34L232 19H234L430 680H463L659 19H661L858 680H880L677 0ZM544 746L447 824L350 746L338 758L447 849L556 758L544 746Z"  />
<glyph unicode="&#x175;" horiz-adv-x="679" d="M509 0H478L341 463H339L201 0H170L22 480H45L184 19H187L325 480H355L493 19H495L635 480H657L509 0ZM430 577L340 674L249 577L236 589L340 700L443 589L430 577Z"  />
<glyph unicode="&#x176;" horiz-adv-x="561" d="M290 0H268V252L6 680H32L279 275H281L529 680H555L290 252V0ZM378 746L281 824L184 746L172 758L281 849L390 758L378 746Z"  />
<glyph unicode="&#x177;" horiz-adv-x="423" d="M47 -151Q55 -152 66 -152T86 -152Q108 -152 124 -148T154 -128T182 -81T217 4H205L12 480H37L221 22H223L388 480H411L259 54Q232 -23 213 -68T175 -136T137 -165T86 -172Q76 -172 66 -172T47 -171V-151ZM311 577L221 674L130 577L117 589L221 700L324 589L311 577Z"  />
<glyph unicode="&#x178;" horiz-adv-x="561" d="M290 0H268V252L6 680H32L279 275H281L529 680H555L290 252V0ZM229 755H205V820H229V755ZM356 755H332V820H356V755Z"  />
<glyph unicode="&#x179;" horiz-adv-x="571" d="M531 0H41V20L505 659V660H60V680H528V657L67 21V20H531V0ZM369 827L224 740L214 752L355 843L369 827Z"  />
<glyph unicode="&#x17A;" horiz-adv-x="382" d="M356 0H28V23L334 459V460H39V480H358V460L51 21V20H356V0ZM151 564L139 574L254 699L271 686L151 564Z"  />
<glyph unicode="&#x17B;" horiz-adv-x="571" d="M531 0H41V20L505 659V660H60V680H528V657L67 21V20H531V0ZM293 755H269V820H293V755Z"  />
<glyph unicode="&#x17C;" horiz-adv-x="382" d="M356 0H28V23L334 459V460H39V480H358V460L51 21V20H356V0ZM206 615H182V680H206V615Z"  />
<glyph unicode="&#x17D;" horiz-adv-x="571" d="M531 0H41V20L505 659V660H60V680H528V657L67 21V20H531V0ZM286 736L177 826L189 838L286 760L383 838L395 826L286 736Z"  />
<glyph unicode="&#x17E;" horiz-adv-x="382" d="M356 0H28V23L334 459V460H39V480H358V460L51 21V20H356V0ZM194 566L90 677L102 688L195 592L286 688L297 677L194 566Z"  />
<glyph unicode="&#x192;" horiz-adv-x="516" d="M137 369V389H258L282 542Q288 584 299 611T326 655T366 678T421 685Q435 685 448 684T478 681L477 662Q463 664 449 665T421 666Q394 666 375 661T341 641T318 602T303 539L280 389H421V369H277L227 45Q221 3 211 -24T185 -68T150 -92T101 -99Q85 -99 69 -98T38 -91V-72Q54 -77 70 -78T100 -80Q123 -80 140 -74T170 -54T191 -15T205 46L255 369H137Z"  />
<glyph unicode="&#x218;" horiz-adv-x="593" d="M533 179Q533 122 524 86T489 30T418 2T300 -5H281Q211 -5 168 1T102 28T70 87T62 187V211H84V187Q84 132 90 98T117 46T177 21T281 15H300Q366 15 407 20T472 43T503 93T511 179V193Q511 236 504 262T475 304T410 327T298 340Q229 344 186 351T118 375T84 420T75 493V510Q75 562 84 596T118 650T184 677T290 685H303Q369 685 410 678T476 649T509 591T518 494V478H496V493Q496 548 488 581T459 633T401 658T303 665H290Q230 665 193 659T134 635T105 587T97 510V494Q97 456 103 432T132 394T195 372T304 360Q378 355 423 347T492 320T525 272T533 193V179ZM328 -111Q328 -157 321 -175T289 -199V-184Q296 -181 301 -177T308 -165T311 -145T312 -111V-105H304V-49H328V-111Z"  />
<glyph unicode="&#x219;" horiz-adv-x="471" d="M233 -5Q177 -5 142 0T88 20T61 62T54 134V144H76V135Q76 97 81 74T103 37T151 20T233 15H256Q300 15 327 20T370 38T390 72T396 125V135Q396 163 391 181T368 210T319 228T235 237Q182 241 149 247T98 267T73 300T66 350V363Q66 398 73 421T99 459T148 479T226 485H244Q293 485 324 480T374 459T399 418T406 349V339H384V349Q384 384 379 406T359 442T317 460T244 465H226Q183 465 156 461T114 445T94 414T88 364V350Q88 326 93 310T114 284T159 267T239 258Q295 254 330 247T384 227T411 191T418 136V125Q418 86 410 61T383 22T333 1T256 -5H233ZM256 -111Q256 -157 249 -175T217 -199V-184Q224 -181 229 -177T236 -165T239 -145T240 -111V-105H232V-49H256V-111Z"  />
<glyph unicode="&#x21A;" horiz-adv-x="509" d="M265 0H243V660H6V680H503V660H265V0ZM267 -111Q267 -157 260 -175T228 -199V-184Q235 -181 240 -177T247 -165T250 -145T251 -111V-105H243V-49H267V-111Z"  />
<glyph unicode="&#x21B;" horiz-adv-x="368" d="M197 -5Q161 -5 138 0T103 24T86 79T81 179V460H12V480H81V605H103V480H335V460H103V177Q103 120 106 88T120 40T148 19T197 15H211Q244 15 264 20T294 41T308 87T312 166V220H333V165Q333 110 328 77T309 25T271 1T211 -5H197ZM223 -111Q223 -157 216 -175T184 -199V-184Q191 -181 196 -177T203 -165T206 -145T207 -111V-105H199V-49H223V-111Z"  />
<glyph unicode="&#x237;" horiz-adv-x="170" d="M96 -56Q96 -89 93 -111T83 -147T64 -166T32 -172Q27 -172 21 -172T8 -170V-152Q15 -154 19 -154T29 -154Q43 -154 51 -150T65 -136T72 -106T74 -56V480H96V-56Z"  />
<glyph unicode="&#x2C6;" horiz-adv-x="352" d="M266 577L176 674L85 577L72 589L176 700L279 589L266 577Z"  />
<glyph unicode="&#x2C7;" horiz-adv-x="352" d="M176 566L72 677L84 688L177 592L268 688L279 677L176 566Z"  />
<glyph unicode="&#x2C9;" horiz-adv-x="352" d="M261 780H94V800H261V780Z"  />
<glyph unicode="&#x2D8;" horiz-adv-x="352" d="M276 681Q272 628 249 606T180 584Q135 584 111 605T83 681H102Q107 635 127 619T180 603Q215 603 234 618T258 681H276Z"  />
<glyph unicode="&#x2D9;" horiz-adv-x="352" d="M187 615H163V680H187V615Z"  />
<glyph unicode="&#x2DA;" horiz-adv-x="352" d="M176 565Q128 565 109 580T89 631V637Q89 673 108 688T176 703H182Q230 703 249 688T268 637V631Q268 596 249 581T182 565H176ZM182 582Q219 582 233 592T248 631V637Q248 665 234 675T182 686H176Q138 686 124 676T109 637V631Q109 603 123 593T176 582H182Z"  />
<glyph unicode="&#x2DB;" horiz-adv-x="278" d="M208 -170Q192 -175 173 -178T137 -182Q69 -182 69 -130Q69 -98 93 -68T166 0H190Q133 -45 112 -73T91 -126Q91 -146 103 -154T142 -163Q171 -163 208 -153V-170Z"  />
<glyph unicode="&#x2DC;" horiz-adv-x="352" d="M286 673Q282 638 267 622T229 606Q212 606 198 614T169 635Q154 647 144 652T123 657Q107 657 97 647T82 605L66 608Q71 644 86 660T123 676Q140 676 152 669T181 649Q198 636 208 630T230 624Q247 624 256 635T270 676L286 673Z"  />
<glyph unicode="&#x2DD;" horiz-adv-x="352" d="M112 566L100 576L199 705L216 693L112 566ZM207 565L194 574L293 703L311 691L207 565Z"  />
<glyph unicode="&#x394;" horiz-adv-x="550" d="M528 0H21L259 680H292L528 0ZM499 20L276 660H274L51 20H499Z"  />
<glyph unicode="&#x3A9;" horiz-adv-x="635" d="M567 0H384V153Q468 174 514 241T561 404Q561 462 544 510T495 593T418 646T317 665Q261 665 217 646T140 593T91 511T74 404Q74 308 120 241T251 153V0H67V20H229V138Q144 167 98 235T52 404Q52 466 70 518T123 607T207 664T317 685Q378 685 427 665T511 607T564 518T583 404Q583 304 537 236T406 138V20H567V0Z"  />
<glyph unicode="&#x3BC;" horiz-adv-x="518" d="M443 0H421V85H420Q414 64 403 47T374 19T329 1T261 -5H250Q213 -5 187 -1T144 14T115 38T97 73H96V-186H74V480H96V194Q96 140 104 105T131 50T179 23T250 15H261Q302 15 332 22T382 49T411 102T421 189V480H443V0Z"  />
<glyph unicode="&#x3C0;" horiz-adv-x="532" d="M487 4Q474 -4 457 -4Q428 -4 419 15T409 86V460H118V0H96V460H41V480H489V460H431V78Q431 41 438 29T463 16Q476 16 486 21L487 4Z"  />
<glyph unicode="&#x2013;" horiz-adv-x="512" d="M512 243H0V263H512V243Z"  />
<glyph unicode="&#x2014;" horiz-adv-x="799" d="M768 243H31V263H768V243Z"  />
<glyph unicode="&#x2018;" horiz-adv-x="154" d="M91 510H63V582Q63 620 69 645T101 680V663Q87 656 83 638T79 582V576H91V510Z"  />
<glyph unicode="&#x2019;" horiz-adv-x="154" d="M91 608Q91 570 85 545T53 510V527Q67 534 71 552T75 608V614H63V680H91V608Z"  />
<glyph unicode="&#x201A;" horiz-adv-x="154" d="M91 -6Q91 -44 85 -69T53 -104V-87Q67 -80 71 -62T75 -6V0H63V66H91V-6Z"  />
<glyph unicode="&#x201C;" horiz-adv-x="237" d="M91 510H63V582Q63 620 69 645T101 680V663Q87 656 83 638T79 582V576H91V510ZM174 510H146V582Q146 620 152 645T184 680V663Q170 656 166 638T162 582V576H174V510Z"  />
<glyph unicode="&#x201D;" horiz-adv-x="237" d="M91 608Q91 570 85 545T53 510V527Q67 534 71 552T75 608V614H63V680H91V608ZM174 608Q174 570 168 545T136 510V527Q150 534 154 552T158 608V614H146V680H174V608Z"  />
<glyph unicode="&#x201E;" horiz-adv-x="237" d="M91 -6Q91 -44 85 -69T53 -104V-87Q67 -80 71 -62T75 -6V0H63V66H91V-6ZM174 -6Q174 -44 168 -69T136 -104V-87Q150 -80 154 -62T158 -6V0H146V66H174V-6Z"  />
<glyph unicode="&#x2020;" horiz-adv-x="532" d="M276 -90H256V461H77V481H256V680H276V481H455V461H276V-90Z"  />
<glyph unicode="&#x2021;" horiz-adv-x="532" d="M276 -90H256V109H77V129H256V479H77V499H256V680H276V499H455V479H276V129H455V109H276V-90Z"  />
<glyph unicode="&#x2022;" horiz-adv-x="372" d="M275 339Q275 302 249 276T186 250Q148 250 123 276T97 339Q97 377 122 402T186 428Q223 428 249 403T275 339Z"  />
<glyph unicode="&#x2026;" horiz-adv-x="465" d="M91 0H65V66H91V0ZM246 0H220V66H246V0ZM401 0H375V66H401V0Z"  />
<glyph unicode="&#x2030;" horiz-adv-x="918" d="M163 395Q133 395 114 400T83 420T67 462T63 534V542Q63 586 67 613T82 656T113 676T163 681H169Q199 681 218 676T249 656T265 614T269 542V534Q269 490 265 463T250 420T219 400T169 395H163ZM169 412Q194 412 210 415T235 432T247 469T250 534V542Q250 583 247 607T235 644T210 660T169 664H163Q138 664 122 661T97 644T85 607T82 542V534Q82 493 85 469T97 432T122 416T163 412H169ZM205 0H183L435 680H457L205 0ZM478 -1Q448 -1 429 4T398 24T382 66T378 138V146Q378 190 382 217T397 260T428 280T478 285H485Q515 285 534 280T564 260T580 218T584 146V138Q584 94 580 67T565 24T534 4T485 -1H478ZM485 16Q510 16 525 19T550 36T562 73T565 138V146Q565 187 562 211T550 248T526 264T485 268H478Q453 268 438 265T413 248T401 211T398 146V138Q398 97 401 73T413 36T437 20T478 16H485ZM749 -1Q719 -1 700 4T669 24T653 66T649 138V146Q649 190 653 217T668 260T699 280T749 285H756Q786 285 805 280T836 260T851 218T855 146V138Q855 94 851 67T836 24T806 4T756 -1H749ZM756 16Q781 16 796 19T821 36T833 73T836 138V146Q836 187 833 211T821 248T797 264T756 268H749Q724 268 709 265T684 248T672 211T669 146V138Q669 97 672 73T684 36T708 20T749 16H756Z"  />
<glyph unicode="&#x2039;" horiz-adv-x="213" d="M172 81L155 71L42 271L155 472L172 462L64 271L172 81Z"  />
<glyph unicode="&#x203A;" horiz-adv-x="213" d="M58 71L41 81L149 271L41 462L58 472L171 271L58 71Z"  />
<glyph unicode="&#x2044;" horiz-adv-x="103" d="M-63 0H-85L167 680H188L-63 0Z"  />
<glyph unicode="&#x20AC;" horiz-adv-x="628" d="M571 169Q571 116 563 82T532 29T468 2T361 -5H350Q275 -5 228 2T155 37T119 123T108 279H51V299H108V399H51V419H109Q110 510 120 563T158 643T231 677T350 685H363Q426 685 465 678T525 652T554 600T562 516V504H540V525Q540 566 534 593T509 636T456 658T363 665H350Q282 665 240 659T174 629T141 556T131 419H442V399H130V299H442V279H130Q131 185 139 132T172 53T238 21T350 15H363Q424 15 460 21T516 45T542 92T549 168V184H571V169Z"  />
<glyph unicode="&#x2113;" horiz-adv-x="349" d="M282 40Q241 -5 193 -5Q154 -5 136 23T117 127V244Q107 233 97 220T75 194L62 209Q77 226 91 243T117 275V462Q117 538 123 587T141 666T170 706T209 718Q247 718 263 689T280 610Q280 522 242 439T139 267V134Q139 66 152 41T198 15Q217 15 235 25T270 54L282 40ZM139 304Q190 376 224 450T258 606Q258 651 247 674T210 698Q195 698 182 688T160 651T145 579T139 462V304Z"  />
<glyph unicode="&#x2122;" horiz-adv-x="761" d="M176 350H156V661H36V680H298V661H176V350ZM695 350H675V662H670L532 350H507L369 662H364V350H344V680H385L519 371H521L656 680H695V350Z"  />
<glyph unicode="&#x2126;" horiz-adv-x="635" d="M567 0H384V153Q468 174 514 241T561 404Q561 462 544 510T495 593T418 646T317 665Q261 665 217 646T140 593T91 511T74 404Q74 308 120 241T251 153V0H67V20H229V138Q144 167 98 235T52 404Q52 466 70 518T123 607T207 664T317 685Q378 685 427 665T511 607T564 518T583 404Q583 304 537 236T406 138V20H567V0Z"  />
<glyph unicode="&#x212E;" horiz-adv-x="745" d="M654 164Q626 121 597 90T534 38T460 7T370 -3Q297 -3 238 24T137 98T73 207T50 342Q50 414 72 476T137 584T238 656T370 683Q443 683 502 658T604 588T670 481T694 342H191V116Q226 80 271 62T370 44Q448 44 506 78T611 192L654 164ZM553 386V565Q474 642 370 642Q317 642 272 623T191 565V386H553Z"  />
<glyph unicode="&#x2202;" horiz-adv-x="455" d="M75 659Q128 718 213 718Q261 718 299 693T362 622T401 511T415 365Q415 176 363 86T212 -5Q134 -5 89 45T43 194Q43 238 54 278T87 349T145 398T228 417Q282 417 325 391T391 313H392Q393 329 393 342T394 370Q394 451 380 512T341 615T283 677T213 698Q178 698 149 688T86 643L75 659ZM391 283Q366 344 321 370T228 397Q187 397 156 381T105 338T75 272T65 191Q65 106 104 61T211 15Q256 15 288 35T342 91T374 176T391 283Z"  />
<glyph unicode="&#x2206;" horiz-adv-x="550" d="M528 0H21L259 680H292L528 0ZM499 20L276 660H274L51 20H499Z"  />
<glyph unicode="&#x220F;" horiz-adv-x="669" d="M565 -214H543V766H126V-214H104V766H58V786H611V766H565V-214Z"  />
<glyph unicode="&#x2211;" horiz-adv-x="526" d="M472 -214H52V-192L339 319L62 764V786H464V766H86V765L364 320L76 -193V-194H472V-214Z"  />
<glyph unicode="&#x2212;" horiz-adv-x="500" d="M439 296H61V316H439V296Z"  />
<glyph unicode="&#x2215;" horiz-adv-x="104" d="M-63 0H-85L167 680H188L-63 0Z"  />
<glyph unicode="&#x2219;" horiz-adv-x="156" d="M91 233H65V299H91V233Z"  />
<glyph unicode="&#x221A;" horiz-adv-x="540" d="M298 -215H265L105 188L43 165L36 183L118 215L280 -199H281L482 787H504L298 -215Z"  />
<glyph unicode="&#x221E;" horiz-adv-x="717" d="M358 272Q410 331 452 361T541 392Q567 392 590 383T630 356T656 314T666 259Q666 197 630 161T541 125Q495 125 452 156T358 244Q310 190 267 158T175 125Q123 125 87 161T51 259Q51 289 60 314T87 356T126 382T175 392Q224 392 267 360T358 272ZM345 257Q316 290 293 312T250 348T212 367T175 373Q127 373 99 339T71 257Q71 234 78 214T98 178T131 153T175 144Q193 144 211 149T249 167T292 202T345 257ZM371 258Q400 225 423 204T466 169T504 150T541 144Q565 144 584 153T617 177T638 213T646 257Q646 305 618 339T541 373Q522 373 504 368T467 349T424 313T371 258Z"  />
<glyph unicode="&#x222B;" horiz-adv-x="303" d="M162 -23Q162 -80 158 -117T143 -176T119 -208T83 -217Q76 -217 67 -216T51 -212V-193Q58 -195 66 -196T83 -197Q97 -197 107 -191T125 -165T136 -113T140 -26V595Q140 652 144 689T159 748T183 780T219 789Q226 789 235 788T251 784V765Q244 767 236 768T219 769Q205 769 195 762T177 737T166 685T162 598V-23Z"  />
<glyph unicode="&#x2248;" horiz-adv-x="500" d="M439 254Q432 211 411 187T349 163Q323 163 298 173T246 198Q221 211 197 221T150 231Q118 231 103 213T80 160H61Q67 203 88 227T151 251Q177 251 203 240T256 216Q282 203 305 193T350 183Q381 183 396 201T419 254H439ZM439 412Q432 369 411 345T349 321Q323 321 298 331T246 356Q221 369 197 379T150 389Q118 389 103 371T80 318H61Q67 361 88 385T151 409Q177 409 203 398T256 374Q282 361 305 351T350 341Q381 341 396 359T419 412H439Z"  />
<glyph unicode="&#x2260;" horiz-adv-x="500" d="M439 209H212L136 54L119 63L191 209H61V229H200L274 379H61V399H283L353 540L371 531L306 399H439V379H296L222 229H439V209Z"  />
<glyph unicode="&#x2264;" horiz-adv-x="500" d="M439 107L61 293V317L439 502V480L80 305V304L439 130V107ZM439 35H61V55H439V35Z"  />
<glyph unicode="&#x2265;" horiz-adv-x="500" d="M439 293L61 107V130L420 304V305L61 480V502L439 317V293ZM439 35H61V55H439V35Z"  />
<glyph unicode="&#x25CA;" horiz-adv-x="433" d="M217 21L355 346L217 657H216L77 346L216 21H217ZM229 0H204L54 346L204 680H229L379 346L229 0Z"  />
<glyph unicode="&#xE300;" horiz-adv-x="352" d="M218 741L73 828L86 844L227 752L218 741Z"  />
<glyph unicode="&#xE301;" horiz-adv-x="352" d="M272 827L127 740L117 752L258 843L272 827Z"  />
<glyph unicode="&#xE302;" horiz-adv-x="352" d="M273 746L176 824L79 746L67 758L176 849L285 758L273 746Z"  />
<glyph unicode="&#xE303;" horiz-adv-x="352" d="M176 736L67 826L79 838L176 760L273 838L285 826L176 736Z"  />
<glyph unicode="&#xE304;" horiz-adv-x="352" d="M286 827Q282 792 267 776T229 760Q212 760 198 768T169 789Q154 801 144 806T123 811Q107 811 97 801T82 759L66 762Q71 798 86 814T123 830Q140 830 152 823T181 803Q198 790 208 784T230 778Q247 778 256 789T270 830L286 827Z"  />
<glyph unicode="&#xE305;" horiz-adv-x="352" d="M124 755H100V820H124V755ZM251 755H227V820H251V755Z"  />
<glyph unicode="&#xE306;" horiz-adv-x="352" d="M261 780H94V800H261V780Z"  />
<glyph unicode="&#xE307;" horiz-adv-x="352" d="M272 832Q268 779 245 757T176 735Q131 735 107 756T79 832H98Q103 786 123 770T176 754Q211 754 230 769T254 832H272Z"  />
<glyph unicode="&#xE308;" horiz-adv-x="352" d="M176 723Q128 723 109 738T89 789V795Q89 830 108 845T176 861H182Q230 861 249 846T268 795V789Q268 754 249 739T182 723H176ZM182 740Q219 740 233 750T248 789V795Q248 823 234 833T182 844H176Q138 844 124 834T109 795V789Q109 761 123 751T176 740H182Z"  />
<glyph unicode="&#xE309;" horiz-adv-x="352" d="M110 730L98 740L205 862L221 849L110 730ZM207 730L195 740L302 862L319 849L207 730Z"  />
<glyph unicode="&#xE30A;" horiz-adv-x="352" d="M187 755H163V820H187V755Z"  />
<glyph unicode="&#xE30B;" horiz-adv-x="352" d="M196 617Q196 590 195 574T190 549T180 535T165 528V544Q169 547 172 550T177 560T179 581T180 617V624H172V680H196V617Z"  />
<glyph unicode="&#xE30C;" horiz-adv-x="352" d="M184 -111Q184 -157 177 -175T145 -199V-184Q152 -181 157 -177T164 -165T167 -145T168 -111V-105H160V-49H184V-111Z"  />
<glyph unicode="&#xE30D;" horiz-adv-x="356" d="M178 546H154V608Q154 654 161 672T193 696V681Q185 678 181 674T174 662T171 642T170 608V602H178V546Z"  />
<glyph unicode="&#xFB01;" horiz-adv-x="376" d="M106 0H84V460H22V480H84V529Q84 574 89 604T108 652T143 677T198 685Q208 685 221 684T243 681V662Q222 665 198 665Q170 665 153 660T125 640T110 599T106 529V480H222V460H106V0ZM302 0H280V480H302V0ZM303 615H279V680H303V615Z"  />
<glyph unicode="&#xFB02;" horiz-adv-x="376" d="M106 0H84V460H22V480H84V529Q84 574 89 604T108 652T143 677T198 685Q208 685 221 684T243 681V662Q222 665 198 665Q170 665 153 660T125 640T110 599T106 529V480H222V460H106V0ZM302 0H280V680H302V0Z"  />

</font>
</defs>
</svg>
