<?xml  version="1.0" encoding="UTF-8"?>
<!DOCTYPE svg PUBLIC "-//W3C//DTD SVG 1.0//EN" "http://www.w3.org/TR/2001/REC-SVG-20010904/DTD/svg10.dtd" >
<svg xmlns="http://www.w3.org/2000/svg" >
<metadata>
<version>1.0</version>
<id><![CDATA[Eurostile Next W02 Regular]]></id>
<vendor>Monotype Imaging Inc.</vendor>
<credits>
<name>Fonts.com WebFonts</name>
<URL>http://webfonts.fonts.com</URL>
<role>Home of the Web fonts</role>
</credits>
<license>
<URL>http://webfonts.fonts.com/Legal</URL>
</license>
<copyright><![CDATA[Copyright © 2007 - 2008 Linotype GmbH, www.linotype.com. All rights reserved. This font software may not be reproduced, modified, disclosed or transferred without the express written approval of Linotype GmbH. Eurostile is a trademark of Linotype GmbH and may be registered in certain jurisdictions. This typeface is original artwork of Linotype Design Studio. The design may be protected in certain jurisdictions.]]></copyright>
<trademark></trademark>
<licensee>
<name></name>
</licensee>
</metadata>
<defs >
<font horiz-adv-x="498" id="60250abd-94bd-42b8-ae64-2cdb21d7b826">
<font-face font-family="" panose-1="2 11 5 4 2 2 2 5 2 4" ascent="755" descent="-245" units-per-em="1000" alphabetic="0">
</font-face>
<missing-glyph horiz-adv-x="485" d="M210 111V174H263V111H210ZM211 222V238Q211 263 213 281T222 313T240 341T268 369Q298 399 306 415T314 449Q314 483 293 506T242 529Q213 529 192 509T165 439L117 447Q124 516 159 546T245 577Q297 577 330 544T363 453Q363 422 351 398T303 340Q286 325 277 315T264 294T258 271T257 239V222H211ZM438 47V632H47V47H438ZM485 680V0H0V680H485Z"  />

<glyph unicode="&#xA;" />
<glyph unicode="&#xD;" horiz-adv-x="0" />
<glyph unicode=" " horiz-adv-x="247" />
<glyph unicode="!" horiz-adv-x="238" d="M154 185H84L79 680H159L154 185ZM160 0H78V106H160V0Z"  />
<glyph unicode="&quot;" horiz-adv-x="337" d="M124 463H66V708H124V463ZM270 463H212V708H270V463Z"  />
<glyph unicode="#" horiz-adv-x="613" d="M381 0H321L357 208H210L175 0H115L150 208H50V263H160L192 451H82V505H201L231 680H291L261 505H408L438 680H497L467 505H577V451H458L426 263H545V208H416L381 0ZM366 263L398 451H252L219 263H366Z"  />
<glyph unicode="$" horiz-adv-x="627" d="M338 -81H298V-6Q221 -6 175 1T103 29T71 86T63 182V213H140V189Q140 147 145 122T166 84T214 65T298 60V316Q227 322 183 332T114 362T80 413T71 491V507Q71 559 81 594T118 649T188 677T298 686V750H338V686Q407 685 450 676T516 646T548 590T557 499V477H481V496Q481 534 476 558T454 596T411 615T338 622V382Q411 375 457 364T529 333T564 281T573 201V185Q573 127 563 90T527 32T455 3T338 -6V-81ZM338 60Q388 60 419 64T467 82T490 118T496 181V198Q496 228 491 248T469 280T421 299T338 310V60ZM148 491Q148 464 152 446T173 416T218 398T298 387V622Q251 622 222 617T177 599T154 564T148 506V491Z"  />
<glyph unicode="%" horiz-adv-x="718" d="M176 376Q141 376 119 381T84 402T65 446T60 518V539Q60 583 65 611T83 654T119 675T176 681H186Q221 681 243 676T279 655T297 611T302 539V518Q302 474 297 446T279 403T244 382T186 376H176ZM186 417Q205 417 217 420T236 433T245 463T248 516V541Q248 574 246 593T237 623T218 637T186 641H177Q157 641 145 638T126 624T117 594T114 541V516Q114 483 116 464T125 434T144 420T177 417H186ZM252 0H201L461 680H512L252 0ZM531 -1Q496 -1 474 4T439 25T420 69T415 141V162Q415 206 420 234T438 277T474 298T531 304H541Q576 304 598 299T634 278T652 234T657 162V141Q657 97 652 69T634 26T599 5T541 -1H531ZM541 40Q560 40 572 43T591 56T600 86T603 139V164Q603 197 601 216T592 246T573 260T541 264H532Q512 264 500 261T481 247T472 217T469 164V139Q469 106 471 87T480 57T499 43T532 40H541Z"  />
<glyph unicode="&amp;" horiz-adv-x="709" d="M588 267Q588 228 587 192T583 131L683 49L642 -2L563 63Q553 45 539 32T499 11T433 -2T330 -6H313Q231 -6 182 2T105 33T70 96T61 199V215Q61 259 65 291T82 344T114 377T166 393Q152 406 142 418T125 446T115 479T111 524V541Q111 585 121 613T155 657T219 680T321 686H338Q405 686 445 679T507 654T536 602T543 516V491H470V518Q470 552 466 573T449 606T409 621T339 625H323Q279 625 253 622T214 608T196 580T191 533V521Q191 501 193 486T203 458T223 430T259 398L520 183V344H588V267ZM330 58Q376 58 407 60T458 69T489 84T507 109L211 352Q187 350 173 342T151 319T141 279T138 220V207Q138 158 144 129T168 84T222 63T317 58H330Z"  />
<glyph unicode="&apos;" horiz-adv-x="190" d="M124 463H66V708H124V463Z"  />
<glyph unicode="(" horiz-adv-x="299" d="M246 -8H232Q179 -8 145 0T91 43T64 144T56 330V350Q56 468 63 535T91 637T145 679T232 688H246V626H234Q202 626 182 620T150 585T135 501T131 346V334Q131 235 135 179T150 95T181 61T234 54H246V-8Z"  />
<glyph unicode=")" horiz-adv-x="299" d="M52 -8V54H64Q96 54 116 60T147 95T163 179T167 334V347Q167 446 163 501T148 585T116 619T64 626H52V688H65Q100 688 127 685T174 671T207 637T228 578T239 485T242 351V330Q242 212 235 145T207 43T153 1T65 -8H52Z"  />
<glyph unicode="*" horiz-adv-x="424" d="M240 691L233 565H191L184 691H240ZM374 579L268 526L250 557L349 623L374 579ZM349 408L250 474L268 505L374 452L349 408ZM184 340L191 466H233L240 340H184ZM50 452L156 505L174 474L75 408L50 452ZM75 623L174 557L156 526L50 579L75 623Z"  />
<glyph unicode="+" horiz-adv-x="527" d="M295 91H231V275H59V335H231V515H295V335H468V275H295V91Z"  />
<glyph unicode="&#x2c;" horiz-adv-x="202" d="M142 -21Q142 -51 137 -70T121 -102T90 -118T43 -123V-79Q69 -79 78 -68T88 -27V0H60V106H142V-21Z"  />
<glyph unicode="-" horiz-adv-x="374" d="M314 216H60V285H314V216Z"  />
<glyph unicode="." horiz-adv-x="202" d="M142 0H60V106H142V0Z"  />
<glyph unicode="/" horiz-adv-x="415" d="M107 -8H45L309 688H371L107 -8Z"  />
<glyph unicode="0" horiz-adv-x="625" d="M320 62Q375 62 408 69T460 101T484 174T490 307V373Q490 457 484 505T460 579T409 611T320 618H305Q250 618 217 611T165 579T141 506T135 373V307Q135 223 141 175T165 101T216 69T305 62H320ZM303 -6Q226 -6 178 5T102 50T66 146T56 311V370Q56 472 65 534T102 630T177 675T303 686H322Q399 686 447 675T523 630T559 534T569 370V311Q569 209 560 147T523 50T448 5T322 -6H303Z"  />
<glyph unicode="1" horiz-adv-x="410" d="M295 0H214V603H212L60 447L14 497L196 680H295V0Z"  />
<glyph unicode="2" horiz-adv-x="607" d="M555 0H60Q60 5 60 18T59 46T59 74T59 91Q59 158 67 200T100 268T172 308T297 333Q353 341 387 350T440 375T465 416T472 482V500Q472 537 467 561T444 598T396 617T315 622H301Q249 622 219 617T172 597T150 553T145 479V459H69V477Q69 541 77 581T110 645T180 677T299 686H312Q386 686 433 678T506 649T543 593T553 502V483Q553 426 543 390T508 330T439 294T329 271Q263 261 225 252T168 225T144 180T139 104V65H555V0Z"  />
<glyph unicode="3" horiz-adv-x="615" d="M563 175Q563 121 553 86T514 30T435 2T307 -6H287Q213 -6 168 2T99 32T66 93T58 197V220H134V196Q134 151 139 124T160 83T206 65T289 60H306Q363 60 397 64T451 81T476 118T482 181V201Q482 236 477 258T459 293T424 310T367 315H236V378H361Q394 378 415 382T448 399T465 431T470 484V504Q470 540 465 563T442 598T392 616T307 621H294Q245 621 215 617T169 599T147 557T141 485V461H66V485Q66 547 74 586T107 647T175 678T292 686H308Q383 686 430 679T504 651T540 597T550 509V491Q550 455 546 431T532 390T506 365T467 349V347Q491 342 509 334T539 309T557 265T563 196V175Z"  />
<glyph unicode="4" horiz-adv-x="624" d="M496 0H419V157H46V242L384 680H496V221H578V157H496V0ZM419 221V616H416L117 224V221H419Z"  />
<glyph unicode="5" horiz-adv-x="615" d="M293 -6Q218 -6 173 1T103 30T70 89T61 188V204H136V190Q136 147 141 121T164 82T214 64T299 60H316Q372 60 405 65T455 87T478 132T484 207V228Q484 277 479 307T458 353T409 375T323 381H303Q262 381 235 379T190 371T162 352T146 321H71V680H547V616H146V391H147Q155 406 167 417T199 434T250 444T325 447H347Q415 447 457 438T524 406T556 343T565 241V206Q565 142 556 101T519 36T442 3T315 -6H293Z"  />
<glyph unicode="6" horiz-adv-x="615" d="M299 -6Q220 -6 173 3T100 40T66 116T58 244V371Q58 476 67 538T104 634T180 676T308 686H326Q396 686 440 679T508 651T540 593T549 498V479H474V496Q474 536 469 560T447 598T402 615T324 620H310Q254 620 220 614T168 585T144 518T138 395V338H139Q147 355 159 367T192 388T242 400T313 404H330Q401 404 446 397T517 369T552 311T562 212V187Q562 129 553 92T516 33T442 3T318 -6H299ZM316 60Q371 60 404 65T455 84T478 123T484 190V207Q484 249 479 275T455 316T404 335T316 340H303Q256 340 224 336T173 319T145 286T137 230V215Q137 164 142 134T166 87T216 65T303 60H316Z"  />
<glyph unicode="7" horiz-adv-x="577" d="M218 0H128L449 610V613H38V680H539V617L218 0Z"  />
<glyph unicode="8" horiz-adv-x="616" d="M315 384Q369 384 400 388T448 404T469 438T474 496V513Q474 547 469 568T447 602T399 618T316 623H300Q249 623 218 619T169 602T147 569T141 513V496Q141 460 146 438T167 404T215 388T300 384H315ZM315 59Q370 59 403 63T454 80T476 116T482 179V198Q482 238 476 262T451 299T401 316T315 320H300Q247 320 215 316T164 299T140 262T134 198V179Q134 140 139 117T162 81T212 64T300 59H315ZM299 -6Q223 -6 176 1T101 28T65 81T55 167V182Q55 229 61 260T81 310T115 338T164 351V353Q136 357 117 365T86 391T69 436T64 506V522Q64 571 74 602T110 652T181 678T298 686H318Q390 686 435 679T507 653T542 603T552 522V506Q552 464 547 437T529 392T498 366T450 353V351Q478 347 499 338T534 310T554 260T561 182V167Q561 115 552 82T516 29T442 2T318 -6H299Z"  />
<glyph unicode="9" horiz-adv-x="615" d="M288 -6Q217 -6 173 2T104 31T69 88T60 182V201H135V184Q135 145 141 121T164 83T211 65T290 60H303Q360 60 394 66T446 95T471 162T477 285V342H476Q468 325 456 313T423 292T373 280T302 276H285Q214 276 169 283T98 312T63 370T53 468V493Q53 551 62 588T99 647T173 677T297 686H316Q394 686 441 677T514 640T548 564T557 436V309Q557 204 548 142T511 46T434 4T305 -6H288ZM312 340Q360 340 391 344T442 361T470 395T478 452V467Q478 518 473 548T450 594T399 616T312 621H300Q244 621 211 616T160 597T137 558T131 491V475Q131 432 136 406T160 365T211 345T300 340H312Z"  />
<glyph unicode=":" horiz-adv-x="212" d="M147 374H65V480H147V374ZM147 0H65V106H147V0Z"  />
<glyph unicode=";" horiz-adv-x="212" d="M147 374H65V480H147V374ZM147 -21Q147 -51 142 -70T126 -102T95 -118T48 -123V-79Q74 -79 83 -68T93 -27V0H65V106H147V-21Z"  />
<glyph unicode="&lt;" horiz-adv-x="527" d="M468 94L59 272V334L468 512V447L132 303V302L468 159V94Z"  />
<glyph unicode="=" horiz-adv-x="527" d="M468 362H59V422H468V362ZM468 180H59V241H468V180Z"  />
<glyph unicode="&gt;" horiz-adv-x="527" d="M468 272L59 94V159L395 302V303L59 447V512L468 334V272Z"  />
<glyph unicode="?" horiz-adv-x="536" d="M279 207H207V229Q207 257 211 277T226 311T256 335T305 352Q342 361 364 370T399 394T415 430T419 489V502Q419 540 414 563T395 600T353 619T282 624H268Q221 624 192 620T148 601T127 559T122 485V461H51V490Q51 552 60 590T94 650T160 678T268 686H283Q348 686 388 678T452 649T483 594T492 508V491Q492 444 486 412T465 358T422 323T354 300Q330 295 316 289T293 275T282 254T279 224V207ZM284 0H202V106H284V0Z"  />
<glyph unicode="@" horiz-adv-x="818" d="M418 122Q450 122 470 127T501 147T517 191T521 266V282Q521 324 517 352T500 396T468 419T417 426H403Q370 426 350 422T319 402T304 359T300 282V266Q300 218 304 190T320 146T352 127T403 122H418ZM730 7Q730 -26 718 -48T672 -84T581 -102T430 -108H394Q289 -108 224 -99T123 -56T75 44T62 223V297Q62 408 74 474T122 574T221 619T388 630H422Q494 630 547 627T637 611T697 578T732 519T749 429T754 300V250Q754 191 749 156T729 101T690 75T630 69Q579 69 557 83T526 135H523Q518 117 510 104T487 81T452 68T401 63H385Q342 63 314 70T268 99T243 159T236 261V284Q236 346 243 384T267 444T312 473T385 481H400Q429 481 449 478T484 466T507 444T523 407H525V473H580V192Q580 168 582 154T591 131T608 121T635 118Q657 118 670 121T690 138T699 177T701 248V296Q701 364 698 411T685 491T657 542T608 571T532 583T423 586H388Q297 586 243 578T161 540T124 449T115 286V234Q115 166 118 118T132 36T162 -16T212 -46T287 -59T394 -62H429Q510 -62 558 -58T631 -46T663 -25T671 8V17H730V7Z"  />
<glyph unicode="A" horiz-adv-x="632" d="M620 0H533L480 154H152L98 0H12L259 680H378L620 0ZM459 218L321 619H315L171 218H459Z"  />
<glyph unicode="B" horiz-adv-x="633" d="M69 0V680H366Q424 680 463 673T526 647T560 595T570 509Q570 470 565 443T549 398T520 370T478 356V353Q508 348 529 338T563 308T583 258T589 184Q589 128 579 93T544 37T481 8T385 0H69ZM371 65Q413 65 440 70T482 89T502 128T508 192Q508 231 502 256T482 296T447 315T396 321H150V65H371ZM391 382Q418 382 437 386T468 403T485 439T491 500Q491 537 485 560T464 595T424 612T361 617H150V382H391Z"  />
<glyph unicode="C" horiz-adv-x="651" d="M324 -6Q239 -6 186 7T103 55T63 152T52 312V369Q52 466 63 527T105 624T187 673T323 686H341Q416 686 464 677T541 646T581 586T593 492V471H514V487Q514 526 507 551T481 592T429 613T341 619H325Q265 619 228 611T171 576T143 501T135 369V313Q135 230 142 181T170 105T228 71T327 63H342Q397 63 431 68T484 89T511 130T518 197V212H598V190Q598 132 586 94T544 34T466 3T343 -6H324Z"  />
<glyph unicode="D" horiz-adv-x="687" d="M631 309Q631 210 621 149T579 55T491 11T342 0H69V680H342Q432 680 488 670T576 627T619 534T631 372V309ZM339 67Q407 67 448 74T511 108T541 182T548 314V369Q548 451 540 500T510 574T446 606T339 614H152V67H339Z"  />
<glyph unicode="E" horiz-adv-x="545" d="M512 0H69V680H509V614H152V384H489V320H152V67H512V0Z"  />
<glyph unicode="F" horiz-adv-x="522" d="M152 0H69V680H500V612H152V364H481V299H152V0Z"  />
<glyph unicode="G" horiz-adv-x="653" d="M325 -6Q242 -6 190 7T107 55T66 152T54 312V370Q54 470 66 532T110 628T193 674T326 686H344Q419 686 467 677T544 645T584 587T596 496V480H516V494Q516 532 509 556T483 594T431 613T343 619H328Q268 619 231 611T173 577T145 502T137 369V312Q137 231 144 182T173 107T231 72T328 63H343Q398 63 432 68T487 90T514 136T522 214V275H310V337H602V223Q602 155 591 111T550 41T470 5T343 -6H325Z"  />
<glyph unicode="H" horiz-adv-x="676" d="M607 0H524V317H152V0H69V680H152V390H524V680H607V0Z"  />
<glyph unicode="I" horiz-adv-x="221" d="M152 0H69V680H152V0Z"  />
<glyph unicode="J" horiz-adv-x="523" d="M221 -6Q159 -6 121 1T61 31T32 95T24 203V230H100V209Q100 160 104 131T121 87T159 68T224 63H239Q285 63 312 68T353 89T371 138T376 225V680H459V230Q459 155 451 109T420 37T353 3T240 -6H221Z"  />
<glyph unicode="K" horiz-adv-x="622" d="M613 0H505L224 315H151V0H69V680H151V379H227L494 680H594L293 349L613 0Z"  />
<glyph unicode="L" horiz-adv-x="490" d="M478 0H69V680H152V68H478V0Z"  />
<glyph unicode="M" horiz-adv-x="870" d="M801 0H722L724 612H721L478 0H394L149 612H146L148 0H69V680H200L436 83H439L673 680H801V0Z"  />
<glyph unicode="N" horiz-adv-x="706" d="M637 0H511L150 609H146L147 0H69V680H197L557 73H560L558 680H637V0Z"  />
<glyph unicode="O" horiz-adv-x="679" d="M53 369Q53 467 65 528T107 625T192 673T330 686H349Q433 686 487 673T571 625T614 529T626 369V311Q626 213 614 152T572 55T487 7T349 -6H330Q246 -6 192 7T108 55T65 151T53 311V369ZM136 312Q136 230 143 181T172 106T231 71T331 63H349Q410 63 448 71T507 105T535 181T543 312V369Q543 451 536 500T507 575T448 610T349 619H331Q269 619 231 611T172 576T144 500T136 369V312Z"  />
<glyph unicode="P" horiz-adv-x="614" d="M328 321Q383 321 416 326T467 345T489 386T495 453V482Q495 524 490 550T467 590T416 609T327 614H151V321H328ZM151 0H69V680H336Q410 680 457 673T530 643T566 582T576 480V455Q576 392 566 353T528 292T455 262T339 254H151V0Z"  />
<glyph unicode="Q" horiz-adv-x="683" d="M53 369Q53 467 65 528T107 625T192 673T330 686H349Q433 686 487 673T571 625T614 529T626 369V311Q626 237 620 184T597 95L660 42L617 -10L556 41Q524 14 474 4T349 -6H330Q246 -6 192 7T108 55T65 151T53 311V369ZM136 312Q136 230 143 181T172 106T231 71T331 63H349Q403 63 437 69T495 92L338 225L382 277L530 151Q538 179 541 218T544 312V369Q544 451 537 500T508 575T449 610T349 619H331Q269 619 231 611T172 576T144 500T136 369V312Z"  />
<glyph unicode="R" horiz-adv-x="636" d="M374 332Q408 332 431 338T467 358T486 397T492 457V482Q492 524 487 549T465 589T419 609T342 614H151V332H374ZM575 0H492V92Q492 150 488 185T469 238T425 261T347 267H151V0H69V680H359Q426 680 468 672T534 642T566 584T575 492V469Q575 427 570 398T552 351T522 322T480 306V304Q508 299 526 289T556 258T571 205T575 122V0Z"  />
<glyph unicode="S" horiz-adv-x="619" d="M567 186Q567 129 557 92T520 33T449 3T335 -6H312Q229 -6 179 1T101 30T64 88T55 185V213H133V189Q133 149 139 124T164 85T217 65T307 60H326Q376 60 407 64T455 82T479 120T485 183V197Q485 228 480 248T455 282T399 302T299 314Q225 320 179 331T107 362T72 414T62 493V509Q62 558 72 592T107 647T177 677T288 686H308Q385 686 432 678T506 648T542 590T551 499V477H472V495Q472 533 467 557T444 596T395 615T312 621H295Q247 621 218 617T172 599T149 564T143 508V494Q143 465 149 447T174 416T229 396T326 384Q402 378 449 367T522 335T557 282T567 202V186Z"  />
<glyph unicode="T" horiz-adv-x="539" d="M311 0H228V613H12V680H527V613H311V0Z"  />
<glyph unicode="U" horiz-adv-x="667" d="M325 -6Q245 -6 194 2T114 35T75 104T64 221V680H147V228Q147 173 154 141T180 91T234 68T323 63H342Q397 63 431 68T485 90T512 140T520 228V680H603V221Q603 149 592 105T552 36T471 3T340 -6H325Z"  />
<glyph unicode="V" horiz-adv-x="615" d="M364 0H252L12 680H99L308 68H311L518 680H603L364 0Z"  />
<glyph unicode="W" horiz-adv-x="936" d="M734 0H627L470 604H468L309 0H203L22 680H105L258 68H261L421 680H518L678 68H681L832 680H914L734 0Z"  />
<glyph unicode="X" horiz-adv-x="627" d="M610 0H513L313 315L111 0H17L250 355L39 680H134L315 394L497 680H589L377 355L610 0Z"  />
<glyph unicode="Y" horiz-adv-x="604" d="M343 0H260V239L10 680H100L302 314H304L503 680H594L343 239V0Z"  />
<glyph unicode="Z" horiz-adv-x="585" d="M547 0H39V67L448 615V616H54V680H543V612L136 67V65H547V0Z"  />
<glyph unicode="[" horiz-adv-x="302" d="M248 -8H71V688H248V625H145V55H248V-8Z"  />
<glyph unicode="\" horiz-adv-x="444" d="M371 -8H309L45 688H107L371 -8Z"  />
<glyph unicode="]" horiz-adv-x="302" d="M230 -8H53V55H156V625H53V688H230V-8Z"  />
<glyph unicode="^" horiz-adv-x="546" d="M498 302H428L274 613H272L117 302H48L242 680H303L498 302Z"  />
<glyph unicode="_" horiz-adv-x="393" d="M393 -128H0V-85H393V-128Z"  />
<glyph unicode="`" horiz-adv-x="382" d="M248 548L90 659L128 708L271 577L248 548Z"  />
<glyph unicode="a" horiz-adv-x="503" d="M444 0H371V54H369Q352 22 321 8T226 -6H215Q165 -6 133 0T82 23T56 68T48 138V152Q48 193 56 220T84 263T135 286T212 293H222Q289 293 321 283T368 247H370V278Q370 328 367 358T351 403T316 423T252 428H241Q208 428 187 425T154 412T138 388T133 350V340H62V350Q62 392 71 418T101 460T157 480T244 486H258Q319 486 355 479T411 448T437 382T444 268V0ZM249 52Q284 52 307 55T345 69T365 96T371 140V150Q371 179 366 196T346 223T307 235T243 238H234Q199 238 177 235T143 221T126 194T121 150V141Q121 114 125 97T143 69T179 56T240 52H249Z"  />
<glyph unicode="b" horiz-adv-x="535" d="M296 -6Q228 -6 194 10T142 69H140V0H65V680H142V415H144Q159 455 193 470T294 486H307Q358 486 392 476T448 440T478 369T487 254V229Q487 158 478 113T448 41T393 5T306 -6H296ZM284 56Q322 56 346 62T385 87T404 139T410 227V255Q410 309 405 342T385 394T347 419T284 426H270Q232 426 207 420T167 397T146 349T140 269V213Q140 166 145 136T166 88T206 63T270 56H284Z"  />
<glyph unicode="c" horiz-adv-x="505" d="M251 -6Q191 -6 152 4T90 39T58 109T48 224V257Q48 327 58 372T92 442T155 476T252 486H269Q324 486 360 478T417 452T447 403T456 326V312H384V322Q384 353 379 373T361 405T326 421T268 426H254Q215 426 190 420T150 396T131 344T125 257V224Q125 171 130 138T150 87T190 63T255 56H270Q305 56 327 60T363 77T381 109T386 162V173H459V160Q459 112 450 81T418 30T359 2T267 -6H251Z"  />
<glyph unicode="d" horiz-adv-x="534" d="M469 0H395V69H393Q376 27 341 11T240 -6H229Q176 -6 142 4T86 42T57 114T48 229V254Q48 324 57 369T87 440T142 476T227 486H241Q306 486 340 470T391 415H392V680H469V0ZM264 56Q303 56 328 62T368 85T389 133T395 213V269Q395 316 389 346T369 394T329 419T264 426H251Q213 426 189 420T151 395T131 343T125 255V227Q125 174 130 141T150 88T189 63T251 56H264Z"  />
<glyph unicode="e" horiz-adv-x="506" d="M249 -6Q188 -6 149 3T88 38T57 108T48 224V255Q48 327 57 372T89 442T150 477T246 486H262Q320 486 357 477T416 446T446 385T455 287V230H123V213Q123 163 128 132T147 84T186 61T253 55H266Q303 55 326 59T362 74T381 104T386 153V162H458V151Q458 106 448 76T415 27T356 2T267 -6H249ZM382 282V299Q382 338 378 363T361 403T324 422T261 428H250Q210 428 185 423T147 402T128 358T122 282H382Z"  />
<glyph unicode="f" horiz-adv-x="264" d="M153 0H76V423H15V480H76V524Q76 571 83 602T107 651T151 677T218 685Q235 685 252 684T286 681V624Q262 627 236 627Q211 627 195 623T170 608T157 575T153 520V480H265V423H153V0Z"  />
<glyph unicode="g" horiz-adv-x="531" d="M242 -176Q188 -176 152 -170T95 -149T66 -106T57 -34V-22H129V-31Q129 -57 133 -73T149 -98T184 -111T242 -115H259Q304 -115 330 -111T369 -93T387 -50T391 28V96H389Q381 77 369 64T339 41T296 28T235 24H224Q175 24 142 33T87 67T57 133T48 240V262Q48 329 57 372T87 440T141 476T224 486H236Q303 486 338 471T391 414H392V480H467V33Q467 -35 459 -76T427 -139T363 -168T259 -176H242ZM260 84Q301 84 326 90T366 114T386 162T392 240V263Q392 313 387 345T367 395T327 419T261 426H247Q210 426 187 420T149 395T130 345T124 263V240Q124 192 129 162T149 115T187 91T247 84H260Z"  />
<glyph unicode="h" horiz-adv-x="539" d="M477 0H400V283Q400 328 396 355T380 398T344 419T283 424H273Q238 424 214 418T173 397T150 354T142 283V0H65V680H142V403H143Q151 423 162 438T192 464T236 480T299 486H308Q358 486 391 478T443 450T469 394T477 302V0Z"  />
<glyph unicode="i" horiz-adv-x="207" d="M142 0H65V480H142V0ZM142 592H65V680H142V592Z"  />
<glyph unicode="j" horiz-adv-x="206" d="M142 -45Q142 -119 118 -146T40 -173Q32 -173 23 -173T4 -170V-109Q12 -110 16 -110T25 -110Q37 -110 44 -108T56 -98T63 -76T65 -36V480H142V-45ZM142 592H65V680H142V592Z"  />
<glyph unicode="k" horiz-adv-x="469" d="M460 0H368L168 232H142V0H65V680H142V281H172L347 480H438L232 257L460 0Z"  />
<glyph unicode="l" horiz-adv-x="207" d="M142 0H65V680H142V0Z"  />
<glyph unicode="m" horiz-adv-x="826" d="M765 0H688V283Q688 328 684 356T669 399T636 419T581 424H572Q542 424 520 419T484 397T462 354T454 283V0H377V283Q377 329 373 356T356 399T324 419T272 424H262Q231 424 209 418T171 396T149 353T142 283V0H65V480H141V403H142Q156 442 190 464T287 486H297Q334 486 360 481T403 464T429 435T444 395H445Q459 438 495 462T597 486H607Q654 486 684 478T733 449T758 393T765 304V0Z"  />
<glyph unicode="n" horiz-adv-x="539" d="M477 0H400V282Q400 327 396 355T380 398T344 418T283 424H273Q239 424 214 418T173 396T150 353T142 282V0H65V480H141V403H142Q150 423 161 438T191 464T235 480T299 486H308Q358 486 391 478T443 449T469 393T477 302V0Z"  />
<glyph unicode="o" horiz-adv-x="525" d="M254 -6Q194 -6 155 4T91 41T58 111T48 224V257Q48 324 57 368T91 439T154 475T254 486H271Q331 486 370 476T434 439T467 369T477 257V224Q477 156 468 112T434 41T371 5T271 -6H254ZM269 55Q310 55 336 61T376 87T396 138T401 224V257Q401 309 396 342T377 394T336 419T269 426H256Q215 426 189 420T149 394T129 342T124 257V224Q124 171 129 139T148 87T189 62T256 55H269Z"  />
<glyph unicode="p" horiz-adv-x="535" d="M296 -6Q262 -6 237 -3T194 10T164 33T144 69H142V-170H65V480H140V415H142Q157 455 192 470T294 486H307Q358 486 392 476T448 440T478 369T487 254V229Q487 158 478 113T448 41T393 5T306 -6H296ZM284 56Q322 56 346 62T385 87T404 139T410 227V255Q410 309 405 342T385 394T347 419T284 426H270Q232 426 207 420T167 397T146 349T140 269V213Q140 166 145 136T166 88T206 63T270 56H284Z"  />
<glyph unicode="q" horiz-adv-x="534" d="M469 -170H392V67H390Q373 26 339 10T241 -6H229Q176 -6 142 4T86 42T57 114T48 229V254Q48 324 57 369T87 440T142 476T227 486H240Q307 486 341 471T394 414H395V480H469V-170ZM265 56Q304 56 329 62T369 85T389 133T395 213V269Q395 316 390 346T370 394T330 419T265 426H251Q213 426 189 420T151 395T131 343T125 255V227Q125 174 130 141T150 88T189 63T251 56H265Z"  />
<glyph unicode="r" horiz-adv-x="439" d="M142 0H65V480H140V396H142Q156 443 187 464T280 486H287Q327 486 352 479T392 455T412 411T417 342V300H349V325Q349 355 346 374T332 403T304 418T258 422H250Q224 422 204 416T170 393T149 347T142 272V0Z"  />
<glyph unicode="s" horiz-adv-x="494" d="M241 -6Q181 -6 144 0T85 21T57 63T49 131V146H121V138Q121 111 125 95T142 69T178 57T241 53H264Q299 53 321 56T355 68T371 92T375 131V139Q375 159 371 172T352 195T309 209T233 218Q179 222 145 230T92 253T65 290T58 346V358Q58 394 66 418T94 458T147 479T230 486H250Q306 486 342 480T398 459T426 418T434 351V340H364V348Q364 373 360 388T344 413T311 425T254 428H237Q203 428 182 425T150 414T135 393T131 358V347Q131 331 135 320T152 301T190 289T256 281Q314 277 351 269T410 244T440 204T449 146V133Q449 92 440 66T410 23T353 1T266 -6H241Z"  />
<glyph unicode="t" horiz-adv-x="405" d="M217 -6Q176 -6 149 0T107 27T85 84T79 182V423H12V480H79V605H155V480H374V423H155V187Q155 142 157 116T168 76T190 60T228 56H239Q263 56 278 60T300 76T310 113T313 178V216H377V165Q377 112 371 79T348 26T304 1T233 -6H217Z"  />
<glyph unicode="u" horiz-adv-x="535" d="M470 0H394V78H393Q385 58 374 42T344 16T299 0T236 -6H227Q177 -6 145 2T93 32T66 90T58 181V480H135V200Q135 154 139 126T156 82T192 61T252 55H261Q295 55 320 61T361 82T385 126T393 198V480H470V0Z"  />
<glyph unicode="v" horiz-adv-x="466" d="M284 0H180L9 480H90L232 58H234L377 480H457L284 0Z"  />
<glyph unicode="w" horiz-adv-x="735" d="M579 0H475L369 407H367L260 0H156L16 480H97L209 57H212L325 480H413L527 57H530L641 480H719L579 0Z"  />
<glyph unicode="x" horiz-adv-x="493" d="M469 0H382L245 211L109 0H24L191 247L36 480H122L247 282L374 480H457L301 247L469 0Z"  />
<glyph unicode="y" horiz-adv-x="457" d="M64 -112Q72 -113 83 -113T101 -114Q123 -114 139 -110T167 -93T191 -55T216 10H178L9 480H89L234 65H237L369 480H448L306 54Q282 -18 263 -62T222 -131T176 -164T114 -173Q102 -173 89 -173T64 -171V-112Z"  />
<glyph unicode="z" horiz-adv-x="415" d="M389 0H28V60L297 421V422H40V480H386V420L119 60V59H389V0Z"  />
<glyph unicode="{" horiz-adv-x="309" d="M255 -8H203Q174 -8 155 -3T122 15T104 52T98 111V229Q98 271 87 296T37 321V365Q75 365 86 390T98 457V569Q98 605 103 628T122 664T154 683T203 688H255V636H231Q212 636 200 633T182 620T173 596T170 557V460Q170 434 168 414T159 379T138 356T100 344V342Q124 339 137 331T158 308T168 273T170 226V123Q170 99 172 84T181 60T200 48T231 44H255V-8Z"  />
<glyph unicode="|" horiz-adv-x="286" d="M172 -70H114V750H172V-70Z"  />
<glyph unicode="}" horiz-adv-x="309" d="M54 -8V44H77Q115 44 127 60T139 123V226Q139 252 141 272T150 307T170 330T208 342V344Q184 347 171 355T150 378T141 413T139 460V557Q139 604 127 620T77 636H54V688H105Q133 688 153 683T186 665T205 628T211 569V457Q211 415 222 390T272 365V321Q234 321 223 296T211 229V111Q211 75 205 52T187 16T154 -3T105 -8H54Z"  />
<glyph unicode="~" horiz-adv-x="527" d="M465 338Q444 290 418 266T352 242Q324 242 302 252T260 274Q240 286 221 296T178 306Q152 306 136 291T105 244L62 267Q83 316 110 339T175 363Q202 363 224 353T266 331Q286 319 306 309T349 299Q377 299 392 315T422 361L465 338Z"  />
<glyph unicode="&#xA0;" horiz-adv-x="247" />
<glyph unicode="&#xA1;" horiz-adv-x="238" d="M160 374H78V480H160V374ZM159 -200H79L84 295H154L159 -200Z"  />
<glyph unicode="&#xA2;" horiz-adv-x="553" d="M301 -38H261V82Q206 82 168 93T107 130T74 199T63 310V347Q63 414 73 458T106 527T167 563T261 574V680H301V574Q354 574 390 566T448 540T479 491T489 417V401H420V413Q420 440 415 459T396 490T359 508T301 514V144Q338 144 361 149T398 167T417 200T422 249V261H491V244Q491 200 482 169T450 119T391 91T301 82V-38ZM137 309Q137 259 143 227T164 177T202 152T261 144V514Q225 514 202 507T164 481T143 430T137 348V309Z"  />
<glyph unicode="&#xA3;" horiz-adv-x="627" d="M573 0H61V67Q83 74 97 85T120 121T132 185T137 291H55V350H137V379Q137 479 145 539T175 632T239 675T346 686H364Q422 686 460 679T520 653T550 598T559 507V492H484V506Q484 542 480 565T462 601T425 618T363 623H349Q304 623 277 617T236 586T218 514T213 386V350H438V291H212Q211 228 206 189T192 125T170 89T137 68V65H573V0Z"  />
<glyph unicode="&#xA4;" horiz-adv-x="585" d="M486 90L407 168Q360 132 294 132Q229 132 179 170L99 90L63 126L142 205Q107 251 107 320Q107 353 115 381T140 431L63 509L99 546L177 467Q225 506 294 506Q363 506 409 469L486 546L522 509L447 434Q464 411 473 383T482 320Q482 251 445 203L522 126L486 90ZM294 189Q323 189 346 199T386 226T412 268T421 320Q421 347 412 371T387 412T347 440T294 450Q265 450 242 440T203 413T177 371T168 320Q168 292 177 268T202 227T242 199T294 189Z"  />
<glyph unicode="&#xA5;" horiz-adv-x="624" d="M353 0H270V211H74V255H270V263L213 367H74V411H189L39 680H127L313 316H314L500 680H585L434 411H550V367H410L353 263V255H550V211H353V0Z"  />
<glyph unicode="&#xA6;" horiz-adv-x="286" d="M172 427H114V750H172V427ZM172 -70H114V259H172V-70Z"  />
<glyph unicode="&#xA7;" horiz-adv-x="627" d="M561 -40Q561 -86 552 -116T516 -164T445 -189T328 -196H305Q226 -196 179 -189T106 -164T72 -112T64 -27V-8H142V-22Q142 -57 147 -78T170 -112T220 -128T307 -132H321Q374 -132 406 -128T455 -113T477 -83T482 -32V-20Q482 8 477 26T455 56T408 73T326 78H296Q228 78 185 86T116 112T82 160T72 233V247Q72 311 94 341T175 381V382Q143 386 123 396T92 422T77 461T72 514V527Q72 574 81 605T116 654T186 679T302 686H324Q402 686 448 679T519 653T552 599T560 509V491H484V505Q484 544 478 567T455 603T407 620T324 624H309Q258 624 227 620T179 605T157 574T151 523V511Q151 486 156 468T177 439T223 423T306 417H330Q401 417 446 410T516 385T551 337T561 262V249Q561 183 540 151T458 112V111Q488 106 508 97T540 71T556 30T561 -27V-40ZM322 137Q375 137 406 141T455 156T477 188T482 241V253Q482 284 477 304T456 337T408 354T324 359H311Q258 359 227 354T179 337T157 305T151 255V242Q151 212 156 192T177 160T223 142T303 137H322Z"  />
<glyph unicode="&#xA8;" horiz-adv-x="382" d="M144 592H75V680H144V592ZM307 592H238V680H307V592Z"  />
<glyph unicode="&#xA9;" horiz-adv-x="811" d="M409 139Q357 139 324 147T273 176T247 233T240 327V358Q240 415 247 451T273 507T324 536T407 544H418Q463 544 492 538T538 516T563 475T570 414V399H510V411Q510 436 506 451T492 475T464 487T417 490H407Q375 490 355 486T324 467T309 427T305 358V327Q305 283 308 257T323 216T355 198T408 194H419Q447 194 465 197T493 210T507 236T511 278V289H572V273Q572 237 565 212T539 170T492 147T421 139H409ZM419 29Q514 29 571 38T658 78T697 170T707 334V346Q707 449 698 509T658 601T571 642T419 651H391Q296 651 240 642T153 602T114 510T104 346V334Q104 231 113 171T153 79T239 38T391 29H419ZM391 -6Q322 -6 271 -2T184 15T125 51T88 111T70 202T65 330V350Q65 424 70 478T88 569T124 629T184 664T271 681T391 686H419Q522 686 586 676T686 630T733 528T746 350V330Q746 219 734 153T686 51T587 5T419 -6H391Z"  />
<glyph unicode="&#xAA;" horiz-adv-x="359" d="M178 414Q222 414 239 423T256 467V471Q256 488 252 498T239 513T215 520T176 522H165Q124 522 111 512T98 471V465Q98 435 111 425T168 414H178ZM305 379H256V412H255Q244 394 225 385T164 376H153Q122 376 102 379T70 393T54 419T49 462V473Q49 499 55 516T73 542T105 555T152 559H163Q207 559 225 551T253 529H255V551Q255 581 253 599T243 626T221 638T184 641H174Q133 641 119 632T105 595V589H58V596Q58 621 64 637T84 663T121 676T177 680H189Q225 680 247 675T283 656T300 616T305 547V379Z"  />
<glyph unicode="&#xAB;" horiz-adv-x="407" d="M206 93L152 71L46 271L152 472L206 450L111 271L206 93ZM361 93L307 71L201 271L307 472L361 450L266 271L361 93Z"  />
<glyph unicode="&#xAC;" horiz-adv-x="527" d="M468 184H404V357H59V416H468V184Z"  />
<glyph unicode="&#xAD;" horiz-adv-x="374" d="M314 216H60V285H314V216Z"  />
<glyph unicode="&#xAE;" horiz-adv-x="550" d="M293 474Q316 474 326 483T336 514V522Q336 550 327 558T289 567H224V474H293ZM377 351H337V385Q337 404 335 416T327 434T310 442T280 444H224V351H184V597H302Q342 597 359 584T376 526V517Q376 491 366 479T342 462V461Q361 456 369 444T377 396V351ZM283 296Q340 296 374 301T427 325T452 377T458 469V479Q458 536 452 570T427 622T374 645T283 651H267Q210 651 176 646T122 622T97 570T91 479V469Q91 412 97 378T122 325T175 302T267 296H283ZM267 266Q204 266 163 273T99 301T66 363T57 469V479Q57 545 66 585T98 646T163 674T267 681H283Q346 681 387 675T451 647T483 585T492 479V469Q492 403 483 363T451 302T387 273T283 266H267Z"  />
<glyph unicode="&#xAF;" horiz-adv-x="382" d="M304 608H84V660H304V608Z"  />
<glyph unicode="&#xB0;" horiz-adv-x="346" d="M173 437Q145 437 121 447T80 474T52 515T42 567Q42 595 52 619T79 660T121 687T173 697Q201 697 225 687T267 660T294 619T304 567Q304 539 294 515T267 474T226 447T173 437ZM173 479Q211 479 235 504T259 567Q259 605 235 630T173 655Q135 655 111 630T87 567Q87 529 111 504T173 479Z"  />
<glyph unicode="&#xB1;" horiz-adv-x="527" d="M468 21H59V81H468V21ZM468 319H295V154H231V319H59V379H231V545H295V379H468V319Z"  />
<glyph unicode="&#xB2;" horiz-adv-x="379" d="M345 453H42V506Q42 542 47 565T69 603T113 626T188 640Q221 644 241 649T271 662T285 682T288 713V724Q288 742 285 754T272 773T244 782T194 785H187Q158 785 141 782T115 772T102 751T99 718V702H47V719Q47 752 52 773T73 806T116 823T187 828H195Q241 828 270 824T315 808T337 776T343 725V715Q343 685 338 665T317 632T274 610T201 596Q165 591 145 587T113 574T99 551T96 513V497H345V453Z"  />
<glyph unicode="&#xB3;" horiz-adv-x="385" d="M186 450Q139 450 111 454T66 471T45 505T39 562V576H91V562Q91 539 94 526T107 505T136 495T186 493H195Q228 493 247 495T277 504T291 523T294 554V564Q294 599 281 611T227 624H149V664H227Q262 664 274 675T286 717V729Q286 747 283 758T270 775T242 783T195 785H187Q158 785 141 783T113 775T100 755T97 721V703H46V721Q46 754 51 775T72 807T116 823T188 828H197Q242 828 270 824T313 808T335 779T341 733V723Q341 685 331 669T295 645V644Q320 639 334 622T349 562V550Q349 520 343 501T319 470T273 455T198 450H186Z"  />
<glyph unicode="&#xB4;" horiz-adv-x="382" d="M141 548L118 577L261 708L300 659L141 548Z"  />
<glyph unicode="&#xB5;" horiz-adv-x="546" d="M481 0H405V80H404Q390 39 359 17T263 -5H254Q205 -5 180 7T143 46H142V-179H65V480H142V197Q142 153 148 125T169 82T207 60T265 54H275Q309 54 333 60T373 82T396 126T404 197V480H481V0Z"  />
<glyph unicode="&#xB6;" horiz-adv-x="553" d="M485 -164H427V634H361V-164H304V253H262Q200 253 161 263T99 296T68 359T60 455V480Q60 542 69 581T104 642T178 672T302 680H485V-164Z"  />
<glyph unicode="&#xB7;" horiz-adv-x="202" d="M142 213H60V319H142V213Z"  />
<glyph unicode="&#xB8;" horiz-adv-x="338" d="M86 -172L61 -147L190 -7L232 -51L86 -172Z"  />
<glyph unicode="&#xB9;" horiz-adv-x="276" d="M198 453H142V768H141L52 675L21 710L132 825H198V453Z"  />
<glyph unicode="&#xBA;" horiz-adv-x="363" d="M188 417Q214 417 230 421T254 436T266 466T269 518V539Q269 570 266 589T255 620T230 635T188 639H176Q150 639 134 635T110 620T98 590T95 539V518Q95 486 98 467T110 436T134 421T176 417H188ZM174 376Q135 376 110 382T71 404T51 447T45 518V539Q45 582 50 609T70 652T110 674T174 680H189Q228 680 253 674T293 653T313 610T319 539V518Q319 475 314 448T293 404T253 382T189 376H174Z"  />
<glyph unicode="&#xBB;" horiz-adv-x="407" d="M100 71L46 93L141 272L46 450L100 472L206 272L100 71ZM255 71L201 93L296 272L201 450L255 472L361 272L255 71Z"  />
<glyph unicode="&#xBC;" horiz-adv-x="792" d="M265 0H213L474 680H525L265 0ZM234 308H178V623H177L88 530L57 565L168 680H234V308ZM694 0H639V83H411V136L616 372H694V125H741V83H694V0ZM639 125V329H637L463 126V125H639Z"  />
<glyph unicode="&#xBD;" horiz-adv-x="823" d="M265 0H213L474 680H525L265 0ZM234 308H178V623H177L88 530L57 565L168 680H234V308ZM766 0H463V53Q463 89 468 112T490 150T534 173T609 187Q642 191 662 196T692 209T706 229T709 260V271Q709 289 706 301T693 320T665 329T615 332H608Q579 332 562 329T536 319T523 298T520 265V249H468V266Q468 299 473 320T494 353T537 370T608 375H616Q662 375 691 371T736 355T758 323T764 272V262Q764 232 759 212T738 179T695 157T622 143Q586 138 566 134T534 121T520 98T517 60V44H766V0Z"  />
<glyph unicode="&#xBE;" horiz-adv-x="902" d="M375 0H324L585 680H635L375 0ZM214 305Q167 305 139 309T94 326T73 360T67 417V431H119V417Q119 394 122 381T135 360T164 350T214 348H223Q256 348 275 350T305 359T319 378T322 409V419Q322 454 309 466T255 479H177V519H255Q290 519 302 530T314 572V584Q314 602 311 613T298 630T270 638T223 640H215Q186 640 169 638T141 630T128 610T125 576V558H74V576Q74 609 79 630T100 662T144 678T216 683H225Q270 683 298 679T341 663T363 634T369 588V578Q369 540 359 524T323 500V499Q348 494 362 477T377 417V405Q377 375 371 356T347 325T301 310T226 305H214ZM805 0H750V83H522V136L727 372H805V125H852V83H805V0ZM750 125V329H748L574 126V125H750Z"  />
<glyph unicode="&#xBF;" horiz-adv-x="535" d="M335 374H253V480H335V374ZM254 -206Q189 -206 149 -198T85 -169T54 -114T45 -28V-11Q45 35 51 67T72 122T115 157T183 180Q207 185 221 191T244 205T255 226T258 256V273H330V251Q330 222 326 203T311 169T281 145T232 128Q194 119 172 110T137 86T122 50T118 -9V-22Q118 -60 123 -83T142 -120T184 -139T255 -144H269Q316 -144 345 -140T389 -121T410 -79T415 -5V19H486V-10Q486 -72 477 -110T443 -170T377 -198T269 -206H254Z"  />
<glyph unicode="&#xC0;" horiz-adv-x="632" d="M620 0H533L480 154H152L98 0H12L259 680H378L620 0ZM459 218L321 619H315L171 218H459ZM347 741L170 820L200 874L365 772L347 741Z"  />
<glyph unicode="&#xC1;" horiz-adv-x="632" d="M620 0H533L480 154H152L98 0H12L259 680H378L620 0ZM459 218L321 619H315L171 218H459ZM464 821L287 742L268 773L433 875L464 821Z"  />
<glyph unicode="&#xC2;" horiz-adv-x="632" d="M620 0H533L480 154H152L98 0H12L259 680H378L620 0ZM459 218L321 619H315L171 218H459ZM423 746L319 819L216 746L188 776L319 882L451 776L423 746Z"  />
<glyph unicode="&#xC3;" horiz-adv-x="632" d="M620 0H533L480 154H152L98 0H12L259 680H378L620 0ZM459 218L321 619H315L171 218H459ZM445 850Q441 805 424 782T373 759Q355 759 341 766T312 784Q298 794 287 799T265 804Q251 804 241 795T226 758L192 766Q195 809 213 832T263 855Q280 855 294 849T322 833Q337 822 349 817T372 811Q389 811 398 821T410 857L445 850Z"  />
<glyph unicode="&#xC4;" horiz-adv-x="632" d="M620 0H533L480 154H152L98 0H12L259 680H378L620 0ZM459 218L321 619H315L171 218H459ZM270 759H201V847H270V759ZM435 759H366V847H435V759Z"  />
<glyph unicode="&#xC5;" horiz-adv-x="632" d="M620 0H533L480 154H152L98 0H12L259 680H378L620 0ZM459 218L321 619H315L171 218H459ZM315 726Q259 726 238 743T216 801V807Q216 848 237 865T315 882H321Q377 882 398 865T420 807V801Q420 760 399 743T321 726H315ZM321 757Q356 757 369 766T382 802V808Q382 834 369 843T321 852H315Q280 852 267 843T254 808V802Q254 776 267 767T315 757H321Z"  />
<glyph unicode="&#xC6;" horiz-adv-x="945" d="M912 0H471V154H178L98 0H9L365 680H909V614H552V384H889V320H552V67H912V0ZM471 218V614H416L211 218H471Z"  />
<glyph unicode="&#xC7;" horiz-adv-x="651" d="M324 -6Q239 -6 186 7T103 55T63 152T52 312V369Q52 466 63 527T105 624T187 673T323 686H341Q416 686 464 677T541 646T581 586T593 492V471H514V487Q514 526 507 551T481 592T429 613T341 619H325Q265 619 228 611T171 576T143 501T135 369V313Q135 230 142 181T170 105T228 71T327 63H342Q397 63 431 68T484 89T511 130T518 197V212H598V190Q598 132 586 94T544 34T466 3T343 -6H324ZM248 -172L223 -147L352 -7L394 -51L248 -172Z"  />
<glyph unicode="&#xC8;" horiz-adv-x="545" d="M512 0H69V680H509V614H152V384H489V320H152V67H512V0ZM360 741L183 820L213 874L378 772L360 741Z"  />
<glyph unicode="&#xC9;" horiz-adv-x="545" d="M512 0H69V680H509V614H152V384H489V320H152V67H512V0ZM393 821L216 742L197 773L362 875L393 821Z"  />
<glyph unicode="&#xCA;" horiz-adv-x="545" d="M512 0H69V680H509V614H152V384H489V320H152V67H512V0ZM394 746L290 819L187 746L159 776L290 882L422 776L394 746Z"  />
<glyph unicode="&#xCB;" horiz-adv-x="545" d="M512 0H69V680H509V614H152V384H489V320H152V67H512V0ZM239 759H170V847H239V759ZM404 759H335V847H404V759Z"  />
<glyph unicode="&#xCC;" horiz-adv-x="221" d="M152 0H69V680H152V0ZM133 741L-44 820L-14 874L151 772L133 741Z"  />
<glyph unicode="&#xCD;" horiz-adv-x="221" d="M152 0H69V680H152V0ZM272 821L95 742L76 773L241 875L272 821Z"  />
<glyph unicode="&#xCE;" horiz-adv-x="221" d="M152 0H69V680H152V0ZM216 746L112 819L9 746L-19 776L112 882L244 776L216 746Z"  />
<glyph unicode="&#xCF;" horiz-adv-x="221" d="M152 0H69V680H152V0ZM64 759H-5V847H64V759ZM229 759H160V847H229V759Z"  />
<glyph unicode="&#xD0;" horiz-adv-x="687" d="M18 377H69V680H342Q432 680 488 670T576 627T619 534T631 372V309Q631 210 621 149T579 55T491 11T342 0H69V326H18V377ZM339 67Q407 67 448 74T511 108T541 182T548 314V369Q548 451 540 500T510 574T446 606T339 614H152V377H316V326H152V67H339Z"  />
<glyph unicode="&#xD1;" horiz-adv-x="706" d="M637 0H511L150 609H146L147 0H69V680H197L557 73H560L558 680H637V0ZM487 850Q483 805 466 782T415 759Q397 759 383 766T354 784Q340 794 329 799T307 804Q293 804 283 795T268 758L234 766Q237 809 255 832T305 855Q322 855 336 849T364 833Q379 822 391 817T414 811Q431 811 440 821T452 857L487 850Z"  />
<glyph unicode="&#xD2;" horiz-adv-x="679" d="M53 369Q53 467 65 528T107 625T192 673T330 686H349Q433 686 487 673T571 625T614 529T626 369V311Q626 213 614 152T572 55T487 7T349 -6H330Q246 -6 192 7T108 55T65 151T53 311V369ZM136 312Q136 230 143 181T172 106T231 71T331 63H349Q410 63 448 71T507 105T535 181T543 312V369Q543 451 536 500T507 575T448 610T349 619H331Q269 619 231 611T172 576T144 500T136 369V312ZM414 741L237 820L267 874L432 772L414 741Z"  />
<glyph unicode="&#xD3;" horiz-adv-x="679" d="M53 369Q53 467 65 528T107 625T192 673T330 686H349Q433 686 487 673T571 625T614 529T626 369V311Q626 213 614 152T572 55T487 7T349 -6H330Q246 -6 192 7T108 55T65 151T53 311V369ZM136 312Q136 230 143 181T172 106T231 71T331 63H349Q410 63 448 71T507 105T535 181T543 312V369Q543 451 536 500T507 575T448 610T349 619H331Q269 619 231 611T172 576T144 500T136 369V312ZM443 821L266 742L247 773L412 875L443 821Z"  />
<glyph unicode="&#xD4;" horiz-adv-x="679" d="M53 369Q53 467 65 528T107 625T192 673T330 686H349Q433 686 487 673T571 625T614 529T626 369V311Q626 213 614 152T572 55T487 7T349 -6H330Q246 -6 192 7T108 55T65 151T53 311V369ZM136 312Q136 230 143 181T172 106T231 71T331 63H349Q410 63 448 71T507 105T535 181T543 312V369Q543 451 536 500T507 575T448 610T349 619H331Q269 619 231 611T172 576T144 500T136 369V312ZM445 746L341 819L238 746L210 776L341 882L473 776L445 746Z"  />
<glyph unicode="&#xD5;" horiz-adv-x="679" d="M53 369Q53 467 65 528T107 625T192 673T330 686H349Q433 686 487 673T571 625T614 529T626 369V311Q626 213 614 152T572 55T487 7T349 -6H330Q246 -6 192 7T108 55T65 151T53 311V369ZM136 312Q136 230 143 181T172 106T231 71T331 63H349Q410 63 448 71T507 105T535 181T543 312V369Q543 451 536 500T507 575T448 610T349 619H331Q269 619 231 611T172 576T144 500T136 369V312ZM467 850Q463 805 446 782T395 759Q377 759 363 766T334 784Q320 794 309 799T287 804Q273 804 263 795T248 758L214 766Q217 809 235 832T285 855Q302 855 316 849T344 833Q359 822 371 817T394 811Q411 811 420 821T432 857L467 850Z"  />
<glyph unicode="&#xD6;" horiz-adv-x="679" d="M53 369Q53 467 65 528T107 625T192 673T330 686H349Q433 686 487 673T571 625T614 529T626 369V311Q626 213 614 152T572 55T487 7T349 -6H330Q246 -6 192 7T108 55T65 151T53 311V369ZM136 312Q136 230 143 181T172 106T231 71T331 63H349Q410 63 448 71T507 105T535 181T543 312V369Q543 451 536 500T507 575T448 610T349 619H331Q269 619 231 611T172 576T144 500T136 369V312ZM291 759H222V847H291V759ZM456 759H387V847H456V759Z"  />
<glyph unicode="&#xD7;" horiz-adv-x="527" d="M452 148L409 106L263 260L117 106L74 147L222 303L78 454L120 495L263 345L406 495L448 455L304 303L452 148Z"  />
<glyph unicode="&#xD8;" horiz-adv-x="679" d="M53 369Q53 467 65 528T107 625T192 673T330 686H349Q420 686 468 677T549 645L588 694L624 665L583 611Q607 575 616 517T626 369V311Q626 213 614 152T572 55T487 7T349 -6H330Q262 -6 215 2T135 31L90 -28L53 0L101 63Q74 98 64 158T53 311V369ZM135 312Q135 247 139 204T156 132L500 584Q478 605 442 612T349 619H331Q269 619 231 611T172 576T143 500T135 369V312ZM349 63Q410 63 448 71T507 105T536 181T544 312V369Q544 429 541 470T527 540L184 93Q206 75 241 69T331 63H349Z"  />
<glyph unicode="&#xD9;" horiz-adv-x="667" d="M325 -6Q245 -6 194 2T114 35T75 104T64 221V680H147V228Q147 173 154 141T180 91T234 68T323 63H342Q397 63 431 68T485 90T512 140T520 228V680H603V221Q603 149 592 105T552 36T471 3T340 -6H325ZM403 741L226 820L256 874L421 772L403 741Z"  />
<glyph unicode="&#xDA;" horiz-adv-x="667" d="M325 -6Q245 -6 194 2T114 35T75 104T64 221V680H147V228Q147 173 154 141T180 91T234 68T323 63H342Q397 63 431 68T485 90T512 140T520 228V680H603V221Q603 149 592 105T552 36T471 3T340 -6H325ZM441 821L264 742L245 773L410 875L441 821Z"  />
<glyph unicode="&#xDB;" horiz-adv-x="667" d="M325 -6Q245 -6 194 2T114 35T75 104T64 221V680H147V228Q147 173 154 141T180 91T234 68T323 63H342Q397 63 431 68T485 90T512 140T520 228V680H603V221Q603 149 592 105T552 36T471 3T340 -6H325ZM437 746L333 819L230 746L202 776L333 882L465 776L437 746Z"  />
<glyph unicode="&#xDC;" horiz-adv-x="667" d="M325 -6Q245 -6 194 2T114 35T75 104T64 221V680H147V228Q147 173 154 141T180 91T234 68T323 63H342Q397 63 431 68T485 90T512 140T520 228V680H603V221Q603 149 592 105T552 36T471 3T340 -6H325ZM285 759H216V847H285V759ZM450 759H381V847H450V759Z"  />
<glyph unicode="&#xDD;" horiz-adv-x="604" d="M343 0H260V239L10 680H100L302 314H304L503 680H594L343 239V0ZM434 821L257 742L238 773L403 875L434 821Z"  />
<glyph unicode="&#xDE;" horiz-adv-x="614" d="M69 680H151V569H336Q410 569 457 562T530 532T566 471T576 369V344Q576 281 566 242T528 181T455 151T339 143H151V0H69V680ZM328 210Q383 210 416 215T467 234T489 275T495 342V371Q495 413 490 439T467 479T416 498T327 503H151V210H328Z"  />
<glyph unicode="&#xDF;" horiz-adv-x="558" d="M325 -6Q283 -6 254 -1T207 13L215 73Q229 65 255 60T317 54Q351 54 373 59T408 81T426 133T432 226V255Q432 309 427 341T409 390T371 412T308 418H253V472H295Q325 472 343 476T372 489T386 512T390 546V557Q390 578 386 592T369 614T336 626T280 630H261Q226 630 203 625T167 606T148 565T142 496V0H65V495Q65 553 74 590T106 648T165 677T255 685H284Q335 685 369 679T425 659T455 622T464 565V552Q464 503 445 482T387 453L388 452Q421 449 444 440T481 408T501 347T508 249V220Q508 149 498 105T467 36T410 3T325 -6Z"  />
<glyph unicode="&#xE0;" horiz-adv-x="503" d="M444 0H371V54H369Q352 22 321 8T226 -6H215Q165 -6 133 0T82 23T56 68T48 138V152Q48 193 56 220T84 263T135 286T212 293H222Q289 293 321 283T368 247H370V278Q370 328 367 358T351 403T316 423T252 428H241Q208 428 187 425T154 412T138 388T133 350V340H62V350Q62 392 71 418T101 460T157 480T244 486H258Q319 486 355 479T411 448T437 382T444 268V0ZM249 52Q284 52 307 55T345 69T365 96T371 140V150Q371 179 366 196T346 223T307 235T243 238H234Q199 238 177 235T143 221T126 194T121 150V141Q121 114 125 97T143 69T179 56T240 52H249ZM318 548L160 659L198 708L341 577L318 548Z"  />
<glyph unicode="&#xE1;" horiz-adv-x="503" d="M444 0H371V54H369Q352 22 321 8T226 -6H215Q165 -6 133 0T82 23T56 68T48 138V152Q48 193 56 220T84 263T135 286T212 293H222Q289 293 321 283T368 247H370V278Q370 328 367 358T351 403T316 423T252 428H241Q208 428 187 425T154 412T138 388T133 350V340H62V350Q62 392 71 418T101 460T157 480T244 486H258Q319 486 355 479T411 448T437 382T444 268V0ZM249 52Q284 52 307 55T345 69T365 96T371 140V150Q371 179 366 196T346 223T307 235T243 238H234Q199 238 177 235T143 221T126 194T121 150V141Q121 114 125 97T143 69T179 56T240 52H249ZM190 548L167 577L310 708L349 659L190 548Z"  />
<glyph unicode="&#xE2;" horiz-adv-x="503" d="M444 0H371V54H369Q352 22 321 8T226 -6H215Q165 -6 133 0T82 23T56 68T48 138V152Q48 193 56 220T84 263T135 286T212 293H222Q289 293 321 283T368 247H370V278Q370 328 367 358T351 403T316 423T252 428H241Q208 428 187 425T154 412T138 388T133 350V340H62V350Q62 392 71 418T101 460T157 480T244 486H258Q319 486 355 479T411 448T437 382T444 268V0ZM249 52Q284 52 307 55T345 69T365 96T371 140V150Q371 179 366 196T346 223T307 235T243 238H234Q199 238 177 235T143 221T126 194T121 150V141Q121 114 125 97T143 69T179 56T240 52H249ZM352 559L252 643L153 559L124 589L252 706L381 589L352 559Z"  />
<glyph unicode="&#xE3;" horiz-adv-x="503" d="M444 0H371V54H369Q352 22 321 8T226 -6H215Q165 -6 133 0T82 23T56 68T48 138V152Q48 193 56 220T84 263T135 286T212 293H222Q289 293 321 283T368 247H370V278Q370 328 367 358T351 403T316 423T252 428H241Q208 428 187 425T154 412T138 388T133 350V340H62V350Q62 392 71 418T101 460T157 480T244 486H258Q319 486 355 479T411 448T437 382T444 268V0ZM249 52Q284 52 307 55T345 69T365 96T371 140V150Q371 179 366 196T346 223T307 235T243 238H234Q199 238 177 235T143 221T126 194T121 150V141Q121 114 125 97T143 69T179 56T240 52H249ZM376 674Q372 629 355 606T304 583Q286 583 272 590T243 608Q229 618 218 623T196 628Q182 628 172 619T157 582L123 590Q126 633 144 656T194 679Q211 679 225 673T253 657Q268 646 280 641T303 635Q320 635 329 645T341 681L376 674Z"  />
<glyph unicode="&#xE4;" horiz-adv-x="503" d="M444 0H371V54H369Q352 22 321 8T226 -6H215Q165 -6 133 0T82 23T56 68T48 138V152Q48 193 56 220T84 263T135 286T212 293H222Q289 293 321 283T368 247H370V278Q370 328 367 358T351 403T316 423T252 428H241Q208 428 187 425T154 412T138 388T133 350V340H62V350Q62 392 71 418T101 460T157 480T244 486H258Q319 486 355 479T411 448T437 382T444 268V0ZM249 52Q284 52 307 55T345 69T365 96T371 140V150Q371 179 366 196T346 223T307 235T243 238H234Q199 238 177 235T143 221T126 194T121 150V141Q121 114 125 97T143 69T179 56T240 52H249ZM204 592H135V680H204V592ZM367 592H298V680H367V592Z"  />
<glyph unicode="&#xE5;" horiz-adv-x="503" d="M444 0H371V54H369Q352 22 321 8T226 -6H215Q165 -6 133 0T82 23T56 68T48 138V152Q48 193 56 220T84 263T135 286T212 293H222Q289 293 321 283T368 247H370V278Q370 328 367 358T351 403T316 423T252 428H241Q208 428 187 425T154 412T138 388T133 350V340H62V350Q62 392 71 418T101 460T157 480T244 486H258Q319 486 355 479T411 448T437 382T444 268V0ZM249 52Q284 52 307 55T345 69T365 96T371 140V150Q371 179 366 196T346 223T307 235T243 238H234Q199 238 177 235T143 221T126 194T121 150V141Q121 114 125 97T143 69T179 56T240 52H249ZM250 552Q194 552 173 569T151 627V633Q151 674 172 691T250 708H256Q312 708 333 691T355 633V627Q355 586 334 569T256 552H250ZM256 583Q291 583 304 592T317 628V634Q317 660 304 669T256 678H250Q215 678 202 669T189 634V628Q189 602 202 593T250 583H256Z"  />
<glyph unicode="&#xE6;" horiz-adv-x="823" d="M775 152Q775 105 765 75T732 26T675 1T591 -6H572Q531 -6 501 -3T449 11T413 38T392 84H391Q383 55 369 38T334 10T287 -3T228 -6H216Q165 -6 133 0T82 23T56 68T48 138V153Q48 194 56 221T84 264T135 286T212 293H223Q290 293 321 283T368 245H370V277Q370 329 367 359T351 404T317 424T257 429H246Q210 429 188 426T154 414T138 390T133 351V339H62V350Q62 392 71 418T102 460T159 480T247 486H260Q298 486 324 482T368 469T395 445T410 409H411Q423 451 459 468T567 486H583Q637 486 673 478T732 447T763 387T772 289V230H444V197Q444 150 450 122T471 78T510 57T573 52H586Q622 52 645 56T681 72T700 103T706 153V162H775V152ZM701 282V299Q701 342 696 368T676 407T639 425T579 430H569Q532 430 508 426T470 406T450 361T444 282H701ZM249 51Q284 51 307 55T345 68T365 95T371 140V150Q371 179 366 196T346 223T307 236T243 239H234Q199 239 177 235T143 222T126 195T121 150V141Q121 114 125 97T143 69T179 55T240 51H249Z"  />
<glyph unicode="&#xE7;" horiz-adv-x="505" d="M251 -6Q191 -6 152 4T90 39T58 109T48 224V257Q48 327 58 372T92 442T155 476T252 486H269Q324 486 360 478T417 452T447 403T456 326V312H384V322Q384 353 379 373T361 405T326 421T268 426H254Q215 426 190 420T150 396T131 344T125 257V224Q125 171 130 138T150 87T190 63T255 56H270Q305 56 327 60T363 77T381 109T386 162V173H459V160Q459 112 450 81T418 30T359 2T267 -6H251ZM171 -172L146 -147L275 -7L317 -51L171 -172Z"  />
<glyph unicode="&#xE8;" horiz-adv-x="506" d="M249 -6Q188 -6 149 3T88 38T57 108T48 224V255Q48 327 57 372T89 442T150 477T246 486H262Q320 486 357 477T416 446T446 385T455 287V230H123V213Q123 163 128 132T147 84T186 61T253 55H266Q303 55 326 59T362 74T381 104T386 153V162H458V151Q458 106 448 76T415 27T356 2T267 -6H249ZM382 282V299Q382 338 378 363T361 403T324 422T261 428H250Q210 428 185 423T147 402T128 358T122 282H382ZM321 548L163 659L201 708L344 577L321 548Z"  />
<glyph unicode="&#xE9;" horiz-adv-x="506" d="M249 -6Q188 -6 149 3T88 38T57 108T48 224V255Q48 327 57 372T89 442T150 477T246 486H262Q320 486 357 477T416 446T446 385T455 287V230H123V213Q123 163 128 132T147 84T186 61T253 55H266Q303 55 326 59T362 74T381 104T386 153V162H458V151Q458 106 448 76T415 27T356 2T267 -6H249ZM382 282V299Q382 338 378 363T361 403T324 422T261 428H250Q210 428 185 423T147 402T128 358T122 282H382ZM192 548L169 577L312 708L351 659L192 548Z"  />
<glyph unicode="&#xEA;" horiz-adv-x="506" d="M249 -6Q188 -6 149 3T88 38T57 108T48 224V255Q48 327 57 372T89 442T150 477T246 486H262Q320 486 357 477T416 446T446 385T455 287V230H123V213Q123 163 128 132T147 84T186 61T253 55H266Q303 55 326 59T362 74T381 104T386 153V162H458V151Q458 106 448 76T415 27T356 2T267 -6H249ZM382 282V299Q382 338 378 363T361 403T324 422T261 428H250Q210 428 185 423T147 402T128 358T122 282H382ZM356 559L256 643L157 559L128 589L256 706L385 589L356 559Z"  />
<glyph unicode="&#xEB;" horiz-adv-x="506" d="M249 -6Q188 -6 149 3T88 38T57 108T48 224V255Q48 327 57 372T89 442T150 477T246 486H262Q320 486 357 477T416 446T446 385T455 287V230H123V213Q123 163 128 132T147 84T186 61T253 55H266Q303 55 326 59T362 74T381 104T386 153V162H458V151Q458 106 448 76T415 27T356 2T267 -6H249ZM382 282V299Q382 338 378 363T361 403T324 422T261 428H250Q210 428 185 423T147 402T128 358T122 282H382ZM208 592H139V680H208V592ZM371 592H302V680H371V592Z"  />
<glyph unicode="&#xEC;" horiz-adv-x="207" d="M142 0H65V480H142V0ZM121 548L-37 659L1 708L144 577L121 548Z"  />
<glyph unicode="&#xED;" horiz-adv-x="207" d="M142 0H65V480H142V0ZM94 548L71 577L214 708L253 659L94 548Z"  />
<glyph unicode="&#xEE;" horiz-adv-x="207" d="M142 0H65V480H142V0ZM205 559L105 643L6 559L-23 589L105 706L234 589L205 559Z"  />
<glyph unicode="&#xEF;" horiz-adv-x="207" d="M142 0H65V480H142V0ZM61 592H-7V680H61V592ZM215 592H147V680H215V592Z"  />
<glyph unicode="&#xF0;" horiz-adv-x="525" d="M250 -6Q190 -6 151 5T89 42T57 112T48 223V245Q48 310 58 353T89 423T143 460T222 471H238Q308 471 345 455T397 393H398Q391 465 366 511T291 583L190 533L174 565L249 601Q217 615 177 623T83 636L105 685Q241 675 315 637L410 684L426 652L352 617Q390 592 414 558T452 477T471 374T476 245V228Q476 159 467 114T433 42T369 5T269 -6H250ZM269 55Q309 55 334 61T375 86T395 138T401 223V263Q401 308 394 337T370 382T327 405T262 411H250Q211 411 187 405T148 380T129 330T124 246V223Q124 171 129 139T149 88T188 62T255 55H269Z"  />
<glyph unicode="&#xF1;" horiz-adv-x="539" d="M477 0H400V282Q400 327 396 355T380 398T344 418T283 424H273Q239 424 214 418T173 396T150 353T142 282V0H65V480H141V403H142Q150 423 161 438T191 464T235 480T299 486H308Q358 486 391 478T443 449T469 393T477 302V0ZM403 674Q399 629 382 606T331 583Q313 583 299 590T270 608Q256 618 245 623T223 628Q209 628 199 619T184 582L150 590Q153 633 171 656T221 679Q238 679 252 673T280 657Q295 646 307 641T330 635Q347 635 356 645T368 681L403 674Z"  />
<glyph unicode="&#xF2;" horiz-adv-x="525" d="M254 -6Q194 -6 155 4T91 41T58 111T48 224V257Q48 324 57 368T91 439T154 475T254 486H271Q331 486 370 476T434 439T467 369T477 257V224Q477 156 468 112T434 41T371 5T271 -6H254ZM269 55Q310 55 336 61T376 87T396 138T401 224V257Q401 309 396 342T377 394T336 419T269 426H256Q215 426 189 420T149 394T129 342T124 257V224Q124 171 129 139T148 87T189 62T256 55H269ZM337 548L179 659L217 708L360 577L337 548Z"  />
<glyph unicode="&#xF3;" horiz-adv-x="525" d="M254 -6Q194 -6 155 4T91 41T58 111T48 224V257Q48 324 57 368T91 439T154 475T254 486H271Q331 486 370 476T434 439T467 369T477 257V224Q477 156 468 112T434 41T371 5T271 -6H254ZM269 55Q310 55 336 61T376 87T396 138T401 224V257Q401 309 396 342T377 394T336 419T269 426H256Q215 426 189 420T149 394T129 342T124 257V224Q124 171 129 139T148 87T189 62T256 55H269ZM200 548L177 577L320 708L359 659L200 548Z"  />
<glyph unicode="&#xF4;" horiz-adv-x="525" d="M254 -6Q194 -6 155 4T91 41T58 111T48 224V257Q48 324 57 368T91 439T154 475T254 486H271Q331 486 370 476T434 439T467 369T477 257V224Q477 156 468 112T434 41T371 5T271 -6H254ZM269 55Q310 55 336 61T376 87T396 138T401 224V257Q401 309 396 342T377 394T336 419T269 426H256Q215 426 189 420T149 394T129 342T124 257V224Q124 171 129 139T148 87T189 62T256 55H269ZM363 559L263 643L164 559L135 589L263 706L392 589L363 559Z"  />
<glyph unicode="&#xF5;" horiz-adv-x="525" d="M254 -6Q194 -6 155 4T91 41T58 111T48 224V257Q48 324 57 368T91 439T154 475T254 486H271Q331 486 370 476T434 439T467 369T477 257V224Q477 156 468 112T434 41T371 5T271 -6H254ZM269 55Q310 55 336 61T376 87T396 138T401 224V257Q401 309 396 342T377 394T336 419T269 426H256Q215 426 189 420T149 394T129 342T124 257V224Q124 171 129 139T148 87T189 62T256 55H269ZM390 674Q386 629 369 606T318 583Q300 583 286 590T257 608Q243 618 232 623T210 628Q196 628 186 619T171 582L137 590Q140 633 158 656T208 679Q225 679 239 673T267 657Q282 646 294 641T317 635Q334 635 343 645T355 681L390 674Z"  />
<glyph unicode="&#xF6;" horiz-adv-x="525" d="M254 -6Q194 -6 155 4T91 41T58 111T48 224V257Q48 324 57 368T91 439T154 475T254 486H271Q331 486 370 476T434 439T467 369T477 257V224Q477 156 468 112T434 41T371 5T271 -6H254ZM269 55Q310 55 336 61T376 87T396 138T401 224V257Q401 309 396 342T377 394T336 419T269 426H256Q215 426 189 420T149 394T129 342T124 257V224Q124 171 129 139T148 87T189 62T256 55H269ZM215 592H146V680H215V592ZM378 592H309V680H378V592Z"  />
<glyph unicode="&#xF7;" horiz-adv-x="527" d="M312 456Q312 436 298 421T263 406Q243 406 229 421T214 456Q214 476 228 490T263 505Q283 505 297 491T312 456ZM312 153Q312 133 298 119T263 104Q243 104 229 118T214 153Q214 173 228 187T263 202Q283 202 297 188T312 153ZM468 275H59V335H468V275Z"  />
<glyph unicode="&#xF8;" horiz-adv-x="525" d="M71 -27L40 -1L83 51Q63 77 56 119T48 224V257Q48 324 57 368T91 439T154 475T254 486H271Q368 486 414 456L450 501L481 474L443 428Q462 401 469 360T477 257V224Q477 156 468 112T434 41T371 5T271 -6H254Q206 -6 171 0T112 23L71 -27ZM256 426Q215 426 189 420T149 394T129 342T124 257V224Q124 186 126 160T135 114L369 402Q354 416 330 421T269 426H256ZM269 55Q310 55 336 61T376 87T396 138T401 224V257Q401 293 399 319T391 365L158 77Q173 64 197 60T256 55H269Z"  />
<glyph unicode="&#xF9;" horiz-adv-x="535" d="M470 0H394V78H393Q385 58 374 42T344 16T299 0T236 -6H227Q177 -6 145 2T93 32T66 90T58 181V480H135V200Q135 154 139 126T156 82T192 61T252 55H261Q295 55 320 61T361 82T385 126T393 198V480H470V0ZM340 548L182 659L220 708L363 577L340 548Z"  />
<glyph unicode="&#xFA;" horiz-adv-x="535" d="M470 0H394V78H393Q385 58 374 42T344 16T299 0T236 -6H227Q177 -6 145 2T93 32T66 90T58 181V480H135V200Q135 154 139 126T156 82T192 61T252 55H261Q295 55 320 61T361 82T385 126T393 198V480H470V0ZM208 548L185 577L328 708L367 659L208 548Z"  />
<glyph unicode="&#xFB;" horiz-adv-x="535" d="M470 0H394V78H393Q385 58 374 42T344 16T299 0T236 -6H227Q177 -6 145 2T93 32T66 90T58 181V480H135V200Q135 154 139 126T156 82T192 61T252 55H261Q295 55 320 61T361 82T385 126T393 198V480H470V0ZM367 559L267 643L168 559L139 589L267 706L396 589L367 559Z"  />
<glyph unicode="&#xFC;" horiz-adv-x="535" d="M470 0H394V78H393Q385 58 374 42T344 16T299 0T236 -6H227Q177 -6 145 2T93 32T66 90T58 181V480H135V200Q135 154 139 126T156 82T192 61T252 55H261Q295 55 320 61T361 82T385 126T393 198V480H470V0ZM221 592H152V680H221V592ZM384 592H315V680H384V592Z"  />
<glyph unicode="&#xFD;" horiz-adv-x="457" d="M64 -112Q72 -113 83 -113T101 -114Q123 -114 139 -110T167 -93T191 -55T216 10H178L9 480H89L234 65H237L369 480H448L306 54Q282 -18 263 -62T222 -131T176 -164T114 -173Q102 -173 89 -173T64 -171V-112ZM195 548L172 577L315 708L354 659L195 548Z"  />
<glyph unicode="&#xFE;" horiz-adv-x="535" d="M296 -6Q262 -6 237 -3T194 10T164 33T144 69H142V-170H65V680H142V415H144Q159 455 193 470T294 486H307Q358 486 392 476T448 440T478 369T487 254V229Q487 158 478 113T448 41T393 5T306 -6H296ZM284 56Q322 56 346 62T385 87T404 139T410 227V255Q410 309 405 342T385 394T347 419T284 426H270Q232 426 207 420T167 397T146 349T140 269V213Q140 166 145 136T166 88T206 63T270 56H284Z"  />
<glyph unicode="&#xFF;" horiz-adv-x="457" d="M64 -112Q72 -113 83 -113T101 -114Q123 -114 139 -110T167 -93T191 -55T216 10H178L9 480H89L234 65H237L369 480H448L306 54Q282 -18 263 -62T222 -131T176 -164T114 -173Q102 -173 89 -173T64 -171V-112ZM186 592H117V680H186V592ZM349 592H280V680H349V592Z"  />
<glyph unicode="&#x100;" horiz-adv-x="632" d="M620 0H533L480 154H152L98 0H12L259 680H378L620 0ZM459 218L321 619H315L171 218H459ZM429 778H209V830H429V778Z"  />
<glyph unicode="&#x101;" horiz-adv-x="503" d="M444 0H371V54H369Q352 22 321 8T226 -6H215Q165 -6 133 0T82 23T56 68T48 138V152Q48 193 56 220T84 263T135 286T212 293H222Q289 293 321 283T368 247H370V278Q370 328 367 358T351 403T316 423T252 428H241Q208 428 187 425T154 412T138 388T133 350V340H62V350Q62 392 71 418T101 460T157 480T244 486H258Q319 486 355 479T411 448T437 382T444 268V0ZM249 52Q284 52 307 55T345 69T365 96T371 140V150Q371 179 366 196T346 223T307 235T243 238H234Q199 238 177 235T143 221T126 194T121 150V141Q121 114 125 97T143 69T179 56T240 52H249ZM362 608H142V660H362V608Z"  />
<glyph unicode="&#x102;" horiz-adv-x="632" d="M620 0H533L480 154H152L98 0H12L259 680H378L620 0ZM459 218L321 619H315L171 218H459ZM446 857Q444 795 411 768T320 740Q261 740 228 767T193 857H237Q242 817 263 804T320 790Q356 790 377 803T403 857H446Z"  />
<glyph unicode="&#x103;" horiz-adv-x="503" d="M444 0H371V54H369Q352 22 321 8T226 -6H215Q165 -6 133 0T82 23T56 68T48 138V152Q48 193 56 220T84 263T135 286T212 293H222Q289 293 321 283T368 247H370V278Q370 328 367 358T351 403T316 423T252 428H241Q208 428 187 425T154 412T138 388T133 350V340H62V350Q62 392 71 418T101 460T157 480T244 486H258Q319 486 355 479T411 448T437 382T444 268V0ZM249 52Q284 52 307 55T345 69T365 96T371 140V150Q371 179 366 196T346 223T307 235T243 238H234Q199 238 177 235T143 221T126 194T121 150V141Q121 114 125 97T143 69T179 56T240 52H249ZM380 682Q378 620 345 593T254 565Q195 565 162 592T127 682H171Q176 642 197 629T254 615Q290 615 311 628T337 682H380Z"  />
<glyph unicode="&#x104;" horiz-adv-x="632" d="M620 0H608Q579 -17 560 -32T528 -60T511 -87T506 -112Q506 -132 517 -139T552 -147Q580 -147 612 -139V-179Q595 -184 575 -188T535 -192Q453 -192 453 -127Q453 -92 475 -63T551 0H533L480 154H152L98 0H12L259 680H378L620 0ZM458 218L321 619H315L171 218H458Z"  />
<glyph unicode="&#x105;" horiz-adv-x="503" d="M444 0H435Q377 -35 356 -62T334 -112Q334 -132 345 -139T380 -147Q394 -147 410 -145T440 -139V-179Q423 -184 403 -188T362 -192Q280 -192 280 -127Q280 -93 303 -64T379 0H371V54H369Q352 22 321 8T226 -6H215Q165 -6 133 0T82 23T56 68T48 138V152Q48 193 56 220T84 263T135 286T212 293H222Q289 293 321 283T368 247H370V278Q370 329 367 359T351 404T316 424T252 429H241Q208 429 187 426T154 414T138 390T133 350V340H62V350Q62 392 71 418T101 460T157 480T244 486H258Q319 486 355 479T411 448T437 382T444 268V0ZM249 51Q284 51 307 55T345 68T365 95T371 140V150Q371 179 366 196T346 223T307 236T243 239H234Q199 239 177 235T143 222T126 195T121 150V141Q121 114 125 97T143 69T179 55T240 51H249Z"  />
<glyph unicode="&#x106;" horiz-adv-x="651" d="M324 -6Q239 -6 186 7T103 55T63 152T52 312V369Q52 466 63 527T105 624T187 673T323 686H341Q416 686 464 677T541 646T581 586T593 492V471H514V487Q514 526 507 551T481 592T429 613T341 619H325Q265 619 228 611T171 576T143 501T135 369V313Q135 230 142 181T170 105T228 71T327 63H342Q397 63 431 68T484 89T511 130T518 197V212H598V190Q598 132 586 94T544 34T466 3T343 -6H324ZM442 821L265 742L246 773L411 875L442 821Z"  />
<glyph unicode="&#x107;" horiz-adv-x="505" d="M251 -6Q191 -6 152 4T90 39T58 109T48 224V257Q48 327 58 372T92 442T155 476T252 486H269Q324 486 360 478T417 452T447 403T456 326V312H384V322Q384 353 379 373T361 405T326 421T268 426H254Q215 426 190 420T150 396T131 344T125 257V224Q125 171 130 138T150 87T190 63T255 56H270Q305 56 327 60T363 77T381 109T386 162V173H459V160Q459 112 450 81T418 30T359 2T267 -6H251ZM202 548L179 577L322 708L361 659L202 548Z"  />
<glyph unicode="&#x108;" horiz-adv-x="651" d="M324 -6Q239 -6 186 7T103 55T63 152T52 312V369Q52 466 63 527T105 624T187 673T323 686H341Q416 686 464 677T541 646T581 586T593 492V471H514V487Q514 526 507 551T481 592T429 613T341 619H325Q265 619 228 611T171 576T143 501T135 369V313Q135 230 142 181T170 105T228 71T327 63H342Q397 63 431 68T484 89T511 130T518 197V212H598V190Q598 132 586 94T544 34T466 3T343 -6H324ZM435 746L331 819L228 746L200 776L331 882L463 776L435 746Z"  />
<glyph unicode="&#x109;" horiz-adv-x="505" d="M251 -6Q191 -6 152 4T90 39T58 109T48 224V257Q48 327 58 372T92 442T155 476T252 486H269Q324 486 360 478T417 452T447 403T456 326V312H384V322Q384 353 379 373T361 405T326 421T268 426H254Q215 426 190 420T150 396T131 344T125 257V224Q125 171 130 138T150 87T190 63T255 56H270Q305 56 327 60T363 77T381 109T386 162V173H459V160Q459 112 450 81T418 30T359 2T267 -6H251ZM354 559L254 643L155 559L126 589L254 706L383 589L354 559Z"  />
<glyph unicode="&#x10A;" horiz-adv-x="651" d="M324 -6Q239 -6 186 7T103 55T63 152T52 312V369Q52 466 63 527T105 624T187 673T323 686H341Q416 686 464 677T541 646T581 586T593 492V471H514V487Q514 526 507 551T481 592T429 613T341 619H325Q265 619 228 611T171 576T143 501T135 369V313Q135 230 142 181T170 105T228 71T327 63H342Q397 63 431 68T484 89T511 130T518 197V212H598V190Q598 132 586 94T544 34T466 3T343 -6H324ZM368 759H291V847H368V759Z"  />
<glyph unicode="&#x10B;" horiz-adv-x="505" d="M251 -6Q191 -6 152 4T90 39T58 109T48 224V257Q48 327 58 372T92 442T155 476T252 486H269Q324 486 360 478T417 452T447 403T456 326V312H384V322Q384 353 379 373T361 405T326 421T268 426H254Q215 426 190 420T150 396T131 344T125 257V224Q125 171 130 138T150 87T190 63T255 56H270Q305 56 327 60T363 77T381 109T386 162V173H459V160Q459 112 450 81T418 30T359 2T267 -6H251ZM292 592H215V680H292V592Z"  />
<glyph unicode="&#x10C;" horiz-adv-x="651" d="M324 -6Q239 -6 186 7T103 55T63 152T52 312V369Q52 466 63 527T105 624T187 673T323 686H341Q416 686 464 677T541 646T581 586T593 492V471H514V487Q514 526 507 551T481 592T429 613T341 619H325Q265 619 228 611T171 576T143 501T135 369V313Q135 230 142 181T170 105T228 71T327 63H342Q397 63 431 68T484 89T511 130T518 197V212H598V190Q598 132 586 94T544 34T466 3T343 -6H324ZM332 732L201 837L229 867L332 794L436 867L464 837L332 732Z"  />
<glyph unicode="&#x10D;" horiz-adv-x="505" d="M251 -6Q191 -6 152 4T90 39T58 109T48 224V257Q48 327 58 372T92 442T155 476T252 486H269Q324 486 360 478T417 452T447 403T456 326V312H384V322Q384 353 379 373T361 405T326 421T268 426H254Q215 426 190 420T150 396T131 344T125 257V224Q125 171 130 138T150 87T190 63T255 56H270Q305 56 327 60T363 77T381 109T386 162V173H459V160Q459 112 450 81T418 30T359 2T267 -6H251ZM254 548L125 665L153 694L254 611L354 693L382 665L254 548Z"  />
<glyph unicode="&#x10E;" horiz-adv-x="687" d="M631 309Q631 210 621 149T579 55T491 11T342 0H69V680H342Q432 680 488 670T576 627T619 534T631 372V309ZM339 67Q407 67 448 74T511 108T541 182T548 314V369Q548 451 540 500T510 574T446 606T339 614H152V67H339ZM333 732L202 837L230 867L333 794L437 867L465 837L333 732Z"  />
<glyph unicode="&#x10F;" horiz-adv-x="534" d="M469 0H395V69H393Q376 27 341 11T240 -6H229Q176 -6 142 4T86 42T57 114T48 229V254Q48 324 57 369T87 440T142 476T227 486H241Q306 486 340 470T391 415H392V680H469V0ZM264 56Q303 56 328 62T368 85T389 133T395 213V269Q395 316 389 346T369 394T329 419T264 426H251Q213 426 189 420T151 395T131 343T125 255V227Q125 174 130 141T150 88T189 63T251 56H264ZM593 607Q593 549 577 527T522 500V535Q537 539 542 550T548 598V605H526V680H593V607Z"  />
<glyph unicode="&#x110;" horiz-adv-x="687" d="M18 377H69V680H342Q432 680 488 670T576 627T619 534T631 372V309Q631 210 621 149T579 55T491 11T342 0H69V326H18V377ZM339 67Q407 67 448 74T511 108T541 182T548 314V369Q548 451 540 500T510 574T446 606T339 614H152V377H316V326H152V67H339Z"  />
<glyph unicode="&#x111;" horiz-adv-x="534" d="M469 0H395V69H393Q376 27 341 11T240 -6H229Q176 -6 142 4T86 42T57 114T48 229V254Q48 324 57 369T87 440T142 476T227 486H241Q306 486 340 470T391 415H392V552H246V599H392V680H469V599H508V552H469V0ZM264 56Q303 56 328 62T368 85T389 133T395 213V269Q395 316 389 346T369 394T329 419T264 426H251Q213 426 189 420T151 395T131 343T125 255V227Q125 174 130 141T150 88T189 63T251 56H264Z"  />
<glyph unicode="&#x112;" horiz-adv-x="545" d="M512 0H69V680H509V614H152V384H489V320H152V67H512V0ZM398 778H178V830H398V778Z"  />
<glyph unicode="&#x113;" horiz-adv-x="506" d="M249 -6Q188 -6 149 3T88 38T57 108T48 224V255Q48 327 57 372T89 442T150 477T246 486H262Q320 486 357 477T416 446T446 385T455 287V230H123V213Q123 163 128 132T147 84T186 61T253 55H266Q303 55 326 59T362 74T381 104T386 153V162H458V151Q458 106 448 76T415 27T356 2T267 -6H249ZM382 282V299Q382 338 378 363T361 403T324 422T261 428H250Q210 428 185 423T147 402T128 358T122 282H382ZM366 608H146V660H366V608Z"  />
<glyph unicode="&#x114;" horiz-adv-x="545" d="M512 0H69V680H509V614H152V384H489V320H152V67H512V0ZM415 857Q413 795 380 768T289 740Q230 740 197 767T162 857H206Q211 817 232 804T289 790Q325 790 346 803T372 857H415Z"  />
<glyph unicode="&#x115;" horiz-adv-x="506" d="M249 -6Q188 -6 149 3T88 38T57 108T48 224V255Q48 327 57 372T89 442T150 477T246 486H262Q320 486 357 477T416 446T446 385T455 287V230H123V213Q123 163 128 132T147 84T186 61T253 55H266Q303 55 326 59T362 74T381 104T386 153V162H458V151Q458 106 448 76T415 27T356 2T267 -6H249ZM382 282V299Q382 338 378 363T361 403T324 422T261 428H250Q210 428 185 423T147 402T128 358T122 282H382ZM382 682Q380 620 347 593T256 565Q197 565 164 592T129 682H173Q178 642 199 629T256 615Q292 615 313 628T339 682H382Z"  />
<glyph unicode="&#x116;" horiz-adv-x="545" d="M512 0H69V680H509V614H152V384H489V320H152V67H512V0ZM322 759H245V847H322V759Z"  />
<glyph unicode="&#x117;" horiz-adv-x="506" d="M249 -6Q188 -6 149 3T88 38T57 108T48 224V255Q48 327 57 372T89 442T150 477T246 486H262Q320 486 357 477T416 446T446 385T455 287V230H123V213Q123 163 128 132T147 84T186 61T253 55H266Q303 55 326 59T362 74T381 104T386 153V162H458V151Q458 106 448 76T415 27T356 2T267 -6H249ZM382 282V299Q382 338 378 363T361 403T324 422T261 428H250Q210 428 185 423T147 402T128 358T122 282H382ZM292 592H215V680H292V592Z"  />
<glyph unicode="&#x118;" horiz-adv-x="545" d="M498 -179Q481 -184 461 -188T419 -192Q337 -192 337 -127Q337 -93 359 -63T427 0H69V680H509V614H152V384H489V320H152V67H512V0H480Q431 -34 411 -60T390 -112Q390 -132 402 -139T437 -147Q463 -147 498 -139V-179Z"  />
<glyph unicode="&#x119;" horiz-adv-x="506" d="M383 9Q325 -32 303 -60T281 -112Q281 -132 292 -139T327 -147Q341 -147 357 -145T387 -139V-179Q370 -184 350 -188T310 -192Q227 -192 227 -127Q227 -95 248 -67T314 -4Q303 -5 292 -5T267 -6H249Q188 -6 149 3T88 38T57 108T48 224V255Q48 327 57 372T89 442T150 477T246 486H262Q320 486 357 477T416 446T446 385T455 287V230H123V213Q123 163 128 132T147 84T186 61T253 55H266Q303 55 326 59T362 74T381 104T386 153V162H458V151Q458 91 441 58T383 9ZM382 282V299Q382 338 378 363T361 403T324 422T261 428H250Q210 428 185 423T147 402T128 358T122 282H382Z"  />
<glyph unicode="&#x11A;" horiz-adv-x="545" d="M512 0H69V680H509V614H152V384H489V320H152V67H512V0ZM286 732L155 837L183 867L286 794L390 867L418 837L286 732Z"  />
<glyph unicode="&#x11B;" horiz-adv-x="506" d="M249 -6Q188 -6 149 3T88 38T57 108T48 224V255Q48 327 57 372T89 442T150 477T246 486H262Q320 486 357 477T416 446T446 385T455 287V230H123V213Q123 163 128 132T147 84T186 61T253 55H266Q303 55 326 59T362 74T381 104T386 153V162H458V151Q458 106 448 76T415 27T356 2T267 -6H249ZM382 282V299Q382 338 378 363T361 403T324 422T261 428H250Q210 428 185 423T147 402T128 358T122 282H382ZM256 548L127 665L155 694L256 611L356 693L384 665L256 548Z"  />
<glyph unicode="&#x11C;" horiz-adv-x="653" d="M325 -6Q242 -6 190 7T107 55T66 152T54 312V370Q54 470 66 532T110 628T193 674T326 686H344Q419 686 467 677T544 645T584 587T596 496V480H516V494Q516 532 509 556T483 594T431 613T343 619H328Q268 619 231 611T173 577T145 502T137 369V312Q137 231 144 182T173 107T231 72T328 63H343Q398 63 432 68T487 90T514 136T522 214V275H310V337H602V223Q602 155 591 111T550 41T470 5T343 -6H325ZM434 746L330 819L227 746L199 776L330 882L462 776L434 746Z"  />
<glyph unicode="&#x11D;" horiz-adv-x="531" d="M242 -176Q188 -176 152 -170T95 -149T66 -106T57 -34V-22H129V-31Q129 -57 133 -73T149 -98T184 -111T242 -115H259Q304 -115 330 -111T369 -93T387 -50T391 28V96H389Q381 77 369 64T339 41T296 28T235 24H224Q175 24 142 33T87 67T57 133T48 240V262Q48 329 57 372T87 440T141 476T224 486H236Q303 486 338 471T391 414H392V480H467V33Q467 -35 459 -76T427 -139T363 -168T259 -176H242ZM260 84Q301 84 326 90T366 114T386 162T392 240V263Q392 313 387 345T367 395T327 419T261 426H247Q210 426 187 420T149 395T130 345T124 263V240Q124 192 129 162T149 115T187 91T247 84H260ZM351 559L251 643L152 559L123 589L251 706L380 589L351 559Z"  />
<glyph unicode="&#x11E;" horiz-adv-x="653" d="M325 -6Q242 -6 190 7T107 55T66 152T54 312V370Q54 470 66 532T110 628T193 674T326 686H344Q419 686 467 677T544 645T584 587T596 496V480H516V494Q516 532 509 556T483 594T431 613T343 619H328Q268 619 231 611T173 577T145 502T137 369V312Q137 231 144 182T173 107T231 72T328 63H343Q398 63 432 68T487 90T514 136T522 214V275H310V337H602V223Q602 155 591 111T550 41T470 5T343 -6H325ZM457 857Q455 795 422 768T331 740Q272 740 239 767T204 857H248Q253 817 274 804T331 790Q367 790 388 803T414 857H457Z"  />
<glyph unicode="&#x11F;" horiz-adv-x="531" d="M242 -176Q188 -176 152 -170T95 -149T66 -106T57 -34V-22H129V-31Q129 -57 133 -73T149 -98T184 -111T242 -115H259Q304 -115 330 -111T369 -93T387 -50T391 28V96H389Q381 77 369 64T339 41T296 28T235 24H224Q175 24 142 33T87 67T57 133T48 240V262Q48 329 57 372T87 440T141 476T224 486H236Q303 486 338 471T391 414H392V480H467V33Q467 -35 459 -76T427 -139T363 -168T259 -176H242ZM260 84Q301 84 326 90T366 114T386 162T392 240V263Q392 313 387 345T367 395T327 419T261 426H247Q210 426 187 420T149 395T130 345T124 263V240Q124 192 129 162T149 115T187 91T247 84H260ZM380 682Q378 620 345 593T254 565Q195 565 162 592T127 682H171Q176 642 197 629T254 615Q290 615 311 628T337 682H380Z"  />
<glyph unicode="&#x120;" horiz-adv-x="653" d="M325 -6Q242 -6 190 7T107 55T66 152T54 312V370Q54 470 66 532T110 628T193 674T326 686H344Q419 686 467 677T544 645T584 587T596 496V480H516V494Q516 532 509 556T483 594T431 613T343 619H328Q268 619 231 611T173 577T145 502T137 369V312Q137 231 144 182T173 107T231 72T328 63H343Q398 63 432 68T487 90T514 136T522 214V275H310V337H602V223Q602 155 591 111T550 41T470 5T343 -6H325ZM369 759H292V847H369V759Z"  />
<glyph unicode="&#x121;" horiz-adv-x="531" d="M242 -176Q188 -176 152 -170T95 -149T66 -106T57 -34V-22H129V-31Q129 -57 133 -73T149 -98T184 -111T242 -115H259Q304 -115 330 -111T369 -93T387 -50T391 28V96H389Q381 77 369 64T339 41T296 28T235 24H224Q175 24 142 33T87 67T57 133T48 240V262Q48 329 57 372T87 440T141 476T224 486H236Q303 486 338 471T391 414H392V480H467V33Q467 -35 459 -76T427 -139T363 -168T259 -176H242ZM260 84Q301 84 326 90T366 114T386 162T392 240V263Q392 313 387 345T367 395T327 419T261 426H247Q210 426 187 420T149 395T130 345T124 263V240Q124 192 129 162T149 115T187 91T247 84H260ZM290 592H213V680H290V592Z"  />
<glyph unicode="&#x122;" horiz-adv-x="653" d="M325 -6Q242 -6 190 7T107 55T66 152T54 312V370Q54 470 66 532T110 628T193 674T326 686H344Q419 686 467 677T544 645T584 587T596 496V480H516V494Q516 532 509 556T483 594T431 613T343 619H328Q268 619 231 611T173 577T145 502T137 369V312Q137 231 144 182T173 107T231 72T328 63H343Q398 63 432 68T487 90T514 136T522 214V275H310V337H602V223Q602 155 591 111T550 41T470 5T343 -6H325ZM373 -125Q373 -151 370 -169T357 -198T332 -216T291 -223V-191Q314 -188 321 -177T328 -130V-124H306V-49H373V-125Z"  />
<glyph unicode="&#x123;" horiz-adv-x="531" d="M242 -176Q188 -176 152 -170T95 -149T66 -106T57 -34V-22H129V-31Q129 -57 133 -73T149 -98T184 -111T242 -115H259Q304 -115 330 -111T369 -93T387 -50T391 28V96H389Q381 77 369 64T339 41T296 28T235 24H224Q175 24 142 33T87 67T57 133T48 240V262Q48 329 57 372T87 440T141 476T224 486H236Q303 486 338 471T391 414H392V480H467V33Q467 -35 459 -76T427 -139T363 -168T259 -176H242ZM260 84Q301 84 326 90T366 114T386 162T392 240V263Q392 313 387 345T367 395T327 419T261 426H247Q210 426 187 420T149 395T130 345T124 263V240Q124 192 129 162T149 115T187 91T247 84H260ZM283 546H216V622Q216 648 219 666T232 695T257 712T298 720V688Q275 685 268 674T261 627V621H283V546Z"  />
<glyph unicode="&#x124;" horiz-adv-x="676" d="M607 0H524V317H152V0H69V680H152V390H524V680H607V0ZM442 746L338 819L235 746L207 776L338 882L470 776L442 746Z"  />
<glyph unicode="&#x125;" horiz-adv-x="539" d="M477 0H400V283Q400 328 396 355T380 398T344 419T283 424H273Q238 424 214 418T173 397T150 354T142 283V0H65V680H142V403H143Q151 423 162 438T192 464T236 480T299 486H308Q358 486 391 478T443 450T469 394T477 302V0ZM213 746L109 819L6 746L-22 776L109 882L241 776L213 746Z"  />
<glyph unicode="&#x126;" horiz-adv-x="676" d="M607 0H524V317H152V0H69V503H25V551H69V680H152V551H524V680H607V551H651V503H607V0ZM524 390V503H152V390H524Z"  />
<glyph unicode="&#x127;" horiz-adv-x="539" d="M24 599H65V680H142V599H286V552H142V403H143Q151 423 162 438T192 464T236 480T299 486H308Q358 486 391 478T443 450T469 394T477 302V0H400V283Q400 328 396 355T380 398T344 419T283 424H273Q238 424 214 418T173 397T150 354T142 283V0H65V552H24V599Z"  />
<glyph unicode="&#x128;" horiz-adv-x="221" d="M152 0H69V680H152V0ZM239 850Q235 805 218 782T167 759Q149 759 135 766T106 784Q92 794 81 799T59 804Q45 804 35 795T20 758L-14 766Q-11 809 7 832T57 855Q74 855 88 849T116 833Q131 822 143 817T166 811Q183 811 192 821T204 857L239 850Z"  />
<glyph unicode="&#x129;" horiz-adv-x="207" d="M142 0H65V480H142V0ZM232 674Q228 629 211 606T160 583Q142 583 128 590T99 608Q85 618 74 623T52 628Q38 628 28 619T13 582L-21 590Q-18 633 0 656T50 679Q67 679 81 673T109 657Q124 646 136 641T159 635Q176 635 185 645T197 681L232 674Z"  />
<glyph unicode="&#x12A;" horiz-adv-x="221" d="M152 0H69V680H152V0ZM222 778H2V830H222V778Z"  />
<glyph unicode="&#x12B;" horiz-adv-x="207" d="M142 0H65V480H142V0ZM215 608H-5V660H215V608Z"  />
<glyph unicode="&#x12E;" horiz-adv-x="221" d="M168 -180Q152 -185 134 -188T95 -192Q56 -192 35 -177T13 -127Q13 -93 33 -64T91 0H69V680H152V0H137Q98 -36 82 -64T66 -113Q66 -133 77 -140T112 -147Q126 -147 140 -146T168 -140V-180Z"  />
<glyph unicode="&#x12F;" horiz-adv-x="207" d="M161 -180Q144 -185 126 -188T87 -192Q47 -192 26 -177T5 -127Q5 -94 25 -64T83 0L65 1V480H142V0H129Q90 -36 74 -64T58 -113Q58 -133 69 -140T104 -147Q118 -147 132 -146T161 -140V-180ZM142 592H65V680H142V592Z"  />
<glyph unicode="&#x130;" horiz-adv-x="221" d="M152 0H69V680H152V0ZM151 759H74V847H151V759Z"  />
<glyph unicode="&#x131;" horiz-adv-x="207" d="M142 0H65V480H142V0Z"  />
<glyph unicode="&#x132;" horiz-adv-x="762" d="M152 0H69V680H152V0ZM460 -6Q398 -6 360 1T300 31T271 95T263 203V230H339V209Q339 160 343 131T360 87T398 68T463 63H478Q524 63 551 68T592 89T610 138T615 225V680H698V230Q698 155 690 109T659 37T592 3T479 -6H460Z"  />
<glyph unicode="&#x133;" horiz-adv-x="413" d="M142 0H65V480H142V0ZM142 592H65V680H142V592ZM349 -45Q349 -119 325 -146T247 -173Q239 -173 230 -173T211 -170V-109Q219 -110 223 -110T232 -110Q244 -110 251 -108T263 -98T270 -76T272 -36V480H349V-45ZM349 592H272V680H349V592Z"  />
<glyph unicode="&#x134;" horiz-adv-x="523" d="M221 -6Q159 -6 121 1T61 31T32 95T24 203V230H100V209Q100 160 104 131T121 87T159 68T224 63H239Q285 63 312 68T353 89T371 138T376 225V680H459V230Q459 155 451 109T420 37T353 3T240 -6H221ZM519 746L415 819L312 746L284 776L415 882L547 776L519 746Z"  />
<glyph unicode="&#x135;" horiz-adv-x="206" d="M142 -45Q142 -119 118 -146T40 -173Q32 -173 23 -173T4 -170V-109Q12 -110 16 -110T25 -110Q37 -110 44 -108T56 -98T63 -76T65 -36V480H142V-45ZM204 559L104 643L5 559L-24 589L104 706L233 589L204 559Z"  />
<glyph unicode="&#x136;" horiz-adv-x="622" d="M613 0H505L224 315H151V0H69V680H151V379H227L494 680H594L293 349L613 0ZM339 -125Q339 -151 336 -169T323 -198T298 -216T257 -223V-191Q280 -188 287 -177T294 -130V-124H272V-49H339V-125Z"  />
<glyph unicode="&#x137;" horiz-adv-x="469" d="M460 0H368L168 232H142V0H65V680H142V281H172L347 480H438L232 257L460 0ZM274 -125Q274 -151 271 -169T258 -198T233 -216T192 -223V-191Q215 -188 222 -177T229 -130V-124H207V-49H274V-125Z"  />
<glyph unicode="&#x139;" horiz-adv-x="490" d="M478 0H69V680H152V68H478V0ZM290 821L113 742L94 773L259 875L290 821Z"  />
<glyph unicode="&#x13A;" horiz-adv-x="207" d="M142 0H65V680H142V0ZM272 821L95 742L76 773L241 875L272 821Z"  />
<glyph unicode="&#x13B;" horiz-adv-x="490" d="M478 0H69V680H152V68H478V0ZM310 -125Q310 -151 307 -169T294 -198T269 -216T228 -223V-191Q251 -188 258 -177T265 -130V-124H243V-49H310V-125Z"  />
<glyph unicode="&#x13C;" horiz-adv-x="207" d="M142 0H65V680H142V0ZM140 -125Q140 -151 137 -169T124 -198T99 -216T58 -223V-191Q81 -188 88 -177T95 -130V-124H73V-49H140V-125Z"  />
<glyph unicode="&#x13D;" horiz-adv-x="490" d="M478 0H69V680H152V68H478V0ZM301 607Q301 549 285 527T230 500V535Q245 539 250 550T256 598V605H234V680H301V607Z"  />
<glyph unicode="&#x13E;" horiz-adv-x="207" d="M142 0H65V680H142V0ZM266 607Q266 549 250 527T195 500V535Q210 539 215 550T221 598V605H199V680H266V607Z"  />
<glyph unicode="&#x13F;" horiz-adv-x="490" d="M478 0H69V680H152V68H478V0ZM405 306H323V412H405V306Z"  />
<glyph unicode="&#x140;" horiz-adv-x="299" d="M142 0H65V680H142V0ZM294 296H212V402H294V296Z"  />
<glyph unicode="&#x141;" horiz-adv-x="490" d="M478 0H69V282L11 251V307L69 338V680H152V378L299 456V400L152 322V68H478V0Z"  />
<glyph unicode="&#x142;" horiz-adv-x="207" d="M142 0H65V297L16 257V316L65 355V680H142V399L191 439V382L142 341V0Z"  />
<glyph unicode="&#x143;" horiz-adv-x="706" d="M637 0H511L150 609H146L147 0H69V680H197L557 73H560L558 680H637V0ZM466 821L289 742L270 773L435 875L466 821Z"  />
<glyph unicode="&#x144;" horiz-adv-x="539" d="M477 0H400V282Q400 327 396 355T380 398T344 418T283 424H273Q239 424 214 418T173 396T150 353T142 282V0H65V480H141V403H142Q150 423 161 438T191 464T235 480T299 486H308Q358 486 391 478T443 449T469 393T477 302V0ZM220 548L197 577L340 708L379 659L220 548Z"  />
<glyph unicode="&#x145;" horiz-adv-x="706" d="M637 0H511L150 609H146L147 0H69V680H197L557 73H560L558 680H637V0ZM398 -125Q398 -151 395 -169T382 -198T357 -216T316 -223V-191Q339 -188 346 -177T353 -130V-124H331V-49H398V-125Z"  />
<glyph unicode="&#x146;" horiz-adv-x="539" d="M477 0H400V282Q400 327 396 355T380 398T344 418T283 424H273Q239 424 214 418T173 396T150 353T142 282V0H65V480H141V403H142Q150 423 161 438T191 464T235 480T299 486H308Q358 486 391 478T443 449T469 393T477 302V0ZM310 -125Q310 -151 307 -169T294 -198T269 -216T228 -223V-191Q251 -188 258 -177T265 -130V-124H243V-49H310V-125Z"  />
<glyph unicode="&#x147;" horiz-adv-x="706" d="M637 0H511L150 609H146L147 0H69V680H197L557 73H560L558 680H637V0ZM361 732L230 837L258 867L361 794L465 867L493 837L361 732Z"  />
<glyph unicode="&#x148;" horiz-adv-x="539" d="M477 0H400V282Q400 327 396 355T380 398T344 418T283 424H273Q239 424 214 418T173 396T150 353T142 282V0H65V480H141V403H142Q150 423 161 438T191 464T235 480T299 486H308Q358 486 391 478T443 449T469 393T477 302V0ZM280 548L151 665L179 694L280 611L380 693L408 665L280 548Z"  />
<glyph unicode="&#x149;" horiz-adv-x="550" d="M488 0H411V282Q411 327 407 355T391 398T355 418T294 424H284Q250 424 225 418T184 396T161 353T153 282V0H76V480H152V403H153Q161 423 172 438T202 464T246 480T310 486H319Q369 486 402 478T454 449T480 393T488 302V0ZM70 599Q70 541 54 519T-1 492V527Q14 531 19 542T25 590V597H3V672H70V599Z"  />
<glyph unicode="&#x14C;" horiz-adv-x="679" d="M53 369Q53 467 65 528T107 625T192 673T330 686H349Q433 686 487 673T571 625T614 529T626 369V311Q626 213 614 152T572 55T487 7T349 -6H330Q246 -6 192 7T108 55T65 151T53 311V369ZM136 312Q136 230 143 181T172 106T231 71T331 63H349Q410 63 448 71T507 105T535 181T543 312V369Q543 451 536 500T507 575T448 610T349 619H331Q269 619 231 611T172 576T144 500T136 369V312ZM449 778H229V830H449V778Z"  />
<glyph unicode="&#x14D;" horiz-adv-x="525" d="M254 -6Q194 -6 155 4T91 41T58 111T48 224V257Q48 324 57 368T91 439T154 475T254 486H271Q331 486 370 476T434 439T467 369T477 257V224Q477 156 468 112T434 41T371 5T271 -6H254ZM269 55Q310 55 336 61T376 87T396 138T401 224V257Q401 309 396 342T377 394T336 419T269 426H256Q215 426 189 420T149 394T129 342T124 257V224Q124 171 129 139T148 87T189 62T256 55H269ZM375 608H155V660H375V608Z"  />
<glyph unicode="&#x14E;" horiz-adv-x="679" d="M53 369Q53 467 65 528T107 625T192 673T330 686H349Q433 686 487 673T571 625T614 529T626 369V311Q626 213 614 152T572 55T487 7T349 -6H330Q246 -6 192 7T108 55T65 151T53 311V369ZM136 312Q136 230 143 181T172 106T231 71T331 63H349Q410 63 448 71T507 105T535 181T543 312V369Q543 451 536 500T507 575T448 610T349 619H331Q269 619 231 611T172 576T144 500T136 369V312ZM466 857Q464 795 431 768T340 740Q281 740 248 767T213 857H257Q262 817 283 804T340 790Q376 790 397 803T423 857H466Z"  />
<glyph unicode="&#x14F;" horiz-adv-x="525" d="M254 -6Q194 -6 155 4T91 41T58 111T48 224V257Q48 324 57 368T91 439T154 475T254 486H271Q331 486 370 476T434 439T467 369T477 257V224Q477 156 468 112T434 41T371 5T271 -6H254ZM269 55Q310 55 336 61T376 87T396 138T401 224V257Q401 309 396 342T377 394T336 419T269 426H256Q215 426 189 420T149 394T129 342T124 257V224Q124 171 129 139T148 87T189 62T256 55H269ZM391 682Q389 620 356 593T265 565Q206 565 173 592T138 682H182Q187 642 208 629T265 615Q301 615 322 628T348 682H391Z"  />
<glyph unicode="&#x150;" horiz-adv-x="679" d="M53 369Q53 467 65 528T107 625T192 673T330 686H349Q433 686 487 673T571 625T614 529T626 369V311Q626 213 614 152T572 55T487 7T349 -6H330Q246 -6 192 7T108 55T65 151T53 311V369ZM136 312Q136 230 143 181T172 106T231 71T331 63H349Q410 63 448 71T507 105T535 181T543 312V369Q543 451 536 500T507 575T448 610T349 619H331Q269 619 231 611T172 576T144 500T136 369V312ZM260 730L237 758L360 884L396 844L260 730ZM398 729L375 757L499 883L535 844L398 729Z"  />
<glyph unicode="&#x151;" horiz-adv-x="525" d="M254 -6Q194 -6 155 4T91 41T58 111T48 224V257Q48 324 57 368T91 439T154 475T254 486H271Q331 486 370 476T434 439T467 369T477 257V224Q477 156 468 112T434 41T371 5T271 -6H254ZM269 55Q310 55 336 61T376 87T396 138T401 224V257Q401 309 396 342T377 394T336 419T269 426H256Q215 426 189 420T149 394T129 342T124 257V224Q124 171 129 139T148 87T189 62T256 55H269ZM324 673L195 550L170 577L285 710L324 673ZM460 672L329 549L304 576L421 709L460 672Z"  />
<glyph unicode="&#x152;" horiz-adv-x="1015" d="M982 0H545V74H544Q535 51 520 36T481 11T422 -2T336 -6H318Q240 -6 189 6T108 52T66 147T53 307V376Q53 472 65 532T108 627T189 673T317 686H334Q388 686 424 682T483 667T519 642T544 605H545V680H979V614H622V384H959V320H622V67H982V0ZM348 62Q408 62 445 71T504 103T534 168T542 272V404Q542 470 533 512T502 577T443 609T348 618H331Q272 618 234 610T175 576T145 503T137 378V305Q137 228 144 181T173 107T232 71T331 62H348Z"  />
<glyph unicode="&#x153;" horiz-adv-x="857" d="M809 152Q809 105 799 75T767 26T709 1T623 -6H604Q527 -6 491 12T441 69H440Q425 28 384 11T269 -6H252Q193 -6 154 4T92 40T58 110T48 223V257Q48 325 58 369T92 440T155 476T252 486H269Q308 486 336 482T385 469T418 446T440 411H441Q455 450 492 468T600 486H616Q670 486 706 478T765 447T796 386T806 289V230H477V214Q477 164 481 133T499 85T538 62T606 55H619Q656 55 679 60T715 76T732 106T737 153V162H809V152ZM270 55Q311 55 336 61T376 86T396 137T401 222V260Q401 313 396 345T375 396T335 420T270 426H256Q215 426 190 420T150 395T130 343T124 257V223Q124 169 130 136T151 85T191 61T256 55H270ZM733 282V299Q733 338 728 363T710 403T674 422T615 428H604Q565 428 541 423T502 403T483 359T476 282H733Z"  />
<glyph unicode="&#x154;" horiz-adv-x="636" d="M374 332Q408 332 431 338T467 358T486 397T492 457V482Q492 524 487 549T465 589T419 609T342 614H151V332H374ZM575 0H492V92Q492 150 488 185T469 238T425 261T347 267H151V0H69V680H359Q426 680 468 672T534 642T566 584T575 492V469Q575 427 570 398T552 351T522 322T480 306V304Q508 299 526 289T556 258T571 205T575 122V0ZM422 821L245 742L226 773L391 875L422 821Z"  />
<glyph unicode="&#x155;" horiz-adv-x="439" d="M142 0H65V480H140V396H142Q156 443 187 464T280 486H287Q327 486 352 479T392 455T412 411T417 342V300H349V325Q349 355 346 374T332 403T304 418T258 422H250Q224 422 204 416T170 393T149 347T142 272V0ZM174 548L151 577L294 708L333 659L174 548Z"  />
<glyph unicode="&#x156;" horiz-adv-x="636" d="M374 332Q408 332 431 338T467 358T486 397T492 457V482Q492 524 487 549T465 589T419 609T342 614H151V332H374ZM575 0H492V92Q492 150 488 185T469 238T425 261T347 267H151V0H69V680H359Q426 680 468 672T534 642T566 584T575 492V469Q575 427 570 398T552 351T522 322T480 306V304Q508 299 526 289T556 258T571 205T575 122V0ZM360 -125Q360 -151 357 -169T344 -198T319 -216T278 -223V-191Q301 -188 308 -177T315 -130V-124H293V-49H360V-125Z"  />
<glyph unicode="&#x157;" horiz-adv-x="439" d="M142 0H65V480H140V396H142Q156 443 187 464T280 486H287Q327 486 352 479T392 455T412 411T417 342V300H349V325Q349 355 346 374T332 403T304 418T258 422H250Q224 422 204 416T170 393T149 347T142 272V0ZM140 -125Q140 -151 137 -169T124 -198T99 -216T58 -223V-191Q81 -188 88 -177T95 -130V-124H73V-49H140V-125Z"  />
<glyph unicode="&#x158;" horiz-adv-x="636" d="M374 332Q408 332 431 338T467 358T486 397T492 457V482Q492 524 487 549T465 589T419 609T342 614H151V332H374ZM575 0H492V92Q492 150 488 185T469 238T425 261T347 267H151V0H69V680H359Q426 680 468 672T534 642T566 584T575 492V469Q575 427 570 398T552 351T522 322T480 306V304Q508 299 526 289T556 258T571 205T575 122V0ZM314 732L183 837L211 867L314 794L418 867L446 837L314 732Z"  />
<glyph unicode="&#x159;" horiz-adv-x="439" d="M142 0H65V480H140V396H142Q156 443 187 464T280 486H287Q327 486 352 479T392 455T412 411T417 342V300H349V325Q349 355 346 374T332 403T304 418T258 422H250Q224 422 204 416T170 393T149 347T142 272V0ZM229 548L100 665L128 694L229 611L329 693L357 665L229 548Z"  />
<glyph unicode="&#x15A;" horiz-adv-x="619" d="M567 186Q567 129 557 92T520 33T449 3T335 -6H312Q229 -6 179 1T101 30T64 88T55 185V213H133V189Q133 149 139 124T164 85T217 65T307 60H326Q376 60 407 64T455 82T479 120T485 183V197Q485 228 480 248T455 282T399 302T299 314Q225 320 179 331T107 362T72 414T62 493V509Q62 558 72 592T107 647T177 677T288 686H308Q385 686 432 678T506 648T542 590T551 499V477H472V495Q472 533 467 557T444 596T395 615T312 621H295Q247 621 218 617T172 599T149 564T143 508V494Q143 465 149 447T174 416T229 396T326 384Q402 378 449 367T522 335T557 282T567 202V186ZM423 821L246 742L227 773L392 875L423 821Z"  />
<glyph unicode="&#x15B;" horiz-adv-x="494" d="M241 -6Q181 -6 144 0T85 21T57 63T49 131V146H121V138Q121 111 125 95T142 69T178 57T241 53H264Q299 53 321 56T355 68T371 92T375 131V139Q375 159 371 172T352 195T309 209T233 218Q179 222 145 230T92 253T65 290T58 346V358Q58 394 66 418T94 458T147 479T230 486H250Q306 486 342 480T398 459T426 418T434 351V340H364V348Q364 373 360 388T344 413T311 425T254 428H237Q203 428 182 425T150 414T135 393T131 358V347Q131 331 135 320T152 301T190 289T256 281Q314 277 351 269T410 244T440 204T449 146V133Q449 92 440 66T410 23T353 1T266 -6H241ZM191 548L168 577L311 708L350 659L191 548Z"  />
<glyph unicode="&#x15C;" horiz-adv-x="619" d="M567 186Q567 129 557 92T520 33T449 3T335 -6H312Q229 -6 179 1T101 30T64 88T55 185V213H133V189Q133 149 139 124T164 85T217 65T307 60H326Q376 60 407 64T455 82T479 120T485 183V197Q485 228 480 248T455 282T399 302T299 314Q225 320 179 331T107 362T72 414T62 493V509Q62 558 72 592T107 647T177 677T288 686H308Q385 686 432 678T506 648T542 590T551 499V477H472V495Q472 533 467 557T444 596T395 615T312 621H295Q247 621 218 617T172 599T149 564T143 508V494Q143 465 149 447T174 416T229 396T326 384Q402 378 449 367T522 335T557 282T567 202V186ZM413 746L309 819L206 746L178 776L309 882L441 776L413 746Z"  />
<glyph unicode="&#x15D;" horiz-adv-x="494" d="M241 -6Q181 -6 144 0T85 21T57 63T49 131V146H121V138Q121 111 125 95T142 69T178 57T241 53H264Q299 53 321 56T355 68T371 92T375 131V139Q375 159 371 172T352 195T309 209T233 218Q179 222 145 230T92 253T65 290T58 346V358Q58 394 66 418T94 458T147 479T230 486H250Q306 486 342 480T398 459T426 418T434 351V340H364V348Q364 373 360 388T344 413T311 425T254 428H237Q203 428 182 425T150 414T135 393T131 358V347Q131 331 135 320T152 301T190 289T256 281Q314 277 351 269T410 244T440 204T449 146V133Q449 92 440 66T410 23T353 1T266 -6H241ZM344 559L244 643L145 559L116 589L244 706L373 589L344 559Z"  />
<glyph unicode="&#x15E;" horiz-adv-x="619" d="M567 186Q567 129 557 92T520 33T449 3T335 -6H312Q229 -6 179 1T101 30T64 88T55 185V213H133V189Q133 149 139 124T164 85T217 65T307 60H326Q376 60 407 64T455 82T479 120T485 183V197Q485 228 480 248T455 282T399 302T299 314Q225 320 179 331T107 362T72 414T62 493V509Q62 558 72 592T107 647T177 677T288 686H308Q385 686 432 678T506 648T542 590T551 499V477H472V495Q472 533 467 557T444 596T395 615T312 621H295Q247 621 218 617T172 599T149 564T143 508V494Q143 465 149 447T174 416T229 396T326 384Q402 378 449 367T522 335T557 282T567 202V186ZM224 -172L199 -147L328 -7L370 -51L224 -172Z"  />
<glyph unicode="&#x15F;" horiz-adv-x="494" d="M241 -6Q181 -6 144 0T85 21T57 63T49 131V146H121V138Q121 111 125 95T142 69T178 57T241 53H264Q299 53 321 56T355 68T371 92T375 131V139Q375 159 371 172T352 195T309 209T233 218Q179 222 145 230T92 253T65 290T58 346V358Q58 394 66 418T94 458T147 479T230 486H250Q306 486 342 480T398 459T426 418T434 351V340H364V348Q364 373 360 388T344 413T311 425T254 428H237Q203 428 182 425T150 414T135 393T131 358V347Q131 331 135 320T152 301T190 289T256 281Q314 277 351 269T410 244T440 204T449 146V133Q449 92 440 66T410 23T353 1T266 -6H241ZM162 -172L137 -147L266 -7L308 -51L162 -172Z"  />
<glyph unicode="&#x160;" horiz-adv-x="619" d="M567 186Q567 129 557 92T520 33T449 3T335 -6H312Q229 -6 179 1T101 30T64 88T55 185V213H133V189Q133 149 139 124T164 85T217 65T307 60H326Q376 60 407 64T455 82T479 120T485 183V197Q485 228 480 248T455 282T399 302T299 314Q225 320 179 331T107 362T72 414T62 493V509Q62 558 72 592T107 647T177 677T288 686H308Q385 686 432 678T506 648T542 590T551 499V477H472V495Q472 533 467 557T444 596T395 615T312 621H295Q247 621 218 617T172 599T149 564T143 508V494Q143 465 149 447T174 416T229 396T326 384Q402 378 449 367T522 335T557 282T567 202V186ZM309 732L178 837L206 867L309 794L413 867L441 837L309 732Z"  />
<glyph unicode="&#x161;" horiz-adv-x="494" d="M241 -6Q181 -6 144 0T85 21T57 63T49 131V146H121V138Q121 111 125 95T142 69T178 57T241 53H264Q299 53 321 56T355 68T371 92T375 131V139Q375 159 371 172T352 195T309 209T233 218Q179 222 145 230T92 253T65 290T58 346V358Q58 394 66 418T94 458T147 479T230 486H250Q306 486 342 480T398 459T426 418T434 351V340H364V348Q364 373 360 388T344 413T311 425T254 428H237Q203 428 182 425T150 414T135 393T131 358V347Q131 331 135 320T152 301T190 289T256 281Q314 277 351 269T410 244T440 204T449 146V133Q449 92 440 66T410 23T353 1T266 -6H241ZM246 548L117 665L145 694L246 611L346 693L374 665L246 548Z"  />
<glyph unicode="&#x162;" horiz-adv-x="539" d="M311 0H228V613H12V680H527V613H311V0ZM305 -125Q305 -151 302 -169T289 -198T264 -216T223 -223V-191Q246 -188 253 -177T260 -130V-124H238V-49H305V-125Z"  />
<glyph unicode="&#x163;" horiz-adv-x="405" d="M217 -6Q176 -6 149 0T107 27T85 84T79 182V423H12V480H79V605H155V480H374V423H155V187Q155 142 157 116T168 76T190 60T228 56H239Q263 56 278 60T300 76T310 113T313 178V216H377V165Q377 112 371 79T348 26T304 1T233 -6H217ZM265 -125Q265 -151 262 -169T249 -198T224 -216T183 -223V-191Q206 -188 213 -177T220 -130V-124H198V-49H265V-125Z"  />
<glyph unicode="&#x164;" horiz-adv-x="539" d="M311 0H228V613H12V680H527V613H311V0ZM271 732L140 837L168 867L271 794L375 867L403 837L271 732Z"  />
<glyph unicode="&#x165;" horiz-adv-x="405" d="M222 -6Q181 -6 154 0T112 27T90 84T84 182V423H17V480H84V605H160V480H327V423H160V187Q160 142 162 116T173 76T195 60T233 56H244Q268 56 283 60T305 76T315 113T318 178V216H382V165Q382 112 376 79T353 26T309 1T238 -6H222ZM426 607Q426 549 410 527T355 500V535Q370 539 375 550T381 598V605H359V680H426V607Z"  />
<glyph unicode="&#x166;" horiz-adv-x="539" d="M311 0H228V429H73V479H228V613H12V680H527V613H311V479H469V429H311V0Z"  />
<glyph unicode="&#x167;" horiz-adv-x="405" d="M30 348H79V423H12V480H79V605H155V480H374V423H155V348H289V309H155V187Q155 142 157 116T168 76T190 60T228 56H239Q263 56 278 60T300 76T310 113T313 178V216H377V165Q377 112 371 79T348 26T304 1T233 -6H217Q176 -6 149 0T107 27T85 84T79 182V309H30V348Z"  />
<glyph unicode="&#x168;" horiz-adv-x="667" d="M325 -6Q245 -6 194 2T114 35T75 104T64 221V680H147V228Q147 173 154 141T180 91T234 68T323 63H342Q397 63 431 68T485 90T512 140T520 228V680H603V221Q603 149 592 105T552 36T471 3T340 -6H325ZM460 850Q456 805 439 782T388 759Q370 759 356 766T327 784Q313 794 302 799T280 804Q266 804 256 795T241 758L207 766Q210 809 228 832T278 855Q295 855 309 849T337 833Q352 822 364 817T387 811Q404 811 413 821T425 857L460 850Z"  />
<glyph unicode="&#x169;" horiz-adv-x="535" d="M470 0H394V78H393Q385 58 374 42T344 16T299 0T236 -6H227Q177 -6 145 2T93 32T66 90T58 181V480H135V200Q135 154 139 126T156 82T192 61T252 55H261Q295 55 320 61T361 82T385 126T393 198V480H470V0ZM394 674Q390 629 373 606T322 583Q304 583 290 590T261 608Q247 618 236 623T214 628Q200 628 190 619T175 582L141 590Q144 633 162 656T212 679Q229 679 243 673T271 657Q286 646 298 641T321 635Q338 635 347 645T359 681L394 674Z"  />
<glyph unicode="&#x16A;" horiz-adv-x="667" d="M325 -6Q245 -6 194 2T114 35T75 104T64 221V680H147V228Q147 173 154 141T180 91T234 68T323 63H342Q397 63 431 68T485 90T512 140T520 228V680H603V221Q603 149 592 105T552 36T471 3T340 -6H325ZM443 778H223V830H443V778Z"  />
<glyph unicode="&#x16B;" horiz-adv-x="535" d="M470 0H394V78H393Q385 58 374 42T344 16T299 0T236 -6H227Q177 -6 145 2T93 32T66 90T58 181V480H135V200Q135 154 139 126T156 82T192 61T252 55H261Q295 55 320 61T361 82T385 126T393 198V480H470V0ZM379 608H159V660H379V608Z"  />
<glyph unicode="&#x16C;" horiz-adv-x="667" d="M325 -6Q245 -6 194 2T114 35T75 104T64 221V680H147V228Q147 173 154 141T180 91T234 68T323 63H342Q397 63 431 68T485 90T512 140T520 228V680H603V221Q603 149 592 105T552 36T471 3T340 -6H325ZM460 857Q458 795 425 768T334 740Q275 740 242 767T207 857H251Q256 817 277 804T334 790Q370 790 391 803T417 857H460Z"  />
<glyph unicode="&#x16D;" horiz-adv-x="535" d="M470 0H394V78H393Q385 58 374 42T344 16T299 0T236 -6H227Q177 -6 145 2T93 32T66 90T58 181V480H135V200Q135 154 139 126T156 82T192 61T252 55H261Q295 55 320 61T361 82T385 126T393 198V480H470V0ZM395 682Q393 620 360 593T269 565Q210 565 177 592T142 682H186Q191 642 212 629T269 615Q305 615 326 628T352 682H395Z"  />
<glyph unicode="&#x16E;" horiz-adv-x="667" d="M325 -6Q245 -6 194 2T114 35T75 104T64 221V680H147V228Q147 173 154 141T180 91T234 68T323 63H342Q397 63 431 68T485 90T512 140T520 228V680H603V221Q603 149 592 105T552 36T471 3T340 -6H325ZM330 726Q274 726 253 743T231 801V807Q231 848 252 865T330 882H336Q392 882 413 865T435 807V801Q435 760 414 743T336 726H330ZM336 757Q371 757 384 766T397 802V808Q397 834 384 843T336 852H330Q295 852 282 843T269 808V802Q269 776 282 767T330 757H336Z"  />
<glyph unicode="&#x16F;" horiz-adv-x="535" d="M470 0H394V78H393Q385 58 374 42T344 16T299 0T236 -6H227Q177 -6 145 2T93 32T66 90T58 181V480H135V200Q135 154 139 126T156 82T192 61T252 55H261Q295 55 320 61T361 82T385 126T393 198V480H470V0ZM264 552Q208 552 187 569T165 627V633Q165 674 186 691T264 708H270Q326 708 347 691T369 633V627Q369 586 348 569T270 552H264ZM270 583Q305 583 318 592T331 628V634Q331 660 318 669T270 678H264Q229 678 216 669T203 634V628Q203 602 216 593T264 583H270Z"  />
<glyph unicode="&#x170;" horiz-adv-x="667" d="M325 -6Q245 -6 194 2T114 35T75 104T64 221V680H147V228Q147 173 154 141T180 91T234 68T323 63H342Q397 63 431 68T485 90T512 140T520 228V680H603V221Q603 149 592 105T552 36T471 3T340 -6H325ZM252 730L229 758L352 884L388 844L252 730ZM390 729L367 757L491 883L527 844L390 729Z"  />
<glyph unicode="&#x171;" horiz-adv-x="535" d="M470 0H394V78H393Q385 58 374 42T344 16T299 0T236 -6H227Q177 -6 145 2T93 32T66 90T58 181V480H135V200Q135 154 139 126T156 82T192 61T252 55H261Q295 55 320 61T361 82T385 126T393 198V480H470V0ZM321 673L192 550L167 577L282 710L321 673ZM457 672L326 549L301 576L418 709L457 672Z"  />
<glyph unicode="&#x172;" horiz-adv-x="667" d="M412 -179Q395 -184 375 -188T334 -192Q252 -192 252 -127Q252 -95 271 -67T328 -6Q247 -6 196 2T115 35T75 104T64 221V680H147V228Q147 172 154 140T180 90T234 67T323 62H342Q397 62 431 67T485 89T512 139T520 228V680H603V221Q603 153 594 110T559 42T490 7T378 -5Q337 -39 321 -64T305 -113Q305 -133 316 -140T351 -147Q378 -147 412 -139V-179Z"  />
<glyph unicode="&#x173;" horiz-adv-x="535" d="M470 0H460Q403 -35 381 -62T359 -112Q359 -132 370 -139T404 -147Q433 -147 465 -139V-179Q448 -184 428 -188T387 -192Q305 -192 305 -127Q305 -93 328 -64T404 0H394V78H393Q385 58 374 42T344 16T299 0T236 -6H227Q177 -6 145 2T93 32T66 90T58 181V480H135V200Q135 154 139 126T156 82T192 61T252 55H261Q295 55 320 61T361 82T385 126T393 198V480H470V0Z"  />
<glyph unicode="&#x174;" horiz-adv-x="936" d="M734 0H627L470 604H468L309 0H203L22 680H105L258 68H261L421 680H518L678 68H681L832 680H914L734 0ZM574 746L470 819L367 746L339 776L470 882L602 776L574 746Z"  />
<glyph unicode="&#x175;" horiz-adv-x="735" d="M579 0H475L369 407H367L260 0H156L16 480H97L209 57H212L325 480H413L527 57H530L641 480H719L579 0ZM468 559L368 643L269 559L240 589L368 706L497 589L468 559Z"  />
<glyph unicode="&#x176;" horiz-adv-x="604" d="M343 0H260V239L10 680H100L302 314H304L503 680H594L343 239V0ZM408 746L304 819L201 746L173 776L304 882L436 776L408 746Z"  />
<glyph unicode="&#x177;" horiz-adv-x="457" d="M64 -112Q72 -113 83 -113T101 -114Q123 -114 139 -110T167 -93T191 -55T216 10H178L9 480H89L234 65H237L369 480H448L306 54Q282 -18 263 -62T222 -131T176 -164T114 -173Q102 -173 89 -173T64 -171V-112ZM335 559L235 643L136 559L107 589L235 706L364 589L335 559Z"  />
<glyph unicode="&#x178;" horiz-adv-x="604" d="M343 0H260V239L10 680H100L302 314H304L503 680H594L343 239V0ZM256 759H187V847H256V759ZM421 759H352V847H421V759Z"  />
<glyph unicode="&#x179;" horiz-adv-x="585" d="M547 0H39V67L448 615V616H54V680H543V612L136 67V65H547V0ZM407 821L230 742L211 773L376 875L407 821Z"  />
<glyph unicode="&#x17A;" horiz-adv-x="415" d="M389 0H28V60L297 421V422H40V480H386V420L119 60V59H389V0ZM157 548L134 577L277 708L316 659L157 548Z"  />
<glyph unicode="&#x17B;" horiz-adv-x="585" d="M547 0H39V67L448 615V616H54V680H543V612L136 67V65H547V0ZM329 759H252V847H329V759Z"  />
<glyph unicode="&#x17C;" horiz-adv-x="415" d="M389 0H28V60L297 421V422H40V480H386V420L119 60V59H389V0ZM247 592H170V680H247V592Z"  />
<glyph unicode="&#x17D;" horiz-adv-x="585" d="M547 0H39V67L448 615V616H54V680H543V612L136 67V65H547V0ZM295 732L164 837L192 867L295 794L399 867L427 837L295 732Z"  />
<glyph unicode="&#x17E;" horiz-adv-x="415" d="M389 0H28V60L297 421V422H40V480H386V420L119 60V59H389V0ZM212 548L83 665L111 694L212 611L312 693L340 665L212 548Z"  />
<glyph unicode="&#x192;" horiz-adv-x="590" d="M294 45Q287 0 275 -32T243 -85T194 -116T122 -126Q101 -126 79 -124T41 -117V-56Q54 -60 72 -63T109 -66Q134 -66 152 -61T183 -43T205 -4T220 61L261 325H129V385H270L290 514Q297 563 311 596T348 649T399 677T468 686Q490 686 508 684T548 679V619Q533 622 515 624T479 626Q452 626 433 621T401 601T378 561T363 496L346 385H497V325H337L294 45Z"  />
<glyph unicode="&#x218;" horiz-adv-x="619" d="M567 186Q567 129 557 92T520 33T449 3T335 -6H312Q229 -6 179 1T101 30T64 88T55 185V213H133V189Q133 149 139 124T164 85T217 65T307 60H326Q376 60 407 64T455 82T479 120T485 183V197Q485 228 480 248T455 282T399 302T299 314Q225 320 179 331T107 362T72 414T62 493V509Q62 558 72 592T107 647T177 677T288 686H308Q385 686 432 678T506 648T542 590T551 499V477H472V495Q472 533 467 557T444 596T395 615T312 621H295Q247 621 218 617T172 599T149 564T143 508V494Q143 465 149 447T174 416T229 396T326 384Q402 378 449 367T522 335T557 282T567 202V186ZM358 -125Q358 -151 355 -169T342 -198T317 -216T276 -223V-191Q299 -188 306 -177T313 -130V-124H291V-49H358V-125Z"  />
<glyph unicode="&#x219;" horiz-adv-x="494" d="M241 -6Q181 -6 144 0T85 21T57 63T49 131V146H121V138Q121 111 125 95T142 69T178 57T241 53H264Q299 53 321 56T355 68T371 92T375 131V139Q375 159 371 172T352 195T309 209T233 218Q179 222 145 230T92 253T65 290T58 346V358Q58 394 66 418T94 458T147 479T230 486H250Q306 486 342 480T398 459T426 418T434 351V340H364V348Q364 373 360 388T344 413T311 425T254 428H237Q203 428 182 425T150 414T135 393T131 358V347Q131 331 135 320T152 301T190 289T256 281Q314 277 351 269T410 244T440 204T449 146V133Q449 92 440 66T410 23T353 1T266 -6H241ZM291 -125Q291 -151 288 -169T275 -198T250 -216T209 -223V-191Q232 -188 239 -177T246 -130V-124H224V-49H291V-125Z"  />
<glyph unicode="&#x21A;" horiz-adv-x="539" d="M311 0H228V613H12V680H527V613H311V0ZM305 -125Q305 -151 302 -169T289 -198T264 -216T223 -223V-191Q246 -188 253 -177T260 -130V-124H238V-49H305V-125Z"  />
<glyph unicode="&#x21B;" horiz-adv-x="405" d="M217 -6Q176 -6 149 0T107 27T85 84T79 182V423H12V480H79V605H155V480H374V423H155V187Q155 142 157 116T168 76T190 60T228 56H239Q263 56 278 60T300 76T310 113T313 178V216H377V165Q377 112 371 79T348 26T304 1T233 -6H217ZM265 -125Q265 -151 262 -169T249 -198T224 -216T183 -223V-191Q206 -188 213 -177T220 -130V-124H198V-49H265V-125Z"  />
<glyph unicode="&#x237;" horiz-adv-x="206" d="M142 -45Q142 -119 118 -146T40 -173Q32 -173 23 -173T4 -170V-109Q12 -110 16 -110T25 -110Q37 -110 44 -108T56 -98T63 -76T65 -36V480H142V-45Z"  />
<glyph unicode="&#x2C6;" horiz-adv-x="382" d="M292 559L192 643L93 559L64 589L192 706L321 589L292 559Z"  />
<glyph unicode="&#x2C7;" horiz-adv-x="382" d="M193 548L64 665L92 694L193 611L293 693L321 665L193 548Z"  />
<glyph unicode="&#x2C9;" horiz-adv-x="382" d="M304 778H84V830H304V778Z"  />
<glyph unicode="&#x2D8;" horiz-adv-x="382" d="M322 682Q320 620 287 593T196 565Q137 565 104 592T69 682H113Q118 642 139 629T196 615Q232 615 253 628T279 682H322Z"  />
<glyph unicode="&#x2D9;" horiz-adv-x="382" d="M229 592H152V680H229V592Z"  />
<glyph unicode="&#x2DA;" horiz-adv-x="382" d="M191 552Q135 552 114 569T92 627V633Q92 674 113 691T191 708H197Q253 708 274 691T296 633V627Q296 586 275 569T197 552H191ZM197 583Q232 583 245 592T258 628V634Q258 660 245 669T197 678H191Q156 678 143 669T130 634V628Q130 602 143 593T191 583H197Z"  />
<glyph unicode="&#x2DB;" horiz-adv-x="338" d="M247 -179Q230 -184 210 -188T169 -192Q129 -192 108 -177T86 -127Q86 -92 109 -63T176 0H222Q174 -40 157 -65T139 -112Q139 -132 151 -139T186 -147Q213 -147 247 -139V-179Z"  />
<glyph unicode="&#x2DC;" horiz-adv-x="382" d="M319 674Q315 629 298 606T247 583Q229 583 215 590T186 608Q172 618 161 623T139 628Q125 628 115 619T100 582L66 590Q69 633 87 656T137 679Q154 679 168 673T196 657Q211 646 223 641T246 635Q263 635 272 645T284 681L319 674Z"  />
<glyph unicode="&#x2DD;" horiz-adv-x="382" d="M225 673L96 550L71 577L186 710L225 673ZM361 672L230 549L205 576L322 709L361 672Z"  />
<glyph unicode="&#x394;" horiz-adv-x="609" d="M588 0H20L259 680H351L588 0ZM486 65L306 612H303L120 65H486Z"  />
<glyph unicode="&#x3A9;" horiz-adv-x="660" d="M597 0H385V180Q454 198 491 257T529 401Q529 450 516 491T476 561T413 606T330 623Q284 623 247 607T185 562T146 491T132 401Q132 316 169 257T276 180V0H64V64H217V140Q139 169 95 235T50 402Q50 465 69 517T125 606T213 665T330 686Q395 686 447 665T535 607T590 517T610 402Q610 302 566 236T443 140V64H597V0Z"  />
<glyph unicode="&#x3BC;" horiz-adv-x="546" d="M481 0H405V80H404Q390 39 359 17T263 -5H254Q205 -5 180 7T143 46H142V-179H65V480H142V197Q142 153 148 125T169 82T207 60T265 54H275Q309 54 333 60T373 82T396 126T404 197V480H481V0Z"  />
<glyph unicode="&#x3C0;" horiz-adv-x="570" d="M529 4Q507 -6 479 -6Q434 -6 415 19T396 111V417H169V0H92V417H39V480H531V417H473V120Q473 79 479 67T506 54Q513 54 518 55T529 58V4Z"  />
<glyph unicode="&#x2013;" horiz-adv-x="548" d="M548 227H0V279H548V227Z"  />
<glyph unicode="&#x2014;" horiz-adv-x="844" d="M814 227H30V279H814V227Z"  />
<glyph unicode="&#x2018;" horiz-adv-x="196" d="M134 452H59V554Q59 583 62 605T75 643T102 668T146 680V637Q123 633 116 616T108 562V554H134V452Z"  />
<glyph unicode="&#x2019;" horiz-adv-x="196" d="M137 578Q137 549 134 527T121 489T94 464T50 452V495Q73 499 80 517T88 571V578H62V680H137V578Z"  />
<glyph unicode="&#x201A;" horiz-adv-x="196" d="M137 0Q137 -29 134 -51T121 -89T94 -114T50 -126V-83Q74 -79 81 -62T88 -8V0H62V102H137V0Z"  />
<glyph unicode="&#x201C;" horiz-adv-x="334" d="M134 452H59V554Q59 583 62 605T75 643T102 668T146 680V637Q123 633 116 616T108 562V554H134V452ZM272 452H197V554Q197 583 200 605T213 643T240 668T284 680V637Q260 633 253 616T246 562V554H272V452Z"  />
<glyph unicode="&#x201D;" horiz-adv-x="334" d="M137 578Q137 549 134 527T121 489T94 464T50 452V495Q74 499 81 517T88 571V578H62V680H137V578ZM275 578Q275 549 272 527T259 489T232 464T188 452V495Q212 499 219 517T226 571V578H200V680H275V578Z"  />
<glyph unicode="&#x201E;" horiz-adv-x="334" d="M137 0Q137 -29 134 -51T121 -89T94 -114T50 -126V-83Q74 -79 81 -61T88 -7V0H62V102H137V0ZM275 0Q275 -29 272 -51T259 -89T232 -114T188 -126V-83Q212 -79 219 -61T226 -7V0H200V102H275V0Z"  />
<glyph unicode="&#x2020;" horiz-adv-x="557" d="M311 -90H247V427H76V487H247V680H311V487H482V427H311V-90Z"  />
<glyph unicode="&#x2021;" horiz-adv-x="549" d="M307 -90H243V90H76V149H243V453H76V511H243V680H307V511H473V453H307V149H473V90H307V-90Z"  />
<glyph unicode="&#x2022;" horiz-adv-x="425" d="M325 340Q325 317 316 297T292 261T257 236T213 227Q189 227 169 236T133 260T109 296T100 340Q100 363 109 383T133 419T168 443T213 452Q236 452 256 443T292 419T316 384T325 340Z"  />
<glyph unicode="&#x2026;" horiz-adv-x="606" d="M142 0H60V106H142V0ZM344 0H262V106H344V0ZM546 0H464V106H546V0Z"  />
<glyph unicode="&#x2030;" horiz-adv-x="1012" d="M176 376Q141 376 119 381T84 402T65 446T60 518V539Q60 583 65 611T83 654T119 675T176 681H186Q221 681 243 676T279 655T297 611T302 539V518Q302 474 297 446T279 403T244 382T186 376H176ZM186 417Q205 417 217 420T236 433T245 463T248 516V541Q248 574 246 593T237 623T218 637T186 641H177Q157 641 145 638T126 624T117 594T114 541V516Q114 483 116 464T125 434T144 420T177 417H186ZM252 0H201L461 680H512L252 0ZM531 -1Q496 -1 474 4T439 25T420 69T415 141V162Q415 206 420 234T438 277T474 298T531 304H541Q576 304 598 299T634 278T652 234T657 162V141Q657 97 652 69T634 26T599 5T541 -1H531ZM541 40Q560 40 572 43T591 56T600 86T603 139V164Q603 197 601 216T592 246T573 260T541 264H532Q512 264 500 261T481 247T472 217T469 164V139Q469 106 471 87T480 57T499 43T532 40H541ZM828 -1Q793 -1 771 4T736 25T717 69T712 141V162Q712 206 717 234T735 277T771 298T828 304H838Q873 304 895 299T931 278T949 234T954 162V141Q954 97 949 69T931 26T896 5T838 -1H828ZM838 40Q857 40 869 43T888 56T897 86T900 139V164Q900 197 898 216T889 246T870 260T838 264H829Q809 264 797 261T778 247T769 217T766 164V139Q766 106 768 87T777 57T796 43T829 40H838Z"  />
<glyph unicode="&#x2039;" horiz-adv-x="251" d="M205 93L151 71L45 271L151 472L205 450L110 271L205 93Z"  />
<glyph unicode="&#x203A;" horiz-adv-x="251" d="M100 71L46 93L141 271L46 450L100 472L206 271L100 71Z"  />
<glyph unicode="&#x2044;" horiz-adv-x="119" d="M-45 0H-96L165 680H215L-45 0Z"  />
<glyph unicode="&#x2070;" horiz-adv-x="391" d="M201 494Q232 494 251 498T280 517T294 556T298 623V655Q298 696 295 721T281 761T251 780T201 785H190Q159 785 140 780T111 761T97 722T93 655V623Q93 582 96 557T110 517T140 499T190 494H201ZM189 450Q142 450 113 457T68 484T46 538T40 625V655Q40 706 45 739T67 792T113 820T189 828H201Q249 828 278 820T324 793T345 740T351 655V625Q351 572 346 539T324 485T278 458T201 450H189Z"  />
<glyph unicode="&#x2074;" horiz-adv-x="391" d="M315 453H260V536H32V589L237 825H315V578H362V536H315V453ZM260 578V782H258L84 579V578H260Z"  />
<glyph unicode="&#x2075;" horiz-adv-x="383" d="M185 450Q141 450 114 454T71 470T50 502T44 555V567H95V556Q95 537 98 525T111 505T138 496T183 493H196Q228 493 247 495T277 506T291 530T295 570V583Q295 607 292 622T279 645T252 656T205 659H192Q167 659 151 658T125 653T110 645T101 630H49V825H340V781H102V671H103Q113 687 134 694T206 701H218Q257 701 282 696T322 678T342 643T348 586V570Q348 533 341 510T317 474T270 455T197 450H185Z"  />
<glyph unicode="&#x2076;" horiz-adv-x="384" d="M200 493Q231 493 249 495T278 505T291 525T294 560V570Q294 591 291 603T278 623T249 632T199 635H189Q161 635 143 633T114 625T99 607T95 577V566Q95 543 98 529T111 506T140 496T190 493H200ZM188 450Q141 450 112 455T68 475T47 516T41 583V666Q41 717 47 749T70 798T116 822T192 828H204Q245 828 271 824T313 808T334 776T340 724V713H289V724Q289 743 286 755T272 774T246 783T202 786H192Q162 786 143 783T114 768T99 734T95 675V645H96Q104 660 125 668T196 677H208Q250 677 277 673T319 657T341 626T347 575V560Q347 527 341 506T318 472T273 455T201 450H188Z"  />
<glyph unicode="&#x2077;" horiz-adv-x="366" d="M144 453H83L269 779V780H32V825H332V784L144 453Z"  />
<glyph unicode="&#x2078;" horiz-adv-x="384" d="M184 450Q139 450 111 454T67 469T45 499T39 547V556Q39 602 52 620T94 645V646Q67 652 55 669T43 727V738Q43 764 49 781T70 809T113 824T183 828H198Q241 828 268 824T311 810T333 782T339 738V727Q339 686 327 669T287 646V645Q316 639 329 621T343 556V547Q343 518 337 499T316 469T272 454T198 450H184ZM197 666Q226 666 243 668T270 676T283 694T286 723V732Q286 749 283 759T271 776T244 784T197 787H184Q155 787 138 785T112 776T99 760T96 732V723Q96 705 99 694T111 677T138 668T184 666H197ZM197 492Q228 492 246 494T274 503T287 521T290 552V562Q290 582 287 594T274 613T246 622T197 625H184Q154 625 136 623T108 614T95 595T92 562V552Q92 533 95 522T107 504T135 495T184 492H197Z"  />
<glyph unicode="&#x2079;" horiz-adv-x="387" d="M198 643Q226 643 244 645T273 653T288 671T292 701V712Q292 735 289 749T275 772T247 783T197 786H186Q156 786 138 784T110 774T97 754T93 720V710Q93 689 96 676T110 656T138 646T188 643H198ZM182 450Q140 450 113 454T71 470T49 502T43 554V565H95V554Q95 535 98 523T111 505T138 496T184 493H193Q226 493 245 496T275 511T289 544T292 603V633H291Q283 618 262 610T191 601H179Q137 601 110 605T67 622T45 654T39 707V721Q39 753 45 774T68 807T113 823T186 828H198Q245 828 274 823T318 803T339 762T345 695V612Q345 560 340 529T318 480T272 456T194 450H182Z"  />
<glyph unicode="&#x2080;" horiz-adv-x="391" d="M201 -113Q232 -113 251 -109T280 -90T294 -51T298 16V48Q298 89 295 114T281 154T251 173T201 178H190Q159 178 140 173T111 154T97 115T93 48V16Q93 -25 96 -50T110 -90T140 -108T190 -113H201ZM189 -157Q142 -157 113 -150T68 -123T46 -69T40 18V48Q40 99 45 132T67 185T113 213T189 221H201Q249 221 278 213T324 186T345 133T351 48V18Q351 -35 346 -68T324 -122T278 -149T201 -157H189Z"  />
<glyph unicode="&#x2081;" horiz-adv-x="276" d="M198 -154H142V161H141L52 68L21 103L132 218H198V-154Z"  />
<glyph unicode="&#x2082;" horiz-adv-x="379" d="M345 -154H42V-101Q42 -65 47 -42T69 -4T113 19T188 33Q221 37 241 42T271 55T285 75T288 106V117Q288 135 285 147T272 166T244 175T194 178H187Q158 178 141 175T115 165T102 144T99 111V95H47V112Q47 145 52 166T73 199T116 216T187 221H195Q241 221 270 217T315 201T337 169T343 118V108Q343 78 338 58T317 25T274 3T201 -11Q165 -16 145 -20T113 -33T99 -56T96 -94V-110H345V-154Z"  />
<glyph unicode="&#x2083;" horiz-adv-x="385" d="M186 -157Q139 -157 111 -153T66 -136T45 -102T39 -45V-31H91V-45Q91 -68 94 -81T107 -102T136 -112T186 -114H195Q228 -114 247 -112T277 -103T291 -84T294 -53V-43Q294 -8 281 4T227 17H149V57H227Q262 57 274 68T286 110V122Q286 140 283 151T270 168T242 176T195 178H187Q158 178 141 176T113 168T100 148T97 114V96H46V114Q46 147 51 168T72 200T116 216T188 221H197Q242 221 270 217T313 201T335 172T341 126V116Q341 78 331 62T295 38V37Q320 32 334 15T349 -45V-57Q349 -87 343 -106T319 -137T273 -152T198 -157H186Z"  />
<glyph unicode="&#x2084;" horiz-adv-x="391" d="M315 -154H260V-71H32V-18L237 218H315V-29H362V-71H315V-154ZM260 -29V175H258L84 -28V-29H260Z"  />
<glyph unicode="&#x2085;" horiz-adv-x="383" d="M185 -157Q141 -157 114 -153T71 -137T50 -105T44 -52V-40H95V-51Q95 -70 98 -82T111 -102T138 -111T183 -114H196Q228 -114 247 -112T277 -101T291 -77T295 -37V-24Q295 0 292 15T279 38T252 49T205 52H192Q167 52 151 51T125 46T110 38T101 23H49V218H340V174H102V64H103Q113 80 134 87T206 94H218Q257 94 282 89T322 71T342 36T348 -21V-37Q348 -74 341 -97T317 -133T270 -152T197 -157H185Z"  />
<glyph unicode="&#x2086;" horiz-adv-x="384" d="M200 -114Q231 -114 249 -112T278 -102T291 -82T294 -47V-37Q294 -16 291 -4T278 16T249 25T199 28H189Q161 28 143 26T114 18T99 0T95 -30V-41Q95 -64 98 -78T111 -101T140 -111T190 -114H200ZM188 -157Q141 -157 112 -152T68 -132T47 -91T41 -24V59Q41 110 47 142T70 191T116 215T192 221H204Q245 221 271 217T313 201T334 169T340 117V106H289V117Q289 136 286 148T272 167T246 176T202 179H192Q162 179 143 176T114 161T99 127T95 68V38H96Q104 53 125 61T196 70H208Q250 70 277 66T319 50T341 19T347 -32V-47Q347 -80 341 -101T318 -135T273 -152T201 -157H188Z"  />
<glyph unicode="&#x2087;" horiz-adv-x="366" d="M144 -154H83L269 172V173H32V218H332V177L144 -154Z"  />
<glyph unicode="&#x2088;" horiz-adv-x="384" d="M184 -157Q139 -157 111 -153T67 -138T45 -108T39 -60V-51Q39 -5 52 13T94 38V39Q67 45 55 62T43 120V131Q43 157 49 174T70 202T113 217T183 221H198Q241 221 268 217T311 203T333 175T339 131V120Q339 79 327 62T287 39V38Q316 32 329 14T343 -51V-60Q343 -89 337 -108T316 -138T272 -153T198 -157H184ZM197 59Q226 59 243 61T270 69T283 87T286 116V125Q286 142 283 152T271 169T244 177T197 180H184Q155 180 138 178T112 169T99 153T96 125V116Q96 98 99 87T111 70T138 61T184 59H197ZM197 -115Q228 -115 246 -113T274 -104T287 -86T290 -55V-45Q290 -25 287 -13T274 6T246 15T197 18H184Q154 18 136 16T108 7T95 -12T92 -45V-55Q92 -74 95 -85T107 -103T135 -112T184 -115H197Z"  />
<glyph unicode="&#x2089;" horiz-adv-x="387" d="M198 36Q226 36 244 38T273 46T288 64T292 94V105Q292 128 289 142T275 165T247 176T197 179H186Q156 179 138 177T110 167T97 147T93 113V103Q93 82 96 69T110 49T138 39T188 36H198ZM182 -157Q140 -157 113 -153T71 -137T49 -105T43 -53V-42H95V-53Q95 -72 98 -84T111 -102T138 -111T184 -114H193Q226 -114 245 -111T275 -96T289 -63T292 -4V26H291Q283 11 262 3T191 -6H179Q137 -6 110 -2T67 15T45 47T39 100V114Q39 146 45 167T68 200T113 216T186 221H198Q245 221 274 216T318 196T339 155T345 88V5Q345 -47 340 -78T318 -127T272 -151T194 -157H182Z"  />
<glyph unicode="&#x20AC;" horiz-adv-x="672" d="M613 169Q613 120 604 87T570 33T500 3T384 -6H371Q291 -6 242 4T164 44T126 128T115 269H50V308H115V385H50V424H115Q116 506 127 557T167 637T244 676T370 686H386Q455 686 498 678T565 649T597 597T606 516V502H528V517Q528 546 523 566T502 598T459 615T386 621H372Q318 621 285 616T233 590T207 531T198 424H481V385H198V308H481V269H198Q199 198 206 157T231 94T283 67T372 61H385Q433 61 462 66T508 85T529 119T535 172V187H613V169Z"  />
<glyph unicode="&#x2113;" horiz-adv-x="392" d="M330 49Q303 22 275 8T214 -6Q162 -6 137 27T112 135V208Q102 197 92 186T70 164L46 204Q63 221 80 238T111 273V476Q111 545 119 592T143 667T181 707T233 719Q282 719 306 686T330 594Q330 509 288 426T174 256V153Q174 94 187 71T232 47Q251 47 269 57T304 85L330 49ZM174 331Q220 394 248 458T276 590Q276 672 233 672Q220 672 209 664T191 634T179 576T174 483V331Z"  />
<glyph unicode="&#x2122;" horiz-adv-x="774" d="M193 350H141V637H36V680H299V637H193V350ZM715 350H665V626H661L551 350H508L398 626H394V350H344V680H423L530 405H532L638 680H715V350Z"  />
<glyph unicode="&#x2126;" horiz-adv-x="660" d="M597 0H385V180Q454 198 491 257T529 401Q529 450 516 491T476 561T413 606T330 623Q284 623 247 607T185 562T146 491T132 401Q132 316 169 257T276 180V0H64V64H217V140Q139 169 95 235T50 402Q50 465 69 517T125 606T213 665T330 686Q395 686 447 665T535 607T590 517T610 402Q610 302 566 236T443 140V64H597V0Z"  />
<glyph unicode="&#x212E;" horiz-adv-x="736" d="M650 164Q622 121 593 90T530 38T456 7T366 -3Q293 -3 234 24T133 98T69 207T46 342Q46 414 68 476T133 584T234 656T366 683Q439 683 498 658T600 588T666 481T690 342H187V116Q222 80 267 62T366 44Q444 44 502 78T607 192L650 164ZM549 386V565Q470 642 366 642Q313 642 268 623T187 565V386H549Z"  />
<glyph unicode="&#x2202;" horiz-adv-x="501" d="M79 657Q107 686 145 702T233 719Q287 719 329 695T401 625T445 514T460 367Q460 181 403 88T234 -6Q144 -6 94 48T44 205Q44 251 56 292T93 363T155 412T241 430Q292 430 331 409T392 345H393Q393 356 393 367T392 390Q386 521 342 589T230 658Q195 658 166 647T106 607L79 657ZM389 280Q366 328 329 350T250 372Q184 372 150 326T115 204Q115 132 149 93T239 54Q275 54 302 70T347 116T375 187T389 280Z"  />
<glyph unicode="&#x2206;" horiz-adv-x="609" d="M588 0H20L259 680H351L588 0ZM486 65L306 612H303L120 65H486Z"  />
<glyph unicode="&#x220F;" horiz-adv-x="702" d="M599 -214H522V717H180V-214H103V717H53V786H649V717H599V-214Z"  />
<glyph unicode="&#x2211;" horiz-adv-x="561" d="M510 -214H49V-157L322 318L59 729V786H500V717H158V715L406 319L142 -143V-144H510V-214Z"  />
<glyph unicode="&#x2212;" horiz-adv-x="527" d="M468 275H59V335H468V275Z"  />
<glyph unicode="&#x2215;" horiz-adv-x="119" d="M-45 0H-96L165 680H215L-45 0Z"  />
<glyph unicode="&#x2219;" horiz-adv-x="202" d="M142 213H60V319H142V213Z"  />
<glyph unicode="&#x221A;" horiz-adv-x="577" d="M338 -215H256L109 163L51 142L33 188L149 233L291 -146H293L480 787H545L338 -215Z"  />
<glyph unicode="&#x221E;" horiz-adv-x="753" d="M376 303Q399 329 420 350T464 386T510 409T561 417Q593 417 619 406T665 375T696 328T707 266Q707 198 667 156T561 114Q509 114 465 143T376 224Q331 173 289 144T192 114Q160 114 134 125T88 155T57 203T46 266Q46 299 57 327T87 374T133 405T192 416Q246 416 289 385T376 303ZM340 263Q296 313 264 336T196 360Q154 360 132 332T109 264Q109 225 132 198T197 170Q232 170 264 191T340 263ZM412 264Q456 215 488 193T555 170Q597 170 620 197T644 264Q644 305 621 333T555 361Q520 361 488 338T412 264Z"  />
<glyph unicode="&#x222B;" horiz-adv-x="381" d="M49 -154Q64 -157 85 -157Q103 -157 115 -150T136 -122T149 -61T153 41V511Q153 591 160 644T183 730T224 775T288 789Q299 789 313 788T333 784V726Q318 729 297 729Q279 729 267 722T246 694T233 633T229 531V61Q229 -19 222 -72T199 -158T157 -203T94 -217Q83 -217 69 -216T49 -212V-154Z"  />
<glyph unicode="&#x2248;" horiz-adv-x="527" d="M467 434Q462 377 437 347T361 316Q336 316 311 325T262 345Q238 357 214 366T167 375Q139 375 126 360T108 314H59Q65 372 90 402T165 433Q191 433 217 423T268 402Q291 391 314 382T360 373Q387 373 400 388T419 434H467ZM467 258Q462 201 437 170T361 139Q336 139 311 148T262 169Q238 180 214 189T167 199Q139 199 126 183T108 138H59Q65 196 90 226T165 257Q191 257 217 247T268 226Q291 215 314 206T360 197Q387 197 400 213T419 258H467Z"  />
<glyph unicode="&#x2260;" horiz-adv-x="527" d="M468 180H229L159 35L113 56L174 180H59V240H203L262 363H59V422H291L359 561L405 539L348 422H468V363H319L259 240H468V180Z"  />
<glyph unicode="&#x2264;" horiz-adv-x="527" d="M468 123L59 301V362L468 540V476L132 332V330L468 188V123ZM468 21H59V81H468V21Z"  />
<glyph unicode="&#x2265;" horiz-adv-x="527" d="M468 301L59 123V188L395 330V332L59 476V540L468 362V301ZM468 21H59V81H468V21Z"  />
<glyph unicode="&#x25CA;" horiz-adv-x="461" d="M232 60L353 346L231 618H230L109 346L231 60H232ZM258 0H203L48 346L203 680H258L413 346L258 0Z"  />
<glyph unicode="&#xE000;" horiz-adv-x="237" d="M155 0H81V94H155V0ZM151 162H85L80 528H156L151 162Z"  />
<glyph unicode="&#xE001;" horiz-adv-x="511" d="M283 -64H245V-6Q181 -5 143 1T85 24T58 70T52 146V168H123V148Q123 117 127 99T143 71T180 58T245 55V240Q186 246 150 255T93 281T66 323T59 386V400Q59 438 67 464T96 505T153 527T245 534V584H283V534Q339 533 374 526T428 503T453 458T460 387V368H390V385Q390 414 386 431T370 458T337 471T283 475V301Q343 295 380 286T438 261T466 220T474 155V141Q474 98 467 70T439 26T381 2T283 -6V-64ZM283 55Q322 55 345 58T381 71T398 96T402 139V151Q402 174 398 188T381 212T345 225T283 234V55ZM130 385Q130 365 134 352T150 329T184 315T245 306V475Q209 475 187 472T152 461T135 438T130 399V385Z"  />
<glyph unicode="&#xE002;" horiz-adv-x="588" d="M143 287Q115 287 97 292T68 311T53 346T48 401V415Q48 448 52 470T67 505T96 523T143 529H153Q181 529 199 524T228 505T243 470T248 415V401Q248 368 244 346T229 311T200 293T153 287H143ZM151 326Q166 326 175 328T190 339T198 361T200 399V417Q200 441 198 455T191 477T176 487T151 490H145Q130 490 121 488T106 477T98 455T96 417V399Q96 375 98 361T105 339T120 329T145 326H151ZM212 0H165L374 528H421L212 0ZM444 39Q459 39 468 41T483 52T491 74T493 112V130Q493 154 491 168T484 190T469 200T444 203H438Q423 203 414 201T399 190T391 168T389 130V112Q389 88 391 74T398 52T413 42T438 39H444ZM436 0Q408 0 390 5T361 24T346 59T341 114V128Q341 161 345 183T360 218T389 236T436 242H446Q474 242 492 237T521 218T536 183T541 128V114Q541 81 537 59T522 24T493 6T446 0H436Z"  />
<glyph unicode="&#xE003;" horiz-adv-x="578" d="M419 271H480V220Q480 155 474 110L561 41L523 -5L457 46Q449 31 437 21T403 5T348 -3T263 -6H250Q185 -6 146 1T86 26T58 74T51 153V165Q51 235 68 267T132 307Q121 317 114 327T101 349T94 376T91 411V420Q91 452 98 473T125 508T177 528T261 534H275Q329 534 362 529T413 508T438 467T444 400V377H380V401Q380 426 377 441T363 466T332 478T278 481H265Q232 481 212 478T180 468T164 448T160 416V408Q160 392 162 381T170 359T188 338T220 312L416 156Q418 167 418 182T419 212V271ZM119 160Q119 126 123 105T142 71T183 54T252 49H262Q302 49 327 50T369 56T392 68T405 88L175 269Q158 267 147 262T130 245T122 215T119 170V160Z"  />
<glyph unicode="&#xE004;" horiz-adv-x="446" d="M240 0H165V93H240V0ZM235 160H168V180Q168 225 185 245T250 278Q279 285 296 292T323 310T336 337T339 379V389Q339 416 335 433T320 460T287 475T233 479H222Q187 479 165 476T130 461T113 429T108 375V354H43V375Q43 425 51 456T79 504T133 528T222 534H234Q286 534 319 527T372 504T398 461T406 393V379Q406 344 401 320T383 278T348 250T291 231Q256 223 246 213T235 175V160Z"  />
<glyph unicode="&#xE005;" horiz-adv-x="522" d="M510 0H431L389 118H131L90 0H12L210 528H313L510 0ZM371 174L263 474H259L151 174H371Z"  />
<glyph unicode="&#xE006;" horiz-adv-x="537" d="M67 0V528H308Q357 528 390 522T442 501T469 460T477 392Q477 341 463 314T414 276V275Q455 265 473 237T492 146Q492 103 483 75T454 30T402 7T321 0H67ZM309 56Q342 56 363 60T396 75T413 104T418 152Q418 209 399 228T331 247H141V56H309ZM328 299Q371 299 387 317T404 386Q404 413 400 429T385 456T353 469T299 473H141V299H328Z"  />
<glyph unicode="&#xE007;" horiz-adv-x="547" d="M273 -6Q205 -6 162 4T95 41T61 118T51 244V286Q51 361 60 409T94 484T161 523T272 534H288Q351 534 391 526T454 500T486 453T495 381V361H420V377Q420 404 415 422T396 452T356 468T288 473H276Q230 473 201 467T156 441T134 385T128 288V242Q128 182 133 146T155 90T200 64T277 57H290Q332 57 358 61T399 76T419 105T424 153V169H499V148Q499 103 490 74T456 26T392 1T288 -6H273Z"  />
<glyph unicode="&#xE008;" horiz-adv-x="577" d="M526 246Q526 168 518 120T485 46T414 10T291 0H67V528H291Q365 528 411 519T482 484T517 411T526 285V246ZM288 60Q341 60 373 66T422 91T444 146T449 243V288Q449 348 444 383T421 438T372 463T288 469H144V60H288Z"  />
<glyph unicode="&#xE009;" horiz-adv-x="465" d="M432 0H67V528H429V470H143V301H413V245H143V59H432V0Z"  />
<glyph unicode="&#xE00A;" horiz-adv-x="445" d="M406 230H144V0H67V528H421V469H144V287H406V230Z"  />
<glyph unicode="&#xE00B;" horiz-adv-x="550" d="M273 -6Q204 -6 161 4T93 41T60 117T51 244V286Q51 362 60 410T93 486T162 524T277 534H291Q353 534 393 526T456 500T487 454T496 384V369H421V381Q421 407 417 425T398 453T359 468T290 473H277Q229 473 200 467T155 442T134 386T128 288V243Q128 181 134 144T156 88T201 62T276 55H290Q334 55 361 59T403 75T423 110T428 170V206H264V265H500V177Q500 121 491 85T459 29T394 2T288 -6H273Z"  />
<glyph unicode="&#xE00C;" horiz-adv-x="576" d="M509 0H432V244H144V0H67V528H144V306H432V528H509V0Z"  />
<glyph unicode="&#xE00D;" horiz-adv-x="211" d="M144 0H67V528H144V0Z"  />
<glyph unicode="&#xE00E;" horiz-adv-x="446" d="M186 -5Q135 -5 103 1T54 24T30 73T24 156V184H95V164Q95 129 98 108T111 75T139 61T188 57H201Q237 57 258 60T290 76T304 111T307 176V528H384V180Q384 121 377 85T351 29T296 2T202 -5H186Z"  />
<glyph unicode="&#xE00F;" horiz-adv-x="524" d="M515 0H417L196 242H142V0H67V528H142V299H198L408 528H499L256 272L515 0Z"  />
<glyph unicode="&#xE010;" horiz-adv-x="415" d="M403 0H67V528H144V61H403V0Z"  />
<glyph unicode="&#xE011;" horiz-adv-x="732" d="M665 0H593V461H591L405 0H330L141 461H139V0H67V528H183L368 72H370L552 528H665V0Z"  />
<glyph unicode="&#xE012;" horiz-adv-x="600" d="M533 0H419L141 464H139V0H67V528H182L458 65H461V528H533V0Z"  />
<glyph unicode="&#xE013;" horiz-adv-x="569" d="M277 -6Q209 -6 166 5T97 43T61 119T51 242V285Q51 360 61 408T96 484T165 523T277 534H292Q360 534 403 523T472 485T508 409T518 285V242Q518 167 508 119T473 44T404 5T292 -6H277ZM290 57Q336 57 366 63T412 90T435 147T442 245V284Q442 345 436 382T413 439T366 466T290 473H278Q231 473 202 467T156 440T133 382T127 284V245Q127 184 133 147T156 90T202 64T278 57H290Z"  />
<glyph unicode="&#xE014;" horiz-adv-x="520" d="M279 252Q322 252 347 256T386 271T404 302T408 353V370Q408 403 404 422T386 452T347 466T279 470H143V252H279ZM143 0H67V528H285Q346 528 385 522T446 498T476 451T484 371V353Q484 305 476 275T445 226T385 201T287 194H143V0Z"  />
<glyph unicode="&#xE015;" horiz-adv-x="571" d="M277 -6Q209 -6 166 5T97 43T61 119T51 242V285Q51 360 61 408T96 484T165 523T277 534H292Q360 534 403 523T472 485T508 409T518 285V242Q518 188 513 149T496 80L548 40L510 -9L461 32Q435 10 394 2T292 -6H277ZM282 179L320 225L433 130Q443 170 443 245V284Q443 345 437 382T413 439T366 466T290 473H278Q231 473 202 467T156 440T133 382T127 284V245Q127 184 133 147T156 90T202 63T278 56H290Q331 56 358 61T403 80L282 179Z"  />
<glyph unicode="&#xE016;" horiz-adv-x="538" d="M316 262Q369 262 387 282T406 353V373Q406 404 402 423T386 453T350 466T289 470H143V262H316ZM482 0H406V75Q406 119 403 144T387 183T353 201T293 205H143V0H67V528H303Q358 528 393 522T448 500T475 455T482 381V361Q482 302 466 275T415 238V237Q435 232 448 224T468 200T479 159T482 97V0Z"  />
<glyph unicode="&#xE017;" horiz-adv-x="519" d="M258 -6Q192 -6 152 0T89 23T60 69T52 146V168H126V148Q126 117 130 99T148 70T188 57T256 54H272Q314 54 339 58T377 72T394 99T398 144V155Q398 177 394 191T374 215T330 230T253 239Q193 243 156 252T97 278T68 320T60 384V399Q60 437 68 463T98 504T155 527T245 534H262Q324 534 362 528T422 505T451 460T459 388V369H387V385Q387 413 383 430T365 458T328 471T266 475H253Q215 475 192 472T155 460T138 436T133 398V386Q133 365 137 351T156 326T199 311T276 302Q337 297 375 288T435 263T464 221T472 158V145Q472 100 464 71T434 25T374 1T276 -6H258Z"  />
<glyph unicode="&#xE018;" horiz-adv-x="448" d="M262 0H185V467H12V528H436V467H262V0Z"  />
<glyph unicode="&#xE019;" horiz-adv-x="566" d="M277 -5Q211 -5 169 2T104 28T71 83T62 174V528H139V180Q139 140 144 116T163 79T205 62T276 57H291Q336 57 362 61T403 78T422 115T427 180V528H504V174Q504 118 496 83T464 29T398 2T290 -5H277Z"  />
<glyph unicode="&#xE01A;" horiz-adv-x="509" d="M305 0H206L12 528H93L255 66H258L419 528H497L305 0Z"  />
<glyph unicode="&#xE01B;" horiz-adv-x="764" d="M600 0H505L384 456H382L260 0H166L20 528H97L215 64H217L339 528H427L551 64H552L669 528H744L600 0Z"  />
<glyph unicode="&#xE01C;" horiz-adv-x="521" d="M502 0H413L260 237L107 0H19L206 276L37 528H123L261 314L400 528H484L314 276L502 0Z"  />
<glyph unicode="&#xE01D;" horiz-adv-x="499" d="M288 0H211V186L9 528H93L250 250H251L406 528H490L288 186V0Z"  />
<glyph unicode="&#xE01E;" horiz-adv-x="490" d="M454 0H38V56L359 470V471H50V528H450V471L130 59V58H454V0Z"  />
<glyph unicode="&#xE01F;" horiz-adv-x="522" d="M510 0H431L389 118H131L90 0H12L210 528H313L510 0ZM371 174L263 474H259L151 174H371ZM274 585L116 696L154 745L297 614L274 585Z"  />
<glyph unicode="&#xE020;" horiz-adv-x="522" d="M510 0H431L389 118H131L90 0H12L210 528H313L510 0ZM371 174L263 474H259L151 174H371ZM247 586L224 615L367 746L406 697L247 586Z"  />
<glyph unicode="&#xE021;" horiz-adv-x="522" d="M510 0H431L389 118H131L90 0H12L210 528H313L510 0ZM371 174L263 474H259L151 174H371ZM361 597L261 681L162 597L133 627L261 744L390 627L361 597Z"  />
<glyph unicode="&#xE022;" horiz-adv-x="522" d="M510 0H431L389 118H131L90 0H12L210 528H313L510 0ZM371 174L263 474H259L151 174H371ZM389 705Q385 660 368 637T317 614Q299 614 285 621T256 639Q242 649 231 654T209 659Q195 659 185 650T170 613L136 621Q139 664 157 687T207 710Q224 710 238 704T266 688Q281 677 293 672T316 666Q333 666 342 676T354 712L389 705Z"  />
<glyph unicode="&#xE023;" horiz-adv-x="522" d="M510 0H431L389 118H131L90 0H12L210 528H313L510 0ZM371 174L263 474H259L151 174H371ZM214 623H145V711H214V623ZM377 623H308V711H377V623Z"  />
<glyph unicode="&#xE024;" horiz-adv-x="522" d="M510 0H431L389 118H131L90 0H12L210 528H313L510 0ZM371 174L263 474H259L151 174H371ZM259 589Q203 589 182 606T160 664V670Q160 711 181 728T259 745H265Q321 745 342 728T364 670V664Q364 623 343 606T265 589H259ZM265 620Q300 620 313 629T326 665V671Q326 697 313 706T265 715H259Q224 715 211 706T198 671V665Q198 639 211 630T259 620H265Z"  />
<glyph unicode="&#xE025;" horiz-adv-x="522" d="M510 0H431L389 118H131L90 0H12L210 528H313L510 0ZM371 174L263 474H259L151 174H371ZM374 641H154V693H374V641Z"  />
<glyph unicode="&#xE026;" horiz-adv-x="522" d="M510 0H431L389 118H131L90 0H12L210 528H313L510 0ZM371 174L263 474H259L151 174H371ZM389 717Q387 655 354 628T263 600Q204 600 171 627T136 717H180Q185 677 206 664T263 650Q299 650 320 663T346 717H389Z"  />
<glyph unicode="&#xE027;" horiz-adv-x="522" d="M510 0H499Q443 -35 421 -61T399 -112Q399 -132 410 -139T445 -147Q459 -147 475 -145T505 -139V-179Q488 -184 468 -188T428 -192Q345 -192 345 -127Q345 -92 368 -63T444 0H431L389 118H131L90 0H12L210 528H313L510 0ZM371 174L263 474H259L151 174H371Z"  />
<glyph unicode="&#xE028;" horiz-adv-x="779" d="M746 0H382V118H152L90 0H9L292 528H743V470H457V301H727V245H457V59H746V0ZM382 174V471H338L180 174H382Z"  />
<glyph unicode="&#xE029;" horiz-adv-x="547" d="M273 -6Q205 -6 162 4T95 41T61 118T51 244V286Q51 361 60 409T94 484T161 523T272 534H288Q351 534 391 526T454 500T486 453T495 381V361H420V377Q420 404 415 422T396 452T356 468T288 473H276Q230 473 201 467T156 441T134 385T128 288V242Q128 182 133 146T155 90T200 64T277 57H290Q332 57 358 61T399 76T419 105T424 153V169H499V148Q499 103 490 74T456 26T392 1T288 -6H273ZM226 586L203 615L346 746L385 697L226 586Z"  />
<glyph unicode="&#xE02A;" horiz-adv-x="547" d="M273 -6Q205 -6 162 4T95 41T61 118T51 244V286Q51 361 60 409T94 484T161 523T272 534H288Q351 534 391 526T454 500T486 453T495 381V361H420V377Q420 404 415 422T396 452T356 468T288 473H276Q230 473 201 467T156 441T134 385T128 288V242Q128 182 133 146T155 90T200 64T277 57H290Q332 57 358 61T399 76T419 105T424 153V169H499V148Q499 103 490 74T456 26T392 1T288 -6H273ZM377 597L277 681L178 597L149 627L277 744L406 627L377 597Z"  />
<glyph unicode="&#xE02B;" horiz-adv-x="547" d="M273 -6Q205 -6 162 4T95 41T61 118T51 244V286Q51 361 60 409T94 484T161 523T272 534H288Q351 534 391 526T454 500T486 453T495 381V361H420V377Q420 404 415 422T396 452T356 468T288 473H276Q230 473 201 467T156 441T134 385T128 288V242Q128 182 133 146T155 90T200 64T277 57H290Q332 57 358 61T399 76T419 105T424 153V169H499V148Q499 103 490 74T456 26T392 1T288 -6H273ZM277 585L148 702L176 731L277 648L377 730L405 702L277 585Z"  />
<glyph unicode="&#xE02C;" horiz-adv-x="547" d="M273 -6Q205 -6 162 4T95 41T61 118T51 244V286Q51 361 60 409T94 484T161 523T272 534H288Q351 534 391 526T454 500T486 453T495 381V361H420V377Q420 404 415 422T396 452T356 468T288 473H276Q230 473 201 467T156 441T134 385T128 288V242Q128 182 133 146T155 90T200 64T277 57H290Q332 57 358 61T399 76T419 105T424 153V169H499V148Q499 103 490 74T456 26T392 1T288 -6H273ZM313 623H236V711H313V623Z"  />
<glyph unicode="&#xE02D;" horiz-adv-x="547" d="M273 -6Q205 -6 162 4T95 41T61 118T51 244V286Q51 361 60 409T94 484T161 523T272 534H288Q351 534 391 526T454 500T486 453T495 381V361H420V377Q420 404 415 422T396 452T356 468T288 473H276Q230 473 201 467T156 441T134 385T128 288V242Q128 182 133 146T155 90T200 64T277 57H290Q332 57 358 61T399 76T419 105T424 153V169H499V148Q499 103 490 74T456 26T392 1T288 -6H273ZM197 -172L172 -147L301 -7L343 -51L197 -172Z"  />
<glyph unicode="&#xE02E;" horiz-adv-x="577" d="M526 246Q526 168 518 120T485 46T414 10T291 0H67V528H291Q365 528 411 519T482 484T517 411T526 285V246ZM288 60Q341 60 373 66T422 91T444 146T449 243V288Q449 348 444 383T421 438T372 463T288 469H144V60H288ZM282 585L153 702L181 731L282 648L382 730L410 702L282 585Z"  />
<glyph unicode="&#xE02F;" horiz-adv-x="577" d="M24 295H67V528H291Q365 528 411 519T482 484T517 411T526 285V246Q526 168 518 120T485 46T414 10T291 0H67V249H24V295ZM288 60Q341 60 373 66T422 91T444 146T449 243V288Q449 348 444 383T421 438T372 463T288 469H144V295H268V249H144V60H288Z"  />
<glyph unicode="&#xE031;" horiz-adv-x="465" d="M432 0H67V528H429V470H143V301H413V245H143V59H432V0ZM302 585L144 696L182 745L325 614L302 585Z"  />
<glyph unicode="&#xE032;" horiz-adv-x="465" d="M432 0H67V528H429V470H143V301H413V245H143V59H432V0ZM179 586L156 615L299 746L338 697L179 586Z"  />
<glyph unicode="&#xE033;" horiz-adv-x="465" d="M432 0H67V528H429V470H143V301H413V245H143V59H432V0ZM349 597L249 681L150 597L121 627L249 744L378 627L349 597Z"  />
<glyph unicode="&#xE034;" horiz-adv-x="465" d="M432 0H67V528H429V470H143V301H413V245H143V59H432V0ZM246 585L117 702L145 731L246 648L346 730L374 702L246 585Z"  />
<glyph unicode="&#xE035;" horiz-adv-x="465" d="M432 0H67V528H429V470H143V301H413V245H143V59H432V0ZM196 623H127V711H196V623ZM359 623H290V711H359V623Z"  />
<glyph unicode="&#xE036;" horiz-adv-x="465" d="M432 0H67V528H429V470H143V301H413V245H143V59H432V0ZM281 623H204V711H281V623Z"  />
<glyph unicode="&#xE037;" horiz-adv-x="465" d="M432 0H67V528H429V470H143V301H413V245H143V59H432V0ZM354 641H134V693H354V641Z"  />
<glyph unicode="&#xE038;" horiz-adv-x="465" d="M432 0H67V528H429V470H143V301H413V245H143V59H432V0ZM372 717Q370 655 337 628T246 600Q187 600 154 627T119 717H163Q168 677 189 664T246 650Q282 650 303 663T329 717H372Z"  />
<glyph unicode="&#xE039;" horiz-adv-x="465" d="M411 -179Q394 -184 374 -188T333 -192Q250 -192 250 -127Q250 -92 273 -63T340 0H67V528H429V470H143V301H413V245H143V59H432V0H393Q345 -34 324 -60T303 -112Q303 -132 315 -139T350 -147Q377 -147 411 -139V-179Z"  />
<glyph unicode="&#xE03A;" horiz-adv-x="550" d="M273 -6Q204 -6 161 4T93 41T60 117T51 244V286Q51 362 60 410T93 486T162 524T277 534H291Q353 534 393 526T456 500T487 454T496 384V369H421V381Q421 407 417 425T398 453T359 468T290 473H277Q229 473 200 467T155 442T134 386T128 288V243Q128 181 134 144T156 88T201 62T276 55H290Q334 55 361 59T403 75T423 110T428 170V206H264V265H500V177Q500 121 491 85T459 29T394 2T288 -6H273ZM376 597L276 681L177 597L148 627L276 744L405 627L376 597Z"  />
<glyph unicode="&#xE03B;" horiz-adv-x="550" d="M273 -6Q204 -6 161 4T93 41T60 117T51 244V286Q51 362 60 410T93 486T162 524T277 534H291Q353 534 393 526T456 500T487 454T496 384V369H421V381Q421 407 417 425T398 453T359 468T290 473H277Q229 473 200 467T155 442T134 386T128 288V243Q128 181 134 144T156 88T201 62T276 55H290Q334 55 361 59T403 75T423 110T428 170V206H264V265H500V177Q500 121 491 85T459 29T394 2T288 -6H273ZM314 623H237V711H314V623Z"  />
<glyph unicode="&#xE03C;" horiz-adv-x="550" d="M273 -6Q204 -6 161 4T93 41T60 117T51 244V286Q51 362 60 410T93 486T162 524T277 534H291Q353 534 393 526T456 500T487 454T496 384V369H421V381Q421 407 417 425T398 453T359 468T290 473H277Q229 473 200 467T155 442T134 386T128 288V243Q128 181 134 144T156 88T201 62T276 55H290Q334 55 361 59T403 75T423 110T428 170V206H264V265H500V177Q500 121 491 85T459 29T394 2T288 -6H273ZM404 717Q402 655 369 628T278 600Q219 600 186 627T151 717H195Q200 677 221 664T278 650Q314 650 335 663T361 717H404Z"  />
<glyph unicode="&#xE03D;" horiz-adv-x="550" d="M273 -6Q204 -6 161 4T93 41T60 117T51 244V286Q51 362 60 410T93 486T162 524T277 534H291Q353 534 393 526T456 500T487 454T496 384V369H421V381Q421 407 417 425T398 453T359 468T290 473H277Q229 473 200 467T155 442T134 386T128 288V243Q128 181 134 144T156 88T201 62T276 55H290Q334 55 361 59T403 75T423 110T428 170V206H264V265H500V177Q500 121 491 85T459 29T394 2T288 -6H273ZM320 -125Q320 -151 317 -169T304 -198T279 -216T238 -223V-191Q261 -188 268 -177T275 -130V-124H253V-49H320V-125Z"  />
<glyph unicode="&#xE03E;" horiz-adv-x="576" d="M509 0H432V244H144V0H67V528H144V306H432V528H509V0ZM388 597L288 681L189 597L160 627L288 744L417 627L388 597Z"  />
<glyph unicode="&#xE03F;" horiz-adv-x="576" d="M509 0H432V244H144V0H67V392H30V436H67V528H144V436H432V528H509V436H545V392H509V0ZM432 306V392H144V306H432Z"  />
<glyph unicode="&#xE040;" horiz-adv-x="211" d="M144 0H67V528H144V0ZM120 585L-38 696L0 745L143 614L120 585Z"  />
<glyph unicode="&#xE041;" horiz-adv-x="211" d="M144 0H67V528H144V0ZM98 586L75 615L218 746L257 697L98 586Z"  />
<glyph unicode="&#xE042;" horiz-adv-x="211" d="M144 0H67V528H144V0ZM207 597L107 681L8 597L-21 627L107 744L236 627L207 597Z"  />
<glyph unicode="&#xE043;" horiz-adv-x="211" d="M144 0H67V528H144V0ZM234 705Q230 660 213 637T162 614Q144 614 130 621T101 639Q87 649 76 654T54 659Q40 659 30 650T15 613L-19 621Q-16 664 2 687T52 710Q69 710 83 704T111 688Q126 677 138 672T161 666Q178 666 187 676T199 712L234 705Z"  />
<glyph unicode="&#xE044;" horiz-adv-x="211" d="M144 0H67V528H144V0ZM60 623H-9V711H60V623ZM223 623H154V711H223V623Z"  />
<glyph unicode="&#xE045;" horiz-adv-x="211" d="M144 0H67V528H144V0ZM217 641H-3V693H217V641Z"  />
<glyph unicode="&#xE046;" horiz-adv-x="211" d="M144 0H67V528H144V0ZM146 623H69V711H146V623Z"  />
<glyph unicode="&#xE047;" horiz-adv-x="211" d="M162 -180Q145 -185 127 -188T88 -192Q48 -192 27 -177T6 -127Q6 -94 26 -64T84 0H67V528H144V0H130Q91 -36 75 -64T59 -113Q59 -133 70 -140T105 -147Q119 -147 133 -146T162 -140V-180Z"  />
<glyph unicode="&#xE048;" horiz-adv-x="446" d="M186 -5Q135 -5 103 1T54 24T30 73T24 156V184H95V164Q95 129 98 108T111 75T139 61T188 57H201Q237 57 258 60T290 76T304 111T307 176V528H384V180Q384 121 377 85T351 29T296 2T202 -5H186ZM444 597L344 681L245 597L216 627L344 744L473 627L444 597Z"  />
<glyph unicode="&#xE049;" horiz-adv-x="524" d="M515 0H417L196 242H142V0H67V528H142V299H198L408 528H499L256 272L515 0ZM295 -125Q295 -151 292 -169T279 -198T254 -216T213 -223V-191Q236 -188 243 -177T250 -130V-124H228V-49H295V-125Z"  />
<glyph unicode="&#xE04A;" horiz-adv-x="415" d="M403 0H67V528H144V61H403V0ZM122 586L99 615L242 746L281 697L122 586Z"  />
<glyph unicode="&#xE04B;" horiz-adv-x="415" d="M403 0H67V528H144V61H403V0ZM274 457Q274 399 258 377T203 350V385Q218 389 223 400T229 448V455H207V530H274V457Z"  />
<glyph unicode="&#xE04C;" horiz-adv-x="415" d="M403 0H67V528H144V61H403V0ZM258 -125Q258 -151 255 -169T242 -198T217 -216T176 -223V-191Q199 -188 206 -177T213 -130V-124H191V-49H258V-125Z"  />
<glyph unicode="&#xE04D;" horiz-adv-x="415" d="M403 0H67V528H144V61H403V0ZM361 244H279V350H361V244Z"  />
<glyph unicode="&#xE04E;" horiz-adv-x="415" d="M403 0H67V215L18 190V240L67 266V528H144V302L268 365V315L144 252V61H403V0Z"  />
<glyph unicode="&#xE04F;" horiz-adv-x="600" d="M533 0H419L141 464H139V0H67V528H182L458 65H461V528H533V0ZM235 586L212 615L355 746L394 697L235 586Z"  />
<glyph unicode="&#xE050;" horiz-adv-x="600" d="M533 0H419L141 464H139V0H67V528H182L458 65H461V528H533V0ZM304 585L175 702L203 731L304 648L404 730L432 702L304 585Z"  />
<glyph unicode="&#xE051;" horiz-adv-x="600" d="M533 0H419L141 464H139V0H67V528H182L458 65H461V528H533V0ZM430 705Q426 660 409 637T358 614Q340 614 326 621T297 639Q283 649 272 654T250 659Q236 659 226 650T211 613L177 621Q180 664 198 687T248 710Q265 710 279 704T307 688Q322 677 334 672T357 666Q374 666 383 676T395 712L430 705Z"  />
<glyph unicode="&#xE052;" horiz-adv-x="600" d="M533 0H419L141 464H139V0H67V528H182L458 65H461V528H533V0ZM340 -125Q340 -151 337 -169T324 -198T299 -216T258 -223V-191Q281 -188 288 -177T295 -130V-124H273V-49H340V-125Z"  />
<glyph unicode="&#xE054;" horiz-adv-x="569" d="M277 -6Q209 -6 166 5T97 43T61 119T51 242V285Q51 360 61 408T96 484T165 523T277 534H292Q360 534 403 523T472 485T508 409T518 285V242Q518 167 508 119T473 44T404 5T292 -6H277ZM290 57Q336 57 366 63T412 90T435 147T442 245V284Q442 345 436 382T413 439T366 466T290 473H278Q231 473 202 467T156 440T133 382T127 284V245Q127 184 133 147T156 90T202 64T278 57H290ZM352 585L194 696L232 745L375 614L352 585Z"  />
<glyph unicode="&#xE055;" horiz-adv-x="569" d="M277 -6Q209 -6 166 5T97 43T61 119T51 242V285Q51 360 61 408T96 484T165 523T277 534H292Q360 534 403 523T472 485T508 409T518 285V242Q518 167 508 119T473 44T404 5T292 -6H277ZM290 57Q336 57 366 63T412 90T435 147T442 245V284Q442 345 436 382T413 439T366 466T290 473H278Q231 473 202 467T156 440T133 382T127 284V245Q127 184 133 147T156 90T202 64T278 57H290ZM220 586L197 615L340 746L379 697L220 586Z"  />
<glyph unicode="&#xE056;" horiz-adv-x="569" d="M277 -6Q209 -6 166 5T97 43T61 119T51 242V285Q51 360 61 408T96 484T165 523T277 534H292Q360 534 403 523T472 485T508 409T518 285V242Q518 167 508 119T473 44T404 5T292 -6H277ZM290 57Q336 57 366 63T412 90T435 147T442 245V284Q442 345 436 382T413 439T366 466T290 473H278Q231 473 202 467T156 440T133 382T127 284V245Q127 184 133 147T156 90T202 64T278 57H290ZM384 597L284 681L185 597L156 627L284 744L413 627L384 597Z"  />
<glyph unicode="&#xE057;" horiz-adv-x="569" d="M277 -6Q209 -6 166 5T97 43T61 119T51 242V285Q51 360 61 408T96 484T165 523T277 534H292Q360 534 403 523T472 485T508 409T518 285V242Q518 167 508 119T473 44T404 5T292 -6H277ZM290 57Q336 57 366 63T412 90T435 147T442 245V284Q442 345 436 382T413 439T366 466T290 473H278Q231 473 202 467T156 440T133 382T127 284V245Q127 184 133 147T156 90T202 64T278 57H290ZM411 705Q407 660 390 637T339 614Q321 614 307 621T278 639Q264 649 253 654T231 659Q217 659 207 650T192 613L158 621Q161 664 179 687T229 710Q246 710 260 704T288 688Q303 677 315 672T338 666Q355 666 364 676T376 712L411 705Z"  />
<glyph unicode="&#xE058;" horiz-adv-x="569" d="M277 -6Q209 -6 166 5T97 43T61 119T51 242V285Q51 360 61 408T96 484T165 523T277 534H292Q360 534 403 523T472 485T508 409T518 285V242Q518 167 508 119T473 44T404 5T292 -6H277ZM290 57Q336 57 366 63T412 90T435 147T442 245V284Q442 345 436 382T413 439T366 466T290 473H278Q231 473 202 467T156 440T133 382T127 284V245Q127 184 133 147T156 90T202 64T278 57H290ZM237 623H168V711H237V623ZM400 623H331V711H400V623Z"  />
<glyph unicode="&#xE059;" horiz-adv-x="569" d="M277 -6Q209 -6 166 5T97 43T61 119T51 242V285Q51 360 61 408T96 484T165 523T277 534H292Q360 534 403 523T472 485T508 409T518 285V242Q518 167 508 119T473 44T404 5T292 -6H277ZM290 57Q336 57 366 63T412 90T435 147T442 245V284Q442 345 436 382T413 439T366 466T290 473H278Q231 473 202 467T156 440T133 382T127 284V245Q127 184 133 147T156 90T202 64T278 57H290ZM394 641H174V693H394V641Z"  />
<glyph unicode="&#xE05A;" horiz-adv-x="569" d="M277 -6Q209 -6 166 5T97 43T61 119T51 242V285Q51 360 61 408T96 484T165 523T277 534H292Q360 534 403 523T472 485T508 409T518 285V242Q518 167 508 119T473 44T404 5T292 -6H277ZM290 57Q336 57 366 63T412 90T435 147T442 245V284Q442 345 436 382T413 439T366 466T290 473H278Q231 473 202 467T156 440T133 382T127 284V245Q127 184 133 147T156 90T202 64T278 57H290ZM411 717Q409 655 376 628T285 600Q226 600 193 627T158 717H202Q207 677 228 664T285 650Q321 650 342 663T368 717H411Z"  />
<glyph unicode="&#xE05B;" horiz-adv-x="569" d="M277 -6Q209 -6 166 5T97 43T61 119T51 242V285Q51 360 61 408T96 484T165 523T277 534H292Q360 534 403 523T472 485T508 409T518 285V242Q518 167 508 119T473 44T404 5T292 -6H277ZM290 57Q336 57 366 63T412 90T435 147T442 245V284Q442 345 436 382T413 439T366 466T290 473H278Q231 473 202 467T156 440T133 382T127 284V245Q127 184 133 147T156 90T202 64T278 57H290ZM340 713L211 590L186 617L301 750L340 713ZM476 712L345 589L320 616L437 749L476 712Z"  />
<glyph unicode="&#xE05C;" horiz-adv-x="569" d="M489 548L520 522L482 474Q502 445 510 400T518 285V242Q518 167 508 119T473 44T404 5T292 -6H277Q222 -6 184 0T119 24L81 -22L49 5L88 53Q67 82 59 127T51 242V285Q51 360 61 408T96 484T165 523T277 534H292Q348 534 387 527T452 502L489 548ZM278 474Q231 474 201 467T154 440T131 383T125 284V245Q125 200 128 169T139 116L408 447Q390 463 362 468T290 474H278ZM290 55Q337 55 367 62T414 89T437 146T444 245V284Q444 327 441 358T430 410L164 80Q181 65 208 60T278 55H290Z"  />
<glyph unicode="&#xE05D;" horiz-adv-x="836" d="M803 0H441V54H440Q432 37 420 26T389 7T344 -3T282 -6H267Q203 -6 161 4T95 42T61 118T51 242V286Q51 362 61 410T95 485T160 523T264 534H278Q317 534 344 531T389 522T420 504T440 476H441V528H800V470H515V301H784V245H515V59H803V0ZM441 300Q441 354 435 388T412 440T366 466T292 473H278Q232 473 203 467T157 441T134 386T127 294V238Q127 182 132 147T154 92T201 64T279 56H291Q334 56 363 62T409 86T434 136T441 221V300Z"  />
<glyph unicode="&#xE05E;" horiz-adv-x="538" d="M316 262Q369 262 387 282T406 353V373Q406 404 402 423T386 453T350 466T289 470H143V262H316ZM482 0H406V75Q406 119 403 144T387 183T353 201T293 205H143V0H67V528H303Q358 528 393 522T448 500T475 455T482 381V361Q482 302 466 275T415 238V237Q435 232 448 224T468 200T479 159T482 97V0ZM213 586L190 615L333 746L372 697L213 586Z"  />
<glyph unicode="&#xE05F;" horiz-adv-x="538" d="M316 262Q369 262 387 282T406 353V373Q406 404 402 423T386 453T350 466T289 470H143V262H316ZM482 0H406V75Q406 119 403 144T387 183T353 201T293 205H143V0H67V528H303Q358 528 393 522T448 500T475 455T482 381V361Q482 302 466 275T415 238V237Q435 232 448 224T468 200T479 159T482 97V0ZM313 -125Q313 -151 310 -169T297 -198T272 -216T231 -223V-191Q254 -188 261 -177T268 -130V-124H246V-49H313V-125Z"  />
<glyph unicode="&#xE060;" horiz-adv-x="538" d="M316 262Q369 262 387 282T406 353V373Q406 404 402 423T386 453T350 466T289 470H143V262H316ZM482 0H406V75Q406 119 403 144T387 183T353 201T293 205H143V0H67V528H303Q358 528 393 522T448 500T475 455T482 381V361Q482 302 466 275T415 238V237Q435 232 448 224T468 200T479 159T482 97V0ZM271 585L142 702L170 731L271 648L371 730L399 702L271 585Z"  />
<glyph unicode="&#xE061;" horiz-adv-x="519" d="M258 -6Q192 -6 152 0T89 23T60 69T52 146V168H126V148Q126 117 130 99T148 70T188 57T256 54H272Q314 54 339 58T377 72T394 99T398 144V155Q398 177 394 191T374 215T330 230T253 239Q193 243 156 252T97 278T68 320T60 384V399Q60 437 68 463T98 504T155 527T245 534H262Q324 534 362 528T422 505T451 460T459 388V369H387V385Q387 413 383 430T365 458T328 471T266 475H253Q215 475 192 472T155 460T138 436T133 398V386Q133 365 137 351T156 326T199 311T276 302Q337 297 375 288T435 263T464 221T472 158V145Q472 100 464 71T434 25T374 1T276 -6H258ZM199 586L176 615L319 746L358 697L199 586Z"  />
<glyph unicode="&#xE062;" horiz-adv-x="519" d="M258 -6Q192 -6 152 0T89 23T60 69T52 146V168H126V148Q126 117 130 99T148 70T188 57T256 54H272Q314 54 339 58T377 72T394 99T398 144V155Q398 177 394 191T374 215T330 230T253 239Q193 243 156 252T97 278T68 320T60 384V399Q60 437 68 463T98 504T155 527T245 534H262Q324 534 362 528T422 505T451 460T459 388V369H387V385Q387 413 383 430T365 458T328 471T266 475H253Q215 475 192 472T155 460T138 436T133 398V386Q133 365 137 351T156 326T199 311T276 302Q337 297 375 288T435 263T464 221T472 158V145Q472 100 464 71T434 25T374 1T276 -6H258ZM361 597L261 681L162 597L133 627L261 744L390 627L361 597Z"  />
<glyph unicode="&#xE063;" horiz-adv-x="519" d="M258 -6Q192 -6 152 0T89 23T60 69T52 146V168H126V148Q126 117 130 99T148 70T188 57T256 54H272Q314 54 339 58T377 72T394 99T398 144V155Q398 177 394 191T374 215T330 230T253 239Q193 243 156 252T97 278T68 320T60 384V399Q60 437 68 463T98 504T155 527T245 534H262Q324 534 362 528T422 505T451 460T459 388V369H387V385Q387 413 383 430T365 458T328 471T266 475H253Q215 475 192 472T155 460T138 436T133 398V386Q133 365 137 351T156 326T199 311T276 302Q337 297 375 288T435 263T464 221T472 158V145Q472 100 464 71T434 25T374 1T276 -6H258ZM262 585L133 702L161 731L262 648L362 730L390 702L262 585Z"  />
<glyph unicode="&#xE064;" horiz-adv-x="519" d="M258 -6Q192 -6 152 0T89 23T60 69T52 146V168H126V148Q126 117 130 99T148 70T188 57T256 54H272Q314 54 339 58T377 72T394 99T398 144V155Q398 177 394 191T374 215T330 230T253 239Q193 243 156 252T97 278T68 320T60 384V399Q60 437 68 463T98 504T155 527T245 534H262Q324 534 362 528T422 505T451 460T459 388V369H387V385Q387 413 383 430T365 458T328 471T266 475H253Q215 475 192 472T155 460T138 436T133 398V386Q133 365 137 351T156 326T199 311T276 302Q337 297 375 288T435 263T464 221T472 158V145Q472 100 464 71T434 25T374 1T276 -6H258ZM180 -172L155 -147L284 -7L326 -51L180 -172Z"  />
<glyph unicode="&#xE065;" horiz-adv-x="519" d="M258 -6Q192 -6 152 0T89 23T60 69T52 146V168H126V148Q126 117 130 99T148 70T188 57T256 54H272Q314 54 339 58T377 72T394 99T398 144V155Q398 177 394 191T374 215T330 230T253 239Q193 243 156 252T97 278T68 320T60 384V399Q60 437 68 463T98 504T155 527T245 534H262Q324 534 362 528T422 505T451 460T459 388V369H387V385Q387 413 383 430T365 458T328 471T266 475H253Q215 475 192 472T155 460T138 436T133 398V386Q133 365 137 351T156 326T199 311T276 302Q337 297 375 288T435 263T464 221T472 158V145Q472 100 464 71T434 25T374 1T276 -6H258ZM311 -125Q311 -151 308 -169T295 -198T270 -216T229 -223V-191Q252 -188 259 -177T266 -130V-124H244V-49H311V-125Z"  />
<glyph unicode="&#xE066;" horiz-adv-x="1038" d="M258 -6Q192 -6 152 0T89 23T60 69T52 146V168H126V148Q126 117 130 99T148 70T188 57T256 54H272Q314 54 339 58T377 72T394 99T398 144V155Q398 177 394 191T374 215T330 230T253 239Q193 243 156 252T97 278T68 320T60 384V399Q60 437 68 463T98 504T155 527T245 534H262Q324 534 362 528T422 505T451 460T459 388V369H387V385Q387 413 383 430T365 458T328 471T266 475H253Q215 475 192 472T155 460T138 436T133 398V386Q133 365 137 351T156 326T199 311T276 302Q337 297 375 288T435 263T464 221T472 158V145Q472 100 464 71T434 25T374 1T276 -6H258ZM777 -6Q711 -6 671 0T608 23T579 69T571 146V168H645V148Q645 117 649 99T667 70T707 57T775 54H791Q833 54 858 58T896 72T913 99T917 144V155Q917 177 913 191T893 215T849 230T772 239Q712 243 675 252T616 278T587 320T579 384V399Q579 437 587 463T617 504T674 527T764 534H781Q843 534 881 528T941 505T970 460T978 388V369H906V385Q906 413 902 430T884 458T847 471T785 475H772Q734 475 711 472T674 460T657 436T652 398V386Q652 365 656 351T675 326T718 311T795 302Q856 297 894 288T954 263T983 221T991 158V145Q991 100 983 71T953 25T893 1T795 -6H777Z"  />
<glyph unicode="&#xE067;" horiz-adv-x="448" d="M262 0H185V467H12V528H436V467H262V0ZM226 585L97 702L125 731L226 648L326 730L354 702L226 585Z"  />
<glyph unicode="&#xE068;" horiz-adv-x="448" d="M262 0H185V467H12V528H436V467H262V0ZM258 -125Q258 -151 255 -169T242 -198T217 -216T176 -223V-191Q199 -188 206 -177T213 -130V-124H191V-49H258V-125Z"  />
<glyph unicode="&#xE069;" horiz-adv-x="448" d="M262 0H185V315H56V360H185V467H12V528H436V467H262V360H392V315H262V0Z"  />
<glyph unicode="&#xE06A;" horiz-adv-x="521" d="M143 106V0H67V528H143V440H285Q346 440 385 434T446 410T476 363T484 283V265Q484 217 476 187T445 138T385 113T287 106H143ZM279 164Q322 164 347 168T386 183T404 214T408 265V282Q408 315 404 334T386 364T347 378T279 382H143V164H279Z"  />
<glyph unicode="&#xE06B;" horiz-adv-x="566" d="M277 -5Q211 -5 169 2T104 28T71 83T62 174V528H139V180Q139 140 144 116T163 79T205 62T276 57H291Q336 57 362 61T403 78T422 115T427 180V528H504V174Q504 118 496 83T464 29T398 2T290 -5H277ZM353 585L195 696L233 745L376 614L353 585Z"  />
<glyph unicode="&#xE06C;" horiz-adv-x="566" d="M277 -5Q211 -5 169 2T104 28T71 83T62 174V528H139V180Q139 140 144 116T163 79T205 62T276 57H291Q336 57 362 61T403 78T422 115T427 180V528H504V174Q504 118 496 83T464 29T398 2T290 -5H277ZM225 586L202 615L345 746L384 697L225 586Z"  />
<glyph unicode="&#xE06D;" horiz-adv-x="566" d="M277 -5Q211 -5 169 2T104 28T71 83T62 174V528H139V180Q139 140 144 116T163 79T205 62T276 57H291Q336 57 362 61T403 78T422 115T427 180V528H504V174Q504 118 496 83T464 29T398 2T290 -5H277ZM383 597L283 681L184 597L155 627L283 744L412 627L383 597Z"  />
<glyph unicode="&#xE06E;" horiz-adv-x="566" d="M277 -5Q211 -5 169 2T104 28T71 83T62 174V528H139V180Q139 140 144 116T163 79T205 62T276 57H291Q336 57 362 61T403 78T422 115T427 180V528H504V174Q504 118 496 83T464 29T398 2T290 -5H277ZM410 705Q406 660 389 637T338 614Q320 614 306 621T277 639Q263 649 252 654T230 659Q216 659 206 650T191 613L157 621Q160 664 178 687T228 710Q245 710 259 704T287 688Q302 677 314 672T337 666Q354 666 363 676T375 712L410 705Z"  />
<glyph unicode="&#xE06F;" horiz-adv-x="566" d="M277 -5Q211 -5 169 2T104 28T71 83T62 174V528H139V180Q139 140 144 116T163 79T205 62T276 57H291Q336 57 362 61T403 78T422 115T427 180V528H504V174Q504 118 496 83T464 29T398 2T290 -5H277ZM236 623H167V711H236V623ZM399 623H330V711H399V623Z"  />
<glyph unicode="&#xE070;" horiz-adv-x="566" d="M277 -5Q211 -5 169 2T104 28T71 83T62 174V528H139V180Q139 140 144 116T163 79T205 62T276 57H291Q336 57 362 61T403 78T422 115T427 180V528H504V174Q504 118 496 83T464 29T398 2T290 -5H277ZM393 641H173V693H393V641Z"  />
<glyph unicode="&#xE071;" horiz-adv-x="566" d="M277 -5Q211 -5 169 2T104 28T71 83T62 174V528H139V180Q139 140 144 116T163 79T205 62T276 57H291Q336 57 362 61T403 78T422 115T427 180V528H504V174Q504 118 496 83T464 29T398 2T290 -5H277ZM410 717Q408 655 375 628T284 600Q225 600 192 627T157 717H201Q206 677 227 664T284 650Q320 650 341 663T367 717H410Z"  />
<glyph unicode="&#xE072;" horiz-adv-x="566" d="M277 -5Q211 -5 169 2T104 28T71 83T62 174V528H139V180Q139 140 144 116T163 79T205 62T276 57H291Q336 57 362 61T403 78T422 115T427 180V528H504V174Q504 118 496 83T464 29T398 2T290 -5H277ZM280 589Q224 589 203 606T181 664V670Q181 711 202 728T280 745H286Q342 745 363 728T385 670V664Q385 623 364 606T286 589H280ZM286 620Q321 620 334 629T347 665V671Q347 697 334 706T286 715H280Q245 715 232 706T219 671V665Q219 639 232 630T280 620H286Z"  />
<glyph unicode="&#xE073;" horiz-adv-x="566" d="M277 -5Q211 -5 169 2T104 28T71 83T62 174V528H139V180Q139 140 144 116T163 79T205 62T276 57H291Q336 57 362 61T403 78T422 115T427 180V528H504V174Q504 118 496 83T464 29T398 2T290 -5H277ZM331 713L202 590L177 617L292 750L331 713ZM467 712L336 589L311 616L428 749L467 712Z"  />
<glyph unicode="&#xE074;" horiz-adv-x="566" d="M359 -179Q342 -184 322 -188T281 -192Q198 -192 198 -127Q198 -95 218 -67T275 -6Q209 -5 168 2T103 29T71 84T62 174V528H139V180Q139 140 144 116T163 78T205 61T276 57H290Q335 57 362 61T403 78T422 115T427 180V528H504V175Q504 123 497 89T470 35T415 6T324 -5Q251 -66 251 -113Q251 -133 263 -140T298 -147Q325 -147 359 -139V-179Z"  />
<glyph unicode="&#xE075;" horiz-adv-x="764" d="M600 0H505L384 456H382L260 0H166L20 528H97L215 64H217L339 528H427L551 64H552L669 528H744L600 0ZM483 597L383 681L284 597L255 627L383 744L512 627L483 597Z"  />
<glyph unicode="&#xE076;" horiz-adv-x="499" d="M288 0H211V186L9 528H93L250 250H251L406 528H490L288 186V0ZM202 586L179 615L322 746L361 697L202 586Z"  />
<glyph unicode="&#xE077;" horiz-adv-x="499" d="M288 0H211V186L9 528H93L250 250H251L406 528H490L288 186V0ZM351 597L251 681L152 597L123 627L251 744L380 627L351 597Z"  />
<glyph unicode="&#xE078;" horiz-adv-x="499" d="M288 0H211V186L9 528H93L250 250H251L406 528H490L288 186V0ZM203 623H134V711H203V623ZM366 623H297V711H366V623Z"  />
<glyph unicode="&#xE079;" horiz-adv-x="490" d="M454 0H38V56L359 470V471H50V528H450V471L130 59V58H454V0ZM197 586L174 615L317 746L356 697L197 586Z"  />
<glyph unicode="&#xE07A;" horiz-adv-x="490" d="M454 0H38V56L359 470V471H50V528H450V471L130 59V58H454V0ZM250 585L121 702L149 731L250 648L350 730L378 702L250 585Z"  />
<glyph unicode="&#xE07B;" horiz-adv-x="490" d="M454 0H38V56L359 470V471H50V528H450V471L130 59V58H454V0ZM284 623H207V711H284V623Z"  />
<glyph unicode="&#xE07C;" horiz-adv-x="669" d="M406 230H144V0H67V528H421V469H144V287H406V230ZM602 0H525V528H602V0Z"  />
<glyph unicode="&#xE07D;" horiz-adv-x="873" d="M406 230H144V0H67V528H421V469H144V287H406V230ZM861 0H525V528H602V61H861V0Z"  />
<glyph unicode="&#xE07E;" horiz-adv-x="670" d="M144 0H67V528H144V0ZM410 -5Q359 -5 327 1T278 24T254 73T248 156V184H319V164Q319 129 322 108T335 75T363 61T412 57H425Q461 57 482 60T514 76T528 111T531 176V528H608V180Q608 121 601 85T575 29T520 2T426 -5H410Z"  />
<glyph unicode="&#xE07F;" horiz-adv-x="236" d="M155 434H81V528H155V434ZM156 0H80L85 366H151L156 0Z"  />
<glyph unicode="&#xE080;" horiz-adv-x="452" d="M212 528H287V435H212V528ZM217 368H284V348Q284 303 267 283T202 250Q173 243 156 236T129 218T116 191T113 149V139Q113 112 117 95T132 68T165 53T219 49H230Q265 49 287 52T322 67T339 99T344 153V174H409V153Q409 103 401 72T373 24T319 0T230 -6H218Q166 -6 133 1T80 24T54 67T46 135V149Q46 184 51 208T69 250T104 278T161 297Q196 305 206 315T217 353V368Z"  />
<glyph unicode="&#xE081;" horiz-adv-x="551" d="M302 -6Q237 -6 197 2T134 34T102 99T92 207H39V242H91V298H39V333H92Q93 395 103 434T136 496T200 526T302 534H315Q369 534 404 528T460 505T489 464T497 401V385H426V396Q426 420 422 435T406 459T372 471T314 474H304Q262 474 236 471T195 453T174 411T167 333H391V298H167V242H391V207H167Q168 155 173 125T194 79T235 59T303 54H313Q351 54 374 57T410 70T427 95T432 138V149H503V133Q503 94 495 68T465 25T408 1T315 -6H302Z"  />
<glyph unicode="&#xE082;" horiz-adv-x="456" d="M248 -24H210V64Q163 65 132 73T83 101T58 156T51 243V269Q51 323 58 357T83 412T132 439T210 448V528H248V448Q293 448 323 442T371 421T396 384T403 324V308H338V319Q338 341 335 355T322 378T294 389T248 393V119Q276 119 294 122T322 135T336 159T340 198V209H405V192Q405 154 397 130T369 91T321 70T248 64V-24ZM119 242Q119 204 122 181T136 144T163 125T210 119V393Q181 393 163 389T136 371T123 334T119 271V242Z"  />
<glyph unicode="&#xE083;" horiz-adv-x="512" d="M469 0H48V58Q66 64 77 73T95 100T105 147T108 224H43V276H109V297Q109 372 116 418T142 490T194 525T281 534H297Q346 534 376 528T424 506T448 463T455 394V379H387V392Q387 419 384 435T370 461T342 473T296 476H285Q251 476 231 472T199 450T184 398T180 303V276H360V224H179Q178 181 175 153T165 106T148 78T122 59V58H469V0Z"  />
<glyph unicode="&#xE084;" horiz-adv-x="494" d="M254 97Q248 58 238 31T210 -14T167 -40T106 -48Q87 -48 68 -46T33 -40V13Q47 9 63 7T94 4Q115 4 129 8T154 25T172 57T185 110L212 265H105V319H221L233 388Q247 469 282 501T388 534Q425 534 458 528V475Q444 477 428 479T397 481Q374 481 359 477T332 460T314 427T301 374L291 319H423V265H282L254 97Z"  />
<glyph unicode="&#xE085;" horiz-adv-x="508" d="M291 0H216V162H57V204H216V208L173 281H57V323H149L28 528H109L254 258H256L398 528H479L358 323H450V281H334L291 208V204H450V162H291V0Z"  />
<glyph unicode="&#xE087;" horiz-adv-x="834" d="M143 287Q115 287 97 292T68 310T53 345T48 401V415Q48 449 52 471T67 506T96 524T143 529H153Q181 529 199 524T228 506T243 471T248 415V401Q248 367 244 345T229 310T200 292T153 287H143ZM151 326Q166 326 175 328T190 339T198 361T200 399V417Q200 441 198 455T191 477T176 487T151 490H145Q130 490 121 488T106 477T98 455T96 417V399Q96 375 98 361T105 339T120 329T145 326H151ZM212 0H165L374 528H421L212 0ZM444 39Q459 39 468 41T483 52T491 74T493 112V130Q493 154 491 168T484 190T469 200T444 203H438Q423 203 414 201T399 190T391 168T389 130V112Q389 88 391 74T398 52T413 42T438 39H444ZM436 0Q408 0 390 5T361 23T346 58T341 114V128Q341 162 345 184T360 219T389 237T436 242H446Q474 242 492 237T521 219T536 184T541 128V114Q541 80 537 58T522 23T493 5T446 0H436ZM689 39Q704 39 713 41T728 52T736 74T738 112V130Q738 154 736 168T729 190T714 200T689 203H683Q668 203 659 201T644 190T636 168T634 130V112Q634 88 636 74T643 52T658 42T683 39H689ZM681 0Q653 0 635 5T606 23T591 58T586 114V128Q586 162 590 184T605 219T634 237T681 242H691Q719 242 737 237T766 219T781 184T786 128V114Q786 80 782 58T767 23T738 5T691 0H681Z"  />
<glyph unicode="&#xE0CF;" horiz-adv-x="294" d="M247 -8H213Q184 -8 164 -3T132 15T115 51T109 110V159Q109 198 98 222T50 247V288Q87 288 98 312T109 375V418Q109 454 114 476T132 512T164 531T213 536H247V488H227Q210 488 200 485T183 474T175 452T173 413V378Q173 329 162 303T113 268V266Q151 259 162 232T173 156V116Q173 92 175 78T183 55T199 43T227 40H247V-8Z"  />
<glyph unicode="&#xE0D0;" horiz-adv-x="294" d="M47 -8V40H67Q83 40 93 43T110 54T118 77T121 116V156Q121 205 131 232T181 266V268Q143 276 132 302T121 378V413Q121 437 119 451T110 474T94 485T67 488H47V536H81Q110 536 130 531T162 513T179 477T185 418V375Q185 336 196 312T244 288V247Q207 247 196 223T185 159V110Q185 74 180 52T162 16T129 -3T81 -8H47Z"  />
<glyph unicode="&#xE0D1;" horiz-adv-x="274" d="M227 -8H75V536H227V481H141V47H227V-8Z"  />
<glyph unicode="&#xE0D2;" horiz-adv-x="274" d="M199 -8H47V47H133V481H47V536H199V-8Z"  />
<glyph unicode="&#xE0D8;" horiz-adv-x="277" d="M230 -8H215Q170 -8 140 0T92 37T67 116T60 254V274Q60 360 67 411T92 491T140 527T215 536H230V478H217Q191 478 174 472T146 445T131 382T127 271V257Q127 187 131 146T145 84T173 56T217 50H230V-8Z"  />
<glyph unicode="&#xE0D9;" horiz-adv-x="277" d="M47 -8V50H60Q86 50 103 56T131 83T146 146T150 257V271Q150 341 146 382T132 444T104 472T60 478H47V536H62Q107 536 137 528T185 491T210 412T217 274V254Q217 168 210 117T185 37T137 1T62 -8H47Z"  />
<glyph unicode="&#xE0E1;" horiz-adv-x="334" d="M134 300H59V402Q59 431 62 453T75 491T102 516T146 528V485Q123 481 116 464T108 410V402H134V300ZM272 300H197V402Q197 431 200 453T213 491T240 516T284 528V485Q260 481 253 464T246 410V402H272V300Z"  />
<glyph unicode="&#xE0E2;" horiz-adv-x="334" d="M137 426Q137 397 134 375T121 337T94 312T50 300V343Q74 347 81 365T88 419V426H62V528H137V426ZM275 426Q275 397 272 375T259 337T232 312T188 300V343Q212 347 219 365T226 419V426H200V528H275V426Z"  />
<glyph unicode="&#xE0E3;" horiz-adv-x="196" d="M134 300H59V402Q59 431 62 453T75 491T102 516T146 528V485Q123 481 116 464T108 410V402H134V300Z"  />
<glyph unicode="&#xE0E4;" horiz-adv-x="196" d="M137 426Q137 397 134 375T121 337T94 312T50 300V343Q74 347 81 365T88 419V426H62V528H137V426Z"  />
<glyph unicode="&#xE10A;" horiz-adv-x="521" d="M253 -6Q189 -6 150 2T88 37T59 111T51 239V289Q51 368 58 416T88 491T149 525T253 534H268Q331 534 370 526T432 491T462 417T470 289V239Q470 159 462 111T432 37T371 3T268 -6H253ZM266 55Q308 55 334 60T374 85T393 141T398 239V291Q398 352 394 388T375 444T334 468T266 474H254Q212 474 186 469T146 444T128 389T123 291V239Q123 177 127 141T146 86T186 61T254 55H266Z"  />
<glyph unicode="&#xE10B;" horiz-adv-x="350" d="M250 0H177V454H175L54 316L11 357L161 528H250V0Z"  />
<glyph unicode="&#xE10C;" horiz-adv-x="500" d="M457 0H52Q52 2 52 13T51 36T51 59T51 72Q51 124 58 156T85 209T144 242T246 264Q291 271 318 278T360 298T379 327T384 373V386Q384 413 380 430T362 458T325 472T261 476H249Q209 476 186 473T150 458T133 426T129 371V352H60V369Q60 420 67 452T95 503T152 527T248 534H259Q320 534 358 527T418 504T448 459T456 389V374Q456 333 449 306T421 259T366 227T273 206Q221 198 192 191T147 172T129 139T125 84V57H457V0Z"  />
<glyph unicode="&#xE10D;" horiz-adv-x="511" d="M464 139Q464 95 456 67T426 23T363 0T257 -6H241Q180 -6 143 0T85 24T58 73T51 154V175H120V155Q120 122 124 102T140 71T177 57T241 53H254Q299 53 326 56T368 70T386 98T391 145V158Q391 184 387 200T373 226T346 238T302 242H193V298H298Q323 298 339 301T364 313T377 337T381 375V390Q381 417 377 434T360 460T322 472T255 476H244Q205 476 182 473T147 459T130 429T126 376V355H58V376Q58 425 65 455T92 503T148 527T243 534H256Q320 534 359 528T419 507T447 464T454 395V379Q454 328 442 306T397 273V271Q414 267 426 260T447 239T460 205T464 154V139Z"  />
<glyph unicode="&#xE10E;" horiz-adv-x="518" d="M416 0H344V121H44V192L317 528H416V178H483V121H416V0ZM344 178V466H342L112 179V178H344Z"  />
<glyph unicode="&#xE10F;" horiz-adv-x="506" d="M463 158Q463 107 455 75T424 25T361 1T255 -6H237Q177 -6 141 0T84 24T58 71T51 145V163H120V150Q120 119 124 100T141 71T178 57T244 53H258Q301 53 327 57T367 73T385 106T390 161V180Q390 216 386 237T369 271T332 287T266 291H250Q219 291 198 290T162 283T140 270T126 246H58V528H449V471H127V307H128Q134 318 143 326T167 339T207 346T270 349H289Q343 349 377 342T430 317T456 267T463 188V158Z"  />
<glyph unicode="&#xE110;" horiz-adv-x="510" d="M249 -6Q184 -6 145 1T85 30T58 89T51 190V288Q51 369 58 418T88 492T149 526T254 534H268Q327 534 363 528T420 506T448 462T455 388V369H386V384Q386 414 382 432T366 459T330 472T270 476H258Q214 476 188 472T147 450T129 399T124 306V273H125Q139 295 170 306T261 317H274Q333 317 370 312T428 290T456 243T464 165V148Q464 102 457 72T427 25T366 1T264 -6H249ZM263 53Q306 53 332 56T371 69T389 98T393 149V162Q393 195 389 214T371 244T331 258T263 261H251Q213 261 189 258T150 245T129 220T123 179V167Q123 128 127 106T144 72T183 57T251 53H263Z"  />
<glyph unicode="&#xE111;" horiz-adv-x="478" d="M186 0H105L363 466V469H34V528H445V473L186 0Z"  />
<glyph unicode="&#xE112;" horiz-adv-x="512" d="M247 -6Q184 -6 145 -1T85 20T56 63T48 133V144Q48 175 51 197T63 235T86 260T120 274V275Q84 283 70 307T55 393V404Q55 444 62 469T91 509T149 528T246 534H262Q322 534 360 529T419 509T448 470T456 404V393Q456 363 453 343T441 309T420 287T389 275V274Q429 265 446 238T463 144V133Q463 91 456 64T426 22T365 0T262 -6H247ZM261 302Q301 302 325 304T363 315T380 340T384 386V397Q384 424 380 440T362 464T325 475T261 478H248Q209 478 185 476T148 465T131 440T126 397V386Q126 357 130 341T147 316T184 305T248 302H261ZM261 52Q305 52 330 55T369 68T387 95T391 141V154Q391 185 386 203T367 230T328 243T261 246H249Q208 246 183 243T143 231T124 203T119 154V141Q119 112 123 95T140 68T180 55T249 52H261Z"  />
<glyph unicode="&#xE113;" horiz-adv-x="510" d="M240 -6Q180 -6 143 0T86 22T58 66T51 140V159H119V144Q119 114 123 97T141 69T177 56T239 53H250Q295 53 322 57T364 79T382 129T387 222V256H385Q371 233 340 222T249 211H236Q176 211 139 217T81 240T53 286T46 363V381Q46 427 53 456T83 503T144 527T245 534H261Q326 534 365 527T425 498T452 439T459 338V240Q459 159 452 110T422 36T360 2T255 -6H240ZM258 267Q296 267 321 270T360 283T381 308T387 349V362Q387 400 383 422T365 457T326 472T258 476H246Q204 476 179 473T140 460T122 430T117 380V367Q117 335 121 315T138 285T177 271T246 267H258Z"  />
<glyph unicode="&#xE114;" horiz-adv-x="620" d="M319 62Q374 62 407 69T459 101T483 174T489 307V373Q489 457 483 505T459 579T408 611T319 618H304Q249 618 216 611T164 579T140 506T134 373V307Q134 223 140 175T164 101T215 69T304 62H319ZM302 -6Q225 -6 177 5T101 50T65 146T55 311V370Q55 472 64 534T101 630T176 675T302 686H321Q398 686 446 675T522 630T558 534T568 370V311Q568 209 559 147T522 50T447 5T321 -6H302Z"  />
<glyph unicode="&#xE115;" horiz-adv-x="620" d="M378 0H297V603H295L143 447L97 497L279 680H378V0Z"  />
<glyph unicode="&#xE116;" horiz-adv-x="620" d="M561 0H66Q66 5 66 18T65 46T65 74T65 91Q65 158 73 200T106 268T178 308T303 333Q359 341 393 350T446 375T471 416T478 482V500Q478 537 473 561T450 598T402 617T321 622H307Q255 622 225 617T178 597T156 553T151 479V459H75V477Q75 541 83 581T116 645T186 677T305 686H318Q392 686 439 678T512 649T549 593T559 502V483Q559 426 549 390T514 330T445 294T335 271Q269 261 231 252T174 225T150 180T145 104V65H561V0Z"  />
<glyph unicode="&#xE117;" horiz-adv-x="620" d="M564 175Q564 121 554 86T515 30T436 2T308 -6H288Q214 -6 169 2T100 32T67 93T59 197V220H135V196Q135 151 140 124T161 83T207 65T290 60H307Q364 60 398 64T452 81T477 118T483 181V201Q483 236 478 258T460 293T425 310T368 315H237V378H362Q395 378 416 382T449 399T466 431T471 484V504Q471 540 466 563T443 598T393 616T308 621H295Q246 621 216 617T170 599T148 557T142 485V461H67V485Q67 547 75 586T108 647T176 678T293 686H309Q384 686 431 679T505 651T541 597T551 509V491Q551 455 547 431T533 390T507 365T468 349V347Q492 342 510 334T540 309T558 265T564 196V175Z"  />
<glyph unicode="&#xE118;" horiz-adv-x="620" d="M498 0H421V157H48V242L386 680H498V221H580V157H498V0ZM421 221V616H418L119 224V221H421Z"  />
<glyph unicode="&#xE119;" horiz-adv-x="620" d="M293 -6Q218 -6 173 1T103 30T70 89T61 188V204H136V190Q136 147 141 121T164 82T214 64T299 60H316Q372 60 405 65T455 87T478 132T484 207V228Q484 277 479 307T458 353T409 375T323 381H303Q262 381 235 379T190 371T162 352T146 321H71V680H547V616H146V391H147Q155 406 167 417T199 434T250 444T325 447H347Q415 447 457 438T524 406T556 343T565 241V206Q565 142 556 101T519 36T442 3T315 -6H293Z"  />
<glyph unicode="&#xE11A;" horiz-adv-x="620" d="M299 -6Q220 -6 173 3T100 40T66 116T58 244V371Q58 476 67 538T104 634T180 676T308 686H326Q396 686 440 679T508 651T540 593T549 498V479H474V496Q474 536 469 560T447 598T402 615T324 620H310Q254 620 220 614T168 585T144 518T138 395V338H139Q147 355 159 367T192 388T242 400T313 404H330Q401 404 446 397T517 369T552 311T562 212V187Q562 129 553 92T516 33T442 3T318 -6H299ZM316 60Q371 60 404 65T455 84T478 123T484 190V207Q484 249 479 275T455 316T404 335T316 340H303Q256 340 224 336T173 319T145 286T137 230V215Q137 164 142 134T166 87T216 65T303 60H316Z"  />
<glyph unicode="&#xE11B;" horiz-adv-x="620" d="M245 0H155L476 610V613H65V680H566V617L245 0Z"  />
<glyph unicode="&#xE11C;" horiz-adv-x="620" d="M325 384Q379 384 410 388T458 404T479 438T484 496V513Q484 547 479 568T457 602T409 618T326 623H310Q259 623 228 619T179 602T157 569T151 513V496Q151 460 156 438T177 404T225 388T310 384H325ZM325 59Q380 59 413 63T464 80T486 116T492 179V198Q492 238 486 262T461 299T411 316T325 320H310Q257 320 225 316T174 299T150 262T144 198V179Q144 140 149 117T172 81T222 64T310 59H325ZM309 -6Q233 -6 186 1T111 28T75 81T65 167V182Q65 229 71 260T91 310T125 338T174 351V353Q146 357 127 365T96 391T79 436T74 506V522Q74 571 84 602T120 652T191 678T308 686H328Q400 686 445 679T517 653T552 603T562 522V506Q562 464 557 437T539 392T508 366T460 353V351Q488 347 509 338T544 310T564 260T571 182V167Q571 115 562 82T526 29T452 2T328 -6H309Z"  />
<glyph unicode="&#xE11D;" horiz-adv-x="620" d="M292 -6Q221 -6 177 2T108 31T73 88T64 182V201H139V184Q139 145 145 121T168 83T215 65T294 60H307Q364 60 398 66T450 95T475 162T481 285V342H480Q472 325 460 313T427 292T377 280T306 276H289Q218 276 173 283T102 312T67 370T57 468V493Q57 551 66 588T103 647T177 677T301 686H320Q398 686 445 677T518 640T552 564T561 436V309Q561 204 552 142T515 46T438 4T309 -6H292ZM316 340Q364 340 395 344T446 361T474 395T482 452V467Q482 518 477 548T454 594T403 616T316 621H304Q248 621 215 616T164 597T141 558T135 491V475Q135 432 140 406T164 365T215 345T304 340H316Z"  />
<glyph unicode="&#xE13C;" horiz-adv-x="278" d="M198 308H142V623H141L52 530L21 565L132 680H198V308Z"  />
<glyph unicode="&#xE13D;" horiz-adv-x="379" d="M345 308H42V361Q42 397 47 420T69 458T113 481T188 495Q221 499 241 504T271 517T285 537T288 568V579Q288 597 285 609T272 628T244 637T194 640H187Q158 640 141 637T115 627T102 606T99 573V557H47V574Q47 607 52 628T73 661T116 678T187 683H195Q241 683 270 679T315 663T337 631T343 580V570Q343 540 338 520T317 487T274 465T201 451Q165 446 145 442T113 429T99 406T96 368V352H345V308Z"  />
<glyph unicode="&#xE13E;" horiz-adv-x="385" d="M186 305Q139 305 111 309T66 326T45 360T39 417V431H91V417Q91 394 94 381T107 360T136 350T186 348H195Q228 348 247 350T277 359T291 378T294 409V419Q294 454 281 466T227 479H149V519H227Q262 519 274 530T286 572V584Q286 602 283 613T270 630T242 638T195 640H187Q158 640 141 638T113 630T100 610T97 576V558H46V576Q46 609 51 630T72 662T116 678T188 683H197Q242 683 270 679T313 663T335 634T341 588V578Q341 540 331 524T295 500V499Q320 494 334 477T349 417V405Q349 375 343 356T319 325T273 310T198 305H186Z"  />
<glyph unicode="&#xE13F;" horiz-adv-x="391" d="M315 308H260V391H32V444L237 680H315V433H362V391H315V308ZM260 433V637H258L84 434V433H260Z"  />
<glyph unicode="&#xE140;" horiz-adv-x="383" d="M185 305Q141 305 114 309T71 325T50 357T44 410V422H95V411Q95 392 98 380T111 360T138 351T183 348H196Q228 348 247 350T277 361T291 385T295 425V438Q295 462 292 477T279 500T252 511T205 514H192Q167 514 151 513T125 508T110 500T101 485H49V680H340V636H102V526H103Q113 542 134 549T206 556H218Q257 556 282 551T322 533T342 498T348 441V425Q348 388 341 365T317 329T270 310T197 305H185Z"  />
<glyph unicode="&#xE141;" horiz-adv-x="384" d="M200 348Q231 348 249 350T278 360T291 380T294 415V425Q294 446 291 458T278 478T249 487T199 490H189Q161 490 143 488T114 480T99 462T95 432V421Q95 398 98 384T111 361T140 351T190 348H200ZM188 305Q141 305 112 310T68 330T47 371T41 438V521Q41 572 47 604T70 653T116 677T192 683H204Q245 683 271 679T313 663T334 631T340 579V568H289V579Q289 598 286 610T272 629T246 638T202 641H192Q162 641 143 638T114 623T99 589T95 530V500H96Q104 515 125 523T196 532H208Q250 532 277 528T319 512T341 481T347 430V415Q347 382 341 361T318 327T273 310T201 305H188Z"  />
<glyph unicode="&#xE142;" horiz-adv-x="366" d="M144 308H83L269 634V635H32V680H332V639L144 308Z"  />
<glyph unicode="&#xE143;" horiz-adv-x="384" d="M184 305Q139 305 111 309T67 324T45 354T39 402V411Q39 457 52 475T94 500V501Q67 507 55 524T43 582V593Q43 619 49 636T70 664T113 679T183 683H198Q241 683 268 679T311 665T333 637T339 593V582Q339 541 327 524T287 501V500Q316 494 329 476T343 411V402Q343 373 337 354T316 324T272 309T198 305H184ZM197 521Q226 521 243 523T270 531T283 549T286 578V587Q286 604 283 614T271 631T244 639T197 642H184Q155 642 138 640T112 631T99 615T96 587V578Q96 560 99 549T111 532T138 523T184 521H197ZM197 347Q228 347 246 349T274 358T287 376T290 407V417Q290 437 287 449T274 468T246 477T197 480H184Q154 480 136 478T108 469T95 450T92 417V407Q92 388 95 377T107 359T135 350T184 347H197Z"  />
<glyph unicode="&#xE144;" horiz-adv-x="387" d="M198 498Q226 498 244 500T273 508T288 526T292 556V567Q292 590 289 604T275 627T247 638T197 641H186Q156 641 138 639T110 629T97 609T93 575V565Q93 544 96 531T110 511T138 501T188 498H198ZM182 305Q140 305 113 309T71 325T49 357T43 409V420H95V409Q95 390 98 378T111 360T138 351T184 348H193Q226 348 245 351T275 366T289 399T292 458V488H291Q283 473 262 465T191 456H179Q137 456 110 460T67 477T45 509T39 562V576Q39 608 45 629T68 662T113 678T186 683H198Q245 683 274 678T318 658T339 617T345 550V467Q345 415 340 384T318 335T272 311T194 305H182Z"  />
<glyph unicode="&#xE145;" horiz-adv-x="391" d="M201 349Q232 349 251 353T280 372T294 411T298 478V510Q298 551 295 576T281 616T251 635T201 640H190Q159 640 140 635T111 616T97 577T93 510V478Q93 437 96 412T110 372T140 354T190 349H201ZM189 305Q142 305 113 312T68 339T46 393T40 480V510Q40 561 45 594T67 647T113 675T189 683H201Q249 683 278 675T324 648T345 595T351 510V480Q351 427 346 394T324 340T278 313T201 305H189Z"  />
<glyph unicode="&#xE146;" horiz-adv-x="276" d="M198 0H142V315H141L52 222L21 257L132 372H198V0Z"  />
<glyph unicode="&#xE147;" horiz-adv-x="379" d="M345 0H42V53Q42 89 47 112T69 150T113 173T188 187Q221 191 241 196T271 209T285 229T288 260V271Q288 289 285 301T272 320T244 329T194 332H187Q158 332 141 329T115 319T102 298T99 265V249H47V266Q47 299 52 320T73 353T116 370T187 375H195Q241 375 270 371T315 355T337 323T343 272V262Q343 232 338 212T317 179T274 157T201 143Q165 138 145 134T113 121T99 98T96 60V44H345V0Z"  />
<glyph unicode="&#xE148;" horiz-adv-x="385" d="M186 -3Q139 -3 111 1T66 18T45 52T39 109V123H91V109Q91 86 94 73T107 52T136 42T186 40H195Q228 40 247 42T277 51T291 70T294 101V111Q294 146 281 158T227 171H149V211H227Q262 211 274 222T286 264V276Q286 294 283 305T270 322T242 330T195 332H187Q158 332 141 330T113 322T100 302T97 268V250H46V268Q46 301 51 322T72 354T116 370T188 375H197Q242 375 270 371T313 355T335 326T341 280V270Q341 232 331 216T295 192V191Q320 186 334 169T349 109V97Q349 67 343 48T319 17T273 2T198 -3H186Z"  />
<glyph unicode="&#xE149;" horiz-adv-x="391" d="M315 0H260V83H32V136L237 372H315V125H362V83H315V0ZM260 125V329H258L84 126V125H260Z"  />
<glyph unicode="&#xE14A;" horiz-adv-x="383" d="M185 -3Q141 -3 114 1T71 17T50 49T44 102V114H95V103Q95 84 98 72T111 52T138 43T183 40H196Q228 40 247 42T277 53T291 77T295 117V130Q295 154 292 169T279 192T252 203T205 206H192Q167 206 151 205T125 200T110 192T101 177H49V372H340V328H102V218H103Q113 234 134 241T206 248H218Q257 248 282 243T322 225T342 190T348 133V117Q348 80 341 57T317 21T270 2T197 -3H185Z"  />
<glyph unicode="&#xE14B;" horiz-adv-x="384" d="M200 40Q231 40 249 42T278 52T291 72T294 107V117Q294 138 291 150T278 170T249 179T199 182H189Q161 182 143 180T114 172T99 154T95 124V113Q95 90 98 76T111 53T140 43T190 40H200ZM188 -3Q141 -3 112 2T68 22T47 63T41 130V213Q41 264 47 296T70 345T116 369T192 375H204Q245 375 271 371T313 355T334 323T340 271V260H289V271Q289 290 286 302T272 321T246 330T202 333H192Q162 333 143 330T114 315T99 281T95 222V192H96Q104 207 125 215T196 224H208Q250 224 277 220T319 204T341 173T347 122V107Q347 74 341 53T318 19T273 2T201 -3H188Z"  />
<glyph unicode="&#xE14C;" horiz-adv-x="366" d="M144 0H83L269 326V327H32V372H332V331L144 0Z"  />
<glyph unicode="&#xE14D;" horiz-adv-x="384" d="M184 -3Q139 -3 111 1T67 16T45 46T39 94V103Q39 149 52 167T94 192V193Q67 199 55 216T43 274V285Q43 311 49 328T70 356T113 371T183 375H198Q241 375 268 371T311 357T333 329T339 285V274Q339 233 327 216T287 193V192Q316 186 329 168T343 103V94Q343 65 337 46T316 16T272 1T198 -3H184ZM197 213Q226 213 243 215T270 223T283 241T286 270V279Q286 296 283 306T271 323T244 331T197 334H184Q155 334 138 332T112 323T99 307T96 279V270Q96 252 99 241T111 224T138 215T184 213H197ZM197 39Q228 39 246 41T274 50T287 68T290 99V109Q290 129 287 141T274 160T246 169T197 172H184Q154 172 136 170T108 161T95 142T92 109V99Q92 80 95 69T107 51T135 42T184 39H197Z"  />
<glyph unicode="&#xE14E;" horiz-adv-x="387" d="M198 190Q226 190 244 192T273 200T288 218T292 248V259Q292 282 289 296T275 319T247 330T197 333H186Q156 333 138 331T110 321T97 301T93 267V257Q93 236 96 223T110 203T138 193T188 190H198ZM182 -3Q140 -3 113 1T71 17T49 49T43 101V112H95V101Q95 82 98 70T111 52T138 43T184 40H193Q226 40 245 43T275 58T289 91T292 150V180H291Q283 165 262 157T191 148H179Q137 148 110 152T67 169T45 201T39 254V268Q39 300 45 321T68 354T113 370T186 375H198Q245 375 274 370T318 350T339 309T345 242V159Q345 107 340 76T318 27T272 3T194 -3H182Z"  />
<glyph unicode="&#xE14F;" horiz-adv-x="391" d="M201 41Q232 41 251 45T280 64T294 103T298 170V202Q298 243 295 268T281 308T251 327T201 332H190Q159 332 140 327T111 308T97 269T93 202V170Q93 129 96 104T110 64T140 46T190 41H201ZM189 -3Q142 -3 113 4T68 31T46 85T40 172V202Q40 253 45 286T67 339T113 367T189 375H201Q249 375 278 367T324 340T345 287T351 202V172Q351 119 346 86T324 32T278 5T201 -3H189Z"  />
<glyph unicode="&#xE1FB;" horiz-adv-x="620" d="M334 -81H294V-6Q217 -6 171 1T99 29T67 86T59 182V213H136V189Q136 147 141 122T162 84T210 65T294 60V316Q223 322 179 332T110 362T76 413T67 491V507Q67 559 77 594T114 649T184 677T294 686V750H334V686Q403 685 446 676T512 646T544 590T553 499V477H477V496Q477 534 472 558T450 596T407 615T334 622V382Q407 375 453 364T525 333T560 281T569 201V185Q569 127 559 90T523 32T451 3T334 -6V-81ZM334 60Q384 60 415 64T463 82T486 118T492 181V198Q492 228 487 248T465 280T417 299T334 310V60ZM144 491Q144 464 148 446T169 416T214 398T294 387V622Q247 622 218 617T173 599T150 564T144 506V491Z"  />
<glyph unicode="&#xE1FC;" horiz-adv-x="620" d="M587 169Q587 120 578 87T544 33T474 3T358 -6H345Q265 -6 216 4T138 44T100 128T89 269H24V308H89V385H24V424H89Q90 506 101 557T141 637T218 676T344 686H360Q429 686 472 678T539 649T571 597T580 516V502H502V517Q502 546 497 566T476 598T433 615T360 621H346Q292 621 259 616T207 590T181 531T172 424H455V385H172V308H455V269H172Q173 198 180 157T205 94T257 67T346 61H359Q407 61 436 66T482 85T503 119T509 172V187H587V169Z"  />
<glyph unicode="&#xE1FD;" horiz-adv-x="620" d="M570 0H58V67Q80 74 94 85T117 121T129 185T134 291H52V350H134V379Q134 479 142 539T172 632T236 675T343 686H361Q419 686 457 679T517 653T547 598T556 507V492H481V506Q481 542 477 565T459 601T422 618T360 623H346Q301 623 274 617T233 586T215 514T210 386V350H435V291H209Q208 228 203 189T189 125T167 89T134 68V65H570V0Z"  />
<glyph unicode="&#xE1FE;" horiz-adv-x="620" d="M353 0H270V211H74V255H270V263L213 367H74V411H189L39 680H127L313 316H314L500 680H585L434 411H550V367H410L353 263V255H550V211H353V0Z"  />
<glyph unicode="&#xE300;" horiz-adv-x="382" d="M252 741L75 820L105 874L270 772L252 741Z"  />
<glyph unicode="&#xE301;" horiz-adv-x="382" d="M308 821L131 742L112 773L277 875L308 821Z"  />
<glyph unicode="&#xE302;" horiz-adv-x="382" d="M296 746L192 819L89 746L61 776L192 882L324 776L296 746Z"  />
<glyph unicode="&#xE303;" horiz-adv-x="382" d="M192 732L61 837L89 867L192 794L296 867L324 837L192 732Z"  />
<glyph unicode="&#xE304;" horiz-adv-x="382" d="M319 850Q315 805 298 782T247 759Q229 759 215 766T186 784Q172 794 161 799T139 804Q125 804 115 795T100 758L66 766Q69 809 87 832T137 855Q154 855 168 849T196 833Q211 822 223 817T246 811Q263 811 272 821T284 857L319 850Z"  />
<glyph unicode="&#xE305;" horiz-adv-x="382" d="M144 759H75V847H144V759ZM309 759H240V847H309V759Z"  />
<glyph unicode="&#xE306;" horiz-adv-x="382" d="M304 778H84V830H304V778Z"  />
<glyph unicode="&#xE307;" horiz-adv-x="382" d="M320 857Q318 795 285 768T194 740Q135 740 102 767T67 857H111Q116 817 137 804T194 790Q230 790 251 803T277 857H320Z"  />
<glyph unicode="&#xE308;" horiz-adv-x="382" d="M191 726Q135 726 114 743T92 801V807Q92 848 113 865T191 882H197Q253 882 274 865T296 807V801Q296 760 275 743T197 726H191ZM197 757Q232 757 245 766T258 802V808Q258 834 245 843T197 852H191Q156 852 143 843T130 808V802Q130 776 143 767T191 757H197Z"  />
<glyph unicode="&#xE309;" horiz-adv-x="382" d="M92 730L69 758L192 884L228 844L92 730ZM230 729L207 757L331 883L367 844L230 729Z"  />
<glyph unicode="&#xE30A;" horiz-adv-x="382" d="M229 759H152V847H229V759Z"  />
<glyph unicode="&#xE30B;" horiz-adv-x="382" d="M229 607Q229 549 213 527T158 500V535Q173 539 178 550T184 598V605H162V680H229V607Z"  />
<glyph unicode="&#xE30C;" horiz-adv-x="382" d="M221 -125Q221 -151 218 -169T205 -198T180 -216T139 -223V-191Q162 -188 169 -177T176 -130V-124H154V-49H221V-125Z"  />
<glyph unicode="&#xE30D;" horiz-adv-x="385" d="M221 546H154V622Q154 648 157 666T170 695T195 712T236 720V688Q213 685 206 674T199 627V621H221V546Z"  />
<glyph unicode="&#xE320;" horiz-adv-x="382" d="M248 585L90 696L128 745L271 614L248 585Z"  />
<glyph unicode="&#xE321;" horiz-adv-x="382" d="M139 586L116 615L259 746L298 697L139 586Z"  />
<glyph unicode="&#xE322;" horiz-adv-x="382" d="M292 597L192 681L93 597L64 627L192 744L321 627L292 597Z"  />
<glyph unicode="&#xE323;" horiz-adv-x="382" d="M193 585L64 702L92 731L193 648L293 730L321 702L193 585Z"  />
<glyph unicode="&#xE324;" horiz-adv-x="382" d="M319 705Q315 660 298 637T247 614Q229 614 215 621T186 639Q172 649 161 654T139 659Q125 659 115 650T100 613L66 621Q69 664 87 687T137 710Q154 710 168 704T196 688Q211 677 223 672T246 666Q263 666 272 676T284 712L319 705Z"  />
<glyph unicode="&#xE325;" horiz-adv-x="382" d="M144 623H75V711H144V623ZM307 623H238V711H307V623Z"  />
<glyph unicode="&#xE326;" horiz-adv-x="382" d="M305 641H85V693H305V641Z"  />
<glyph unicode="&#xE327;" horiz-adv-x="382" d="M322 717Q320 655 287 628T196 600Q137 600 104 627T69 717H113Q118 677 139 664T196 650Q232 650 253 663T279 717H322Z"  />
<glyph unicode="&#xE328;" horiz-adv-x="382" d="M191 589Q135 589 114 606T92 664V670Q92 711 113 728T191 745H197Q253 745 274 728T296 670V664Q296 623 275 606T197 589H191ZM197 620Q232 620 245 629T258 665V671Q258 697 245 706T197 715H191Q156 715 143 706T130 671V665Q130 639 143 630T191 620H197Z"  />
<glyph unicode="&#xE329;" horiz-adv-x="382" d="M225 713L96 590L71 617L186 750L225 713ZM361 712L230 589L205 616L322 749L361 712Z"  />
<glyph unicode="&#xE32A;" horiz-adv-x="382" d="M229 623H152V711H229V623Z"  />
<glyph unicode="&#xE33C;" horiz-adv-x="620" d="M334 -38H294V82Q239 82 201 93T140 130T107 199T96 310V347Q96 414 106 458T139 527T200 563T294 574V680H334V574Q387 574 423 566T481 540T512 491T522 417V401H453V413Q453 440 448 459T429 490T392 508T334 514V144Q371 144 394 149T431 167T450 200T455 249V261H524V244Q524 200 515 169T483 119T424 91T334 82V-38ZM170 309Q170 259 176 227T197 177T235 152T294 144V514Q258 514 235 507T197 481T176 430T170 348V309Z"  />
<glyph unicode="&#xF8FF;" horiz-adv-x="485" d="M210 111V174H263V111H210ZM211 222V238Q211 263 213 281T222 313T240 341T268 369Q298 399 306 415T314 449Q314 483 293 506T242 529Q213 529 192 509T165 439L117 447Q124 516 159 546T245 577Q297 577 330 544T363 453Q363 422 351 398T303 340Q286 325 277 315T264 294T258 271T257 239V222H211ZM438 47V632H47V47H438ZM485 680V0H0V680H485Z"  />
<glyph unicode="&#xFB01;" horiz-adv-x="471" d="M158 0H81V423H20V480H81V524Q81 571 88 602T112 651T156 677T223 685Q240 685 257 684T291 681V624Q267 627 241 627Q216 627 200 623T175 608T162 575T158 520V480H270V423H158V0ZM406 0H329V480H406V0ZM406 592H329V680H406V592Z"  />
<glyph unicode="&#xFB02;" horiz-adv-x="471" d="M158 0H81V423H20V480H81V524Q81 571 88 602T112 651T156 677T223 685Q240 685 257 684T291 681V624Q267 627 241 627Q216 627 200 623T175 608T162 575T158 520V480H270V423H158V0ZM406 0H329V680H406V0Z"  />


</font>
</defs>
</svg>
