<?xml  version="1.0" encoding="UTF-8"?>
<!DOCTYPE svg PUBLIC "-//W3C//DTD SVG 1.0//EN" "http://www.w3.org/TR/2001/REC-SVG-20010904/DTD/svg10.dtd" >
<svg xmlns="http://www.w3.org/2000/svg" >
<metadata>
<version>1.0</version>
<id><![CDATA[Eurostile Next W02 Light Cn]]></id>
<vendor>Monotype Imaging Inc.</vendor>
<credits>
<name>Fonts.com WebFonts</name>
<URL>http://webfonts.fonts.com</URL>
<role>Home of the Web fonts</role>
</credits>
<license>
<URL>http://webfonts.fonts.com/Legal</URL>
</license>
<copyright><![CDATA[Copyright © 2007 Linotype GmbH, www.linotype.com. All rights reserved. This font software may not be reproduced, modified, disclosed or transferred without the express written approval of Linotype GmbH. Eurostile is a trademark of Linotype GmbH and may be registered in certain jurisdictions. This typeface is original artwork of Linotype Design Studio. The design may be protected in certain jurisdictions.]]></copyright>
<trademark><![CDATA[Eurostile is a trademark of Linotype GmbH and may be registered in certain jurisdictions.]]></trademark>
<licensee>
<name></name>
</licensee>
</metadata>
<defs >
<font horiz-adv-x="343" id="7f5c17f4-0386-4b5a-84e4-661c629bdd0d">
<font-face font-family="" panose-1="2 11 3 6 2 2 2 5 2 4" ascent="872" descent="-204" units-per-em="1000" alphabetic="0">
</font-face>
<missing-glyph horiz-adv-x="485" d="M210 111V174H263V111H210ZM211 222V238Q211 263 213 281T222 313T240 341T268 369Q298 399 306 415T314 449Q314 483 293 506T242 529Q213 529 192 509T165 439L117 447Q124 516 159 546T245 577Q297 577 330 544T363 453Q363 422 351 398T303 340Q286 325 277 315T264 294T258 271T257 239V222H211ZM438 47V632H47V47H438ZM485 680V0H0V680H485Z"  />

<glyph unicode="&#xA;" />
<glyph unicode="&#xD;" horiz-adv-x="0" />
<glyph unicode=" " horiz-adv-x="180" />
<glyph unicode="!" horiz-adv-x="190" d="M115 161H75L73 680H117L115 161ZM119 0H71V81H119V0Z"  />
<glyph unicode="&quot;" horiz-adv-x="282" d="M95 472H59V708H95V472ZM223 472H187V708H223V472Z"  />
<glyph unicode="#" horiz-adv-x="489" d="M287 0H251L284 220H165L131 0H95L128 220H35V253H133L166 468H69V501H171L199 680H235L207 501H327L355 680H391L363 501H467V468H359L326 253H433V220H321L287 0ZM289 253L322 468H203L170 253H289Z"  />
<glyph unicode="$" horiz-adv-x="440" d="M238 -81H212V-4Q166 -3 138 5T94 33T73 89T67 181V215H112V184Q112 138 115 109T129 64T160 41T212 35V330Q170 339 143 351T100 382T77 427T70 490V508Q70 558 77 592T100 646T144 675T212 684V750H238V684Q280 683 306 674T348 644T368 588T374 500V479H329V498Q329 542 326 570T313 614T285 637T238 645V369Q281 360 309 349T354 318T378 271T385 201V185Q385 128 379 92T357 34T312 5T238 -4V-81ZM238 35Q271 35 291 40T322 61T336 105T340 182V199Q340 229 336 249T320 284T289 307T238 324V35ZM115 491Q115 466 119 448T133 416T163 393T212 375V645Q183 645 165 639T135 618T120 576T115 508V491Z"  />
<glyph unicode="%" horiz-adv-x="545" d="M135 386Q112 386 97 391T73 412T60 453T56 522V545Q56 587 60 613T73 655T97 675T135 681H142Q165 681 180 676T204 655T217 614T221 545V522Q221 480 217 454T204 412T180 392T142 386H135ZM141 414Q155 414 164 417T178 430T186 462T189 520V546Q189 582 187 603T179 636T164 650T141 653H135Q121 653 112 650T98 636T91 604T88 546V520Q88 484 90 463T98 431T112 417T135 414H141ZM191 0H158L349 680H381L191 0ZM403 -1Q380 -1 365 4T341 25T328 66T324 135V158Q324 200 328 226T341 268T365 288T403 294H410Q433 294 448 289T472 268T485 227T489 158V135Q489 93 485 67T472 25T448 5T410 -1H403ZM409 27Q423 27 432 30T446 43T454 75T457 133V159Q457 195 455 216T447 249T432 263T409 266H403Q389 266 380 263T366 249T359 217T356 159V133Q356 97 358 76T366 44T380 30T403 27H409Z"  />
<glyph unicode="&amp;" horiz-adv-x="480" d="M452 22L422 -1L376 62Q371 45 362 33T336 12T294 0T233 -4H217Q166 -4 134 4T84 36T60 99T54 205V220Q54 267 57 300T69 356T91 390T129 405Q120 417 114 429T102 456T95 489T92 533V550Q92 588 99 614T121 655T159 677T217 684H233Q273 684 298 677T338 652T357 604T362 526V484H322V528Q322 565 319 588T306 624T279 641T234 646H218Q193 646 177 642T152 626T140 596T136 546V532Q136 512 137 497T144 467T160 435T188 393L352 161Q353 178 353 199T353 238V325H393V227Q393 204 392 171T388 111L452 22ZM237 35Q292 35 316 48T346 103L151 374Q136 373 126 367T109 343T101 297T98 222V207Q98 151 102 117T120 65T158 41T222 35H237Z"  />
<glyph unicode="&apos;" horiz-adv-x="154" d="M95 472H59V708H95V472Z"  />
<glyph unicode="(" horiz-adv-x="219" d="M181 -8H170Q135 -8 113 0T77 43T58 144T52 330V350Q52 468 57 535T76 637T112 679T170 688H181V651H170Q148 651 134 644T110 607T98 516T94 346V334Q94 226 97 165T110 73T133 36T170 29H181V-8Z"  />
<glyph unicode=")" horiz-adv-x="219" d="M38 -8V29H49Q71 29 86 36T109 73T121 164T125 334V346Q125 454 122 515T110 607T86 644T49 651H38V688H50Q85 688 107 680T143 637T162 536T167 350V330Q167 212 162 145T144 43T108 1T50 -8H38Z"  />
<glyph unicode="*" horiz-adv-x="353" d="M194 690L190 564H165L161 690H194ZM315 582L220 532L207 553L298 611L315 582ZM298 433L207 491L220 512L315 462L298 433ZM161 354L165 480H190L194 354H161ZM40 462L135 512L148 491L57 433L40 462ZM57 611L148 553L135 532L40 582L57 611Z"  />
<glyph unicode="+" horiz-adv-x="411" d="M226 126H185V287H46V324H185V482H226V324H365V287H226V126Z"  />
<glyph unicode="&#x2c;" horiz-adv-x="144" d="M96 -31Q96 -78 81 -94T33 -110V-84Q53 -84 59 -74T66 -33V0H48V81H96V-31Z"  />
<glyph unicode="-" horiz-adv-x="280" d="M230 231H50V273H230V231Z"  />
<glyph unicode="." horiz-adv-x="144" d="M96 0H48V81H96V0Z"  />
<glyph unicode="/" horiz-adv-x="310" d="M70 -8H32L240 688H278L70 -8Z"  />
<glyph unicode="0" horiz-adv-x="423" d="M205 -4Q156 -4 127 5T81 46T59 141T53 311V371Q53 477 58 539T80 634T126 675T206 684H218Q267 684 296 675T342 634T364 540T370 371V311Q370 204 365 141T343 46T297 5T217 -4H205ZM217 36Q253 36 274 42T307 75T321 156T325 306V374Q325 470 322 524T307 605T275 638T217 644H206Q170 644 149 638T116 605T102 524T98 374V306Q98 210 101 156T116 75T148 42T206 36H217Z"  />
<glyph unicode="1" horiz-adv-x="295" d="M191 0H145V622H143L46 431L9 451L128 680H191V0Z"  />
<glyph unicode="2" horiz-adv-x="414" d="M363 0H63V80Q63 144 68 184T87 250T129 291T200 319Q239 331 262 342T298 372T314 416T318 484V507Q318 552 315 579T302 620T271 640T217 645H207Q175 645 155 640T125 617T111 568T107 480V456H63V478Q63 540 68 580T88 643T131 675T207 684H217Q264 684 293 676T337 648T358 592T364 504V487Q364 437 359 404T337 348T290 309T210 278Q176 268 156 257T126 225T112 172T109 83V39H363V0Z"  />
<glyph unicode="3" horiz-adv-x="418" d="M368 173Q368 120 361 86T337 31T290 4T213 -4H202Q155 -4 127 4T83 36T62 98T57 199V223H100V197Q100 144 104 112T119 63T150 41T203 36H213Q247 36 268 40T302 60T318 102T322 174V195Q322 236 318 262T305 303T280 323T244 329H164V369H230Q257 369 273 372T298 388T310 423T313 485V506Q313 550 310 577T296 619T265 639T211 644H201Q169 644 150 639T120 617T106 568T102 483V457H59V482Q59 543 63 582T82 643T125 675T200 684H212Q259 684 288 677T332 649T353 594T359 505V488Q359 449 356 425T347 386T330 364T307 350V348Q323 343 334 334T353 306T364 261T368 193V173Z"  />
<glyph unicode="4" horiz-adv-x="426" d="M329 0H284V165H41V212L258 680H329V203H383V165H329V0ZM284 203V642H283L83 205V203H284Z"  />
<glyph unicode="5" horiz-adv-x="415" d="M203 -4Q156 -4 128 4T85 33T64 92T59 189V206H101V190Q101 139 105 109T120 62T151 41T204 36H215Q249 36 269 41T301 65T316 116T320 204V226Q320 287 317 322T302 376T271 400T217 405H207Q160 405 140 394T109 350H65V680H355V641H109V398H110Q121 423 145 434T217 445H229Q271 445 297 438T339 408T360 344T366 235V204Q366 139 360 99T337 35T291 4T215 -4H203Z"  />
<glyph unicode="6" horiz-adv-x="413" d="M200 -4Q153 -4 124 5T80 38T59 102T53 204V366Q53 474 58 537T80 632T126 674T204 684H216Q261 684 288 677T331 649T351 593T356 504V480H314V503Q314 548 311 575T297 618T267 639T216 644H205Q171 644 150 638T118 607T102 533T98 397V325H99Q112 361 139 376T210 391H222Q263 391 290 385T335 358T359 300T367 203V179Q367 124 360 89T336 33T289 4T213 -4H200ZM212 36Q246 36 267 41T301 61T317 104T322 180V197Q322 246 318 276T302 322T269 345T212 351H202Q176 351 157 346T124 326T105 287T98 222V201Q98 146 102 114T117 64T149 41T202 36H212Z"  />
<glyph unicode="7" horiz-adv-x="381" d="M142 0H95L299 639V641H38V680H345V644L142 0Z"  />
<glyph unicode="8" horiz-adv-x="422" d="M219 376Q250 376 269 380T299 397T314 436T318 503V520Q318 560 314 584T298 622T268 639T220 644H202Q173 644 154 640T124 622T109 585T104 520V503Q104 461 108 436T122 398T152 380T204 376H219ZM219 36Q252 36 273 40T305 60T320 102T324 174V191Q324 237 320 266T305 310T273 331T219 337H204Q171 337 150 332T118 311T103 266T99 191V174Q99 129 103 102T118 60T150 41T204 36H219ZM203 -4Q158 -4 129 3T83 29T60 82T53 169V183Q53 236 58 268T73 319T97 345T130 356V357Q112 360 99 367T77 390T64 435T59 507V523Q59 574 67 606T92 655T136 678T201 684H221Q260 684 287 678T331 655T355 606T363 523V507Q363 463 359 435T346 391T324 367T292 357V356Q310 353 324 346T348 319T363 268T369 183V169Q369 116 363 82T339 29T294 3T220 -4H203Z"  />
<glyph unicode="9" horiz-adv-x="413" d="M194 -4Q149 -4 122 3T79 31T59 87T53 176V200H96V177Q96 132 99 105T113 62T143 41T195 36H205Q240 36 261 42T295 73T311 147T315 283V355H314Q301 319 274 305T203 290H191Q150 290 123 296T78 323T54 380T47 478V501Q47 556 53 591T77 647T124 676T200 684H213Q260 684 289 675T333 642T354 578T360 476V314Q360 208 355 145T333 49T286 6T206 -4H194ZM211 330Q237 330 256 335T289 354T308 394T315 458V479Q315 534 311 566T296 616T264 638T211 644H201Q167 644 146 639T112 619T96 576T92 501V483Q92 435 96 405T111 359T144 336T201 330H211Z"  />
<glyph unicode=":" horiz-adv-x="156" d="M102 399H54V480H102V399ZM102 0H54V81H102V0Z"  />
<glyph unicode=";" horiz-adv-x="156" d="M102 399H54V480H102V399ZM102 -31Q102 -78 87 -94T39 -110V-84Q59 -84 65 -74T72 -33V0H54V81H102V-31Z"  />
<glyph unicode="&lt;" horiz-adv-x="411" d="M365 129L46 283V327L365 481V439L84 305V304L365 171V129Z"  />
<glyph unicode="=" horiz-adv-x="411" d="M365 373H46V410H365V373ZM365 200H46V237H365V200Z"  />
<glyph unicode="&gt;" horiz-adv-x="411" d="M365 283L46 129V171L327 304V305L46 439V481L365 327V283Z"  />
<glyph unicode="?" horiz-adv-x="358" d="M182 199H141V222Q141 246 144 262T155 291T175 313T203 331Q225 342 238 353T259 380T269 422T272 489V504Q272 548 269 576T256 619T229 640T183 646H170Q140 646 123 641T96 618T85 570T82 489V459H42V493Q42 551 46 588T65 647T104 676T171 684H184Q226 684 252 675T291 645T309 591T314 508V491Q314 447 311 416T298 364T272 327T228 300Q202 288 192 271T182 217V199ZM185 0H137V81H185V0Z"  />
<glyph unicode="@" horiz-adv-x="656" d="M338 99Q358 99 371 104T393 127T404 177T408 266V281Q408 370 393 407T337 445H321Q297 445 283 441T261 420T251 370T248 281V266Q248 209 250 176T261 126T284 104T323 99H338ZM575 7Q575 -25 565 -47T531 -82T464 -102T357 -108H323Q270 -108 230 -105T161 -90T114 -56T84 3T68 94T63 224V296Q63 408 74 474T113 574T188 619T309 630H342Q422 630 471 620T547 576T583 477T593 300V250Q593 190 589 155T573 101T543 77T492 71Q454 71 437 83T412 128H410Q405 99 389 81T330 63H313Q281 63 261 69T230 96T215 156T210 262V283Q210 349 214 388T230 447T262 474T312 481H329Q368 481 384 465T408 411H409V473H444V179Q444 154 447 139T457 117T473 107T493 104Q515 104 528 107T548 124T556 166T558 247V296Q558 401 551 461T520 551T455 590T342 598H309Q242 598 201 589T137 548T106 453T98 286V234Q98 127 106 66T138 -27T206 -67T323 -76H356Q413 -76 449 -73T506 -60T534 -35T542 8V17H575V7Z"  />
<glyph unicode="A" horiz-adv-x="399" d="M387 0H340L304 162H93L58 0H12L162 680H236L387 0ZM298 202L201 642H197L100 202H298Z"  />
<glyph unicode="B" horiz-adv-x="427" d="M64 0V680H201Q252 680 285 674T338 650T366 599T374 510Q374 472 371 446T360 401T338 372T302 355V354Q326 348 342 337T369 307T384 257T389 182Q389 126 381 91T353 35T300 8T218 0H64ZM210 41Q251 41 277 46T317 66T337 110T342 186Q342 230 337 259T320 304T289 327T240 334H111V41H210ZM237 373Q264 373 281 377T308 396T323 437T327 507Q327 550 322 576T303 616T263 634T195 639H111V373H237Z"  />
<glyph unicode="C" horiz-adv-x="416" d="M215 -4Q161 -4 129 5T78 46T55 141T49 311V371Q49 473 54 534T77 629T128 673T215 684H225Q269 684 298 676T343 647T366 592T373 506V487H328V505Q328 546 324 572T308 615T277 637T226 643H216Q177 643 154 637T118 603T101 522T96 374V308Q96 211 100 157T116 76T153 43T216 37H226Q256 37 276 41T308 61T325 104T330 179V194H375V178Q375 123 369 88T345 32T299 4T225 -4H215Z"  />
<glyph unicode="D" horiz-adv-x="463" d="M410 310Q410 212 402 151T374 57T317 12T223 0H64V680H223Q278 680 314 669T372 625T401 531T410 371V310ZM223 41Q266 41 293 48T336 83T357 163T363 307V374Q363 461 357 513T335 593T292 630T223 639H111V41H223Z"  />
<glyph unicode="E" horiz-adv-x="351" d="M327 0H64V680H325V639H111V374H311V334H111V41H327V0Z"  />
<glyph unicode="F" horiz-adv-x="336" d="M111 0H64V680H324V639H111V359H309V319H111V0Z"  />
<glyph unicode="G" horiz-adv-x="423" d="M211 -4Q158 -4 126 6T77 48T55 143T49 310V371Q49 474 55 535T78 630T129 673T216 684H226Q271 684 300 675T345 645T367 590T373 507V493H328V509Q328 548 324 574T308 615T277 637T226 643H216Q177 643 154 636T117 602T100 522T96 374V307Q96 214 100 160T116 79T150 45T211 37H221Q255 37 276 42T310 65T326 114T330 200V283H208V323H376V208Q376 143 370 102T346 37T299 5T221 -4H211Z"  />
<glyph unicode="H" horiz-adv-x="461" d="M397 0H350V335H111V0H64V680H111V376H350V680H397V0Z"  />
<glyph unicode="I" horiz-adv-x="175" d="M111 0H64V680H111V0Z"  />
<glyph unicode="J" horiz-adv-x="357" d="M152 -4Q113 -4 88 3T49 32T29 93T24 198V216H69V199Q69 145 72 113T85 64T111 42T154 37H163Q191 37 208 43T234 66T247 115T250 199V680H297V204Q297 141 292 101T271 37T230 5T163 -4H152Z"  />
<glyph unicode="K" horiz-adv-x="407" d="M401 0H347L154 328H111V0H64V680H111V365H153L341 680H392L194 349L401 0Z"  />
<glyph unicode="L" horiz-adv-x="323" d="M311 0H64V680H111V41H311V0Z"  />
<glyph unicode="M" horiz-adv-x="598" d="M534 0H488V641H487L330 0H267L112 641H110V0H64V680H147L298 47H300L453 680H534V0Z"  />
<glyph unicode="N" horiz-adv-x="479" d="M415 0H335L113 635H110V0H64V680H144L366 46H369V680H415V0Z"  />
<glyph unicode="O" horiz-adv-x="443" d="M216 -4Q163 -4 131 6T80 50T56 144T49 309V371Q49 474 55 535T80 630T130 673T216 684H227Q279 684 312 674T363 630T387 536T394 371V309Q394 206 388 145T363 50T312 7T227 -4H216ZM227 37Q265 37 288 43T325 77T342 157T347 306V374Q347 468 343 522T325 603T289 636T227 643H216Q178 643 155 637T118 603T101 522T96 374V306Q96 211 100 158T118 77T154 44T216 37H227Z"  />
<glyph unicode="P" horiz-adv-x="407" d="M192 320Q235 320 261 325T302 347T321 391T326 466V494Q326 541 321 569T302 613T261 634T191 639H111V320H192ZM111 0H64V680H195Q250 680 284 673T338 646T365 589T373 493V468Q373 411 365 374T336 316T281 287T197 279H111V0Z"  />
<glyph unicode="Q" horiz-adv-x="442" d="M49 371Q49 474 55 535T80 630T130 673T216 684H227Q279 684 312 674T363 630T387 536T394 371V309Q394 215 389 157T370 64L411 13L380 -14L348 29Q328 9 299 3T227 -4H216Q163 -4 131 6T80 50T56 144T49 309V371ZM210 206L242 232L337 106Q343 136 345 184T347 306V374Q347 468 343 522T325 603T289 636T227 643H216Q178 643 155 637T118 603T101 522T96 374V306Q96 211 100 158T118 77T154 44T216 37H227Q262 37 284 41T320 65L210 206Z"  />
<glyph unicode="R" horiz-adv-x="427" d="M241 330Q263 330 278 335T304 355T318 395T323 459V491Q323 541 318 570T298 615T256 634T183 639H111V330H241ZM369 0H322V97Q322 164 319 202T306 260T274 284T216 289H111V0H64V680H193Q248 680 283 673T337 646T363 590T370 493V467Q370 427 366 400T354 356T332 329T300 314V312Q321 307 334 297T355 266T366 212T369 127V0Z"  />
<glyph unicode="S" horiz-adv-x="412" d="M366 185Q366 128 360 91T338 33T292 4T216 -4H203Q154 -4 124 3T78 31T56 87T50 181V215H95V184Q95 136 98 108T113 63T146 42T203 37H214Q248 37 269 41T301 61T315 105T319 182V199Q319 232 314 253T296 289T258 313T194 330Q152 339 125 351T81 382T59 427T52 490V508Q52 559 59 593T82 647T126 675T196 684H209Q255 684 283 676T328 646T349 590T355 500V479H310V498Q310 544 307 572T292 616T262 637T210 643H199Q169 643 150 638T119 618T103 577T99 508V491Q99 464 103 445T120 413T156 390T219 371Q262 362 290 350T335 319T359 272T366 201V185Z"  />
<glyph unicode="T" horiz-adv-x="350" d="M199 0H152V639H12V680H338V639H199V0Z"  />
<glyph unicode="U" horiz-adv-x="451" d="M221 -4Q173 -4 142 4T93 36T67 101T60 210V680H107V207Q107 151 112 118T130 66T165 43T221 37H231Q265 37 287 42T321 65T339 116T344 207V680H391V210Q391 143 384 102T359 37T310 5T231 -4H221Z"  />
<glyph unicode="V" horiz-adv-x="379" d="M226 0H153L9 680H57L189 42H192L324 680H370L226 0Z"  />
<glyph unicode="W" horiz-adv-x="637" d="M502 0H430L320 639H318L207 0H135L14 680H60L172 39H174L284 680H354L465 39H468L578 680H623L502 0Z"  />
<glyph unicode="X" horiz-adv-x="389" d="M377 0H327L194 333L62 0H12L158 358L26 680H75L195 382L314 680H363L230 358L377 0Z"  />
<glyph unicode="Y" horiz-adv-x="368" d="M207 0H160V233L6 680H53L184 284H185L317 680H362L207 233V0Z"  />
<glyph unicode="Z" horiz-adv-x="366" d="M339 0H30V40L287 640V641H42V680H337V641L81 41V40H339V0Z"  />
<glyph unicode="[" horiz-adv-x="218" d="M180 -8H67V688H180V648H110V32H180V-8Z"  />
<glyph unicode="\" horiz-adv-x="375" d="M278 -8H240L32 688H70L278 -8Z"  />
<glyph unicode="]" horiz-adv-x="218" d="M151 -8H38V32H109V648H38V688H151V-8Z"  />
<glyph unicode="^" horiz-adv-x="411" d="M350 302H313L206 634H205L98 302H61L187 680H224L350 302Z"  />
<glyph unicode="_" horiz-adv-x="232" d="M232 -117H0V-89H232V-117Z"  />
<glyph unicode="`" horiz-adv-x="269" d="M191 562L70 677L96 705L208 580L191 562Z"  />
<glyph unicode="a" horiz-adv-x="345" d="M291 0H249V53H248Q232 -4 160 -4H155Q123 -4 102 1T69 22T51 64T45 137V149Q45 192 51 219T70 261T103 282T151 288H155Q198 288 218 278T248 245H249V263Q249 327 247 364T236 419T213 442T174 447H168Q145 447 131 444T109 430T99 401T96 352V340H55V351Q55 391 60 417T78 458T113 478T169 484H176Q214 484 236 476T271 445T287 380T291 267V0ZM170 34Q188 34 202 37T227 52T243 84T249 137V147Q249 181 245 202T232 234T206 249T165 253H161Q139 253 125 249T103 234T91 202T88 148V139Q88 105 91 85T103 53T127 38T166 34H170Z"  />
<glyph unicode="b" horiz-adv-x="366" d="M198 -4Q163 -4 140 11T105 62H104V0H61V680H105V422H106Q116 453 138 468T198 484H207Q242 484 264 476T298 444T315 374T320 253V228Q320 153 316 108T299 38T264 5T206 -4H198ZM194 35Q221 35 237 40T261 65T273 122T276 223V257Q276 321 273 358T262 415T237 440T194 446H186Q165 446 150 440T124 416T109 368T104 290V190Q104 104 122 70T186 35H194Z"  />
<glyph unicode="c" horiz-adv-x="334" d="M169 -4Q131 -4 107 4T69 36T50 105T45 223V257Q45 332 50 376T70 445T108 476T170 484H178Q213 484 235 478T270 454T288 406T293 329V319H252V329Q252 365 250 387T239 423T217 441T179 446H171Q145 446 130 441T105 417T93 360T90 257V223Q90 159 93 122T105 65T129 41T171 35H179Q201 35 215 39T238 57T250 93T253 154V167H294V155Q294 108 288 77T269 28T233 3T177 -4H169Z"  />
<glyph unicode="d" horiz-adv-x="366" d="M305 0H262V62H261Q240 -4 168 -4H160Q124 -4 102 4T68 38T51 108T46 228V253Q46 327 50 372T68 442T102 475T159 484H168Q206 484 228 468T260 422H261V680H305V0ZM179 35Q201 35 216 41T242 65T257 112T262 190V290Q262 376 244 411T179 446H172Q148 446 132 441T107 416T94 359T90 257V223Q90 160 93 123T104 66T129 41T172 35H179Z"  />
<glyph unicode="e" horiz-adv-x="339" d="M168 -4Q130 -4 107 4T69 37T50 106T45 223V252Q45 325 50 370T70 441T108 475T168 484H176Q212 484 234 477T270 448T288 389T293 290V240H89V223Q89 159 92 122T104 65T128 40T170 34H179Q201 34 216 38T239 56T250 92T254 153V163H295V153Q295 106 289 76T269 28T233 3T179 -4H168ZM251 275V295Q251 346 248 376T237 422T214 442T176 447H169Q145 447 130 442T105 419T93 367T89 275H251Z"  />
<glyph unicode="f" horiz-adv-x="187" d="M109 0H65V444H20V480H65V523Q65 571 69 602T85 651T116 676T164 684Q172 684 182 684T199 681V646Q194 647 188 647T172 648Q153 648 141 644T122 626T112 587T109 522V480H194V444H109V0Z"  />
<glyph unicode="g" horiz-adv-x="363" d="M168 -174Q132 -174 110 -168T74 -145T57 -101T52 -32V-21H93V-31Q93 -63 96 -83T107 -115T129 -131T168 -135H176Q204 -135 221 -131T246 -112T256 -68T259 10V78H258Q246 49 225 34T159 18H151Q119 18 99 26T66 58T49 123T44 231V253Q44 326 49 371T67 442T100 475T152 484H161Q206 484 226 469T258 421H259V480H303V13Q303 -47 298 -83T279 -140T240 -167T176 -174H168ZM172 56Q198 56 215 63T242 89T256 141T260 227V257Q260 316 256 353T241 410T215 438T173 446H165Q144 446 130 440T106 415T92 358T88 257V227Q88 172 91 139T104 87T127 62T164 56H172Z"  />
<glyph unicode="h" horiz-adv-x="375" d="M318 0H274V300Q274 348 271 377T260 421T236 441T197 446H191Q168 446 152 441T126 419T110 375T105 300V0H61V680H105V419H106Q114 448 135 466T203 484H209Q241 484 262 477T295 452T313 402T318 319V0Z"  />
<glyph unicode="i" horiz-adv-x="166" d="M105 0H61V480H105V0ZM105 606H61V680H105V606Z"  />
<glyph unicode="j" horiz-adv-x="166" d="M105 -64Q105 -98 102 -119T90 -153T68 -169T37 -174Q29 -174 19 -172V-134Q23 -135 29 -135Q39 -135 45 -133T55 -122T60 -99T61 -58V480H105V-64ZM105 606H61V680H105V606Z"  />
<glyph unicode="k" horiz-adv-x="312" d="M308 0H258L120 243H105V0H61V680H105V271H121L250 480H298L161 258L308 0Z"  />
<glyph unicode="l" horiz-adv-x="166" d="M105 0H61V680H105V0Z"  />
<glyph unicode="m" horiz-adv-x="581" d="M524 0H480V300Q480 349 477 378T465 422T442 441T404 446H398Q378 446 363 442T337 422T321 379T315 303V0H271V300Q271 348 268 377T256 421T232 441T194 446H188Q166 446 151 441T125 419T110 375T105 300V0H61V480H104V419H105Q122 484 201 484H207Q253 484 277 467T307 405H308Q317 444 340 464T409 484H415Q448 484 469 477T502 451T519 400T524 319V0Z"  />
<glyph unicode="n" horiz-adv-x="374" d="M317 0H273V300Q273 348 270 377T259 421T236 441T197 446H191Q168 446 152 441T126 419T110 375T105 300V0H61V480H104V419H105Q113 447 134 465T203 484H209Q241 484 262 477T295 451T312 400T317 319V0Z"  />
<glyph unicode="o" horiz-adv-x="352" d="M180 35Q206 35 222 40T248 65T260 121T263 223V257Q263 321 260 358T248 415T223 440T180 446H173Q146 446 130 441T104 416T92 359T89 257V223Q89 159 92 122T104 65T129 41T173 35H180ZM172 -4Q133 -4 109 4T70 37T51 106T45 223V257Q45 329 50 373T70 442T108 475T172 484H181Q220 484 244 476T283 443T302 374T307 257V223Q307 151 302 107T283 38T245 5T181 -4H172Z"  />
<glyph unicode="p" horiz-adv-x="366" d="M105 -170H61V480H104V420H105Q124 484 198 484H207Q243 484 265 476T299 443T315 373T320 253V228Q320 154 316 109T299 38T264 5T206 -4H198Q163 -4 140 10T106 59H105V-170ZM194 35Q221 35 237 40T261 65T273 122T276 223V257Q276 321 273 358T262 415T237 440T194 446H186Q165 446 150 440T124 416T109 368T104 290V190Q104 104 122 70T186 35H194Z"  />
<glyph unicode="q" horiz-adv-x="366" d="M305 -170H261V59H260Q239 -4 168 -4H160Q124 -4 102 4T68 38T51 108T46 228V253Q46 327 50 372T68 442T102 475T159 484H168Q206 484 228 468T261 420H262V480H305V-170ZM180 35Q201 35 216 41T242 65T257 112T262 190V290Q262 376 244 411T180 446H172Q148 446 132 441T107 416T94 359T90 257V223Q90 160 93 123T104 66T129 41T172 35H180Z"  />
<glyph unicode="r" horiz-adv-x="287" d="M105 0H61V480H104V414H105Q120 484 187 484H191Q214 484 229 478T253 455T265 414T269 350V312H228V340Q228 372 226 392T217 424T201 440T177 444H172Q157 444 145 439T124 416T110 366T105 279V0Z"  />
<glyph unicode="s" horiz-adv-x="329" d="M161 -4Q127 -4 105 1T69 22T51 63T46 132V145H86V136Q86 103 89 83T101 51T124 37T160 33H172Q194 33 208 36T230 50T241 80T244 129V138Q244 160 241 174T228 199T200 216T152 230Q124 236 105 244T74 265T57 297T52 345V357Q52 394 58 418T76 457T109 478T159 484H171Q202 484 223 479T256 460T273 419T278 352V340H238V350Q238 380 235 399T225 428T204 442T171 446H160Q140 446 128 443T108 430T98 403T95 358V345Q95 328 98 316T109 295T131 280T170 268Q204 260 226 251T262 228T281 194T287 143V130Q287 89 281 63T261 22T226 2T175 -4H161Z"  />
<glyph unicode="t" horiz-adv-x="211" d="M209 4Q198 0 184 -2T155 -4Q128 -4 110 2T82 25T67 71T62 148V444H14V480H62V605H106V480H209V444H106V148Q106 111 109 89T118 55T136 40T166 36Q173 36 187 37T209 41V4Z"  />
<glyph unicode="u" horiz-adv-x="371" d="M310 0H266V63H265Q257 34 236 15T167 -4H162Q130 -4 110 4T77 31T60 81T55 161V480H99V180Q99 132 102 104T115 60T138 39T174 34H180Q202 34 218 39T245 61T261 105T266 180V480H310V0Z"  />
<glyph unicode="v" horiz-adv-x="306" d="M187 0H120L12 480H57L154 32H155L251 480H294L187 0Z"  />
<glyph unicode="w" horiz-adv-x="490" d="M384 0H319L246 442H244L173 0H105L14 480H59L138 32H140L215 480H278L352 32H355L432 480H476L384 0Z"  />
<glyph unicode="x" horiz-adv-x="300" d="M288 0H241L149 218L58 0H12L119 244L18 480H64L150 269L237 480H282L180 244L288 0Z"  />
<glyph unicode="y" horiz-adv-x="303" d="M45 -135Q55 -136 61 -136T69 -136Q83 -136 93 -132T112 -114T130 -72T150 7H120L12 480H58L155 41H158L246 480H291L200 46Q185 -26 172 -69T145 -135T114 -166T71 -174Q63 -174 58 -174T45 -173V-135Z"  />
<glyph unicode="z" horiz-adv-x="266" d="M246 0H24V37L198 442V443H33V480H246V445L71 39V37H246V0Z"  />
<glyph unicode="{" horiz-adv-x="244" d="M206 -8H175Q153 -8 139 -4T115 13T102 49T98 111V229Q98 250 96 268T88 299T69 320T36 328V358Q57 358 69 365T87 386T96 418T98 457V569Q98 607 102 630T115 666T138 683T175 688H206V653H187Q172 653 163 650T149 638T141 611T139 563V460Q139 408 128 379T75 344V342Q117 336 128 307T139 226V117Q139 87 141 70T148 43T163 30T187 27H206V-8Z"  />
<glyph unicode="|" horiz-adv-x="245" d="M141 -70H104V750H141V-70Z"  />
<glyph unicode="}" horiz-adv-x="244" d="M38 -8V27H57Q72 27 81 30T95 42T103 69T105 117V226Q105 278 116 307T169 342V344Q127 350 116 379T105 460V563Q105 593 103 610T96 637T81 650T57 653H38V688H69Q91 688 105 684T129 667T142 631T146 569V457Q146 436 148 418T156 387T175 366T208 358V328Q187 328 175 321T157 300T148 268T146 229V111Q146 73 142 50T129 14T106 -3T69 -8H38Z"  />
<glyph unicode="~" horiz-adv-x="411" d="M360 338Q345 296 326 278T276 259Q255 259 237 268T201 288Q184 299 169 307T136 315Q115 315 103 302T80 259L51 272Q65 314 84 332T135 351Q155 351 172 343T207 323Q224 312 240 303T275 294Q296 294 308 307T331 351L360 338Z"  />
<glyph unicode="&#xA0;" horiz-adv-x="180" />
<glyph unicode="&#xA1;" horiz-adv-x="190" d="M119 399H71V480H119V399ZM117 -200H73L75 319H115L117 -200Z"  />
<glyph unicode="&#xA2;" horiz-adv-x="390" d="M213 -40H187V84Q149 84 124 92T85 125T66 193T60 311V343Q60 417 65 462T85 531T124 564T187 572V680H213V572Q247 572 270 566T306 544T326 500T332 425V407H292V423Q292 459 289 480T277 514T253 530T213 534V123Q238 123 254 127T279 144T291 180T294 242V255H334V242Q334 194 328 163T307 115T270 91T213 84V-40ZM103 310Q103 246 106 209T119 153T144 129T187 123V534Q161 534 145 529T119 504T107 447T103 345V310Z"  />
<glyph unicode="&#xA3;" horiz-adv-x="425" d="M367 0H56V44Q72 53 83 64T101 101T111 174T114 302H54V338H115V375Q115 474 120 534T139 628T177 672T240 684H255Q290 684 312 676T347 650T364 600T369 524V510H328V524Q328 560 325 583T314 620T292 639T254 645H243Q217 645 201 638T175 603T163 522T160 379V338H307V302H160Q160 222 156 176T144 103T124 65T95 43V41H367V0Z"  />
<glyph unicode="&#xA4;" horiz-adv-x="446" d="M371 167L307 230Q291 218 270 211T225 204Q176 204 140 232L75 167L53 190L118 254Q93 287 93 334Q93 380 117 412L52 478L75 500L139 435Q156 449 177 456T225 464Q273 464 308 437L371 500L394 478L331 415Q343 399 350 379T357 334Q357 287 330 252L394 190L371 167ZM225 238Q269 238 295 264T321 334Q321 377 295 404T225 431Q181 431 155 404T129 334Q129 291 155 265T225 238Z"  />
<glyph unicode="&#xA5;" horiz-adv-x="437" d="M241 0H196V218H72V250H193L151 373H72V404H140L47 680H92L218 285H220L345 680H390L296 405H365V373H285L243 250H365V218H241V0Z"  />
<glyph unicode="&#xA6;" horiz-adv-x="245" d="M141 427H104V750H141V427ZM141 -70H104V259H141V-70Z"  />
<glyph unicode="&#xA7;" horiz-adv-x="434" d="M376 -37Q376 -81 370 -109T348 -155T303 -180T228 -187H215Q164 -187 133 -181T86 -156T64 -107T59 -25V-8H101V-22Q101 -63 105 -88T121 -126T156 -144T216 -149H226Q259 -149 280 -145T312 -127T327 -92T331 -34V-19Q331 9 327 29T311 62T279 81T225 87H213Q167 87 138 95T91 122T68 169T61 241V254Q61 321 77 353T141 393V394Q94 404 78 433T61 516V532Q61 576 67 605T91 652T136 677T208 684H222Q272 684 302 677T348 652T370 600T375 516V498H333V513Q333 557 329 583T313 623T279 641T221 646H211Q179 646 159 642T127 624T111 589T106 531V515Q106 492 109 474T124 442T157 422T215 415H225Q271 415 300 407T346 381T369 334T376 261V248Q376 180 359 148T294 108V107Q339 98 357 68T376 -21V-37ZM226 125Q260 125 280 130T312 148T327 185T331 245V257Q331 291 327 314T311 351T278 371T221 377H211Q177 377 157 372T125 354T110 317T106 257V245Q106 211 110 188T126 151T159 131T216 125H226Z"  />
<glyph unicode="&#xA8;" horiz-adv-x="269" d="M95 606H53V680H95V606ZM215 606H173V680H215V606Z"  />
<glyph unicode="&#xA9;" horiz-adv-x="689" d="M350 140Q317 140 296 146T263 172T247 229T242 329V358Q242 419 247 455T263 511T294 537T344 544H355Q383 544 401 540T431 522T447 485T452 421V405H415V419Q415 448 413 466T403 493T384 506T354 510H344Q326 510 314 505T295 484T285 438T282 358V329Q282 276 284 245T294 199T314 179T348 174H361Q395 174 405 195T416 273V285H454V272Q454 231 449 205T432 165T403 145T361 140H350ZM358 23Q438 23 485 32T558 74T590 168T598 334V346Q598 450 591 511T558 605T486 647T358 657H330Q250 657 203 648T131 606T99 512T91 346V334Q91 230 98 169T130 75T202 33T330 23H358ZM330 -4Q244 -4 191 7T109 53T71 154T61 330V350Q61 460 70 526T109 627T191 673T330 684H358Q444 684 497 673T579 627T618 526T628 350V330Q628 220 618 154T579 53T497 7T358 -4H330Z"  />
<glyph unicode="&#xAA;" horiz-adv-x="272" d="M134 403Q163 403 176 415T190 466V470Q190 506 179 518T135 530H123Q97 530 88 520T78 471V464Q78 426 87 415T123 403H134ZM221 379H191V415H190Q182 393 168 385T127 377H117Q76 377 61 394T46 461V471Q46 521 64 539T118 557H129Q155 557 169 549T189 525H190V545Q190 581 189 602T182 634T167 648T141 652H131Q102 652 92 642T82 601V593H52V602Q52 647 70 663T132 680H143Q167 680 182 675T206 654T218 613T221 546V379Z"  />
<glyph unicode="&#xAB;" horiz-adv-x="321" d="M174 87L142 71L34 271L142 472L174 456L74 271L174 87ZM290 87L258 71L150 271L258 472L290 456L190 271L290 87Z"  />
<glyph unicode="&#xAC;" horiz-adv-x="411" d="M365 223H324V370H46V407H365V223Z"  />
<glyph unicode="&#xAD;" horiz-adv-x="280" d="M230 231H50V273H230V231Z"  />
<glyph unicode="&#xAE;" horiz-adv-x="439" d="M228 473Q259 473 259 516V525Q259 554 251 564T221 574H189V473H228ZM287 350H259V387Q259 427 252 438T224 450H189V350H161V597H230Q257 597 272 584T287 527V518Q287 492 279 481T260 464V463Q274 460 280 447T287 399V350ZM228 290Q270 290 297 296T339 321T361 375T367 469V479Q367 537 361 572T340 627T297 652T228 658H212Q170 658 143 652T101 627T79 573T73 479V469Q73 410 79 375T100 321T143 296T212 290H228ZM212 267Q165 267 133 274T82 302T55 363T47 469V479Q47 545 55 585T82 646T133 674T212 681H228Q275 681 306 674T357 646T385 585T393 479V469Q393 403 385 363T358 302T307 274T228 267H212Z"  />
<glyph unicode="&#xAF;" horiz-adv-x="269" d="M209 621H63V655H209V621Z"  />
<glyph unicode="&#xB0;" horiz-adv-x="279" d="M139 480Q94 480 66 508T38 581Q38 626 66 654T139 682Q185 682 213 654T241 581Q241 536 213 508T139 480ZM139 510Q171 510 190 530T209 581Q209 611 190 631T139 652Q109 652 90 632T70 581Q70 550 89 530T139 510Z"  />
<glyph unicode="&#xB1;" horiz-adv-x="411" d="M365 49H46V86H365V49ZM365 317H226V157H185V317H46V354H185V513H226V354H365V317Z"  />
<glyph unicode="&#xB2;" horiz-adv-x="260" d="M228 453H41V498Q41 533 44 555T56 591T82 613T127 630Q148 636 161 642T182 658T192 682T195 716V727Q195 770 183 784T135 798H130Q98 798 86 784T74 724V704H41V724Q41 781 60 804T130 827H136Q164 827 182 822T210 806T225 775T229 727V717Q229 690 225 672T209 641T180 619T134 602Q114 596 102 590T84 574T76 546T74 501V482H228V453Z"  />
<glyph unicode="&#xB3;" horiz-adv-x="265" d="M130 451Q102 451 84 455T55 472T40 507T36 563V576H68V562Q68 536 70 520T80 495T99 483T129 480H135Q154 480 166 483T185 493T194 514T197 549V561Q197 601 185 616T148 632H107V658H148Q171 658 181 670T192 718V729Q192 752 190 765T181 786T163 796T134 798H128Q111 798 100 796T83 786T74 765T71 728V702H40V727Q40 756 44 775T58 806T85 822T129 827H135Q162 827 179 823T207 807T222 777T226 730V720Q226 684 217 669T191 646V645Q208 640 219 623T231 560V549Q231 520 227 502T211 472T182 456T136 451H130Z"  />
<glyph unicode="&#xB4;" horiz-adv-x="269" d="M89 562L72 580L184 705L210 677L89 562Z"  />
<glyph unicode="&#xB5;" horiz-adv-x="380" d="M319 0H276V63H275Q267 34 247 15T184 -4H179Q143 -4 129 9T107 41H105V-158H61V480H105V182Q105 136 108 107T121 62T144 40T181 34H187Q210 34 226 40T254 62T270 107T275 182V480H319V0Z"  />
<glyph unicode="&#xB6;" horiz-adv-x="403" d="M340 -164H304V645H247V-164H211V280H199Q159 280 132 289T87 321T62 379T54 470V492Q54 550 61 587T91 644T152 672T253 680H340V-164Z"  />
<glyph unicode="&#xB7;" horiz-adv-x="144" d="M96 226H48V307H96V226Z"  />
<glyph unicode="&#xB8;" horiz-adv-x="269" d="M78 -158L58 -143L150 -5L179 -29L78 -158Z"  />
<glyph unicode="&#xB9;" horiz-adv-x="218" d="M162 453H128V781H127L68 681L43 697L119 825H162V453Z"  />
<glyph unicode="&#xBA;" horiz-adv-x="264" d="M137 405Q154 405 165 409T182 426T190 460T192 518V539Q192 574 190 596T182 630T165 647T137 652H127Q110 652 100 648T83 631T75 597T72 539V518Q72 482 74 460T83 426T99 410T127 405H137ZM126 377Q101 377 85 382T58 402T44 445T40 518V539Q40 584 44 611T58 654T84 674T126 680H138Q163 680 179 675T206 654T220 612T224 539V518Q224 473 220 446T206 403T180 382T138 377H126Z"  />
<glyph unicode="&#xBB;" horiz-adv-x="320" d="M63 71L31 87L131 271L31 457L63 472L171 271L63 71ZM179 71L147 87L247 271L147 457L179 472L286 271L179 71Z"  />
<glyph unicode="&#xBC;" horiz-adv-x="581" d="M198 0H166L356 680H388L198 0ZM495 0H462V86H316V118L444 372H495V114H531V86H495V0ZM462 114V342H461L348 115V114H462ZM173 308H139V636H138L79 536L54 552L130 680H173V308Z"  />
<glyph unicode="&#xBD;" horiz-adv-x="604" d="M198 0H166L356 680H388L198 0ZM551 0H364V45Q364 80 367 102T379 138T405 160T450 177Q471 183 484 189T505 205T515 229T518 263V274Q518 317 506 331T458 345H453Q421 345 409 331T397 271V251H364V271Q364 328 383 351T453 374H459Q487 374 505 369T533 353T548 322T552 274V264Q552 237 548 219T532 188T503 166T457 149Q437 143 425 137T407 121T399 93T397 48V29H551V0ZM173 308H139V636H138L79 536L54 552L130 680H173V308Z"  />
<glyph unicode="&#xBE;" horiz-adv-x="638" d="M253 404Q253 375 249 357T233 327T204 311T158 306H152Q124 306 106 310T77 327T62 362T58 418V431H90V417Q90 391 92 375T102 350T121 338T151 335H157Q176 335 188 338T207 348T216 369T219 404V416Q219 456 207 471T170 487H129V513H170Q193 513 203 525T214 573V584Q214 607 212 620T203 641T185 651T156 653H150Q133 653 122 651T105 641T96 620T93 583V557H62V582Q62 611 66 630T80 661T107 677T151 682H157Q184 682 201 678T229 662T244 632T248 585V575Q248 539 239 524T213 501V500Q230 495 241 478T253 415V404ZM255 0H223L413 680H445L255 0ZM552 0H519V86H373V118L501 372H552V114H588V86H552V0ZM519 114V342H518L405 115V114H519Z"  />
<glyph unicode="&#xBF;" horiz-adv-x="358" d="M221 399H173V480H221V399ZM174 -204Q132 -204 106 -195T67 -165T49 -111T44 -28V-11Q44 33 47 64T60 116T86 153T130 180Q156 192 166 209T176 263V281H217V258Q217 211 202 188T155 149Q133 138 120 127T99 100T89 57T86 -9V-24Q86 -68 89 -96T102 -139T129 -160T175 -166H188Q218 -166 235 -161T262 -138T273 -90T276 -9V21H316V-13Q316 -72 312 -109T293 -167T254 -196T187 -204H174Z"  />
<glyph unicode="&#xC0;" horiz-adv-x="399" d="M387 0H340L304 162H93L58 0H12L162 680H236L387 0ZM298 202L201 642H197L100 202H298ZM219 742L78 831L99 863L232 761L219 742Z"  />
<glyph unicode="&#xC1;" horiz-adv-x="399" d="M387 0H340L304 162H93L58 0H12L162 680H236L387 0ZM298 202L201 642H197L100 202H298ZM322 831L180 742L167 761L301 863L322 831Z"  />
<glyph unicode="&#xC2;" horiz-adv-x="399" d="M387 0H340L304 162H93L58 0H12L162 680H236L387 0ZM298 202L201 642H197L100 202H298ZM283 747L200 825L118 747L98 765L200 867L303 765L283 747Z"  />
<glyph unicode="&#xC3;" horiz-adv-x="399" d="M387 0H340L304 162H93L58 0H12L162 680H236L387 0ZM298 202L201 642H197L100 202H298ZM297 836Q295 801 283 782T244 762Q226 762 214 770T191 788Q183 796 176 801T158 807Q144 807 137 797T127 761L103 764Q105 799 117 819T155 839Q172 839 183 831T205 814Q214 806 222 800T242 793Q257 793 264 803T273 840L297 836Z"  />
<glyph unicode="&#xC4;" horiz-adv-x="399" d="M387 0H340L304 162H93L58 0H12L162 680H236L387 0ZM298 202L201 642H197L100 202H298ZM160 758H118V832H160V758ZM280 758H238V832H280V758Z"  />
<glyph unicode="&#xC5;" horiz-adv-x="399" d="M387 0H340L304 162H93L58 0H12L162 680H236L387 0ZM298 202L201 642H197L100 202H298ZM197 726Q159 726 141 742T123 796V802Q123 839 141 855T197 872H202Q240 872 258 856T276 802V796Q276 759 258 743T202 726H197ZM202 748Q226 748 237 759T248 796V802Q248 828 237 838T202 849H197Q173 849 162 839T151 802V796Q151 770 162 759T197 748H202Z"  />
<glyph unicode="&#xC6;" horiz-adv-x="609" d="M585 0H322V163H117L56 0H6L262 680H583V639H369V374H569V334H369V41H585V0ZM322 203V639H296L132 203H322Z"  />
<glyph unicode="&#xC7;" horiz-adv-x="416" d="M215 -4Q161 -4 129 5T78 46T55 141T49 311V371Q49 473 54 534T77 629T128 673T215 684H225Q269 684 298 676T343 647T366 592T373 506V487H328V505Q328 546 324 572T308 615T277 637T226 643H216Q177 643 154 637T118 603T101 522T96 374V308Q96 211 100 157T116 76T153 43T216 37H226Q256 37 276 41T308 61T325 104T330 179V194H375V178Q375 123 369 88T345 32T299 4T225 -4H215ZM157 -158L137 -143L229 -5L258 -29L157 -158Z"  />
<glyph unicode="&#xC8;" horiz-adv-x="351" d="M327 0H64V680H325V639H111V374H311V334H111V41H327V0ZM252 742L111 831L132 863L265 761L252 742Z"  />
<glyph unicode="&#xC9;" horiz-adv-x="351" d="M327 0H64V680H325V639H111V374H311V334H111V41H327V0ZM274 831L132 742L119 761L253 863L274 831Z"  />
<glyph unicode="&#xCA;" horiz-adv-x="351" d="M327 0H64V680H325V639H111V374H311V334H111V41H327V0ZM276 747L193 825L111 747L91 765L193 867L296 765L276 747Z"  />
<glyph unicode="&#xCB;" horiz-adv-x="351" d="M327 0H64V680H325V639H111V374H311V334H111V41H327V0ZM151 758H109V832H151V758ZM271 758H229V832H271V758Z"  />
<glyph unicode="&#xCC;" horiz-adv-x="175" d="M111 0H64V680H111V0ZM96 742L-45 831L-24 863L109 761L96 742Z"  />
<glyph unicode="&#xCD;" horiz-adv-x="175" d="M111 0H64V680H111V0ZM220 831L78 742L65 761L199 863L220 831Z"  />
<glyph unicode="&#xCE;" horiz-adv-x="175" d="M111 0H64V680H111V0ZM171 747L88 825L6 747L-14 765L88 867L191 765L171 747Z"  />
<glyph unicode="&#xCF;" horiz-adv-x="175" d="M111 0H64V680H111V0ZM49 758H7V832H49V758ZM169 758H127V832H169V758Z"  />
<glyph unicode="&#xD0;" horiz-adv-x="463" d="M410 310Q410 212 402 151T373 57T316 12T222 0H64V337H17V370H64V680H222Q278 680 314 669T372 625T401 531T410 371V310ZM222 41Q267 41 294 49T337 84T357 165T363 307V374Q363 461 357 513T334 593T291 630T222 639H111V370H216V337H111V41H222Z"  />
<glyph unicode="&#xD1;" horiz-adv-x="479" d="M415 0H335L113 635H110V0H64V680H144L366 46H369V680H415V0ZM346 836Q344 801 332 782T293 762Q275 762 263 770T240 788Q232 796 225 801T207 807Q193 807 186 797T176 761L152 764Q154 799 166 819T204 839Q221 839 232 831T254 814Q263 806 271 800T291 793Q306 793 313 803T322 840L346 836Z"  />
<glyph unicode="&#xD2;" horiz-adv-x="443" d="M216 -4Q163 -4 131 6T80 50T56 144T49 309V371Q49 474 55 535T80 630T130 673T216 684H227Q279 684 312 674T363 630T387 536T394 371V309Q394 206 388 145T363 50T312 7T227 -4H216ZM227 37Q265 37 288 43T325 77T342 157T347 306V374Q347 468 343 522T325 603T289 636T227 643H216Q178 643 155 637T118 603T101 522T96 374V306Q96 211 100 158T118 77T154 44T216 37H227ZM283 742L142 831L163 863L296 761L283 742Z"  />
<glyph unicode="&#xD3;" horiz-adv-x="443" d="M216 -4Q163 -4 131 6T80 50T56 144T49 309V371Q49 474 55 535T80 630T130 673T216 684H227Q279 684 312 674T363 630T387 536T394 371V309Q394 206 388 145T363 50T312 7T227 -4H216ZM227 37Q265 37 288 43T325 77T342 157T347 306V374Q347 468 343 522T325 603T289 636T227 643H216Q178 643 155 637T118 603T101 522T96 374V306Q96 211 100 158T118 77T154 44T216 37H227ZM297 831L155 742L142 761L276 863L297 831Z"  />
<glyph unicode="&#xD4;" horiz-adv-x="443" d="M216 -4Q163 -4 131 6T80 50T56 144T49 309V371Q49 474 55 535T80 630T130 673T216 684H227Q279 684 312 674T363 630T387 536T394 371V309Q394 206 388 145T363 50T312 7T227 -4H216ZM227 37Q265 37 288 43T325 77T342 157T347 306V374Q347 468 343 522T325 603T289 636T227 643H216Q178 643 155 637T118 603T101 522T96 374V306Q96 211 100 158T118 77T154 44T216 37H227ZM304 747L221 825L139 747L119 765L221 867L324 765L304 747Z"  />
<glyph unicode="&#xD5;" horiz-adv-x="443" d="M216 -4Q163 -4 131 6T80 50T56 144T49 309V371Q49 474 55 535T80 630T130 673T216 684H227Q279 684 312 674T363 630T387 536T394 371V309Q394 206 388 145T363 50T312 7T227 -4H216ZM227 37Q265 37 288 43T325 77T342 157T347 306V374Q347 468 343 522T325 603T289 636T227 643H216Q178 643 155 637T118 603T101 522T96 374V306Q96 211 100 158T118 77T154 44T216 37H227ZM318 836Q316 801 304 782T265 762Q247 762 235 770T212 788Q204 796 197 801T179 807Q165 807 158 797T148 761L124 764Q126 799 138 819T176 839Q193 839 204 831T226 814Q235 806 243 800T263 793Q278 793 285 803T294 840L318 836Z"  />
<glyph unicode="&#xD6;" horiz-adv-x="443" d="M216 -4Q163 -4 131 6T80 50T56 144T49 309V371Q49 474 55 535T80 630T130 673T216 684H227Q279 684 312 674T363 630T387 536T394 371V309Q394 206 388 145T363 50T312 7T227 -4H216ZM227 37Q265 37 288 43T325 77T342 157T347 306V374Q347 468 343 522T325 603T289 636T227 643H216Q178 643 155 637T118 603T101 522T96 374V306Q96 211 100 158T118 77T154 44T216 37H227ZM182 758H140V832H182V758ZM302 758H260V832H302V758Z"  />
<glyph unicode="&#xD7;" horiz-adv-x="411" d="M360 160L333 135L205 278L77 135L50 160L179 305L57 443L83 469L205 333L327 469L354 443L230 305L360 160Z"  />
<glyph unicode="&#xD8;" horiz-adv-x="443" d="M353 701L378 691L357 639Q368 623 375 600T386 545T392 469T394 371V309Q394 206 388 145T363 50T312 7T227 -4H216Q181 -4 155 0T110 16L92 -27L67 -16L88 37Q65 68 57 131T49 309V371Q49 474 55 535T80 630T130 673T216 684H227Q264 684 290 680T336 661L353 701ZM216 643Q178 643 155 637T118 603T100 522T95 374V306Q95 222 98 171T112 91L316 617Q302 634 281 638T227 643H216ZM348 374Q348 453 345 503T333 583L129 59Q143 44 164 41T216 37H227Q265 37 288 43T325 77T343 157T348 306V374Z"  />
<glyph unicode="&#xD9;" horiz-adv-x="451" d="M221 -4Q173 -4 142 4T93 36T67 101T60 210V680H107V207Q107 151 112 118T130 66T165 43T221 37H231Q265 37 287 42T321 65T339 116T344 207V680H391V210Q391 143 384 102T359 37T310 5T231 -4H221ZM282 742L141 831L162 863L295 761L282 742Z"  />
<glyph unicode="&#xDA;" horiz-adv-x="451" d="M221 -4Q173 -4 142 4T93 36T67 101T60 210V680H107V207Q107 151 112 118T130 66T165 43T221 37H231Q265 37 287 42T321 65T339 116T344 207V680H391V210Q391 143 384 102T359 37T310 5T231 -4H221ZM316 831L174 742L161 761L295 863L316 831Z"  />
<glyph unicode="&#xDB;" horiz-adv-x="451" d="M221 -4Q173 -4 142 4T93 36T67 101T60 210V680H107V207Q107 151 112 118T130 66T165 43T221 37H231Q265 37 287 42T321 65T339 116T344 207V680H391V210Q391 143 384 102T359 37T310 5T231 -4H221ZM308 747L225 825L143 747L123 765L225 867L328 765L308 747Z"  />
<glyph unicode="&#xDC;" horiz-adv-x="451" d="M221 -4Q173 -4 142 4T93 36T67 101T60 210V680H107V207Q107 151 112 118T130 66T165 43T221 37H231Q265 37 287 42T321 65T339 116T344 207V680H391V210Q391 143 384 102T359 37T310 5T231 -4H221ZM186 758H144V832H186V758ZM306 758H264V832H306V758Z"  />
<glyph unicode="&#xDD;" horiz-adv-x="368" d="M207 0H160V233L6 680H53L184 284H185L317 680H362L207 233V0ZM288 831L146 742L133 761L267 863L288 831Z"  />
<glyph unicode="&#xDE;" horiz-adv-x="408" d="M110 0H64V680H110V558H194Q249 558 283 551T337 524T364 467T372 371V346Q372 289 364 252T335 194T280 165T196 157H110V0ZM191 198Q234 198 260 203T301 225T320 269T325 344V372Q325 419 320 447T301 491T260 512T190 517H110V198H191Z"  />
<glyph unicode="&#xDF;" horiz-adv-x="405" d="M237 -4Q191 -4 167 8V45Q188 35 233 35Q259 35 275 40T299 65T311 123T314 227V255Q314 318 310 355T296 411T270 437T230 443H199V480H215Q258 480 270 500T282 559V572Q282 617 264 632T205 647H190Q167 647 151 643T125 625T110 582T105 507V0H61V507Q61 563 68 597T90 651T129 677T188 684H205Q263 684 294 661T326 575V561Q326 513 312 494T265 467L267 466Q292 464 309 455T338 422T353 358T358 251V226Q358 152 353 107T334 37T297 4T237 -4Z"  />
<glyph unicode="&#xE0;" horiz-adv-x="345" d="M291 0H249V53H248Q232 -4 160 -4H155Q123 -4 102 1T69 22T51 64T45 137V149Q45 192 51 219T70 261T103 282T151 288H155Q198 288 218 278T248 245H249V263Q249 327 247 364T236 419T213 442T174 447H168Q145 447 131 444T109 430T99 401T96 352V340H55V351Q55 391 60 417T78 458T113 478T169 484H176Q214 484 236 476T271 445T287 380T291 267V0ZM170 34Q188 34 202 37T227 52T243 84T249 137V147Q249 181 245 202T232 234T206 249T165 253H161Q139 253 125 249T103 234T91 202T88 148V139Q88 105 91 85T103 53T127 38T166 34H170ZM212 562L91 677L117 705L229 580L212 562Z"  />
<glyph unicode="&#xE1;" horiz-adv-x="345" d="M291 0H249V53H248Q232 -4 160 -4H155Q123 -4 102 1T69 22T51 64T45 137V149Q45 192 51 219T70 261T103 282T151 288H155Q198 288 218 278T248 245H249V263Q249 327 247 364T236 419T213 442T174 447H168Q145 447 131 444T109 430T99 401T96 352V340H55V351Q55 391 60 417T78 458T113 478T169 484H176Q214 484 236 476T271 445T287 380T291 267V0ZM170 34Q188 34 202 37T227 52T243 84T249 137V147Q249 181 245 202T232 234T206 249T165 253H161Q139 253 125 249T103 234T91 202T88 148V139Q88 105 91 85T103 53T127 38T166 34H170ZM120 562L103 580L215 705L241 677L120 562Z"  />
<glyph unicode="&#xE2;" horiz-adv-x="345" d="M291 0H249V53H248Q232 -4 160 -4H155Q123 -4 102 1T69 22T51 64T45 137V149Q45 192 51 219T70 261T103 282T151 288H155Q198 288 218 278T248 245H249V263Q249 327 247 364T236 419T213 442T174 447H168Q145 447 131 444T109 430T99 401T96 352V340H55V351Q55 391 60 417T78 458T113 478T169 484H176Q214 484 236 476T271 445T287 380T291 267V0ZM170 34Q188 34 202 37T227 52T243 84T249 137V147Q249 181 245 202T232 234T206 249T165 253H161Q139 253 125 249T103 234T91 202T88 148V139Q88 105 91 85T103 53T127 38T166 34H170ZM245 570L171 663L98 570L77 589L171 708L266 589L245 570Z"  />
<glyph unicode="&#xE3;" horiz-adv-x="345" d="M291 0H249V53H248Q232 -4 160 -4H155Q123 -4 102 1T69 22T51 64T45 137V149Q45 192 51 219T70 261T103 282T151 288H155Q198 288 218 278T248 245H249V263Q249 327 247 364T236 419T213 442T174 447H168Q145 447 131 444T109 430T99 401T96 352V340H55V351Q55 391 60 417T78 458T113 478T169 484H176Q214 484 236 476T271 445T287 380T291 267V0ZM170 34Q188 34 202 37T227 52T243 84T249 137V147Q249 181 245 202T232 234T206 249T165 253H161Q139 253 125 249T103 234T91 202T88 148V139Q88 105 91 85T103 53T127 38T166 34H170ZM266 675Q264 640 252 621T213 601Q195 601 183 609T160 627Q152 635 145 640T127 646Q113 646 106 636T96 600L72 603Q74 638 86 658T124 678Q141 678 152 670T174 653Q183 645 191 639T211 632Q226 632 233 642T242 679L266 675Z"  />
<glyph unicode="&#xE4;" horiz-adv-x="345" d="M291 0H249V53H248Q232 -4 160 -4H155Q123 -4 102 1T69 22T51 64T45 137V149Q45 192 51 219T70 261T103 282T151 288H155Q198 288 218 278T248 245H249V263Q249 327 247 364T236 419T213 442T174 447H168Q145 447 131 444T109 430T99 401T96 352V340H55V351Q55 391 60 417T78 458T113 478T169 484H176Q214 484 236 476T271 445T287 380T291 267V0ZM170 34Q188 34 202 37T227 52T243 84T249 137V147Q249 181 245 202T232 234T206 249T165 253H161Q139 253 125 249T103 234T91 202T88 148V139Q88 105 91 85T103 53T127 38T166 34H170ZM132 606H90V680H132V606ZM252 606H210V680H252V606Z"  />
<glyph unicode="&#xE5;" horiz-adv-x="345" d="M291 0H249V53H248Q232 -4 160 -4H155Q123 -4 102 1T69 22T51 64T45 137V149Q45 192 51 219T70 261T103 282T151 288H155Q198 288 218 278T248 245H249V263Q249 327 247 364T236 419T213 442T174 447H168Q145 447 131 444T109 430T99 401T96 352V340H55V351Q55 391 60 417T78 458T113 478T169 484H176Q214 484 236 476T271 445T287 380T291 267V0ZM170 34Q188 34 202 37T227 52T243 84T249 137V147Q249 181 245 202T232 234T206 249T165 253H161Q139 253 125 249T103 234T91 202T88 148V139Q88 105 91 85T103 53T127 38T166 34H170ZM168 559Q130 559 112 575T94 628V634Q94 672 112 688T168 704H173Q211 704 229 688T247 634V628Q247 591 229 575T173 559H168ZM173 581Q197 581 208 591T219 628V634Q219 660 208 671T173 682H168Q144 682 133 671T122 634V628Q122 602 133 592T168 581H173Z"  />
<glyph unicode="&#xE6;" horiz-adv-x="543" d="M499 153Q499 106 493 76T473 28T437 3T384 -4H373Q348 -4 330 -1T298 12T276 38T264 81H263Q258 54 249 38T226 12T197 -1T161 -4H156Q124 -4 103 1T69 22T51 65T45 137V149Q45 192 51 219T70 261T103 282T152 288H156Q198 288 218 278T247 241H249V263Q249 325 247 361T236 417T212 441T171 447H165Q143 447 130 444T109 430T99 401T96 352V340H55V351Q55 391 60 417T77 458T111 478T164 484H171Q218 484 242 469T272 405H273Q277 430 285 446T305 470T333 481T371 484H380Q416 484 438 477T474 448T492 389T497 290V241H291V201Q291 145 295 112T308 62T333 39T373 34H382Q405 34 419 38T442 56T454 92T458 153V163H499V153ZM170 34Q188 34 202 37T227 52T243 84T249 137V147Q249 182 245 203T232 235T206 249T165 253H161Q139 253 125 249T103 234T91 202T88 148V139Q88 105 91 85T103 53T127 38T166 34H170ZM455 275V295Q455 346 452 376T440 422T417 442T380 447H372Q348 447 333 443T308 421T295 369T291 275H455Z"  />
<glyph unicode="&#xE7;" horiz-adv-x="334" d="M169 -4Q131 -4 107 4T69 36T50 105T45 223V257Q45 332 50 376T70 445T108 476T170 484H178Q213 484 235 478T270 454T288 406T293 329V319H252V329Q252 365 250 387T239 423T217 441T179 446H171Q145 446 130 441T105 417T93 360T90 257V223Q90 159 93 122T105 65T129 41T171 35H179Q201 35 215 39T238 57T250 93T253 154V167H294V155Q294 108 288 77T269 28T233 3T177 -4H169ZM111 -158L91 -143L183 -5L212 -29L111 -158Z"  />
<glyph unicode="&#xE8;" horiz-adv-x="339" d="M168 -4Q130 -4 107 4T69 37T50 106T45 223V252Q45 325 50 370T70 441T108 475T168 484H176Q212 484 234 477T270 448T288 389T293 290V240H89V223Q89 159 92 122T104 65T128 40T170 34H179Q201 34 216 38T239 56T250 92T254 153V163H295V153Q295 106 289 76T269 28T233 3T179 -4H168ZM251 275V295Q251 346 248 376T237 422T214 442T176 447H169Q145 447 130 442T105 419T93 367T89 275H251ZM212 562L91 677L117 705L229 580L212 562Z"  />
<glyph unicode="&#xE9;" horiz-adv-x="339" d="M168 -4Q130 -4 107 4T69 37T50 106T45 223V252Q45 325 50 370T70 441T108 475T168 484H176Q212 484 234 477T270 448T288 389T293 290V240H89V223Q89 159 92 122T104 65T128 40T170 34H179Q201 34 216 38T239 56T250 92T254 153V163H295V153Q295 106 289 76T269 28T233 3T179 -4H168ZM251 275V295Q251 346 248 376T237 422T214 442T176 447H169Q145 447 130 442T105 419T93 367T89 275H251ZM127 562L110 580L222 705L248 677L127 562Z"  />
<glyph unicode="&#xEA;" horiz-adv-x="339" d="M168 -4Q130 -4 107 4T69 37T50 106T45 223V252Q45 325 50 370T70 441T108 475T168 484H176Q212 484 234 477T270 448T288 389T293 290V240H89V223Q89 159 92 122T104 65T128 40T170 34H179Q201 34 216 38T239 56T250 92T254 153V163H295V153Q295 106 289 76T269 28T233 3T179 -4H168ZM251 275V295Q251 346 248 376T237 422T214 442T176 447H169Q145 447 130 442T105 419T93 367T89 275H251ZM246 570L172 663L99 570L78 589L172 708L267 589L246 570Z"  />
<glyph unicode="&#xEB;" horiz-adv-x="339" d="M168 -4Q130 -4 107 4T69 37T50 106T45 223V252Q45 325 50 370T70 441T108 475T168 484H176Q212 484 234 477T270 448T288 389T293 290V240H89V223Q89 159 92 122T104 65T128 40T170 34H179Q201 34 216 38T239 56T250 92T254 153V163H295V153Q295 106 289 76T269 28T233 3T179 -4H168ZM251 275V295Q251 346 248 376T237 422T214 442T176 447H169Q145 447 130 442T105 419T93 367T89 275H251ZM133 606H91V680H133V606ZM253 606H211V680H253V606Z"  />
<glyph unicode="&#xEC;" horiz-adv-x="166" d="M105 0H61V480H105V0ZM87 562L-34 677L-8 705L104 580L87 562Z"  />
<glyph unicode="&#xED;" horiz-adv-x="166" d="M105 0H61V480H105V0ZM83 562L66 580L178 705L204 677L83 562Z"  />
<glyph unicode="&#xEE;" horiz-adv-x="166" d="M105 0H61V480H105V0ZM158 570L84 663L11 570L-10 589L84 708L179 589L158 570Z"  />
<glyph unicode="&#xEF;" horiz-adv-x="166" d="M105 0H61V480H105V0ZM49 606H7V680H49V606ZM169 606H127V680H169V606Z"  />
<glyph unicode="&#xF0;" horiz-adv-x="355" d="M298 654L308 631L242 602Q263 577 275 545T295 469T304 370T307 245V231Q307 154 302 108T283 36T244 4T179 -4H170Q131 -4 107 4T69 36T50 107T45 228V248Q45 321 50 366T69 437T104 470T161 479H166Q208 479 230 463T261 409H262Q254 475 241 516T205 585L127 549L117 573L184 604Q161 621 130 632T57 654L74 682Q125 672 161 658T224 621L298 654ZM180 35Q208 35 224 40T249 66T260 124T263 227V289Q263 337 258 366T243 412T216 435T177 441H173Q148 441 132 436T107 410T93 352T89 249V227Q89 162 91 124T103 66T128 41T173 35H180Z"  />
<glyph unicode="&#xF1;" horiz-adv-x="374" d="M317 0H273V300Q273 348 270 377T259 421T236 441T197 446H191Q168 446 152 441T126 419T110 375T105 300V0H61V480H104V419H105Q113 447 134 465T203 484H209Q241 484 262 477T295 451T312 400T317 319V0ZM287 675Q285 640 273 621T234 601Q216 601 204 609T181 627Q173 635 166 640T148 646Q134 646 127 636T117 600L93 603Q95 638 107 658T145 678Q162 678 173 670T195 653Q204 645 212 639T232 632Q247 632 254 642T263 679L287 675Z"  />
<glyph unicode="&#xF2;" horiz-adv-x="352" d="M180 35Q206 35 222 40T248 65T260 121T263 223V257Q263 321 260 358T248 415T223 440T180 446H173Q146 446 130 441T104 416T92 359T89 257V223Q89 159 92 122T104 65T129 41T173 35H180ZM172 -4Q133 -4 109 4T70 37T51 106T45 223V257Q45 329 50 373T70 442T108 475T172 484H181Q220 484 244 476T283 443T302 374T307 257V223Q307 151 302 107T283 38T245 5T181 -4H172ZM228 562L107 677L133 705L245 580L228 562Z"  />
<glyph unicode="&#xF3;" horiz-adv-x="352" d="M180 35Q206 35 222 40T248 65T260 121T263 223V257Q263 321 260 358T248 415T223 440T180 446H173Q146 446 130 441T104 416T92 359T89 257V223Q89 159 92 122T104 65T129 41T173 35H180ZM172 -4Q133 -4 109 4T70 37T51 106T45 223V257Q45 329 50 373T70 442T108 475T172 484H181Q220 484 244 476T283 443T302 374T307 257V223Q307 151 302 107T283 38T245 5T181 -4H172ZM128 562L111 580L223 705L249 677L128 562Z"  />
<glyph unicode="&#xF4;" horiz-adv-x="352" d="M180 35Q206 35 222 40T248 65T260 121T263 223V257Q263 321 260 358T248 415T223 440T180 446H173Q146 446 130 441T104 416T92 359T89 257V223Q89 159 92 122T104 65T129 41T173 35H180ZM172 -4Q133 -4 109 4T70 37T51 106T45 223V257Q45 329 50 373T70 442T108 475T172 484H181Q220 484 244 476T283 443T302 374T307 257V223Q307 151 302 107T283 38T245 5T181 -4H172ZM250 570L176 663L103 570L82 589L176 708L271 589L250 570Z"  />
<glyph unicode="&#xF5;" horiz-adv-x="352" d="M180 35Q206 35 222 40T248 65T260 121T263 223V257Q263 321 260 358T248 415T223 440T180 446H173Q146 446 130 441T104 416T92 359T89 257V223Q89 159 92 122T104 65T129 41T173 35H180ZM172 -4Q133 -4 109 4T70 37T51 106T45 223V257Q45 329 50 373T70 442T108 475T172 484H181Q220 484 244 476T283 443T302 374T307 257V223Q307 151 302 107T283 38T245 5T181 -4H172ZM273 675Q271 640 259 621T220 601Q202 601 190 609T167 627Q159 635 152 640T134 646Q120 646 113 636T103 600L79 603Q81 638 93 658T131 678Q148 678 159 670T181 653Q190 645 198 639T218 632Q233 632 240 642T249 679L273 675Z"  />
<glyph unicode="&#xF6;" horiz-adv-x="352" d="M180 35Q206 35 222 40T248 65T260 121T263 223V257Q263 321 260 358T248 415T223 440T180 446H173Q146 446 130 441T104 416T92 359T89 257V223Q89 159 92 122T104 65T129 41T173 35H180ZM172 -4Q133 -4 109 4T70 37T51 106T45 223V257Q45 329 50 373T70 442T108 475T172 484H181Q220 484 244 476T283 443T302 374T307 257V223Q307 151 302 107T283 38T245 5T181 -4H172ZM137 606H95V680H137V606ZM257 606H215V680H257V606Z"  />
<glyph unicode="&#xF7;" horiz-adv-x="411" d="M241 417Q241 403 231 392T206 381Q192 381 181 392T170 417Q170 431 181 441T206 452Q220 452 230 442T241 417ZM241 197Q241 182 231 172T206 161Q192 161 181 171T170 197Q170 211 181 221T206 232Q220 232 230 222T241 197ZM365 287H46V324H365V287Z"  />
<glyph unicode="&#xF8;" horiz-adv-x="352" d="M172 -4Q144 -4 124 0T89 15L76 -14L54 -5L71 35Q56 59 51 103T45 223V257Q45 329 50 373T70 442T108 475T172 484H181Q207 484 227 481T261 467L274 495L296 484L279 448Q295 424 301 379T307 257V223Q307 151 302 107T283 38T245 5T181 -4H172ZM180 34Q206 34 222 39T248 64T260 121T264 223V257Q264 309 262 343T254 398L109 55Q119 41 134 38T173 34H180ZM173 447Q146 447 130 442T104 417T92 359T88 257V223Q88 174 89 141T96 87L240 428Q230 440 216 443T180 447H173Z"  />
<glyph unicode="&#xF9;" horiz-adv-x="371" d="M310 0H266V63H265Q257 34 236 15T167 -4H162Q130 -4 110 4T77 31T60 81T55 161V480H99V180Q99 132 102 104T115 60T138 39T174 34H180Q202 34 218 39T245 61T261 105T266 180V480H310V0ZM240 562L119 677L145 705L257 580L240 562Z"  />
<glyph unicode="&#xFA;" horiz-adv-x="371" d="M310 0H266V63H265Q257 34 236 15T167 -4H162Q130 -4 110 4T77 31T60 81T55 161V480H99V180Q99 132 102 104T115 60T138 39T174 34H180Q202 34 218 39T245 61T261 105T266 180V480H310V0ZM140 562L123 580L235 705L261 677L140 562Z"  />
<glyph unicode="&#xFB;" horiz-adv-x="371" d="M310 0H266V63H265Q257 34 236 15T167 -4H162Q130 -4 110 4T77 31T60 81T55 161V480H99V180Q99 132 102 104T115 60T138 39T174 34H180Q202 34 218 39T245 61T261 105T266 180V480H310V0ZM258 570L184 663L111 570L90 589L184 708L279 589L258 570Z"  />
<glyph unicode="&#xFC;" horiz-adv-x="371" d="M310 0H266V63H265Q257 34 236 15T167 -4H162Q130 -4 110 4T77 31T60 81T55 161V480H99V180Q99 132 102 104T115 60T138 39T174 34H180Q202 34 218 39T245 61T261 105T266 180V480H310V0ZM146 606H104V680H146V606ZM266 606H224V680H266V606Z"  />
<glyph unicode="&#xFD;" horiz-adv-x="303" d="M45 -135Q55 -136 61 -136T69 -136Q83 -136 93 -132T112 -114T130 -72T150 7H120L12 480H58L155 41H158L246 480H291L200 46Q185 -26 172 -69T145 -135T114 -166T71 -174Q63 -174 58 -174T45 -173V-135ZM128 562L111 580L223 705L249 677L128 562Z"  />
<glyph unicode="&#xFE;" horiz-adv-x="366" d="M105 -170H61V680H105V422H106Q116 453 138 468T198 484H207Q242 484 264 476T298 444T315 374T320 253V228Q320 154 316 109T299 38T264 5T206 -4H198Q163 -4 140 10T106 59H105V-170ZM194 35Q221 35 237 40T261 65T273 122T276 223V257Q276 321 273 358T262 415T237 440T194 446H186Q165 446 150 440T124 416T109 368T104 290V190Q104 104 122 70T186 35H194Z"  />
<glyph unicode="&#xFF;" horiz-adv-x="303" d="M45 -135Q55 -136 61 -136T69 -136Q83 -136 93 -132T112 -114T130 -72T150 7H120L12 480H58L155 41H158L246 480H291L200 46Q185 -26 172 -69T145 -135T114 -166T71 -174Q63 -174 58 -174T45 -173V-135ZM114 606H72V680H114V606ZM234 606H192V680H234V606Z"  />
<glyph unicode="&#x100;" horiz-adv-x="399" d="M387 0H340L304 162H93L58 0H12L162 680H236L387 0ZM298 202L201 642H197L100 202H298ZM271 780H125V814H271V780Z"  />
<glyph unicode="&#x101;" horiz-adv-x="345" d="M291 0H249V53H248Q232 -4 160 -4H155Q123 -4 102 1T69 22T51 64T45 137V149Q45 192 51 219T70 261T103 282T151 288H155Q198 288 218 278T248 245H249V263Q249 327 247 364T236 419T213 442T174 447H168Q145 447 131 444T109 430T99 401T96 352V340H55V351Q55 391 60 417T78 458T113 478T169 484H176Q214 484 236 476T271 445T287 380T291 267V0ZM170 34Q188 34 202 37T227 52T243 84T249 137V147Q249 181 245 202T232 234T206 249T165 253H161Q139 253 125 249T103 234T91 202T88 148V139Q88 105 91 85T103 53T127 38T166 34H170ZM243 621H97V655H243V621Z"  />
<glyph unicode="&#x102;" horiz-adv-x="399" d="M387 0H340L304 162H93L58 0H12L162 680H236L387 0ZM298 202L201 642H197L100 202H298ZM287 843Q287 786 266 762T199 738Q152 738 132 761T111 843H139Q140 800 154 786T199 771Q229 771 243 785T259 843H287Z"  />
<glyph unicode="&#x103;" horiz-adv-x="345" d="M291 0H249V53H248Q232 -4 160 -4H155Q123 -4 102 1T69 22T51 64T45 137V149Q45 192 51 219T70 261T103 282T151 288H155Q198 288 218 278T248 245H249V263Q249 327 247 364T236 419T213 442T174 447H168Q145 447 131 444T109 430T99 401T96 352V340H55V351Q55 391 60 417T78 458T113 478T169 484H176Q214 484 236 476T271 445T287 380T291 267V0ZM170 34Q188 34 202 37T227 52T243 84T249 137V147Q249 181 245 202T232 234T206 249T165 253H161Q139 253 125 249T103 234T91 202T88 148V139Q88 105 91 85T103 53T127 38T166 34H170ZM261 682Q261 625 240 601T173 577Q126 577 106 600T85 682H113Q114 639 128 625T173 610Q203 610 217 624T233 682H261Z"  />
<glyph unicode="&#x104;" horiz-adv-x="399" d="M387 0H381Q335 -43 319 -70T302 -121Q302 -141 313 -148T342 -156Q351 -156 362 -154T383 -149V-177Q373 -181 360 -184T333 -187Q301 -187 284 -174T267 -129Q267 -99 286 -70T347 0H340L304 162H93L58 0H12L162 680H236L387 0ZM298 202L201 642H197L100 202H298Z"  />
<glyph unicode="&#x105;" horiz-adv-x="345" d="M291 0Q241 -38 224 -68T207 -121Q207 -141 218 -148T246 -156Q255 -156 266 -154T288 -149V-177Q277 -181 264 -184T237 -187Q205 -187 189 -174T172 -129Q172 -99 191 -69T253 0H249V53H248Q232 -4 160 -4H155Q123 -4 102 1T69 22T51 64T45 137V149Q45 192 51 219T69 261T102 282T151 288H155Q198 288 218 278T248 245H249V263Q249 327 247 364T236 419T213 442T174 447H168Q145 447 131 444T109 430T99 401T96 352V340H55V351Q55 391 60 417T78 458T113 478T169 484H176Q214 484 236 476T271 445T287 380T291 267V0ZM170 34Q188 34 202 37T227 52T243 84T249 137V147Q249 181 245 202T232 234T206 249T165 253H161Q139 253 125 249T103 234T91 202T88 148V139Q88 105 91 85T103 53T127 38T166 34H170Z"  />
<glyph unicode="&#x106;" horiz-adv-x="416" d="M215 -4Q161 -4 129 5T78 46T55 141T49 311V371Q49 473 54 534T77 629T128 673T215 684H225Q269 684 298 676T343 647T366 592T373 506V487H328V505Q328 546 324 572T308 615T277 637T226 643H216Q177 643 154 637T118 603T101 522T96 374V308Q96 211 100 157T116 76T153 43T216 37H226Q256 37 276 41T308 61T325 104T330 179V194H375V178Q375 123 369 88T345 32T299 4T225 -4H215ZM300 831L158 742L145 761L279 863L300 831Z"  />
<glyph unicode="&#x107;" horiz-adv-x="334" d="M169 -4Q131 -4 107 4T69 36T50 105T45 223V257Q45 332 50 376T70 445T108 476T170 484H178Q213 484 235 478T270 454T288 406T293 329V319H252V329Q252 365 250 387T239 423T217 441T179 446H171Q145 446 130 441T105 417T93 360T90 257V223Q90 159 93 122T105 65T129 41T171 35H179Q201 35 215 39T238 57T250 93T253 154V167H294V155Q294 108 288 77T269 28T233 3T177 -4H169ZM132 562L115 580L227 705L253 677L132 562Z"  />
<glyph unicode="&#x108;" horiz-adv-x="416" d="M215 -4Q161 -4 129 5T78 46T55 141T49 311V371Q49 473 54 534T77 629T128 673T215 684H225Q269 684 298 676T343 647T366 592T373 506V487H328V505Q328 546 324 572T308 615T277 637T226 643H216Q177 643 154 637T118 603T101 522T96 374V308Q96 211 100 157T116 76T153 43T216 37H226Q256 37 276 41T308 61T325 104T330 179V194H375V178Q375 123 369 88T345 32T299 4T225 -4H215ZM299 747L216 825L134 747L114 765L216 867L319 765L299 747Z"  />
<glyph unicode="&#x109;" horiz-adv-x="334" d="M169 -4Q131 -4 107 4T69 36T50 105T45 223V257Q45 332 50 376T70 445T108 476T170 484H178Q213 484 235 478T270 454T288 406T293 329V319H252V329Q252 365 250 387T239 423T217 441T179 446H171Q145 446 130 441T105 417T93 360T90 257V223Q90 159 93 122T105 65T129 41T171 35H179Q201 35 215 39T238 57T250 93T253 154V167H294V155Q294 108 288 77T269 28T233 3T177 -4H169ZM243 570L169 663L96 570L75 589L169 708L264 589L243 570Z"  />
<glyph unicode="&#x10A;" horiz-adv-x="416" d="M215 -4Q161 -4 129 5T78 46T55 141T49 311V371Q49 473 54 534T77 629T128 673T215 684H225Q269 684 298 676T343 647T366 592T373 506V487H328V505Q328 546 324 572T308 615T277 637T226 643H216Q177 643 154 637T118 603T101 522T96 374V308Q96 211 100 157T116 76T153 43T216 37H226Q256 37 276 41T308 61T325 104T330 179V194H375V178Q375 123 369 88T345 32T299 4T225 -4H215ZM237 758H193V832H237V758Z"  />
<glyph unicode="&#x10B;" horiz-adv-x="334" d="M169 -4Q131 -4 107 4T69 36T50 105T45 223V257Q45 332 50 376T70 445T108 476T170 484H178Q213 484 235 478T270 454T288 406T293 329V319H252V329Q252 365 250 387T239 423T217 441T179 446H171Q145 446 130 441T105 417T93 360T90 257V223Q90 159 93 122T105 65T129 41T171 35H179Q201 35 215 39T238 57T250 93T253 154V167H294V155Q294 108 288 77T269 28T233 3T177 -4H169ZM192 606H148V680H192V606Z"  />
<glyph unicode="&#x10C;" horiz-adv-x="416" d="M215 -4Q161 -4 129 5T78 46T55 141T49 311V371Q49 473 54 534T77 629T128 673T215 684H225Q269 684 298 676T343 647T366 592T373 506V487H328V505Q328 546 324 572T308 615T277 637T226 643H216Q177 643 154 637T118 603T101 522T96 374V308Q96 211 100 157T116 76T153 43T216 37H226Q256 37 276 41T308 61T325 104T330 179V194H375V178Q375 123 369 88T345 32T299 4T225 -4H215ZM215 735L113 837L133 855L215 778L298 855L318 837L215 735Z"  />
<glyph unicode="&#x10D;" horiz-adv-x="334" d="M169 -4Q131 -4 107 4T69 36T50 105T45 223V257Q45 332 50 376T70 445T108 476T170 484H178Q213 484 235 478T270 454T288 406T293 329V319H252V329Q252 365 250 387T239 423T217 441T179 446H171Q145 446 130 441T105 417T93 360T90 257V223Q90 159 93 122T105 65T129 41T171 35H179Q201 35 215 39T238 57T250 93T253 154V167H294V155Q294 108 288 77T269 28T233 3T177 -4H169ZM170 558L75 677L94 694L171 604L245 694L264 677L170 558Z"  />
<glyph unicode="&#x10E;" horiz-adv-x="463" d="M410 310Q410 212 402 151T374 57T317 12T223 0H64V680H223Q278 680 314 669T372 625T401 531T410 371V310ZM223 41Q266 41 293 48T336 83T357 163T363 307V374Q363 461 357 513T335 593T292 630T223 639H111V41H223ZM214 735L112 837L132 855L214 778L297 855L317 837L214 735Z"  />
<glyph unicode="&#x10F;" horiz-adv-x="366" d="M305 0H262V62H261Q240 -4 168 -4H160Q124 -4 102 4T68 38T51 108T46 228V253Q46 327 50 372T68 442T102 475T159 484H168Q206 484 228 468T260 422H261V680H305V0ZM179 35Q201 35 216 41T242 65T257 112T262 190V290Q262 376 244 411T179 446H172Q148 446 132 441T107 416T94 359T90 257V223Q90 160 93 123T104 66T129 41T172 35H179ZM398 612Q398 585 396 568T388 540T375 524T354 516V541Q359 543 362 546T368 557T371 576T372 609V616H359V680H398V612Z"  />
<glyph unicode="&#x110;" horiz-adv-x="463" d="M410 310Q410 212 402 151T373 57T316 12T222 0H64V337H17V370H64V680H222Q278 680 314 669T372 625T401 531T410 371V310ZM222 41Q267 41 294 49T337 84T357 165T363 307V374Q363 461 357 513T334 593T291 630T222 639H111V370H216V337H111V41H222Z"  />
<glyph unicode="&#x111;" horiz-adv-x="366" d="M166 590H261V680H305V590H332V559H305V0H262V62H261Q240 -4 168 -4H160Q124 -4 102 4T68 38T51 108T46 228V253Q46 327 50 372T68 442T102 475T159 484H168Q206 484 228 468T260 422H261V559H166V590ZM179 35Q201 35 216 41T242 65T257 112T262 190V290Q262 376 244 411T179 446H172Q148 446 132 441T107 416T94 359T90 257V223Q90 160 93 123T104 66T129 41T172 35H179Z"  />
<glyph unicode="&#x112;" horiz-adv-x="351" d="M327 0H64V680H325V639H111V374H311V334H111V41H327V0ZM264 780H118V814H264V780Z"  />
<glyph unicode="&#x113;" horiz-adv-x="339" d="M168 -4Q130 -4 107 4T69 37T50 106T45 223V252Q45 325 50 370T70 441T108 475T168 484H176Q212 484 234 477T270 448T288 389T293 290V240H89V223Q89 159 92 122T104 65T128 40T170 34H179Q201 34 216 38T239 56T250 92T254 153V163H295V153Q295 106 289 76T269 28T233 3T179 -4H168ZM251 275V295Q251 346 248 376T237 422T214 442T176 447H169Q145 447 130 442T105 419T93 367T89 275H251ZM244 621H98V655H244V621Z"  />
<glyph unicode="&#x114;" horiz-adv-x="351" d="M327 0H64V680H325V639H111V374H311V334H111V41H327V0ZM281 843Q281 786 260 762T193 738Q146 738 126 761T105 843H133Q134 800 148 786T193 771Q223 771 237 785T253 843H281Z"  />
<glyph unicode="&#x115;" horiz-adv-x="339" d="M168 -4Q130 -4 107 4T69 37T50 106T45 223V252Q45 325 50 370T70 441T108 475T168 484H176Q212 484 234 477T270 448T288 389T293 290V240H89V223Q89 159 92 122T104 65T128 40T170 34H179Q201 34 216 38T239 56T250 92T254 153V163H295V153Q295 106 289 76T269 28T233 3T179 -4H168ZM251 275V295Q251 346 248 376T237 422T214 442T176 447H169Q145 447 130 442T105 419T93 367T89 275H251ZM259 682Q259 625 238 601T171 577Q124 577 104 600T83 682H111Q112 639 126 625T171 610Q201 610 215 624T231 682H259Z"  />
<glyph unicode="&#x116;" horiz-adv-x="351" d="M327 0H64V680H325V639H111V374H311V334H111V41H327V0ZM214 758H170V832H214V758Z"  />
<glyph unicode="&#x117;" horiz-adv-x="339" d="M168 -4Q130 -4 107 4T69 37T50 106T45 223V252Q45 325 50 370T70 441T108 475T168 484H176Q212 484 234 477T270 448T288 389T293 290V240H89V223Q89 159 92 122T104 65T128 40T170 34H179Q201 34 216 38T239 56T250 92T254 153V163H295V153Q295 106 289 76T269 28T233 3T179 -4H168ZM251 275V295Q251 346 248 376T237 422T214 442T176 447H169Q145 447 130 442T105 419T93 367T89 275H251ZM192 606H148V680H192V606Z"  />
<glyph unicode="&#x118;" horiz-adv-x="351" d="M310 -177Q300 -181 287 -184T260 -187Q228 -187 211 -174T194 -129Q194 -99 213 -69T275 0H64V680H325V639H111V374H311V334H111V41H327V0H308Q262 -43 246 -70T229 -121Q229 -141 240 -148T269 -156Q278 -156 289 -154T310 -149V-177Z"  />
<glyph unicode="&#x119;" horiz-adv-x="339" d="M247 -177Q237 -181 224 -184T197 -187Q165 -187 148 -174T131 -129Q131 -100 150 -70T209 -2Q201 -3 193 -3T176 -4H168Q130 -4 107 4T69 37T50 106T45 223V252Q45 325 50 370T70 441T108 475T168 484H176Q212 484 234 477T270 448T288 389T293 290V240H89V223Q89 159 92 122T104 65T128 40T170 34H179Q201 34 216 38T239 56T250 92T254 153V163H295V153Q295 94 286 61T253 12Q205 -33 186 -66T166 -121Q166 -141 177 -148T206 -156Q215 -156 226 -154T247 -149V-177ZM251 275V295Q251 346 248 376T237 422T214 442T176 447H169Q145 447 130 442T105 419T93 367T89 275H251Z"  />
<glyph unicode="&#x11A;" horiz-adv-x="351" d="M327 0H64V680H325V639H111V374H311V334H111V41H327V0ZM191 735L89 837L109 855L191 778L274 855L294 837L191 735Z"  />
<glyph unicode="&#x11B;" horiz-adv-x="339" d="M168 -4Q130 -4 107 4T69 37T50 106T45 223V252Q45 325 50 370T70 441T108 475T168 484H176Q212 484 234 477T270 448T288 389T293 290V240H89V223Q89 159 92 122T104 65T128 40T170 34H179Q201 34 216 38T239 56T250 92T254 153V163H295V153Q295 106 289 76T269 28T233 3T179 -4H168ZM251 275V295Q251 346 248 376T237 422T214 442T176 447H169Q145 447 130 442T105 419T93 367T89 275H251ZM172 558L77 677L96 694L173 604L247 694L266 677L172 558Z"  />
<glyph unicode="&#x11C;" horiz-adv-x="423" d="M211 -4Q158 -4 126 6T77 48T55 143T49 310V371Q49 474 55 535T78 630T129 673T216 684H226Q271 684 300 675T345 645T367 590T373 507V493H328V509Q328 548 324 574T308 615T277 637T226 643H216Q177 643 154 636T117 602T100 522T96 374V307Q96 214 100 160T116 79T150 45T211 37H221Q255 37 276 42T310 65T326 114T330 200V283H208V323H376V208Q376 143 370 102T346 37T299 5T221 -4H211ZM298 747L215 825L133 747L113 765L215 867L318 765L298 747Z"  />
<glyph unicode="&#x11D;" horiz-adv-x="363" d="M168 -174Q132 -174 110 -168T74 -145T57 -101T52 -32V-21H93V-31Q93 -63 96 -83T107 -115T129 -131T168 -135H176Q204 -135 221 -131T246 -112T256 -68T259 10V78H258Q246 49 225 34T159 18H151Q119 18 99 26T66 58T49 123T44 231V253Q44 326 49 371T67 442T100 475T152 484H161Q206 484 226 469T258 421H259V480H303V13Q303 -47 298 -83T279 -140T240 -167T176 -174H168ZM172 56Q198 56 215 63T242 89T256 141T260 227V257Q260 316 256 353T241 410T215 438T173 446H165Q144 446 130 440T106 415T92 358T88 257V227Q88 172 91 139T104 87T127 62T164 56H172ZM244 570L170 663L97 570L76 589L170 708L265 589L244 570Z"  />
<glyph unicode="&#x11E;" horiz-adv-x="423" d="M211 -4Q158 -4 126 6T77 48T55 143T49 310V371Q49 474 55 535T78 630T129 673T216 684H226Q271 684 300 675T345 645T367 590T373 507V493H328V509Q328 548 324 574T308 615T277 637T226 643H216Q177 643 154 636T117 602T100 522T96 374V307Q96 214 100 160T116 79T150 45T211 37H221Q255 37 276 42T310 65T326 114T330 200V283H208V323H376V208Q376 143 370 102T346 37T299 5T221 -4H211ZM303 843Q303 786 282 762T215 738Q168 738 148 761T127 843H155Q156 800 170 786T215 771Q245 771 259 785T275 843H303Z"  />
<glyph unicode="&#x11F;" horiz-adv-x="363" d="M168 -174Q132 -174 110 -168T74 -145T57 -101T52 -32V-21H93V-31Q93 -63 96 -83T107 -115T129 -131T168 -135H176Q204 -135 221 -131T246 -112T256 -68T259 10V78H258Q246 49 225 34T159 18H151Q119 18 99 26T66 58T49 123T44 231V253Q44 326 49 371T67 442T100 475T152 484H161Q206 484 226 469T258 421H259V480H303V13Q303 -47 298 -83T279 -140T240 -167T176 -174H168ZM172 56Q198 56 215 63T242 89T256 141T260 227V257Q260 316 256 353T241 410T215 438T173 446H165Q144 446 130 440T106 415T92 358T88 257V227Q88 172 91 139T104 87T127 62T164 56H172ZM261 682Q261 625 240 601T173 577Q126 577 106 600T85 682H113Q114 639 128 625T173 610Q203 610 217 624T233 682H261Z"  />
<glyph unicode="&#x120;" horiz-adv-x="423" d="M211 -4Q158 -4 126 6T77 48T55 143T49 310V371Q49 474 55 535T78 630T129 673T216 684H226Q271 684 300 675T345 645T367 590T373 507V493H328V509Q328 548 324 574T308 615T277 637T226 643H216Q177 643 154 636T117 602T100 522T96 374V307Q96 214 100 160T116 79T150 45T211 37H221Q255 37 276 42T310 65T326 114T330 200V283H208V323H376V208Q376 143 370 102T346 37T299 5T221 -4H211ZM235 758H191V832H235V758Z"  />
<glyph unicode="&#x121;" horiz-adv-x="363" d="M168 -174Q132 -174 110 -168T74 -145T57 -101T52 -32V-21H93V-31Q93 -63 96 -83T107 -115T129 -131T168 -135H176Q204 -135 221 -131T246 -112T256 -68T259 10V78H258Q246 49 225 34T159 18H151Q119 18 99 26T66 58T49 123T44 231V253Q44 326 49 371T67 442T100 475T152 484H161Q206 484 226 469T258 421H259V480H303V13Q303 -47 298 -83T279 -140T240 -167T176 -174H168ZM172 56Q198 56 215 63T242 89T256 141T260 227V257Q260 316 256 353T241 410T215 438T173 446H165Q144 446 130 440T106 415T92 358T88 257V227Q88 172 91 139T104 87T127 62T164 56H172ZM194 606H150V680H194V606Z"  />
<glyph unicode="&#x122;" horiz-adv-x="423" d="M211 -4Q158 -4 126 6T77 48T55 143T49 310V371Q49 474 55 535T78 630T129 673T216 684H226Q271 684 300 675T345 645T367 590T373 507V493H328V509Q328 548 324 574T308 615T277 637T226 643H216Q177 643 154 636T117 602T100 522T96 374V307Q96 214 100 160T116 79T150 45T211 37H221Q255 37 276 42T310 65T326 114T330 200V283H208V323H376V208Q376 143 370 102T346 37T299 5T221 -4H211ZM206 -49H245V-117Q245 -167 235 -186T194 -210V-187Q201 -185 206 -182T214 -171T218 -152T220 -119V-113H206V-49Z"  />
<glyph unicode="&#x123;" horiz-adv-x="363" d="M168 -174Q132 -174 110 -168T74 -145T57 -101T52 -32V-21H93V-31Q93 -63 96 -83T107 -115T129 -131T168 -135H176Q204 -135 221 -131T246 -112T256 -68T259 10V78H258Q246 49 225 34T159 18H151Q119 18 99 26T66 58T49 123T44 231V253Q44 326 49 371T67 442T100 475T152 484H161Q206 484 226 469T258 421H259V480H303V13Q303 -47 298 -83T279 -140T240 -167T176 -174H168ZM172 56Q198 56 215 63T242 89T256 141T260 227V257Q260 316 256 353T241 410T215 438T173 446H165Q144 446 130 440T106 415T92 358T88 257V227Q88 172 91 139T104 87T127 62T164 56H172ZM189 546H150V614Q150 639 152 656T160 683T176 699T201 707V684Q193 682 188 679T180 668T176 649T175 616V610H189V546Z"  />
<glyph unicode="&#x124;" horiz-adv-x="461" d="M397 0H350V335H111V0H64V680H111V376H350V680H397V0ZM313 747L230 825L148 747L128 765L230 867L333 765L313 747Z"  />
<glyph unicode="&#x125;" horiz-adv-x="375" d="M318 0H274V300Q274 348 271 377T260 421T236 441T197 446H191Q168 446 152 441T126 419T110 375T105 300V0H61V680H105V419H106Q114 448 135 466T203 484H209Q241 484 262 477T295 452T313 402T318 319V0ZM151 747L77 840L4 747L-17 766L77 885L172 766L151 747Z"  />
<glyph unicode="&#x126;" horiz-adv-x="461" d="M397 0H350V335H111V0H64V502H25V534H64V680H111V534H350V680H397V534H436V502H397V0ZM350 376V502H111V376H350Z"  />
<glyph unicode="&#x127;" horiz-adv-x="375" d="M318 0H274V300Q274 348 271 377T260 421T236 441T197 446H191Q168 446 152 441T126 419T110 375T105 300V0H61V559H26V590H61V680H105V590H192V559H105V419H106Q114 447 135 465T203 484H209Q241 484 262 477T295 452T313 402T318 319V0Z"  />
<glyph unicode="&#x128;" horiz-adv-x="175" d="M111 0H64V680H111V0ZM186 836Q184 801 172 782T133 762Q115 762 103 770T80 788Q72 796 65 801T47 807Q33 807 26 797T16 761L-8 764Q-6 799 6 819T44 839Q61 839 72 831T94 814Q103 806 111 800T131 793Q146 793 153 803T162 840L186 836Z"  />
<glyph unicode="&#x129;" horiz-adv-x="166" d="M105 0H61V480H105V0ZM181 675Q179 640 167 621T128 601Q110 601 98 609T75 627Q67 635 60 640T42 646Q28 646 21 636T11 600L-13 603Q-11 638 1 658T39 678Q56 678 67 670T89 653Q98 645 106 639T126 632Q141 632 148 642T157 679L181 675Z"  />
<glyph unicode="&#x12A;" horiz-adv-x="175" d="M111 0H64V680H111V0ZM162 780H16V814H162V780Z"  />
<glyph unicode="&#x12B;" horiz-adv-x="166" d="M105 0H61V480H105V0ZM157 621H11V655H157V621Z"  />
<glyph unicode="&#x12E;" horiz-adv-x="175" d="M123 -177Q112 -181 99 -184T72 -187Q40 -187 24 -174T7 -129Q7 -100 24 -70T74 0H64V680H111V0H105Q73 -39 58 -68T42 -121Q42 -141 53 -148T81 -156Q90 -156 101 -154T123 -149V-177Z"  />
<glyph unicode="&#x12F;" horiz-adv-x="166" d="M117 -177Q106 -181 93 -184T67 -187Q35 -187 18 -174T1 -129Q1 -100 18 -70T67 -1L61 0V480H105V0L99 -1Q67 -41 52 -70T36 -122Q36 -142 47 -149T75 -156Q84 -156 96 -154T117 -149V-177ZM105 606H61V680H105V606Z"  />
<glyph unicode="&#x130;" horiz-adv-x="175" d="M111 0H64V680H111V0ZM110 758H66V832H110V758Z"  />
<glyph unicode="&#x131;" horiz-adv-x="166" d="M105 0H61V480H105V0Z"  />
<glyph unicode="&#x132;" horiz-adv-x="549" d="M111 0H64V680H111V0ZM344 -4Q305 -4 280 3T241 32T221 93T216 198V216H261V199Q261 145 264 113T277 64T303 42T346 37H355Q383 37 400 43T426 66T439 115T442 199V680H489V204Q489 141 484 101T463 37T422 5T355 -4H344Z"  />
<glyph unicode="&#x133;" horiz-adv-x="332" d="M105 0H61V480H105V0ZM105 606H61V680H105V606ZM271 -64Q271 -98 268 -119T256 -153T234 -169T203 -174Q195 -174 185 -172V-134Q189 -135 195 -135Q205 -135 211 -133T221 -122T226 -99T227 -58V480H271V-64ZM271 606H227V680H271V606Z"  />
<glyph unicode="&#x134;" horiz-adv-x="357" d="M152 -4Q113 -4 88 3T49 32T29 93T24 198V216H69V199Q69 145 72 113T85 64T111 42T154 37H163Q191 37 208 43T234 66T247 115T250 199V680H297V204Q297 141 292 101T271 37T230 5T163 -4H152ZM351 747L268 825L186 747L166 765L268 867L371 765L351 747Z"  />
<glyph unicode="&#x135;" horiz-adv-x="166" d="M105 -64Q105 -98 102 -119T90 -153T68 -169T37 -174Q29 -174 19 -172V-134Q23 -135 29 -135Q39 -135 45 -133T55 -122T60 -99T61 -58V480H105V-64ZM154 570L80 663L7 570L-14 589L80 708L175 589L154 570Z"  />
<glyph unicode="&#x136;" horiz-adv-x="407" d="M401 0H347L154 328H111V0H64V680H111V365H153L341 680H392L194 349L401 0ZM201 -49H240V-117Q240 -167 230 -186T189 -210V-187Q196 -185 201 -182T209 -171T213 -152T215 -119V-113H201V-49Z"  />
<glyph unicode="&#x137;" horiz-adv-x="312" d="M308 0H258L120 243H105V0H61V680H105V271H121L250 480H298L161 258L308 0ZM153 -49H192V-117Q192 -167 182 -186T141 -210V-187Q148 -185 153 -182T161 -171T165 -152T167 -119V-113H153V-49Z"  />
<glyph unicode="&#x139;" horiz-adv-x="323" d="M311 0H64V680H111V41H311V0ZM234 831L92 742L79 761L213 863L234 831Z"  />
<glyph unicode="&#x13A;" horiz-adv-x="166" d="M105 0H61V680H105V0ZM87 742L70 760L182 885L208 857L87 742Z"  />
<glyph unicode="&#x13B;" horiz-adv-x="323" d="M311 0H64V680H111V41H311V0ZM170 -49H209V-117Q209 -167 199 -186T158 -210V-187Q165 -185 170 -182T178 -171T182 -152T184 -119V-113H170V-49Z"  />
<glyph unicode="&#x13C;" horiz-adv-x="166" d="M105 0H61V680H105V0ZM62 -49H101V-117Q101 -167 91 -186T50 -210V-187Q57 -185 62 -182T70 -171T74 -152T76 -119V-113H62V-49Z"  />
<glyph unicode="&#x13D;" horiz-adv-x="323" d="M311 0H64V680H111V41H311V0ZM219 612Q219 585 217 568T209 540T196 524T175 516V541Q180 543 183 546T189 557T192 576T193 609V616H180V680H219V612Z"  />
<glyph unicode="&#x13E;" horiz-adv-x="166" d="M105 0H61V680H105V0ZM198 612Q198 585 196 568T188 540T175 524T154 516V541Q159 543 162 546T168 557T171 576T172 609V616H159V680H198V612Z"  />
<glyph unicode="&#x13F;" horiz-adv-x="323" d="M311 0H64V680H111V41H311V0ZM276 314H232V388H276V314Z"  />
<glyph unicode="&#x140;" horiz-adv-x="214" d="M105 0H61V680H105V0ZM210 311H166V385H210V311Z"  />
<glyph unicode="&#x141;" horiz-adv-x="323" d="M311 0H64V291L11 247V286L64 331V680H111V365L207 448V408L111 324V41H311V0Z"  />
<glyph unicode="&#x142;" horiz-adv-x="166" d="M105 0H61V310L26 270V310L61 351V680H105V387L142 430V388L105 346V0Z"  />
<glyph unicode="&#x143;" horiz-adv-x="479" d="M415 0H335L113 635H110V0H64V680H144L366 46H369V680H415V0ZM330 831L188 742L175 761L309 863L330 831Z"  />
<glyph unicode="&#x144;" horiz-adv-x="374" d="M317 0H273V300Q273 348 270 377T259 421T236 441T197 446H191Q168 446 152 441T126 419T110 375T105 300V0H61V480H104V419H105Q113 447 134 465T203 484H209Q241 484 262 477T295 451T312 400T317 319V0ZM142 562L125 580L237 705L263 677L142 562Z"  />
<glyph unicode="&#x145;" horiz-adv-x="479" d="M415 0H335L113 635H110V0H64V680H144L366 46H369V680H415V0ZM225 -49H264V-117Q264 -167 254 -186T213 -210V-187Q220 -185 225 -182T233 -171T237 -152T239 -119V-113H225V-49Z"  />
<glyph unicode="&#x146;" horiz-adv-x="374" d="M317 0H273V300Q273 348 270 377T259 421T236 441T197 446H191Q168 446 152 441T126 419T110 375T105 300V0H61V480H104V419H105Q113 447 134 465T203 484H209Q241 484 262 477T295 451T312 400T317 319V0ZM171 -49H210V-117Q210 -167 200 -186T159 -210V-187Q166 -185 171 -182T179 -171T183 -152T185 -119V-113H171V-49Z"  />
<glyph unicode="&#x147;" horiz-adv-x="479" d="M415 0H335L113 635H110V0H64V680H144L366 46H369V680H415V0ZM246 735L144 837L164 855L246 778L329 855L349 837L246 735Z"  />
<glyph unicode="&#x148;" horiz-adv-x="374" d="M317 0H273V300Q273 348 270 377T259 421T236 441T197 446H191Q168 446 152 441T126 419T110 375T105 300V0H61V480H104V419H105Q113 447 134 465T203 484H209Q241 484 262 477T295 451T312 400T317 319V0ZM192 558L97 677L116 694L193 604L267 694L286 677L192 558Z"  />
<glyph unicode="&#x149;" horiz-adv-x="377" d="M317 0H273V300Q273 348 270 377T259 421T236 441T197 446H191Q168 446 152 441T126 419T110 375T105 300V0H61V480H104V419H105Q113 447 134 465T203 484H209Q241 484 262 477T295 451T312 400T317 319V0ZM60 589Q60 562 58 545T50 517T37 501T16 493V518Q21 520 24 523T30 534T33 553T34 586V593H21V657H60V589Z"  />
<glyph unicode="&#x14C;" horiz-adv-x="443" d="M216 -4Q163 -4 131 6T80 50T56 144T49 309V371Q49 474 55 535T80 630T130 673T216 684H227Q279 684 312 674T363 630T387 536T394 371V309Q394 206 388 145T363 50T312 7T227 -4H216ZM227 37Q265 37 288 43T325 77T342 157T347 306V374Q347 468 343 522T325 603T289 636T227 643H216Q178 643 155 637T118 603T101 522T96 374V306Q96 211 100 158T118 77T154 44T216 37H227ZM295 780H149V814H295V780Z"  />
<glyph unicode="&#x14D;" horiz-adv-x="352" d="M180 35Q206 35 222 40T248 65T260 121T263 223V257Q263 321 260 358T248 415T223 440T180 446H173Q146 446 130 441T104 416T92 359T89 257V223Q89 159 92 122T104 65T129 41T173 35H180ZM172 -4Q133 -4 109 4T70 37T51 106T45 223V257Q45 329 50 373T70 442T108 475T172 484H181Q220 484 244 476T283 443T302 374T307 257V223Q307 151 302 107T283 38T245 5T181 -4H172ZM249 621H103V655H249V621Z"  />
<glyph unicode="&#x14E;" horiz-adv-x="443" d="M216 -4Q163 -4 131 6T80 50T56 144T49 309V371Q49 474 55 535T80 630T130 673T216 684H227Q279 684 312 674T363 630T387 536T394 371V309Q394 206 388 145T363 50T312 7T227 -4H216ZM227 37Q265 37 288 43T325 77T342 157T347 306V374Q347 468 343 522T325 603T289 636T227 643H216Q178 643 155 637T118 603T101 522T96 374V306Q96 211 100 158T118 77T154 44T216 37H227ZM310 843Q310 786 289 762T222 738Q175 738 155 761T134 843H162Q163 800 177 786T222 771Q252 771 266 785T282 843H310Z"  />
<glyph unicode="&#x14F;" horiz-adv-x="352" d="M180 35Q206 35 222 40T248 65T260 121T263 223V257Q263 321 260 358T248 415T223 440T180 446H173Q146 446 130 441T104 416T92 359T89 257V223Q89 159 92 122T104 65T129 41T173 35H180ZM172 -4Q133 -4 109 4T70 37T51 106T45 223V257Q45 329 50 373T70 442T108 475T172 484H181Q220 484 244 476T283 443T302 374T307 257V223Q307 151 302 107T283 38T245 5T181 -4H172ZM264 682Q264 625 243 601T176 577Q129 577 109 600T88 682H116Q117 639 131 625T176 610Q206 610 220 624T236 682H264Z"  />
<glyph unicode="&#x150;" horiz-adv-x="443" d="M216 -4Q163 -4 131 6T80 50T56 144T49 309V371Q49 474 55 535T80 630T130 673T216 684H227Q279 684 312 674T363 630T387 536T394 371V309Q394 206 388 145T363 50T312 7T227 -4H216ZM227 37Q265 37 288 43T325 77T342 157T347 306V374Q347 468 343 522T325 603T289 636T227 643H216Q178 643 155 637T118 603T101 522T96 374V306Q96 211 100 158T118 77T154 44T216 37H227ZM174 733L158 751L252 871L276 847L174 733ZM269 733L252 750L346 870L371 846L269 733Z"  />
<glyph unicode="&#x151;" horiz-adv-x="352" d="M180 35Q206 35 222 40T248 65T260 121T263 223V257Q263 321 260 358T248 415T223 440T180 446H173Q146 446 130 441T104 416T92 359T89 257V223Q89 159 92 122T104 65T129 41T173 35H180ZM172 -4Q133 -4 109 4T70 37T51 106T45 223V257Q45 329 50 373T70 442T108 475T172 484H181Q220 484 244 476T283 443T302 374T307 257V223Q307 151 302 107T283 38T245 5T181 -4H172ZM224 687L134 561L116 576L197 708L224 687ZM313 685L223 558L205 574L286 705L313 685Z"  />
<glyph unicode="&#x152;" horiz-adv-x="631" d="M607 0H349V72H348Q342 50 334 36T310 12T273 0T216 -4H207Q160 -4 130 6T81 48T56 143T49 311V371Q49 473 55 534T79 629T127 673T205 684H215Q281 684 310 668T348 608H349V680H606V641H392V373H591V335H392V39H607V0ZM227 37Q261 37 284 43T321 70T341 134T347 250V432Q347 501 342 542T324 606T288 636T227 643H216Q178 643 155 637T118 603T101 522T96 374V308Q96 213 100 159T118 78T154 44T216 37H227Z"  />
<glyph unicode="&#x153;" horiz-adv-x="559" d="M515 153Q515 106 509 76T489 28T453 3T399 -4H388Q365 -4 348 -1T318 10T299 34T287 73H286Q281 47 273 32T251 9T219 -1T179 -4H170Q132 -4 108 4T70 37T51 106T45 223V257Q45 329 50 373T70 442T108 475T170 484H179Q201 484 219 481T250 470T272 447T286 407H287Q295 455 320 469T387 484H396Q432 484 454 476T490 447T508 388T513 290V240H307V223Q307 159 310 122T323 65T348 40T389 34H398Q421 34 435 38T458 56T470 92T474 153V163H515V153ZM180 35Q207 35 223 40T248 65T260 121T263 223V257Q263 322 260 359T248 416T223 441T180 446H173Q146 446 130 441T104 416T92 359T89 257V223Q89 159 92 122T104 65T129 41T173 35H180ZM471 275V295Q471 346 468 376T457 422T434 442T396 447H388Q364 447 349 442T324 419T311 367T307 275H471Z"  />
<glyph unicode="&#x154;" horiz-adv-x="427" d="M241 330Q263 330 278 335T304 355T318 395T323 459V491Q323 541 318 570T298 615T256 634T183 639H111V330H241ZM369 0H322V97Q322 164 319 202T306 260T274 284T216 289H111V0H64V680H193Q248 680 283 673T337 646T363 590T370 493V467Q370 427 366 400T354 356T332 329T300 314V312Q321 307 334 297T355 266T366 212T369 127V0ZM293 831L151 742L138 761L272 863L293 831Z"  />
<glyph unicode="&#x155;" horiz-adv-x="287" d="M105 0H61V480H104V414H105Q120 484 187 484H191Q214 484 229 478T253 455T265 414T269 350V312H228V340Q228 372 226 392T217 424T201 440T177 444H172Q157 444 145 439T124 416T110 366T105 279V0ZM121 562L104 580L216 705L242 677L121 562Z"  />
<glyph unicode="&#x156;" horiz-adv-x="427" d="M241 330Q263 330 278 335T304 355T318 395T323 459V491Q323 541 318 570T298 615T256 634T183 639H111V330H241ZM369 0H322V97Q322 164 319 202T306 260T274 284T216 289H111V0H64V680H193Q248 680 283 673T337 646T363 590T370 493V467Q370 427 366 400T354 356T332 329T300 314V312Q321 307 334 297T355 266T366 212T369 127V0ZM200 -49H239V-117Q239 -167 229 -186T188 -210V-187Q195 -185 200 -182T208 -171T212 -152T214 -119V-113H200V-49Z"  />
<glyph unicode="&#x157;" horiz-adv-x="287" d="M105 0H61V480H104V414H105Q120 484 187 484H191Q214 484 229 478T253 455T265 414T269 350V312H228V340Q228 372 226 392T217 424T201 440T177 444H172Q157 444 145 439T124 416T110 366T105 279V0ZM64 -49H103V-117Q103 -167 93 -186T52 -210V-187Q59 -185 64 -182T72 -171T76 -152T78 -119V-113H64V-49Z"  />
<glyph unicode="&#x158;" horiz-adv-x="427" d="M241 330Q263 330 278 335T304 355T318 395T323 459V491Q323 541 318 570T298 615T256 634T183 639H111V330H241ZM369 0H322V97Q322 164 319 202T306 260T274 284T216 289H111V0H64V680H193Q248 680 283 673T337 646T363 590T370 493V467Q370 427 366 400T354 356T332 329T300 314V312Q321 307 334 297T355 266T366 212T369 127V0ZM203 735L101 837L121 855L203 778L286 855L306 837L203 735Z"  />
<glyph unicode="&#x159;" horiz-adv-x="287" d="M105 0H61V480H104V414H105Q120 484 187 484H191Q214 484 229 478T253 455T265 414T269 350V312H228V340Q228 372 226 392T217 424T201 440T177 444H172Q157 444 145 439T124 416T110 366T105 279V0ZM150 558L55 677L74 694L151 604L225 694L244 677L150 558Z"  />
<glyph unicode="&#x15A;" horiz-adv-x="412" d="M366 185Q366 128 360 91T338 33T292 4T216 -4H203Q154 -4 124 3T78 31T56 87T50 181V215H95V184Q95 136 98 108T113 63T146 42T203 37H214Q248 37 269 41T301 61T315 105T319 182V199Q319 232 314 253T296 289T258 313T194 330Q152 339 125 351T81 382T59 427T52 490V508Q52 559 59 593T82 647T126 675T196 684H209Q255 684 283 676T328 646T349 590T355 500V479H310V498Q310 544 307 572T292 616T262 637T210 643H199Q169 643 150 638T119 618T103 577T99 508V491Q99 464 103 445T120 413T156 390T219 371Q262 362 290 350T335 319T359 272T366 201V185ZM293 831L151 742L138 761L272 863L293 831Z"  />
<glyph unicode="&#x15B;" horiz-adv-x="329" d="M161 -4Q127 -4 105 1T69 22T51 63T46 132V145H86V136Q86 103 89 83T101 51T124 37T160 33H172Q194 33 208 36T230 50T241 80T244 129V138Q244 160 241 174T228 199T200 216T152 230Q124 236 105 244T74 265T57 297T52 345V357Q52 394 58 418T76 457T109 478T159 484H171Q202 484 223 479T256 460T273 419T278 352V340H238V350Q238 380 235 399T225 428T204 442T171 446H160Q140 446 128 443T108 430T98 403T95 358V345Q95 328 98 316T109 295T131 280T170 268Q204 260 226 251T262 228T281 194T287 143V130Q287 89 281 63T261 22T226 2T175 -4H161ZM128 562L111 580L223 705L249 677L128 562Z"  />
<glyph unicode="&#x15C;" horiz-adv-x="412" d="M366 185Q366 128 360 91T338 33T292 4T216 -4H203Q154 -4 124 3T78 31T56 87T50 181V215H95V184Q95 136 98 108T113 63T146 42T203 37H214Q248 37 269 41T301 61T315 105T319 182V199Q319 232 314 253T296 289T258 313T194 330Q152 339 125 351T81 382T59 427T52 490V508Q52 559 59 593T82 647T126 675T196 684H209Q255 684 283 676T328 646T349 590T355 500V479H310V498Q310 544 307 572T292 616T262 637T210 643H199Q169 643 150 638T119 618T103 577T99 508V491Q99 464 103 445T120 413T156 390T219 371Q262 362 290 350T335 319T359 272T366 201V185ZM284 747L201 825L119 747L99 765L201 867L304 765L284 747Z"  />
<glyph unicode="&#x15D;" horiz-adv-x="329" d="M161 -4Q127 -4 105 1T69 22T51 63T46 132V145H86V136Q86 103 89 83T101 51T124 37T160 33H172Q194 33 208 36T230 50T241 80T244 129V138Q244 160 241 174T228 199T200 216T152 230Q124 236 105 244T74 265T57 297T52 345V357Q52 394 58 418T76 457T109 478T159 484H171Q202 484 223 479T256 460T273 419T278 352V340H238V350Q238 380 235 399T225 428T204 442T171 446H160Q140 446 128 443T108 430T98 403T95 358V345Q95 328 98 316T109 295T131 280T170 268Q204 260 226 251T262 228T281 194T287 143V130Q287 89 281 63T261 22T226 2T175 -4H161ZM238 570L164 663L91 570L70 589L164 708L259 589L238 570Z"  />
<glyph unicode="&#x15E;" horiz-adv-x="412" d="M366 185Q366 128 360 91T338 33T292 4T216 -4H203Q154 -4 124 3T78 31T56 87T50 181V215H95V184Q95 136 98 108T113 63T146 42T203 37H214Q248 37 269 41T301 61T315 105T319 182V199Q319 232 314 253T296 289T258 313T194 330Q152 339 125 351T81 382T59 427T52 490V508Q52 559 59 593T82 647T126 675T196 684H209Q255 684 283 676T328 646T349 590T355 500V479H310V498Q310 544 307 572T292 616T262 637T210 643H199Q169 643 150 638T119 618T103 577T99 508V491Q99 464 103 445T120 413T156 390T219 371Q262 362 290 350T335 319T359 272T366 201V185ZM140 -158L120 -143L212 -5L241 -29L140 -158Z"  />
<glyph unicode="&#x15F;" horiz-adv-x="329" d="M161 -4Q127 -4 105 1T69 22T51 63T46 132V145H86V136Q86 103 89 83T101 51T124 37T160 33H172Q194 33 208 36T230 50T241 80T244 129V138Q244 160 241 174T228 199T200 216T152 230Q124 236 105 244T74 265T57 297T52 345V357Q52 394 58 418T76 457T109 478T159 484H171Q202 484 223 479T256 460T273 419T278 352V340H238V350Q238 380 235 399T225 428T204 442T171 446H160Q140 446 128 443T108 430T98 403T95 358V345Q95 328 98 316T109 295T131 280T170 268Q204 260 226 251T262 228T281 194T287 143V130Q287 89 281 63T261 22T226 2T175 -4H161ZM103 -158L83 -143L175 -5L204 -29L103 -158Z"  />
<glyph unicode="&#x160;" horiz-adv-x="412" d="M366 185Q366 128 360 91T338 33T292 4T216 -4H203Q154 -4 124 3T78 31T56 87T50 181V215H95V184Q95 136 98 108T113 63T146 42T203 37H214Q248 37 269 41T301 61T315 105T319 182V199Q319 232 314 253T296 289T258 313T194 330Q152 339 125 351T81 382T59 427T52 490V508Q52 559 59 593T82 647T126 675T196 684H209Q255 684 283 676T328 646T349 590T355 500V479H310V498Q310 544 307 572T292 616T262 637T210 643H199Q169 643 150 638T119 618T103 577T99 508V491Q99 464 103 445T120 413T156 390T219 371Q262 362 290 350T335 319T359 272T366 201V185ZM204 735L102 837L122 855L204 778L287 855L307 837L204 735Z"  />
<glyph unicode="&#x161;" horiz-adv-x="329" d="M161 -4Q127 -4 105 1T69 22T51 63T46 132V145H86V136Q86 103 89 83T101 51T124 37T160 33H172Q194 33 208 36T230 50T241 80T244 129V138Q244 160 241 174T228 199T200 216T152 230Q124 236 105 244T74 265T57 297T52 345V357Q52 394 58 418T76 457T109 478T159 484H171Q202 484 223 479T256 460T273 419T278 352V340H238V350Q238 380 235 399T225 428T204 442T171 446H160Q140 446 128 443T108 430T98 403T95 358V345Q95 328 98 316T109 295T131 280T170 268Q204 260 226 251T262 228T281 194T287 143V130Q287 89 281 63T261 22T226 2T175 -4H161ZM165 558L70 677L89 694L166 604L240 694L259 677L165 558Z"  />
<glyph unicode="&#x162;" horiz-adv-x="350" d="M199 0H152V639H12V680H338V639H199V0ZM155 -49H194V-117Q194 -167 184 -186T143 -210V-187Q150 -185 155 -182T163 -171T167 -152T169 -119V-113H155V-49Z"  />
<glyph unicode="&#x163;" horiz-adv-x="211" d="M209 4Q198 0 184 -2T155 -4Q128 -4 110 2T82 25T67 71T62 148V444H14V480H62V605H106V480H209V444H106V148Q106 111 109 89T118 55T136 40T166 36Q173 36 187 37T209 41V4ZM111 -49H150V-117Q150 -167 140 -186T99 -210V-187Q106 -185 111 -182T119 -171T123 -152T125 -119V-113H111V-49Z"  />
<glyph unicode="&#x164;" horiz-adv-x="350" d="M199 0H152V639H12V680H338V639H199V0ZM175 735L73 837L93 855L175 778L258 855L278 837L175 735Z"  />
<glyph unicode="&#x165;" horiz-adv-x="211" d="M209 4Q198 0 184 -2T155 -4Q128 -4 110 2T82 25T67 71T62 148V444H14V480H62V605H106V480H209V444H106V148Q106 111 109 89T118 55T136 40T166 36Q173 36 187 37T209 41V4ZM272 612Q272 585 270 568T262 540T249 524T228 516V541Q233 543 236 546T242 557T245 576T246 609V616H233V680H272V612Z"  />
<glyph unicode="&#x166;" horiz-adv-x="350" d="M199 0H152V458H59V491H152V639H12V680H338V639H199V491H292V458H199V0Z"  />
<glyph unicode="&#x167;" horiz-adv-x="211" d="M27 357H62V444H14V480H62V605H106V480H209V444H106V357H188V330H106V148Q106 111 109 89T118 55T136 40T166 36Q173 36 187 37T209 41V4Q198 0 184 -2T155 -4Q128 -4 110 2T82 25T67 71T62 148V330H27V357Z"  />
<glyph unicode="&#x168;" horiz-adv-x="451" d="M221 -4Q173 -4 142 4T93 36T67 101T60 210V680H107V207Q107 151 112 118T130 66T165 43T221 37H231Q265 37 287 42T321 65T339 116T344 207V680H391V210Q391 143 384 102T359 37T310 5T231 -4H221ZM324 836Q322 801 310 782T271 762Q253 762 241 770T218 788Q210 796 203 801T185 807Q171 807 164 797T154 761L130 764Q132 799 144 819T182 839Q199 839 210 831T232 814Q241 806 249 800T269 793Q284 793 291 803T300 840L324 836Z"  />
<glyph unicode="&#x169;" horiz-adv-x="371" d="M310 0H266V63H265Q257 34 236 15T167 -4H162Q130 -4 110 4T77 31T60 81T55 161V480H99V180Q99 132 102 104T115 60T138 39T174 34H180Q202 34 218 39T245 61T261 105T266 180V480H310V0ZM282 675Q280 640 268 621T229 601Q211 601 199 609T176 627Q168 635 161 640T143 646Q129 646 122 636T112 600L88 603Q90 638 102 658T140 678Q157 678 168 670T190 653Q199 645 207 639T227 632Q242 632 249 642T258 679L282 675Z"  />
<glyph unicode="&#x16A;" horiz-adv-x="451" d="M221 -4Q173 -4 142 4T93 36T67 101T60 210V680H107V207Q107 151 112 118T130 66T165 43T221 37H231Q265 37 287 42T321 65T339 116T344 207V680H391V210Q391 143 384 102T359 37T310 5T231 -4H221ZM298 780H152V814H298V780Z"  />
<glyph unicode="&#x16B;" horiz-adv-x="371" d="M310 0H266V63H265Q257 34 236 15T167 -4H162Q130 -4 110 4T77 31T60 81T55 161V480H99V180Q99 132 102 104T115 60T138 39T174 34H180Q202 34 218 39T245 61T261 105T266 180V480H310V0ZM258 621H112V655H258V621Z"  />
<glyph unicode="&#x16C;" horiz-adv-x="451" d="M221 -4Q173 -4 142 4T93 36T67 101T60 210V680H107V207Q107 151 112 118T130 66T165 43T221 37H231Q265 37 287 42T321 65T339 116T344 207V680H391V210Q391 143 384 102T359 37T310 5T231 -4H221ZM313 843Q313 786 292 762T225 738Q178 738 158 761T137 843H165Q166 800 180 786T225 771Q255 771 269 785T285 843H313Z"  />
<glyph unicode="&#x16D;" horiz-adv-x="371" d="M310 0H266V63H265Q257 34 236 15T167 -4H162Q130 -4 110 4T77 31T60 81T55 161V480H99V180Q99 132 102 104T115 60T138 39T174 34H180Q202 34 218 39T245 61T261 105T266 180V480H310V0ZM273 682Q273 625 252 601T185 577Q138 577 118 600T97 682H125Q126 639 140 625T185 610Q215 610 229 624T245 682H273Z"  />
<glyph unicode="&#x16E;" horiz-adv-x="451" d="M221 -4Q173 -4 142 4T93 36T67 101T60 210V680H107V207Q107 151 112 118T130 66T165 43T221 37H231Q265 37 287 42T321 65T339 116T344 207V680H391V210Q391 143 384 102T359 37T310 5T231 -4H221ZM223 726Q185 726 167 742T149 796V802Q149 839 167 855T223 872H228Q266 872 284 856T302 802V796Q302 759 284 743T228 726H223ZM228 748Q252 748 263 759T274 796V802Q274 828 263 838T228 849H223Q199 849 188 839T177 802V796Q177 770 188 759T223 748H228Z"  />
<glyph unicode="&#x16F;" horiz-adv-x="371" d="M310 0H266V63H265Q257 34 236 15T167 -4H162Q130 -4 110 4T77 31T60 81T55 161V480H99V180Q99 132 102 104T115 60T138 39T174 34H180Q202 34 218 39T245 61T261 105T266 180V480H310V0ZM182 559Q144 559 126 575T108 628V634Q108 672 126 688T182 704H187Q225 704 243 688T261 634V628Q261 591 243 575T187 559H182ZM187 581Q211 581 222 591T233 628V634Q233 660 222 671T187 682H182Q158 682 147 671T136 634V628Q136 602 147 592T182 581H187Z"  />
<glyph unicode="&#x170;" horiz-adv-x="451" d="M221 -4Q173 -4 142 4T93 36T67 101T60 210V680H107V207Q107 151 112 118T130 66T165 43T221 37H231Q265 37 287 42T321 65T339 116T344 207V680H391V210Q391 143 384 102T359 37T310 5T231 -4H221ZM173 733L157 751L251 871L275 847L173 733ZM268 733L251 750L345 870L370 846L268 733Z"  />
<glyph unicode="&#x171;" horiz-adv-x="371" d="M310 0H266V63H265Q257 34 236 15T167 -4H162Q130 -4 110 4T77 31T60 81T55 161V480H99V180Q99 132 102 104T115 60T138 39T174 34H180Q202 34 218 39T245 61T261 105T266 180V480H310V0ZM227 687L137 561L119 576L200 708L227 687ZM316 685L226 558L208 574L289 705L316 685Z"  />
<glyph unicode="&#x172;" horiz-adv-x="451" d="M278 -177Q268 -181 255 -184T228 -187Q196 -187 179 -174T162 -129Q162 -101 178 -72T226 -4H215Q169 -4 139 5T92 37T67 102T60 210V680H107V207Q107 151 112 118T130 66T165 43T221 37H231Q265 37 287 42T321 65T339 116T344 207V680H391V210Q391 147 385 107T363 43T323 9T260 -3Q229 -39 213 -68T197 -122Q197 -142 208 -149T237 -156Q246 -156 257 -154T278 -149V-177Z"  />
<glyph unicode="&#x173;" horiz-adv-x="371" d="M266 0V63H265Q257 34 236 15T167 -4H162Q130 -4 110 4T77 31T60 81T55 161V480H99V180Q99 132 102 104T115 60T138 39T174 34H180Q202 34 218 39T245 61T261 105T266 180V480H310V0Q260 -38 243 -68T226 -121Q226 -141 237 -148T265 -156Q274 -156 285 -154T307 -149V-177Q296 -181 283 -184T256 -187Q224 -187 208 -174T191 -129Q191 -99 210 -69T271 0H266Z"  />
<glyph unicode="&#x174;" horiz-adv-x="637" d="M502 0H430L320 639H318L207 0H135L14 680H60L172 39H174L284 680H354L465 39H468L578 680H623L502 0ZM401 747L318 825L236 747L216 765L318 867L421 765L401 747Z"  />
<glyph unicode="&#x175;" horiz-adv-x="490" d="M384 0H319L246 442H244L173 0H105L14 480H59L138 32H140L215 480H278L352 32H355L432 480H476L384 0ZM318 570L244 663L171 570L150 589L244 708L339 589L318 570Z"  />
<glyph unicode="&#x176;" horiz-adv-x="368" d="M207 0H160V233L6 680H53L184 284H185L317 680H362L207 233V0ZM267 747L184 825L102 747L82 765L184 867L287 765L267 747Z"  />
<glyph unicode="&#x177;" horiz-adv-x="303" d="M45 -135Q55 -136 61 -136T69 -136Q83 -136 93 -132T112 -114T130 -72T150 7H120L12 480H58L155 41H158L246 480H291L200 46Q185 -26 172 -69T145 -135T114 -166T71 -174Q63 -174 58 -174T45 -173V-135ZM228 570L154 663L81 570L60 589L154 708L249 589L228 570Z"  />
<glyph unicode="&#x178;" horiz-adv-x="368" d="M207 0H160V233L6 680H53L184 284H185L317 680H362L207 233V0ZM145 758H103V832H145V758ZM265 758H223V832H265V758Z"  />
<glyph unicode="&#x179;" horiz-adv-x="366" d="M339 0H30V40L287 640V641H42V680H337V641L81 41V40H339V0ZM271 831L129 742L116 761L250 863L271 831Z"  />
<glyph unicode="&#x17A;" horiz-adv-x="266" d="M246 0H24V37L198 442V443H33V480H246V445L71 39V37H246V0ZM90 562L73 580L185 705L211 677L90 562Z"  />
<glyph unicode="&#x17B;" horiz-adv-x="366" d="M339 0H30V40L287 640V641H42V680H337V641L81 41V40H339V0ZM207 758H163V832H207V758Z"  />
<glyph unicode="&#x17C;" horiz-adv-x="266" d="M246 0H24V37L198 442V443H33V480H246V445L71 39V37H246V0ZM159 606H115V680H159V606Z"  />
<glyph unicode="&#x17D;" horiz-adv-x="366" d="M339 0H30V40L287 640V641H42V680H337V641L81 41V40H339V0ZM192 735L90 837L110 855L192 778L275 855L295 837L192 735Z"  />
<glyph unicode="&#x17E;" horiz-adv-x="266" d="M246 0H24V37L198 442V443H33V480H246V445L71 39V37H246V0ZM139 558L44 677L63 694L140 604L214 694L233 677L139 558Z"  />
<glyph unicode="&#x192;" horiz-adv-x="393" d="M194 38Q190 -1 184 -29T165 -76T135 -104T88 -113Q74 -113 61 -112T38 -105V-68Q47 -71 58 -73T82 -76Q100 -76 111 -71T131 -52T144 -15T152 47L181 353H102V389H184L198 533Q206 614 231 649T313 684Q324 684 334 683T354 680V644Q339 647 317 647Q298 647 285 642T263 622T249 583T240 523L227 389H331V353H224L194 38Z"  />
<glyph unicode="&#x218;" horiz-adv-x="412" d="M366 185Q366 128 360 91T338 33T292 4T216 -4H203Q154 -4 124 3T78 31T56 87T50 181V215H95V184Q95 136 98 108T113 63T146 42T203 37H214Q248 37 269 41T301 61T315 105T319 182V199Q319 232 314 253T296 289T258 313T194 330Q152 339 125 351T81 382T59 427T52 490V508Q52 559 59 593T82 647T126 675T196 684H209Q255 684 283 676T328 646T349 590T355 500V479H310V498Q310 544 307 572T292 616T262 637T210 643H199Q169 643 150 638T119 618T103 577T99 508V491Q99 464 103 445T120 413T156 390T219 371Q262 362 290 350T335 319T359 272T366 201V185ZM199 -49H238V-117Q238 -167 228 -186T187 -210V-187Q194 -185 199 -182T207 -171T211 -152T213 -119V-113H199V-49Z"  />
<glyph unicode="&#x219;" horiz-adv-x="329" d="M161 -4Q127 -4 105 1T69 22T51 63T46 132V145H86V136Q86 103 89 83T101 51T124 37T160 33H172Q194 33 208 36T230 50T241 80T244 129V138Q244 160 241 174T228 199T200 216T152 230Q124 236 105 244T74 265T57 297T52 345V357Q52 394 58 418T76 457T109 478T159 484H171Q202 484 223 479T256 460T273 419T278 352V340H238V350Q238 380 235 399T225 428T204 442T171 446H160Q140 446 128 443T108 430T98 403T95 358V345Q95 328 98 316T109 295T131 280T170 268Q204 260 226 251T262 228T281 194T287 143V130Q287 89 281 63T261 22T226 2T175 -4H161ZM152 -49H191V-117Q191 -167 181 -186T140 -210V-187Q147 -185 152 -182T160 -171T164 -152T166 -119V-113H152V-49Z"  />
<glyph unicode="&#x21A;" horiz-adv-x="350" d="M199 0H152V639H12V680H338V639H199V0ZM155 -49H194V-117Q194 -167 184 -186T143 -210V-187Q150 -185 155 -182T163 -171T167 -152T169 -119V-113H155V-49Z"  />
<glyph unicode="&#x21B;" horiz-adv-x="211" d="M209 4Q198 0 184 -2T155 -4Q128 -4 110 2T82 25T67 71T62 148V444H14V480H62V605H106V480H209V444H106V148Q106 111 109 89T118 55T136 40T166 36Q173 36 187 37T209 41V4ZM111 -49H150V-117Q150 -167 140 -186T99 -210V-187Q106 -185 111 -182T119 -171T123 -152T125 -119V-113H111V-49Z"  />
<glyph unicode="&#x237;" horiz-adv-x="166" d="M105 -64Q105 -98 102 -119T90 -153T68 -169T37 -174Q29 -174 19 -172V-134Q23 -135 29 -135Q39 -135 45 -133T55 -122T60 -99T61 -58V480H105V-64Z"  />
<glyph unicode="&#x2C6;" horiz-adv-x="269" d="M208 570L134 663L61 570L40 589L134 708L229 589L208 570Z"  />
<glyph unicode="&#x2C7;" horiz-adv-x="269" d="M135 558L40 677L59 694L136 604L210 694L229 677L135 558Z"  />
<glyph unicode="&#x2C9;" horiz-adv-x="269" d="M209 780H63V814H209V780Z"  />
<glyph unicode="&#x2D8;" horiz-adv-x="269" d="M228 682Q228 625 207 601T140 577Q93 577 73 600T52 682H80Q81 639 95 625T140 610Q170 610 184 624T200 682H228Z"  />
<glyph unicode="&#x2D9;" horiz-adv-x="269" d="M155 606H111V680H155V606Z"  />
<glyph unicode="&#x2DA;" horiz-adv-x="269" d="M136 559Q98 559 80 575T62 628V634Q62 672 80 688T136 704H141Q179 704 197 688T215 634V628Q215 591 197 575T141 559H136ZM141 581Q165 581 176 591T187 628V634Q187 660 176 671T141 682H136Q112 682 101 671T90 634V628Q90 602 101 592T136 581H141Z"  />
<glyph unicode="&#x2DB;" horiz-adv-x="269" d="M195 -177Q185 -181 172 -184T145 -187Q113 -187 96 -174T79 -129Q79 -100 98 -70T159 0H191Q168 -23 153 -41T130 -73T118 -99T114 -121Q114 -141 125 -148T154 -156Q163 -156 174 -154T195 -149V-177Z"  />
<glyph unicode="&#x2DC;" horiz-adv-x="269" d="M232 675Q230 640 218 621T179 601Q161 601 149 609T126 627Q118 635 111 640T93 646Q79 646 72 636T62 600L38 603Q40 638 52 658T90 678Q107 678 118 670T140 653Q149 645 157 639T177 632Q192 632 199 642T208 679L232 675Z"  />
<glyph unicode="&#x2DD;" horiz-adv-x="269" d="M164 687L74 561L56 576L137 708L164 687ZM253 685L163 558L145 574L226 705L253 685Z"  />
<glyph unicode="&#x394;" horiz-adv-x="407" d="M380 0H27L172 680H235L380 0ZM329 38L204 643H202L76 38H329Z"  />
<glyph unicode="&#x3A9;" horiz-adv-x="536" d="M469 0H316V162Q374 185 406 247T438 402Q438 455 427 499T393 576T340 627T268 645Q228 645 197 627T143 577T110 500T98 402Q98 309 130 247T220 162V0H67V38H184V138Q119 170 86 236T52 402Q52 463 66 514T108 603T176 662T268 684Q320 684 360 663T427 604T469 515T484 402Q484 302 451 236T352 138V38H469V0Z"  />
<glyph unicode="&#x3BC;" horiz-adv-x="380" d="M319 0H276V63H275Q267 34 247 15T184 -4H179Q143 -4 129 9T107 41H105V-158H61V480H105V182Q105 136 108 107T121 62T144 40T181 34H187Q210 34 226 40T254 62T270 107T275 182V480H319V0Z"  />
<glyph unicode="&#x3C0;" horiz-adv-x="393" d="M357 3Q345 -4 327 -4Q299 -4 286 13T272 81V442H116V0H72V442H31V480H360V442H316V81Q316 50 321 41T339 31Q348 31 356 35L357 3Z"  />
<glyph unicode="&#x2013;" horiz-adv-x="308" d="M308 235H0V271H308V235Z"  />
<glyph unicode="&#x2014;" horiz-adv-x="542" d="M515 235H27V271H515V235Z"  />
<glyph unicode="&#x2018;" horiz-adv-x="141" d="M92 489H46V571Q46 619 56 645T102 680V653Q85 648 80 631T74 575V568H92V489Z"  />
<glyph unicode="&#x2019;" horiz-adv-x="141" d="M95 598Q95 550 85 524T39 489V516Q56 521 61 538T67 594V601H49V680H95V598Z"  />
<glyph unicode="&#x201A;" horiz-adv-x="141" d="M95 -3Q95 -51 85 -77T39 -112V-85Q56 -80 61 -63T67 -7V0H49V79H95V-3Z"  />
<glyph unicode="&#x201C;" horiz-adv-x="234" d="M92 489H46V571Q46 619 56 645T102 680V653Q85 648 80 631T74 575V568H92V489ZM185 489H139V571Q139 619 149 645T195 680V653Q178 648 173 631T167 575V568H185V489Z"  />
<glyph unicode="&#x201D;" horiz-adv-x="234" d="M95 598Q95 550 85 524T39 489V516Q56 521 61 538T67 594V601H49V680H95V598ZM188 598Q188 550 178 524T132 489V516Q149 521 154 538T160 594V601H142V680H188V598Z"  />
<glyph unicode="&#x201E;" horiz-adv-x="234" d="M95 -3Q95 -51 85 -77T39 -112V-85Q56 -80 61 -62T67 -7V0H49V79H95V-3ZM188 -3Q188 -51 178 -77T132 -112V-85Q149 -80 154 -62T160 -7V0H142V79H188V-3Z"  />
<glyph unicode="&#x2020;" horiz-adv-x="389" d="M214 -90H176V469H62V505H176V680H214V505H327V469H214V-90Z"  />
<glyph unicode="&#x2021;" horiz-adv-x="389" d="M214 -90H176V86H62V122H176V483H62V519H176V680H214V519H327V483H214V122H327V86H214V-90Z"  />
<glyph unicode="&#x2022;" horiz-adv-x="338" d="M258 341Q258 304 232 278T169 252Q131 252 106 278T80 341Q80 379 105 404T169 430Q206 430 232 405T258 341Z"  />
<glyph unicode="&#x2026;" horiz-adv-x="432" d="M96 0H48V81H96V0ZM240 0H192V81H240V0ZM384 0H336V81H384V0Z"  />
<glyph unicode="&#x2030;" horiz-adv-x="757" d="M135 386Q112 386 97 391T73 412T60 453T56 522V545Q56 587 60 613T73 655T97 675T135 681H142Q165 681 180 676T204 655T217 614T221 545V522Q221 480 217 454T204 412T180 392T142 386H135ZM141 414Q155 414 164 417T178 430T186 462T189 520V546Q189 582 187 603T179 636T164 650T141 653H135Q121 653 112 650T98 636T91 604T88 546V520Q88 484 90 463T98 431T112 417T135 414H141ZM191 0H158L349 680H381L191 0ZM403 -1Q380 -1 365 4T341 25T328 66T324 135V158Q324 200 328 226T341 268T365 288T403 294H410Q433 294 448 289T472 268T485 227T489 158V135Q489 93 485 67T472 25T448 5T410 -1H403ZM409 27Q423 27 432 30T446 43T454 75T457 133V159Q457 195 455 216T447 249T432 263T409 266H403Q389 266 380 263T366 249T359 217T356 159V133Q356 97 358 76T366 44T380 30T403 27H409ZM615 -1Q592 -1 577 4T553 25T540 66T536 135V158Q536 200 540 226T553 268T577 288T615 294H622Q645 294 660 289T684 268T697 227T701 158V135Q701 93 697 67T684 25T660 5T622 -1H615ZM621 27Q635 27 644 30T658 43T666 75T669 133V159Q669 195 667 216T659 249T644 263T621 266H615Q601 266 592 263T578 249T571 217T568 159V133Q568 97 570 76T578 44T592 30T615 27H621Z"  />
<glyph unicode="&#x2039;" horiz-adv-x="205" d="M174 87L142 71L34 271L142 472L174 456L74 271L174 87Z"  />
<glyph unicode="&#x203A;" horiz-adv-x="205" d="M63 71L31 87L131 271L31 457L63 472L171 271L63 71Z"  />
<glyph unicode="&#x2044;" horiz-adv-x="91" d="M-33 0H-66L124 680H157L-33 0Z"  />
<glyph unicode="&#x2070;" horiz-adv-x="270" d="M138 480Q159 480 171 485T190 505T198 549T200 622V656Q200 701 198 729T190 772T171 793T138 798H132Q111 798 99 793T81 773T73 729T71 656V622Q71 577 73 549T81 506T99 485T132 480H138ZM132 451Q100 451 82 459T53 486T40 539T37 624V655Q37 706 40 739T53 791T81 819T132 827H138Q169 827 188 819T217 792T230 739T233 655V624Q233 573 230 540T217 487T188 459T138 451H132Z"  />
<glyph unicode="&#x2074;" horiz-adv-x="268" d="M207 453H174V539H28V571L156 825H207V567H243V539H207V453ZM174 567V795H173L60 568V567H174Z"  />
<glyph unicode="&#x2075;" horiz-adv-x="263" d="M128 451Q101 451 84 456T57 472T44 503T40 552V565H72V552Q72 508 82 494T128 480H134Q153 480 164 483T183 495T192 523T195 572V583Q195 611 193 629T185 657T169 670T141 674H135Q120 674 110 673T94 668T85 659T77 646H45V825H226V796H77V673H78Q85 687 98 695T140 703H147Q171 703 187 698T212 679T225 642T229 585V572Q229 534 225 511T209 474T180 456T135 451H128Z"  />
<glyph unicode="&#x2076;" horiz-adv-x="267" d="M138 480Q156 480 167 482T185 493T194 515T197 555V565Q197 589 195 604T186 627T167 638T136 641H130Q116 641 106 639T88 630T76 610T72 576V564Q72 536 74 520T84 494T102 483T132 480H138ZM131 451Q104 451 86 455T58 473T43 508T39 566V675Q39 723 42 753T56 799T84 821T131 827H138Q164 827 181 823T207 807T221 777T225 727V714H192V727Q192 771 182 784T137 798H131Q113 798 102 795T84 780T75 746T72 684V639H73Q83 670 136 670H143Q168 670 184 666T211 651T225 620T230 569V555Q230 523 226 503T210 472T182 456T138 451H131Z"  />
<glyph unicode="&#x2077;" horiz-adv-x="245" d="M94 453H59L179 795V796H25V825H215V798L94 453Z"  />
<glyph unicode="&#x2078;" horiz-adv-x="268" d="M130 451Q105 451 88 455T59 469T42 499T37 547V555Q37 582 40 599T49 626T63 641T83 648V649Q62 654 51 669T40 729V739Q40 790 59 808T129 827H140Q189 827 209 809T229 739V729Q229 685 218 670T186 649V648Q197 646 205 641T219 626T228 599T231 555V547Q231 518 226 499T210 470T182 455T139 451H130ZM139 663Q170 663 183 675T196 727V737Q196 775 185 786T139 798H129Q95 798 84 787T73 737V727Q73 687 85 675T130 663H139ZM139 480Q157 480 168 482T187 492T196 513T199 549V558Q199 605 187 619T139 634H130Q112 634 101 631T82 620T73 597T70 558V549Q70 505 82 493T130 480H139Z"  />
<glyph unicode="&#x2079;" horiz-adv-x="267" d="M137 637Q151 637 161 639T179 648T191 668T195 702V714Q195 742 193 758T183 784T164 795T134 798H128Q110 798 99 796T81 786T72 764T69 725V716Q69 691 71 676T81 652T100 640T131 637H137ZM129 451Q102 451 85 455T58 470T44 501T40 551V564H73V551Q73 529 75 516T83 494T100 483T129 480H135Q154 480 165 483T183 498T192 532T195 594V639H194Q189 625 174 617T131 608H124Q100 608 83 612T56 627T41 659T36 712V725Q36 756 40 776T56 807T84 822T128 827H135Q162 827 180 822T208 805T223 770T228 712V603Q228 555 225 525T211 479T182 457T136 451H129Z"  />
<glyph unicode="&#x2080;" horiz-adv-x="270" d="M138 -127Q159 -127 171 -122T190 -102T198 -58T200 15V49Q200 94 198 122T190 165T171 186T138 191H132Q111 191 99 186T81 166T73 122T71 49V15Q71 -30 73 -58T81 -101T99 -122T132 -127H138ZM132 -156Q100 -156 82 -148T53 -121T40 -68T37 17V48Q37 99 40 132T53 184T81 212T132 220H138Q169 220 188 212T217 185T230 132T233 48V17Q233 -34 230 -67T217 -120T188 -148T138 -156H132Z"  />
<glyph unicode="&#x2081;" horiz-adv-x="218" d="M162 -154H128V174H127L68 74L43 90L119 218H162V-154Z"  />
<glyph unicode="&#x2082;" horiz-adv-x="260" d="M228 -154H41V-109Q41 -74 44 -52T56 -16T82 6T127 23Q148 29 161 35T182 51T192 75T195 109V120Q195 163 183 177T135 191H130Q98 191 86 177T74 117V97H41V117Q41 174 60 197T130 220H136Q164 220 182 215T210 199T225 168T229 120V110Q229 83 225 65T209 34T180 12T134 -5Q114 -11 102 -17T84 -33T76 -61T74 -106V-125H228V-154Z"  />
<glyph unicode="&#x2083;" horiz-adv-x="265" d="M130 -156Q102 -156 84 -152T55 -135T40 -100T36 -44V-31H68V-45Q68 -71 70 -87T80 -112T99 -124T129 -127H135Q154 -127 166 -124T185 -114T194 -93T197 -58V-46Q197 -6 185 9T148 25H107V51H148Q171 51 181 63T192 111V122Q192 145 190 158T181 179T163 189T134 191H128Q111 191 100 189T83 179T74 158T71 121V95H40V120Q40 149 44 168T58 199T85 215T129 220H135Q162 220 179 216T207 200T222 170T226 123V113Q226 77 217 62T191 39V38Q208 33 219 16T231 -47V-58Q231 -87 227 -105T211 -135T182 -151T136 -156H130Z"  />
<glyph unicode="&#x2084;" horiz-adv-x="268" d="M207 -154H174V-68H28V-36L156 218H207V-40H243V-68H207V-154ZM174 -40V188H173L60 -39V-40H174Z"  />
<glyph unicode="&#x2085;" horiz-adv-x="263" d="M128 -156Q101 -156 84 -151T57 -135T44 -104T40 -55V-42H72V-55Q72 -99 82 -113T128 -127H134Q153 -127 164 -124T183 -112T192 -84T195 -35V-24Q195 4 193 22T185 50T169 63T141 67H135Q120 67 110 66T94 61T85 52T77 39H45V218H226V189H77V66H78Q85 80 98 88T140 96H147Q171 96 187 91T212 72T225 35T229 -22V-35Q229 -73 225 -96T209 -133T180 -151T135 -156H128Z"  />
<glyph unicode="&#x2086;" horiz-adv-x="267" d="M138 -127Q156 -127 167 -125T185 -114T194 -92T197 -52V-42Q197 -18 195 -3T186 20T167 31T136 34H130Q116 34 106 32T88 23T76 3T72 -31V-43Q72 -71 74 -87T84 -113T102 -124T132 -127H138ZM131 -156Q104 -156 86 -152T58 -134T43 -99T39 -41V68Q39 116 42 146T56 192T84 214T131 220H138Q164 220 181 216T207 200T221 170T225 120V107H192V120Q192 164 182 177T137 191H131Q113 191 102 188T84 173T75 139T72 77V32H73Q83 63 136 63H143Q168 63 184 59T211 44T225 13T230 -38V-52Q230 -84 226 -104T210 -135T182 -151T138 -156H131Z"  />
<glyph unicode="&#x2087;" horiz-adv-x="245" d="M94 -154H59L179 188V189H25V218H215V191L94 -154Z"  />
<glyph unicode="&#x2088;" horiz-adv-x="268" d="M130 -156Q105 -156 88 -152T59 -138T42 -108T37 -60V-52Q37 -25 40 -8T49 19T63 34T83 41V42Q62 47 51 62T40 122V132Q40 183 59 201T129 220H140Q189 220 209 202T229 132V122Q229 78 218 63T186 42V41Q197 39 205 34T219 19T228 -8T231 -52V-60Q231 -89 226 -108T210 -137T182 -152T139 -156H130ZM139 56Q170 56 183 68T196 120V130Q196 168 185 179T139 191H129Q95 191 84 180T73 130V120Q73 80 85 68T130 56H139ZM139 -127Q157 -127 168 -125T187 -115T196 -94T199 -58V-49Q199 -2 187 12T139 27H130Q112 27 101 24T82 13T73 -10T70 -49V-58Q70 -102 82 -114T130 -127H139Z"  />
<glyph unicode="&#x2089;" horiz-adv-x="267" d="M137 30Q151 30 161 32T179 41T191 61T195 95V107Q195 135 193 151T183 177T164 188T134 191H128Q110 191 99 189T81 179T72 157T69 118V109Q69 84 71 69T81 45T100 33T131 30H137ZM129 -156Q102 -156 85 -152T58 -137T44 -106T40 -56V-43H73V-56Q73 -78 75 -91T83 -113T100 -124T129 -127H135Q154 -127 165 -124T183 -109T192 -75T195 -13V32H194Q189 18 174 10T131 1H124Q100 1 83 5T56 20T41 52T36 105V118Q36 149 40 169T56 200T84 215T128 220H135Q162 220 180 215T208 198T223 163T228 105V-4Q228 -52 225 -82T211 -128T182 -150T136 -156H129Z"  />
<glyph unicode="&#x20AC;" horiz-adv-x="468" d="M414 167Q414 119 409 86T388 33T344 5T270 -4H265Q214 -4 183 4T135 41T112 125T106 275H54V303H106V393H54V421H106Q106 508 112 559T136 639T185 675T265 684H275Q317 684 343 676T383 648T403 598T408 522V508H364V533Q364 594 347 618T276 643H266Q231 643 209 638T175 611T158 545T153 421H296V393H153V303H296V275H153Q153 190 157 142T174 71T208 43T265 37H275Q305 37 324 43T353 64T366 104T370 167V187H414V167Z"  />
<glyph unicode="&#x2113;" horiz-adv-x="319" d="M248 32Q211 -4 170 -4Q137 -4 119 20T100 108V223Q95 215 87 206T68 185L51 210Q65 226 77 241T100 270V447Q100 529 106 581T123 664T152 705T191 717Q229 717 244 687T260 603Q260 517 227 431T137 256V124Q137 72 146 52T181 31Q205 31 231 55L248 32ZM137 314Q176 382 200 452T225 599Q225 686 189 686Q178 686 169 677T153 642T141 568T137 445V314Z"  />
<glyph unicode="&#x2122;" horiz-adv-x="596" d="M145 350H112V651H33V680H227V651H145V350ZM537 350H505V648H501L417 350H381L297 648H293V350H261V680H319L399 382H401L481 680H537V350Z"  />
<glyph unicode="&#x2126;" horiz-adv-x="536" d="M469 0H316V162Q374 185 406 247T438 402Q438 455 427 499T393 576T340 627T268 645Q228 645 197 627T143 577T110 500T98 402Q98 309 130 247T220 162V0H67V38H184V138Q119 170 86 236T52 402Q52 463 66 514T108 603T176 662T268 684Q320 684 360 663T427 604T469 515T484 402Q484 302 451 236T352 138V38H469V0Z"  />
<glyph unicode="&#x212E;" horiz-adv-x="722" d="M643 164Q615 121 586 90T523 38T449 7T359 -3Q286 -3 227 24T126 98T62 207T39 342Q39 414 61 476T126 584T227 656T359 683Q432 683 491 658T593 588T659 481T683 342H180V116Q215 80 260 62T359 44Q437 44 495 78T600 192L643 164ZM542 386V565Q463 642 359 642Q306 642 261 623T180 565V386H542Z"  />
<glyph unicode="&#x2202;" horiz-adv-x="393" d="M74 668Q97 691 123 704T185 717Q268 717 316 626T364 364Q364 267 352 198T317 83T259 17T179 -4Q113 -4 72 43T31 191Q31 233 40 273T70 346T122 399T201 419Q243 419 275 400T324 343H325V379Q325 450 314 506T285 600T240 659T184 680Q171 680 160 678T139 672T116 659T90 638L74 668ZM323 297Q303 344 271 364T206 384Q170 384 145 369T104 326T80 263T72 187Q72 146 81 117T105 70T140 42T182 33Q218 33 243 52T286 105T312 188T323 297Z"  />
<glyph unicode="&#x2206;" horiz-adv-x="407" d="M380 0H27L172 680H235L380 0ZM329 38L204 643H202L76 38H329Z"  />
<glyph unicode="&#x220F;" horiz-adv-x="526" d="M437 -214H392V745H134V-214H89V745H48V786H478V745H437V-214Z"  />
<glyph unicode="&#x2211;" horiz-adv-x="418" d="M370 -214H48V-178L272 319L55 749V786H363V745H108V744L319 320L99 -172V-173H370V-214Z"  />
<glyph unicode="&#x2212;" horiz-adv-x="411" d="M365 287H46V324H365V287Z"  />
<glyph unicode="&#x2215;" horiz-adv-x="91" d="M-33 0H-66L124 680H157L-33 0Z"  />
<glyph unicode="&#x2219;" horiz-adv-x="144" d="M96 226H48V307H96V226Z"  />
<glyph unicode="&#x221A;" horiz-adv-x="537" d="M303 -215H246L114 203L53 184L44 214L142 244L272 -179H274L455 787H494L303 -215Z"  />
<glyph unicode="&#x221E;" horiz-adv-x="704" d="M352 291Q397 342 438 374T530 407Q558 407 582 397T622 368T648 324T658 267Q658 236 649 210T623 165T582 136T530 125Q480 125 437 158T352 240Q307 189 266 157T174 125Q117 125 82 164T46 267Q46 297 55 323T81 367T121 396T174 407Q224 407 267 374T352 291ZM329 265Q305 294 285 314T246 347T211 366T176 372Q131 372 108 340T85 265Q85 244 91 225T108 192T137 169T177 160Q195 160 211 165T246 184T284 216T329 265ZM374 265Q398 237 418 217T457 185T492 166T527 160Q549 160 566 168T595 191T613 225T619 265Q619 308 596 340T527 372Q492 372 458 348T374 265Z"  />
<glyph unicode="&#x222B;" horiz-adv-x="317" d="M137 556Q137 623 142 667T160 739T193 777T241 789Q249 789 259 788T275 784V748Q268 750 260 751T243 752Q228 752 216 745T197 718T185 662T181 567V16Q181 -51 176 -95T158 -167T125 -205T77 -217Q69 -217 59 -216T43 -212V-176Q50 -178 58 -179T75 -180Q90 -180 102 -173T121 -146T133 -90T137 5V556Z"  />
<glyph unicode="&#x2248;" horiz-adv-x="411" d="M359 274Q356 231 336 208T280 184Q262 184 242 192T202 211Q184 222 165 230T129 238Q106 238 97 224T83 184H52Q55 226 74 250T130 274Q150 274 170 266T210 246Q229 235 247 227T283 219Q305 219 314 233T328 274H359ZM359 420Q356 377 336 354T280 330Q262 330 242 338T202 357Q184 368 165 376T129 384Q106 384 97 370T83 330H52Q55 372 74 396T130 420Q150 420 170 412T210 392Q229 381 247 373T283 365Q305 365 314 379T328 420H359Z"  />
<glyph unicode="&#x2260;" horiz-adv-x="411" d="M365 200H173L106 60L77 73L138 200H46V237H156L222 373H46V410H239L304 545L333 531L275 410H365V373H257L190 237H365V200Z"  />
<glyph unicode="&#x2264;" horiz-adv-x="411" d="M365 136L46 290V333L365 487V446L84 312V310L365 177V136ZM365 49H46V86H365V49Z"  />
<glyph unicode="&#x2265;" horiz-adv-x="411" d="M365 290L46 136V177L327 310V312L46 446V487L365 333V290ZM365 49H46V86H365V49Z"  />
<glyph unicode="&#x25CA;" horiz-adv-x="371" d="M187 44L296 346L186 634H185L76 346L186 44H187ZM203 0H168L38 346L168 680H203L334 346L203 0Z"  />
<glyph unicode="&#xE000;" horiz-adv-x="195" d="M121 0H75V77H121V0ZM117 149H78L76 528H119L117 149Z"  />
<glyph unicode="&#xE001;" horiz-adv-x="348" d="M189 -64H165V-4Q128 -4 105 2T69 25T52 70T47 143V170H87V144Q87 109 90 88T101 54T125 38T165 33V253Q133 260 111 269T76 294T56 331T49 388V403Q49 440 54 465T73 505T109 526T165 532V584H189V532Q225 531 247 524T281 501T297 458T301 388V369H261V386Q261 419 258 440T247 473T225 489T189 495V290Q224 282 247 274T284 251T303 214T309 157V145Q309 101 305 73T287 27T250 4T189 -4V-64ZM189 33Q214 33 229 37T253 54T265 87T268 142V155Q268 179 265 194T252 219T228 235T189 247V33ZM91 387Q91 366 94 351T106 326T128 308T165 296V495Q143 495 129 492T107 478T95 450T91 402V387Z"  />
<glyph unicode="&#xE002;" horiz-adv-x="461" d="M117 296Q97 296 85 300T65 317T54 350T51 403V422Q51 454 54 475T64 508T84 524T117 529H122Q142 529 155 525T175 508T186 475T189 422V403Q189 371 186 350T176 317T155 301T122 296H117ZM122 324Q134 324 141 326T151 337T156 360T158 402V423Q158 449 157 464T152 488T141 498T122 501H117Q106 501 99 499T89 488T84 465T82 423V402Q82 376 83 361T88 337T99 327T117 324H122ZM170 0H140L291 528H321L170 0ZM338 0Q318 0 306 4T286 21T275 54T272 107V126Q272 158 275 179T285 212T305 228T338 233H343Q363 233 376 229T396 212T407 179T410 126V107Q410 75 407 54T397 21T376 5T343 0H338ZM343 28Q355 28 362 30T372 41T377 64T379 106V127Q379 153 378 168T373 192T362 202T343 205H338Q327 205 320 203T310 192T305 169T303 127V106Q303 80 304 65T309 41T320 31T338 28H343Z"  />
<glyph unicode="&#xE003;" horiz-adv-x="384" d="M165 -4Q125 -4 101 3T63 28T44 76T39 155V166Q39 242 51 275T97 315Q83 334 77 354T70 415V423Q70 483 91 507T173 532H187Q218 532 238 526T270 506T285 468T290 407V373H252V408Q252 435 250 452T240 479T220 493T187 497H174Q134 497 122 481T109 422V414Q109 396 111 383T118 358T132 334T155 303L280 135V256H316V188Q316 165 315 139T312 92L365 21L337 -4L300 46Q294 31 285 22T262 6T227 -2T178 -4H165ZM80 157Q80 117 83 93T96 55T123 37T170 32H181Q202 32 217 33T244 39T262 54T273 81L121 286Q109 285 101 280T89 262T82 227T80 168V157Z"  />
<glyph unicode="&#xE004;" horiz-adv-x="306" d="M166 0H120V77H166V0ZM162 152H123V175Q123 212 136 229T175 260Q192 268 202 276T219 297T227 329T229 379V391Q229 424 226 444T216 477T195 493T161 497H151Q129 497 115 493T94 475T84 439T81 379V354H43V379Q43 425 47 455T64 502T98 525T152 532H162Q195 532 216 525T249 502T265 459T269 393V379Q269 346 266 323T255 284T233 255T197 232Q180 224 171 213T162 171V152Z"  />
<glyph unicode="&#xE005;" horiz-adv-x="331" d="M319 0H276L248 125H83L55 0H12L133 528H199L319 0ZM241 160L167 494H165L90 160H241Z"  />
<glyph unicode="&#xE006;" horiz-adv-x="372" d="M62 0V528H176Q218 528 245 523T288 504T310 464T317 394Q317 343 308 316T266 277V276Q283 271 295 262T315 238T326 199T330 143Q330 99 323 71T300 28T256 6T188 0H62ZM183 35Q216 35 236 39T267 55T283 89T287 146Q287 179 283 200T270 234T245 252T206 257H105V35H183ZM204 292Q224 292 237 296T259 311T271 342T275 392Q275 425 271 444T256 475T224 489T171 493H105V292H204Z"  />
<glyph unicode="&#xE007;" horiz-adv-x="354" d="M182 -4Q139 -4 113 4T71 39T51 114T46 242V288Q46 366 51 413T72 487T113 523T182 532H191Q226 532 249 525T287 501T306 458T312 392V374H270V391Q270 449 254 471T192 494H184Q154 494 136 488T108 462T94 401T90 291V239Q90 169 93 128T107 66T136 40T184 34H191Q215 34 230 38T255 53T267 85T271 139V154H313V138Q313 99 308 72T289 28T251 4T191 -4H182Z"  />
<glyph unicode="&#xE008;" horiz-adv-x="392" d="M346 243Q346 166 340 119T316 45T268 9T192 0H62V528H192Q238 528 267 519T314 484T339 411T346 287V243ZM192 37Q225 37 246 43T280 70T297 131T302 239V291Q302 357 297 396T280 457T246 484T192 491H106V37H192Z"  />
<glyph unicode="&#xE009;" horiz-adv-x="304" d="M280 0H62V528H279V490H106V293H267V257H106V38H280V0Z"  />
<glyph unicode="&#xE00A;" horiz-adv-x="289" d="M265 245H106V0H62V528H277V490H106V281H265V245Z"  />
<glyph unicode="&#xE00B;" horiz-adv-x="361" d="M179 -4Q137 -4 111 4T71 39T51 114T46 241V288Q46 367 51 415T72 489T114 523T183 532H192Q229 532 252 525T289 500T308 457T314 393V378H272V394Q272 423 269 442T256 472T232 489T192 494H184Q155 494 137 489T109 463T94 402T90 291V239Q90 168 93 127T107 66T134 40T180 34H188Q216 34 233 37T259 54T271 91T274 156V219H176V254H316V163Q316 112 311 80T292 29T253 3T188 -4H179Z"  />
<glyph unicode="&#xE00C;" horiz-adv-x="400" d="M338 0H294V257H106V0H62V528H106V296H294V528H338V0Z"  />
<glyph unicode="&#xE00D;" horiz-adv-x="168" d="M106 0H62V528H106V0Z"  />
<glyph unicode="&#xE00E;" horiz-adv-x="309" d="M129 -4Q97 -4 77 2T45 25T29 73T24 154V173H66V156Q66 115 68 91T77 55T96 38T130 34H138Q160 34 173 37T194 53T203 90T206 156V528H250V160Q250 110 246 78T229 28T195 3T138 -4H129Z"  />
<glyph unicode="&#xE00F;" horiz-adv-x="345" d="M339 0H289L136 254H106V0H62V528H106V287H136L284 528H332L173 272L339 0Z"  />
<glyph unicode="&#xE010;" horiz-adv-x="279" d="M267 0H62V528H106V38H267V0Z"  />
<glyph unicode="&#xE011;" horiz-adv-x="514" d="M452 0H410V491H408L287 0H228L106 491H104V0H62V528H138L257 37H259L378 528H452V0Z"  />
<glyph unicode="&#xE012;" horiz-adv-x="416" d="M354 0H281L106 492H104V0H62V528H134L310 34H312V528H354V0Z"  />
<glyph unicode="&#xE013;" horiz-adv-x="378" d="M184 -4Q142 -4 115 5T73 40T52 114T46 241V287Q46 365 51 413T72 488T115 523T184 532H194Q236 532 263 523T305 488T326 414T332 287V241Q332 163 327 115T306 40T263 5T194 -4H184ZM193 34Q223 34 241 40T270 67T284 129T288 240V290Q288 359 285 399T271 461T242 488T194 494H184Q154 494 136 488T108 461T94 400T90 290V240Q90 170 93 129T107 67T136 40T185 34H193Z"  />
<glyph unicode="&#xE014;" horiz-adv-x="349" d="M170 251Q203 251 224 255T256 271T271 304T275 361V383Q275 420 271 441T256 474T224 488T169 492H106V251H170ZM106 0H62V528H171Q216 528 244 523T289 501T312 457T318 382V363Q318 319 311 290T288 245T243 222T173 215H106V0Z"  />
<glyph unicode="&#xE015;" horiz-adv-x="375" d="M184 -4Q142 -4 115 5T73 40T52 114T46 241V287Q46 365 51 413T72 488T115 523T184 532H194Q236 532 263 523T305 488T326 414T332 287V241Q332 172 328 128T312 55L346 13L320 -11L293 23Q277 7 253 2T194 -4H184ZM179 167L207 189L280 97Q285 120 286 154T288 240V290Q288 359 285 399T271 461T242 488T194 494H184Q154 494 136 488T108 461T94 400T90 290V240Q90 170 93 129T107 67T136 40T185 34H193Q219 34 236 38T265 58L179 167Z"  />
<glyph unicode="&#xE016;" horiz-adv-x="367" d="M209 259Q244 259 258 279T272 355V381Q272 419 268 441T252 474T219 489T162 492H106V259H209ZM314 0H271V77Q271 129 269 158T258 201T232 219T187 223H106V0H62V528H170Q215 528 243 523T288 502T309 457T315 382V362Q315 304 303 278T265 244V243Q279 239 288 231T303 207T311 165T314 100V0Z"  />
<glyph unicode="&#xE017;" horiz-adv-x="351" d="M170 -4Q132 -4 108 2T71 25T52 70T47 144V170H88V144Q88 109 91 88T104 54T129 38T171 33H179Q207 33 224 37T250 53T262 86T265 143V156Q265 182 261 198T246 225T215 242T166 254Q135 260 113 269T77 292T57 329T50 387V401Q50 439 55 464T74 505T110 526T164 532H175Q214 532 238 526T276 504T295 460T300 388V369H259V386Q259 421 256 442T243 475T218 491T175 495H166Q145 495 131 492T108 478T97 449T93 402V387Q93 363 97 348T111 322T140 305T187 292Q222 285 245 277T283 253T302 216T308 157V145Q308 100 303 71T284 26T245 3T180 -4H170Z"  />
<glyph unicode="&#xE018;" horiz-adv-x="293" d="M168 0H124V490H12V528H281V490H168V0Z"  />
<glyph unicode="&#xE019;" horiz-adv-x="390" d="M191 -4Q151 -4 126 2T85 26T64 77T58 165V528H102V162Q102 118 106 93T120 54T147 38T191 34H199Q226 34 243 37T270 54T284 92T288 162V528H332V165Q332 110 326 77T305 26T265 2T199 -4H191Z"  />
<glyph unicode="&#xE01A;" horiz-adv-x="319" d="M191 0H128L12 528H55L160 40H161L264 528H307L191 0Z"  />
<glyph unicode="&#xE01B;" horiz-adv-x="525" d="M412 0H350L264 492H262L178 0H114L14 528H58L146 34H147L232 528H295L381 34H382L470 528H511L412 0Z"  />
<glyph unicode="&#xE01C;" horiz-adv-x="327" d="M313 0H267L163 251L59 0H14L132 278L24 528H70L164 305L258 528H302L194 278L313 0Z"  />
<glyph unicode="&#xE01D;" horiz-adv-x="310" d="M177 0H133V180L8 528H52L156 231H157L259 528H302L177 180V0Z"  />
<glyph unicode="&#xE01E;" horiz-adv-x="316" d="M286 0H33V34L239 491V492H43V528H284V494L78 37V36H286V0Z"  />
<glyph unicode="&#xE01F;" horiz-adv-x="331" d="M319 0H276L248 125H83L55 0H12L133 528H199L319 0ZM241 160L167 494H165L90 160H241ZM174 594L53 709L79 736L191 611L174 594Z"  />
<glyph unicode="&#xE020;" horiz-adv-x="331" d="M319 0H276L248 125H83L55 0H12L133 528H199L319 0ZM241 160L167 494H165L90 160H241ZM161 595L145 612L257 737L283 709L161 595Z"  />
<glyph unicode="&#xE021;" horiz-adv-x="331" d="M319 0H276L248 125H83L55 0H12L133 528H199L319 0ZM241 160L167 494H165L90 160H241ZM239 601L166 694L92 601L71 620L165 739L260 620L239 601Z"  />
<glyph unicode="&#xE022;" horiz-adv-x="331" d="M319 0H276L248 125H83L55 0H12L133 528H199L319 0ZM241 160L167 494H165L90 160H241ZM263 694Q261 659 249 640T210 620Q192 620 180 628T157 646Q149 654 142 659T124 665Q110 665 103 655T93 619L69 622Q71 657 83 677T121 697Q138 697 149 689T171 672Q180 664 188 658T208 651Q223 651 230 661T239 698L263 694Z"  />
<glyph unicode="&#xE023;" horiz-adv-x="331" d="M319 0H276L248 125H83L55 0H12L133 528H199L319 0ZM241 160L167 494H165L90 160H241ZM127 625H85V699H127V625ZM247 625H205V699H247V625Z"  />
<glyph unicode="&#xE024;" horiz-adv-x="331" d="M319 0H276L248 125H83L55 0H12L133 528H199L319 0ZM241 160L167 494H165L90 160H241ZM163 593Q125 593 107 609T89 663V669Q89 706 107 722T163 738H168Q206 738 224 722T242 669V663Q242 625 224 609T168 593H163ZM168 615Q192 615 203 625T214 662V668Q214 694 203 705T168 716H163Q139 716 128 705T117 668V662Q117 636 128 626T163 615H168Z"  />
<glyph unicode="&#xE025;" horiz-adv-x="331" d="M319 0H276L248 125H83L55 0H12L133 528H199L319 0ZM241 160L167 494H165L90 160H241ZM240 646H94V680H240V646Z"  />
<glyph unicode="&#xE026;" horiz-adv-x="331" d="M319 0H276L248 125H83L55 0H12L133 528H199L319 0ZM241 160L167 494H165L90 160H241ZM253 709Q253 652 232 628T165 604Q118 604 98 627T77 709H105Q106 666 120 652T165 637Q195 637 209 651T225 709H253Z"  />
<glyph unicode="&#xE027;" horiz-adv-x="331" d="M276 0L248 125H83L55 0H12L133 528H199L319 0H315Q270 -42 254 -70T237 -121Q237 -141 248 -148T277 -156Q286 -156 297 -154T318 -149V-177Q308 -181 295 -184T268 -187Q236 -187 219 -174T202 -129Q202 -98 221 -69T282 0H276ZM241 160L167 494H165L90 160H241Z"  />
<glyph unicode="&#xE028;" horiz-adv-x="492" d="M468 0H250V125H96L51 0H6L198 528H467V490H294V293H455V257H294V38H468V0ZM250 161V491H227L108 161H250Z"  />
<glyph unicode="&#xE029;" horiz-adv-x="354" d="M182 -4Q139 -4 113 4T71 39T51 114T46 242V288Q46 366 51 413T72 487T113 523T182 532H191Q226 532 249 525T287 501T306 458T312 392V374H270V391Q270 449 254 471T192 494H184Q154 494 136 488T108 462T94 401T90 291V239Q90 169 93 128T107 66T136 40T184 34H191Q215 34 230 38T255 53T267 85T271 139V154H313V138Q313 99 308 72T289 28T251 4T191 -4H182ZM135 595L119 612L231 737L257 709L135 595Z"  />
<glyph unicode="&#xE02A;" horiz-adv-x="354" d="M182 -4Q139 -4 113 4T71 39T51 114T46 242V288Q46 366 51 413T72 487T113 523T182 532H191Q226 532 249 525T287 501T306 458T312 392V374H270V391Q270 449 254 471T192 494H184Q154 494 136 488T108 462T94 401T90 291V239Q90 169 93 128T107 66T136 40T184 34H191Q215 34 230 38T255 53T267 85T271 139V154H313V138Q313 99 308 72T289 28T251 4T191 -4H182ZM255 601L182 694L108 601L87 620L181 739L276 620L255 601Z"  />
<glyph unicode="&#xE02B;" horiz-adv-x="354" d="M182 -4Q139 -4 113 4T71 39T51 114T46 242V288Q46 366 51 413T72 487T113 523T182 532H191Q226 532 249 525T287 501T306 458T312 392V374H270V391Q270 449 254 471T192 494H184Q154 494 136 488T108 462T94 401T90 291V239Q90 169 93 128T107 66T136 40T184 34H191Q215 34 230 38T255 53T267 85T271 139V154H313V138Q313 99 308 72T289 28T251 4T191 -4H182ZM179 589L85 708L106 727L180 634L253 727L274 708L179 589Z"  />
<glyph unicode="&#xE02C;" horiz-adv-x="354" d="M182 -4Q139 -4 113 4T71 39T51 114T46 242V288Q46 366 51 413T72 487T113 523T182 532H191Q226 532 249 525T287 501T306 458T312 392V374H270V391Q270 449 254 471T192 494H184Q154 494 136 488T108 462T94 401T90 291V239Q90 169 93 128T107 66T136 40T184 34H191Q215 34 230 38T255 53T267 85T271 139V154H313V138Q313 99 308 72T289 28T251 4T191 -4H182ZM201 625H157V699H201V625Z"  />
<glyph unicode="&#xE02D;" horiz-adv-x="354" d="M182 -4Q139 -4 113 4T71 39T51 114T46 242V288Q46 366 51 413T72 487T113 523T182 532H191Q226 532 249 525T287 501T306 458T312 392V374H270V391Q270 449 254 471T192 494H184Q154 494 136 488T108 462T94 401T90 291V239Q90 169 93 128T107 66T136 40T184 34H191Q215 34 230 38T255 53T267 85T271 139V154H313V138Q313 99 308 72T289 28T251 4T191 -4H182ZM124 -158L104 -143L196 -5L225 -29L124 -158Z"  />
<glyph unicode="&#xE02E;" horiz-adv-x="392" d="M346 243Q346 166 340 119T316 45T268 9T192 0H62V528H192Q238 528 267 519T314 484T339 411T346 287V243ZM192 37Q225 37 246 43T280 70T297 131T302 239V291Q302 357 297 396T280 457T246 484T192 491H106V37H192ZM187 589L93 708L114 727L188 634L261 727L282 708L187 589Z"  />
<glyph unicode="&#xE02F;" horiz-adv-x="392" d="M192 37Q225 37 246 43T280 70T297 131T302 239V291Q302 357 297 396T280 457T246 484T192 491H106V291H190V259H106V37H192ZM346 243Q346 166 340 119T316 45T268 9T192 0H62V259H28V291H62V528H192Q238 528 267 519T314 484T339 411T346 287V243Z"  />
<glyph unicode="&#xE030;" horiz-adv-x="392" d="M192 37Q225 37 246 43T280 70T297 131T302 239V291Q302 357 297 396T280 457T246 484T192 491H106V291H190V259H106V37H192ZM346 243Q346 166 340 119T316 45T268 9T192 0H62V259H28V291H62V528H192Q238 528 267 519T314 484T339 411T346 287V243Z"  />
<glyph unicode="&#xE031;" horiz-adv-x="304" d="M280 0H62V528H279V490H106V293H267V257H106V38H280V0ZM209 594L88 709L114 736L226 611L209 594Z"  />
<glyph unicode="&#xE032;" horiz-adv-x="304" d="M280 0H62V528H279V490H106V293H267V257H106V38H280V0ZM114 595L98 612L210 737L236 709L114 595Z"  />
<glyph unicode="&#xE033;" horiz-adv-x="304" d="M280 0H62V528H279V490H106V293H267V257H106V38H280V0ZM243 601L170 694L96 601L75 620L169 739L264 620L243 601Z"  />
<glyph unicode="&#xE034;" horiz-adv-x="304" d="M280 0H62V528H279V490H106V293H267V257H106V38H280V0ZM162 589L68 708L89 727L163 634L236 727L257 708L162 589Z"  />
<glyph unicode="&#xE035;" horiz-adv-x="304" d="M280 0H62V528H279V490H106V293H267V257H106V38H280V0ZM127 625H85V699H127V625ZM247 625H205V699H247V625Z"  />
<glyph unicode="&#xE036;" horiz-adv-x="304" d="M280 0H62V528H279V490H106V293H267V257H106V38H280V0ZM188 625H144V699H188V625Z"  />
<glyph unicode="&#xE037;" horiz-adv-x="304" d="M280 0H62V528H279V490H106V293H267V257H106V38H280V0ZM237 646H91V680H237V646Z"  />
<glyph unicode="&#xE038;" horiz-adv-x="304" d="M280 0H62V528H279V490H106V293H267V257H106V38H280V0ZM256 709Q256 652 235 628T168 604Q121 604 101 627T80 709H108Q109 666 123 652T168 637Q198 637 212 651T228 709H256Z"  />
<glyph unicode="&#xE039;" horiz-adv-x="304" d="M260 -177Q250 -181 237 -184T210 -187Q178 -187 161 -174T144 -129Q144 -99 163 -69T224 0H62V528H279V490H106V293H267V257H106V38H280V0H258Q212 -43 196 -70T179 -121Q179 -141 190 -148T219 -156Q228 -156 239 -154T260 -149V-177Z"  />
<glyph unicode="&#xE03A;" horiz-adv-x="361" d="M179 -4Q137 -4 111 4T71 39T51 114T46 241V288Q46 367 51 415T72 489T114 523T183 532H192Q229 532 252 525T289 500T308 457T314 393V378H272V394Q272 423 269 442T256 472T232 489T192 494H184Q155 494 137 489T109 463T94 402T90 291V239Q90 168 93 127T107 66T134 40T180 34H188Q216 34 233 37T259 54T271 91T274 156V219H176V254H316V163Q316 112 311 80T292 29T253 3T188 -4H179ZM254 601L181 694L107 601L86 620L180 739L275 620L254 601Z"  />
<glyph unicode="&#xE03B;" horiz-adv-x="361" d="M179 -4Q137 -4 111 4T71 39T51 114T46 241V288Q46 367 51 415T72 489T114 523T183 532H192Q229 532 252 525T289 500T308 457T314 393V378H272V394Q272 423 269 442T256 472T232 489T192 494H184Q155 494 137 489T109 463T94 402T90 291V239Q90 168 93 127T107 66T134 40T180 34H188Q216 34 233 37T259 54T271 91T274 156V219H176V254H316V163Q316 112 311 80T292 29T253 3T188 -4H179ZM202 625H158V699H202V625Z"  />
<glyph unicode="&#xE03C;" horiz-adv-x="361" d="M179 -4Q137 -4 111 4T71 39T51 114T46 241V288Q46 367 51 415T72 489T114 523T183 532H192Q229 532 252 525T289 500T308 457T314 393V378H272V394Q272 423 269 442T256 472T232 489T192 494H184Q155 494 137 489T109 463T94 402T90 291V239Q90 168 93 127T107 66T134 40T180 34H188Q216 34 233 37T259 54T271 91T274 156V219H176V254H316V163Q316 112 311 80T292 29T253 3T188 -4H179ZM268 709Q268 652 247 628T180 604Q133 604 113 627T92 709H120Q121 666 135 652T180 637Q210 637 224 651T240 709H268Z"  />
<glyph unicode="&#xE03D;" horiz-adv-x="361" d="M179 -4Q137 -4 111 4T71 39T51 114T46 241V288Q46 367 51 415T72 489T114 523T183 532H192Q229 532 252 525T289 500T308 457T314 393V378H272V394Q272 423 269 442T256 472T232 489T192 494H184Q155 494 137 489T109 463T94 402T90 291V239Q90 168 93 127T107 66T134 40T180 34H188Q216 34 233 37T259 54T271 91T274 156V219H176V254H316V163Q316 112 311 80T292 29T253 3T188 -4H179ZM174 -49H213V-117Q213 -167 203 -186T162 -210V-187Q169 -185 174 -182T182 -171T186 -152T188 -119V-113H174V-49Z"  />
<glyph unicode="&#xE03E;" horiz-adv-x="400" d="M338 0H294V257H106V0H62V528H106V296H294V528H338V0ZM274 601L201 694L127 601L106 620L200 739L295 620L274 601Z"  />
<glyph unicode="&#xE03F;" horiz-adv-x="400" d="M338 0H294V257H106V0H62V394H30V425H62V528H106V425H294V528H338V425H370V394H338V0ZM294 296V394H106V296H294Z"  />
<glyph unicode="&#xE040;" horiz-adv-x="168" d="M106 0H62V528H106V0ZM89 594L-32 709L-6 736L106 611L89 594Z"  />
<glyph unicode="&#xE041;" horiz-adv-x="168" d="M106 0H62V528H106V0ZM83 595L67 612L179 737L205 709L83 595Z"  />
<glyph unicode="&#xE042;" horiz-adv-x="168" d="M106 0H62V528H106V0ZM158 601L85 694L11 601L-10 620L84 739L179 620L158 601Z"  />
<glyph unicode="&#xE043;" horiz-adv-x="168" d="M106 0H62V528H106V0ZM181 694Q179 659 167 640T128 620Q110 620 98 628T75 646Q67 654 60 659T42 665Q28 665 21 655T11 619L-13 622Q-11 657 1 677T39 697Q56 697 67 689T89 672Q98 664 106 658T126 651Q141 651 148 661T157 698L181 694Z"  />
<glyph unicode="&#xE044;" horiz-adv-x="168" d="M106 0H62V528H106V0ZM45 625H3V699H45V625ZM165 625H123V699H165V625Z"  />
<glyph unicode="&#xE045;" horiz-adv-x="168" d="M106 0H62V528H106V0ZM157 646H11V680H157V646Z"  />
<glyph unicode="&#xE046;" horiz-adv-x="168" d="M106 0H62V528H106V0ZM106 625H62V699H106V625Z"  />
<glyph unicode="&#xE047;" horiz-adv-x="168" d="M119 -177Q108 -181 95 -184T68 -187Q36 -187 20 -174T3 -129Q3 -100 20 -70T69 0H62V528H106V0H101Q38 -78 38 -122Q38 -142 48 -149T77 -156Q86 -156 97 -154T119 -149V-177Z"  />
<glyph unicode="&#xE048;" horiz-adv-x="309" d="M129 -4Q97 -4 77 2T45 25T29 73T24 154V173H66V156Q66 115 68 91T77 55T96 38T130 34H138Q160 34 173 37T194 53T203 90T206 156V528H250V160Q250 110 246 78T229 28T195 3T138 -4H129ZM300 601L227 694L153 601L132 620L226 739L321 620L300 601Z"  />
<glyph unicode="&#xE049;" horiz-adv-x="345" d="M339 0H289L136 254H106V0H62V528H106V287H136L284 528H332L173 272L339 0ZM165 -49H204V-117Q204 -167 194 -186T153 -210V-187Q160 -185 165 -182T173 -171T177 -152T179 -119V-113H165V-49Z"  />
<glyph unicode="&#xE04A;" horiz-adv-x="279" d="M267 0H62V528H106V38H267V0ZM88 595L72 612L184 737L210 709L88 595Z"  />
<glyph unicode="&#xE04B;" horiz-adv-x="279" d="M267 0H62V528H106V38H267V0ZM206 460Q206 433 204 416T196 388T183 372T162 364V389Q167 391 170 394T176 405T179 424T180 457V464H167V528H206V460Z"  />
<glyph unicode="&#xE04C;" horiz-adv-x="279" d="M267 0H62V528H106V38H267V0ZM129 -49H168V-117Q168 -167 158 -186T117 -210V-187Q124 -185 129 -182T137 -171T141 -152T143 -119V-113H129V-49Z"  />
<glyph unicode="&#xE04D;" horiz-adv-x="279" d="M267 0H62V528H106V38H267V0ZM253 245H205V326H253V245Z"  />
<glyph unicode="&#xE04E;" horiz-adv-x="279" d="M267 0H62V208L20 175V211L62 244V528H107V274L190 339V303L107 238V36H267V0Z"  />
<glyph unicode="&#xE04F;" horiz-adv-x="416" d="M354 0H281L106 492H104V0H62V528H134L310 34H312V528H354V0ZM148 595L132 612L244 737L270 709L148 595Z"  />
<glyph unicode="&#xE050;" horiz-adv-x="416" d="M354 0H281L106 492H104V0H62V528H134L310 34H312V528H354V0ZM206 589L112 708L133 727L207 634L280 727L301 708L206 589Z"  />
<glyph unicode="&#xE051;" horiz-adv-x="416" d="M354 0H281L106 492H104V0H62V528H134L310 34H312V528H354V0ZM304 694Q302 659 290 640T251 620Q233 620 221 628T198 646Q190 654 183 659T165 665Q151 665 144 655T134 619L110 622Q112 657 124 677T162 697Q179 697 190 689T212 672Q221 664 229 658T249 651Q264 651 271 661T280 698L304 694Z"  />
<glyph unicode="&#xE052;" horiz-adv-x="416" d="M354 0H281L106 492H104V0H62V528H134L310 34H312V528H354V0ZM195 -49H234V-117Q234 -167 224 -186T183 -210V-187Q190 -185 195 -182T203 -171T207 -152T209 -119V-113H195V-49Z"  />
<glyph unicode="&#xE054;" horiz-adv-x="378" d="M184 -4Q142 -4 115 5T73 40T52 114T46 241V287Q46 365 51 413T72 488T115 523T184 532H194Q236 532 263 523T305 488T326 414T332 287V241Q332 163 327 115T306 40T263 5T194 -4H184ZM193 34Q223 34 241 40T270 67T284 129T288 240V290Q288 359 285 399T271 461T242 488T194 494H184Q154 494 136 488T108 461T94 400T90 290V240Q90 170 93 129T107 67T136 40T185 34H193ZM233 594L112 709L138 736L250 611L233 594Z"  />
<glyph unicode="&#xE055;" horiz-adv-x="378" d="M184 -4Q142 -4 115 5T73 40T52 114T46 241V287Q46 365 51 413T72 488T115 523T184 532H194Q236 532 263 523T305 488T326 414T332 287V241Q332 163 327 115T306 40T263 5T194 -4H184ZM193 34Q223 34 241 40T270 67T284 129T288 240V290Q288 359 285 399T271 461T242 488T194 494H184Q154 494 136 488T108 461T94 400T90 290V240Q90 170 93 129T107 67T136 40T185 34H193ZM133 595L117 612L229 737L255 709L133 595Z"  />
<glyph unicode="&#xE056;" horiz-adv-x="378" d="M184 -4Q142 -4 115 5T73 40T52 114T46 241V287Q46 365 51 413T72 488T115 523T184 532H194Q236 532 263 523T305 488T326 414T332 287V241Q332 163 327 115T306 40T263 5T194 -4H184ZM193 34Q223 34 241 40T270 67T284 129T288 240V290Q288 359 285 399T271 461T242 488T194 494H184Q154 494 136 488T108 461T94 400T90 290V240Q90 170 93 129T107 67T136 40T185 34H193ZM263 601L190 694L116 601L95 620L189 739L284 620L263 601Z"  />
<glyph unicode="&#xE057;" horiz-adv-x="378" d="M184 -4Q142 -4 115 5T73 40T52 114T46 241V287Q46 365 51 413T72 488T115 523T184 532H194Q236 532 263 523T305 488T326 414T332 287V241Q332 163 327 115T306 40T263 5T194 -4H184ZM193 34Q223 34 241 40T270 67T284 129T288 240V290Q288 359 285 399T271 461T242 488T194 494H184Q154 494 136 488T108 461T94 400T90 290V240Q90 170 93 129T107 67T136 40T185 34H193ZM287 694Q285 659 273 640T234 620Q216 620 204 628T181 646Q173 654 166 659T148 665Q134 665 127 655T117 619L93 622Q95 657 107 677T145 697Q162 697 173 689T195 672Q204 664 212 658T232 651Q247 651 254 661T263 698L287 694Z"  />
<glyph unicode="&#xE058;" horiz-adv-x="378" d="M184 -4Q142 -4 115 5T73 40T52 114T46 241V287Q46 365 51 413T72 488T115 523T184 532H194Q236 532 263 523T305 488T326 414T332 287V241Q332 163 327 115T306 40T263 5T194 -4H184ZM193 34Q223 34 241 40T270 67T284 129T288 240V290Q288 359 285 399T271 461T242 488T194 494H184Q154 494 136 488T108 461T94 400T90 290V240Q90 170 93 129T107 67T136 40T185 34H193ZM150 625H108V699H150V625ZM270 625H228V699H270V625Z"  />
<glyph unicode="&#xE059;" horiz-adv-x="378" d="M184 -4Q142 -4 115 5T73 40T52 114T46 241V287Q46 365 51 413T72 488T115 523T184 532H194Q236 532 263 523T305 488T326 414T332 287V241Q332 163 327 115T306 40T263 5T194 -4H184ZM193 34Q223 34 241 40T270 67T284 129T288 240V290Q288 359 285 399T271 461T242 488T194 494H184Q154 494 136 488T108 461T94 400T90 290V240Q90 170 93 129T107 67T136 40T185 34H193ZM262 646H116V680H262V646Z"  />
<glyph unicode="&#xE05A;" horiz-adv-x="378" d="M184 -4Q142 -4 115 5T73 40T52 114T46 241V287Q46 365 51 413T72 488T115 523T184 532H194Q236 532 263 523T305 488T326 414T332 287V241Q332 163 327 115T306 40T263 5T194 -4H184ZM193 34Q223 34 241 40T270 67T284 129T288 240V290Q288 359 285 399T271 461T242 488T194 494H184Q154 494 136 488T108 461T94 400T90 290V240Q90 170 93 129T107 67T136 40T185 34H193ZM277 709Q277 652 256 628T189 604Q142 604 122 627T101 709H129Q130 666 144 652T189 637Q219 637 233 651T249 709H277Z"  />
<glyph unicode="&#xE05B;" horiz-adv-x="378" d="M184 -4Q142 -4 115 5T73 40T52 114T46 241V287Q46 365 51 413T72 488T115 523T184 532H194Q236 532 263 523T305 488T326 414T332 287V241Q332 163 327 115T306 40T263 5T194 -4H184ZM193 34Q223 34 241 40T270 67T284 129T288 240V290Q288 359 285 399T271 461T242 488T194 494H184Q154 494 136 488T108 461T94 400T90 290V240Q90 170 93 129T107 67T136 40T185 34H193ZM141 601L123 617L204 748L231 728L141 601ZM230 599L212 614L293 746L320 725L230 599Z"  />
<glyph unicode="&#xE05C;" horiz-adv-x="378" d="M297 543L321 533L303 491Q320 465 326 417T332 287V241Q332 163 327 115T306 40T263 5T194 -4H184Q155 -4 133 -1T96 14L81 -19L57 -9L76 34Q59 60 53 108T46 241V287Q46 365 51 413T72 488T115 523T184 532H194Q223 532 245 528T283 513L297 543ZM184 494Q154 494 136 488T108 461T94 400T90 290V240Q90 183 92 146T101 85L263 473Q252 486 235 490T194 494H184ZM193 34Q223 34 241 40T270 67T284 129T288 240V290Q288 396 278 439L116 54Q127 41 143 38T185 34H193Z"  />
<glyph unicode="&#xE05D;" horiz-adv-x="527" d="M503 0H287V51H286Q280 35 273 25T255 8T227 -1T185 -4H176Q136 -4 111 4T71 39T52 114T46 243V287Q46 365 51 413T71 488T111 523T174 532H182Q231 532 253 522T286 480H287V528H502V490H329V293H490V257H329V38H503V0ZM287 295Q287 363 283 402T269 462T240 488T193 494H185Q155 494 137 489T108 463T94 401T90 290V240Q90 169 94 128T108 66T137 40T185 34H193Q219 34 237 39T266 62T282 118T287 221V295Z"  />
<glyph unicode="&#xE05E;" horiz-adv-x="367" d="M209 259Q244 259 258 279T272 355V381Q272 419 268 441T252 474T219 489T162 492H106V259H209ZM314 0H271V77Q271 129 269 158T258 201T232 219T187 223H106V0H62V528H170Q215 528 243 523T288 502T309 457T315 382V362Q315 304 303 278T265 244V243Q279 239 288 231T303 207T311 165T314 100V0ZM134 595L118 612L230 737L256 709L134 595Z"  />
<glyph unicode="&#xE05F;" horiz-adv-x="367" d="M209 259Q244 259 258 279T272 355V381Q272 419 268 441T252 474T219 489T162 492H106V259H209ZM314 0H271V77Q271 129 269 158T258 201T232 219T187 223H106V0H62V528H170Q215 528 243 523T288 502T309 457T315 382V362Q315 304 303 278T265 244V243Q279 239 288 231T303 207T311 165T314 100V0ZM173 -49H212V-117Q212 -167 202 -186T161 -210V-187Q168 -185 173 -182T181 -171T185 -152T187 -119V-113H173V-49Z"  />
<glyph unicode="&#xE060;" horiz-adv-x="367" d="M209 259Q244 259 258 279T272 355V381Q272 419 268 441T252 474T219 489T162 492H106V259H209ZM314 0H271V77Q271 129 269 158T258 201T232 219T187 223H106V0H62V528H170Q215 528 243 523T288 502T309 457T315 382V362Q315 304 303 278T265 244V243Q279 239 288 231T303 207T311 165T314 100V0ZM179 589L85 708L106 727L180 634L253 727L274 708L179 589Z"  />
<glyph unicode="&#xE061;" horiz-adv-x="351" d="M170 -4Q132 -4 108 2T71 25T52 70T47 144V170H88V144Q88 109 91 88T104 54T129 38T171 33H179Q207 33 224 37T250 53T262 86T265 143V156Q265 182 261 198T246 225T215 242T166 254Q135 260 113 269T77 292T57 329T50 387V401Q50 439 55 464T74 505T110 526T164 532H175Q214 532 238 526T276 504T295 460T300 388V369H259V386Q259 421 256 442T243 475T218 491T175 495H166Q145 495 131 492T108 478T97 449T93 402V387Q93 363 97 348T111 322T140 305T187 292Q222 285 245 277T283 253T302 216T308 157V145Q308 100 303 71T284 26T245 3T180 -4H170ZM126 595L110 612L222 737L248 709L126 595Z"  />
<glyph unicode="&#xE062;" horiz-adv-x="351" d="M170 -4Q132 -4 108 2T71 25T52 70T47 144V170H88V144Q88 109 91 88T104 54T129 38T171 33H179Q207 33 224 37T250 53T262 86T265 143V156Q265 182 261 198T246 225T215 242T166 254Q135 260 113 269T77 292T57 329T50 387V401Q50 439 55 464T74 505T110 526T164 532H175Q214 532 238 526T276 504T295 460T300 388V369H259V386Q259 421 256 442T243 475T218 491T175 495H166Q145 495 131 492T108 478T97 449T93 402V387Q93 363 97 348T111 322T140 305T187 292Q222 285 245 277T283 253T302 216T308 157V145Q308 100 303 71T284 26T245 3T180 -4H170ZM249 601L176 694L102 601L81 620L175 739L270 620L249 601Z"  />
<glyph unicode="&#xE063;" horiz-adv-x="351" d="M170 -4Q132 -4 108 2T71 25T52 70T47 144V170H88V144Q88 109 91 88T104 54T129 38T171 33H179Q207 33 224 37T250 53T262 86T265 143V156Q265 182 261 198T246 225T215 242T166 254Q135 260 113 269T77 292T57 329T50 387V401Q50 439 55 464T74 505T110 526T164 532H175Q214 532 238 526T276 504T295 460T300 388V369H259V386Q259 421 256 442T243 475T218 491T175 495H166Q145 495 131 492T108 478T97 449T93 402V387Q93 363 97 348T111 322T140 305T187 292Q222 285 245 277T283 253T302 216T308 157V145Q308 100 303 71T284 26T245 3T180 -4H170ZM174 589L80 708L101 727L175 634L248 727L269 708L174 589Z"  />
<glyph unicode="&#xE064;" horiz-adv-x="351" d="M170 -4Q132 -4 108 2T71 25T52 70T47 144V170H88V144Q88 109 91 88T104 54T129 38T171 33H179Q207 33 224 37T250 53T262 86T265 143V156Q265 182 261 198T246 225T215 242T166 254Q135 260 113 269T77 292T57 329T50 387V401Q50 439 55 464T74 505T110 526T164 532H175Q214 532 238 526T276 504T295 460T300 388V369H259V386Q259 421 256 442T243 475T218 491T175 495H166Q145 495 131 492T108 478T97 449T93 402V387Q93 363 97 348T111 322T140 305T187 292Q222 285 245 277T283 253T302 216T308 157V145Q308 100 303 71T284 26T245 3T180 -4H170ZM114 -158L94 -143L186 -5L215 -29L114 -158Z"  />
<glyph unicode="&#xE065;" horiz-adv-x="351" d="M170 -4Q132 -4 108 2T71 25T52 70T47 144V170H88V144Q88 109 91 88T104 54T129 38T171 33H179Q207 33 224 37T250 53T262 86T265 143V156Q265 182 261 198T246 225T215 242T166 254Q135 260 113 269T77 292T57 329T50 387V401Q50 439 55 464T74 505T110 526T164 532H175Q214 532 238 526T276 504T295 460T300 388V369H259V386Q259 421 256 442T243 475T218 491T175 495H166Q145 495 131 492T108 478T97 449T93 402V387Q93 363 97 348T111 322T140 305T187 292Q222 285 245 277T283 253T302 216T308 157V145Q308 100 303 71T284 26T245 3T180 -4H170ZM167 -49H206V-117Q206 -167 196 -186T155 -210V-187Q162 -185 167 -182T175 -171T179 -152T181 -119V-113H167V-49Z"  />
<glyph unicode="&#xE066;" horiz-adv-x="702" d="M170 -4Q132 -4 108 2T71 25T52 70T47 144V170H88V144Q88 109 91 88T104 54T129 38T171 33H179Q207 33 224 37T250 53T262 86T265 143V156Q265 182 261 198T246 225T215 242T166 254Q135 260 113 269T77 292T57 329T50 387V401Q50 439 55 464T74 505T110 526T164 532H175Q214 532 238 526T276 504T295 460T300 388V369H259V386Q259 421 256 442T243 475T218 491T175 495H166Q145 495 131 492T108 478T97 449T93 402V387Q93 363 97 348T111 322T140 305T187 292Q222 285 245 277T283 253T302 216T308 157V145Q308 100 303 71T284 26T245 3T180 -4H170ZM521 -4Q483 -4 459 2T422 25T403 70T398 144V170H439V144Q439 109 442 88T455 54T480 38T522 33H530Q558 33 575 37T601 53T613 86T616 143V156Q616 182 612 198T597 225T566 242T517 254Q486 260 464 269T428 292T408 329T401 387V401Q401 439 406 464T425 505T461 526T515 532H526Q565 532 589 526T627 504T646 460T651 388V369H610V386Q610 421 607 442T594 475T569 491T526 495H517Q496 495 482 492T459 478T448 449T444 402V387Q444 363 448 348T462 322T491 305T538 292Q573 285 596 277T634 253T653 216T659 157V145Q659 100 654 71T635 26T596 3T531 -4H521Z"  />
<glyph unicode="&#xE067;" horiz-adv-x="293" d="M168 0H124V490H12V528H281V490H168V0ZM146 589L52 708L73 727L147 634L220 727L241 708L146 589Z"  />
<glyph unicode="&#xE068;" horiz-adv-x="293" d="M168 0H124V490H12V528H281V490H168V0ZM126 -49H165V-117Q165 -167 155 -186T114 -210V-187Q121 -185 126 -182T134 -171T138 -152T140 -119V-113H126V-49Z"  />
<glyph unicode="&#xE069;" horiz-adv-x="293" d="M168 0H124V339H38V370H124V490H12V528H281V490H168V370H254V339H168V0Z"  />
<glyph unicode="&#xE06A;" horiz-adv-x="349" d="M106 0H62V528H106V426H171Q216 426 244 421T289 399T312 354T318 279V261Q318 217 311 188T288 143T243 120T173 113H106V0ZM170 149Q203 149 224 153T256 169T271 202T275 259V281Q275 318 271 339T256 372T224 386T169 390H106V149H170Z"  />
<glyph unicode="&#xE06B;" horiz-adv-x="390" d="M191 -4Q151 -4 126 2T85 26T64 77T58 165V528H102V162Q102 118 106 93T120 54T147 38T191 34H199Q226 34 243 37T270 54T284 92T288 162V528H332V165Q332 110 326 77T305 26T265 2T199 -4H191ZM246 594L125 709L151 736L263 611L246 594Z"  />
<glyph unicode="&#xE06C;" horiz-adv-x="390" d="M191 -4Q151 -4 126 2T85 26T64 77T58 165V528H102V162Q102 118 106 93T120 54T147 38T191 34H199Q226 34 243 37T270 54T284 92T288 162V528H332V165Q332 110 326 77T305 26T265 2T199 -4H191ZM150 595L134 612L246 737L272 709L150 595Z"  />
<glyph unicode="&#xE06D;" horiz-adv-x="390" d="M191 -4Q151 -4 126 2T85 26T64 77T58 165V528H102V162Q102 118 106 93T120 54T147 38T191 34H199Q226 34 243 37T270 54T284 92T288 162V528H332V165Q332 110 326 77T305 26T265 2T199 -4H191ZM269 601L196 694L122 601L101 620L195 739L290 620L269 601Z"  />
<glyph unicode="&#xE06E;" horiz-adv-x="390" d="M191 -4Q151 -4 126 2T85 26T64 77T58 165V528H102V162Q102 118 106 93T120 54T147 38T191 34H199Q226 34 243 37T270 54T284 92T288 162V528H332V165Q332 110 326 77T305 26T265 2T199 -4H191ZM292 694Q290 659 278 640T239 620Q221 620 209 628T186 646Q178 654 171 659T153 665Q139 665 132 655T122 619L98 622Q100 657 112 677T150 697Q167 697 178 689T200 672Q209 664 217 658T237 651Q252 651 259 661T268 698L292 694Z"  />
<glyph unicode="&#xE06F;" horiz-adv-x="390" d="M191 -4Q151 -4 126 2T85 26T64 77T58 165V528H102V162Q102 118 106 93T120 54T147 38T191 34H199Q226 34 243 37T270 54T284 92T288 162V528H332V165Q332 110 326 77T305 26T265 2T199 -4H191ZM156 625H114V699H156V625ZM276 625H234V699H276V625Z"  />
<glyph unicode="&#xE070;" horiz-adv-x="390" d="M191 -4Q151 -4 126 2T85 26T64 77T58 165V528H102V162Q102 118 106 93T120 54T147 38T191 34H199Q226 34 243 37T270 54T284 92T288 162V528H332V165Q332 110 326 77T305 26T265 2T199 -4H191ZM268 646H122V680H268V646Z"  />
<glyph unicode="&#xE071;" horiz-adv-x="390" d="M191 -4Q151 -4 126 2T85 26T64 77T58 165V528H102V162Q102 118 106 93T120 54T147 38T191 34H199Q226 34 243 37T270 54T284 92T288 162V528H332V165Q332 110 326 77T305 26T265 2T199 -4H191ZM283 709Q283 652 262 628T195 604Q148 604 128 627T107 709H135Q136 666 150 652T195 637Q225 637 239 651T255 709H283Z"  />
<glyph unicode="&#xE072;" horiz-adv-x="390" d="M191 -4Q151 -4 126 2T85 26T64 77T58 165V528H102V162Q102 118 106 93T120 54T147 38T191 34H199Q226 34 243 37T270 54T284 92T288 162V528H332V165Q332 110 326 77T305 26T265 2T199 -4H191ZM193 593Q155 593 137 609T119 663V669Q119 706 137 722T193 738H198Q236 738 254 722T272 669V663Q272 625 254 609T198 593H193ZM198 615Q222 615 233 625T244 662V668Q244 694 233 705T198 716H193Q169 716 158 705T147 668V662Q147 636 158 626T193 615H198Z"  />
<glyph unicode="&#xE073;" horiz-adv-x="390" d="M191 -4Q151 -4 126 2T85 26T64 77T58 165V528H102V162Q102 118 106 93T120 54T147 38T191 34H199Q226 34 243 37T270 54T284 92T288 162V528H332V165Q332 110 326 77T305 26T265 2T199 -4H191ZM143 601L125 617L206 748L233 728L143 601ZM232 599L214 614L295 746L322 725L232 599Z"  />
<glyph unicode="&#xE074;" horiz-adv-x="390" d="M242 -177Q232 -181 219 -184T192 -187Q160 -187 143 -174T126 -129Q126 -101 142 -72T189 -4Q150 -4 125 2T84 26T64 78T58 165V528H102V162Q102 118 106 93T120 54T147 38T191 34H199Q226 34 243 37T270 54T284 92T288 162V528H332V165Q332 115 327 83T310 32T276 5T222 -4Q192 -40 177 -68T161 -122Q161 -142 172 -149T201 -156Q210 -156 221 -154T242 -149V-177Z"  />
<glyph unicode="&#xE075;" horiz-adv-x="525" d="M412 0H350L264 492H262L178 0H114L14 528H58L146 34H147L232 528H295L381 34H382L470 528H511L412 0ZM336 601L263 694L189 601L168 620L262 739L357 620L336 601Z"  />
<glyph unicode="&#xE076;" horiz-adv-x="310" d="M177 0H133V180L8 528H52L156 231H157L259 528H302L177 180V0ZM113 595L97 612L209 737L235 709L113 595Z"  />
<glyph unicode="&#xE077;" horiz-adv-x="310" d="M177 0H133V180L8 528H52L156 231H157L259 528H302L177 180V0ZM229 601L156 694L82 601L61 620L155 739L250 620L229 601Z"  />
<glyph unicode="&#xE078;" horiz-adv-x="310" d="M177 0H133V180L8 528H52L156 231H157L259 528H302L177 180V0ZM116 625H74V699H116V625ZM236 625H194V699H236V625Z"  />
<glyph unicode="&#xE079;" horiz-adv-x="316" d="M286 0H33V34L239 491V492H43V528H284V494L78 37V36H286V0ZM125 595L109 612L221 737L247 709L125 595Z"  />
<glyph unicode="&#xE07A;" horiz-adv-x="316" d="M286 0H33V34L239 491V492H43V528H284V494L78 37V36H286V0ZM159 589L65 708L86 727L160 634L233 727L254 708L159 589Z"  />
<glyph unicode="&#xE07B;" horiz-adv-x="316" d="M286 0H33V34L239 491V492H43V528H284V494L78 37V36H286V0ZM179 625H135V699H179V625Z"  />
<glyph unicode="&#xE07C;" horiz-adv-x="474" d="M265 245H106V0H62V528H277V490H106V281H265V245ZM412 0H368V528H412V0Z"  />
<glyph unicode="&#xE07D;" horiz-adv-x="585" d="M265 245H106V0H62V528H277V490H106V281H265V245ZM573 0H368V528H412V38H573V0Z"  />
<glyph unicode="&#xE07E;" horiz-adv-x="490" d="M106 0H62V528H106V0ZM310 -4Q278 -4 258 2T226 25T210 73T205 154V173H247V156Q247 115 249 91T258 55T277 38T311 34H319Q341 34 354 37T375 53T384 90T387 156V528H431V160Q431 110 427 78T410 28T376 3T319 -4H310Z"  />
<glyph unicode="&#xE07F;" horiz-adv-x="193" d="M121 451H75V528H121V451ZM120 0H77L79 379H118L120 0Z"  />
<glyph unicode="&#xE080;" horiz-adv-x="312" d="M192 451H146V528H192V451ZM269 149Q269 102 265 73T248 26T214 3T160 -4H150Q117 -4 96 3T63 26T47 69T43 135V149Q43 182 46 205T57 244T79 273T115 296Q132 304 141 315T150 357V376H189V353Q189 316 176 299T137 268Q120 260 110 252T93 230T85 198T83 149V137Q83 104 86 84T96 51T117 35T151 31H161Q183 31 197 35T218 53T228 89T231 149V174H269V149Z"  />
<glyph unicode="&#xE081;" horiz-adv-x="384" d="M216 -4Q175 -4 150 3T111 32T91 97T85 211H43V238H85V303H43V330H85Q86 395 92 435T112 496T152 525T216 532H224Q257 532 278 525T312 503T329 464T334 406V392H294V404Q294 431 291 449T280 477T259 491T224 495H216Q190 495 173 491T147 470T133 420T129 330H244V303H129V238H244V211H129Q129 149 132 114T145 60T172 38T216 33H224Q247 33 261 36T284 50T294 81T297 134V145H338V132Q338 93 334 67T317 25T283 3T224 -4H216Z"  />
<glyph unicode="&#xE082;" horiz-adv-x="309" d="M169 -24H144V66Q113 67 93 74T62 100T46 154T41 244V267Q41 324 45 359T62 413T94 439T144 446V528H169V446Q198 446 217 441T247 422T262 387T266 330V314H229V327Q229 354 227 370T218 395T200 407T169 410V102Q188 102 200 105T219 117T228 144T231 192V203H268V191Q268 152 263 128T247 90T216 71T169 66V-24ZM81 243Q81 197 83 170T93 127T112 108T144 102V410Q124 410 112 407T93 389T84 347T81 269V243Z"  />
<glyph unicode="&#xE083;" horiz-adv-x="341" d="M296 0H40V40Q54 47 63 56T78 86T85 141T88 233H39V267H88V292Q88 368 92 415T107 488T137 523T188 532H201Q230 532 248 526T277 505T291 467T295 409V396H256V410Q256 436 254 453T246 479T229 493T200 497H191Q172 497 160 492T142 467T133 407T130 295V267H246V233H130Q129 179 127 145T119 91T104 59T80 39V38H296V0Z"  />
<glyph unicode="&#xE084;" horiz-adv-x="354" d="M183 109Q179 71 173 44T155 0T126 -25T81 -34Q68 -34 56 -33T32 -26V8Q54 0 76 0Q93 0 104 5T122 23T135 58T143 116L160 286H81V319H163L170 390Q178 466 202 499T281 532Q292 532 300 532T320 529V495Q305 498 284 498Q266 498 254 493T233 474T219 438T210 382L204 319H302V286H200L183 109Z"  />
<glyph unicode="&#xE085;" d="M194 0H150V168H52V198H147L115 287H52V317H106L29 528H73L172 232H173L271 528H314L238 317H292V287H228L197 198H293V168H194V0Z"  />
<glyph unicode="&#xE087;" horiz-adv-x="639" d="M117 296Q97 296 85 300T65 317T54 350T51 403V422Q51 454 54 475T64 508T84 524T117 529H122Q142 529 155 525T175 508T186 475T189 422V403Q189 371 186 350T176 317T155 301T122 296H117ZM122 324Q134 324 141 326T151 337T156 360T158 402V423Q158 449 157 464T152 488T141 498T122 501H117Q106 501 99 499T89 488T84 465T82 423V402Q82 376 83 361T88 337T99 327T117 324H122ZM170 0H140L291 528H321L170 0ZM338 0Q318 0 306 4T286 21T275 54T272 107V126Q272 158 275 179T285 212T305 228T338 233H343Q363 233 376 229T396 212T407 179T410 126V107Q410 75 407 54T397 21T376 5T343 0H338ZM343 28Q355 28 362 30T372 41T377 64T379 106V127Q379 153 378 168T373 192T362 202T343 205H338Q327 205 320 203T310 192T305 169T303 127V106Q303 80 304 65T309 41T320 31T338 28H343ZM516 0Q496 0 484 4T464 21T453 54T450 107V126Q450 158 453 179T463 212T483 228T516 233H521Q541 233 554 229T574 212T585 179T588 126V107Q588 75 585 54T575 21T554 5T521 0H516ZM521 28Q533 28 540 30T550 41T555 64T557 106V127Q557 153 556 168T551 192T540 202T521 205H516Q505 205 498 203T488 192T483 169T481 127V106Q481 80 482 65T487 41T498 31T516 28H521Z"  />
<glyph unicode="&#xE0CF;" horiz-adv-x="212" d="M190 -8H171Q148 -8 133 -4T108 13T95 49T91 109V159Q91 178 89 195T81 226T63 246T31 254V281Q51 281 63 288T81 309T89 339T91 376V419Q91 456 95 479T108 514T132 531T171 536H190V504H175Q161 504 152 502T138 490T131 464T129 418V379Q129 330 119 303T71 269V266Q108 260 118 233T129 156V111Q129 82 131 65T138 39T152 27T175 24H190V-8Z"  />
<glyph unicode="&#xE0D0;" horiz-adv-x="212" d="M22 -8V24H37Q51 24 60 27T74 39T81 65T83 111V156Q83 205 93 232T141 266V269Q104 276 94 303T83 379V418Q83 447 81 464T74 490T60 501T37 504H22V536H42Q65 536 80 532T104 515T117 479T121 419V376Q121 356 123 339T131 309T149 289T181 281V254Q161 254 149 247T131 226T123 196T121 159V109Q121 72 117 49T104 14T80 -3T42 -8H22Z"  />
<glyph unicode="&#xE0D1;" horiz-adv-x="179" d="M157 -8H61V536H157V502H101V26H157V-8Z"  />
<glyph unicode="&#xE0D2;" horiz-adv-x="179" d="M118 -8H22V26H78V502H22V536H118V-8Z"  />
<glyph unicode="&#xE0D8;" horiz-adv-x="197" d="M175 -8H163Q130 -8 109 1T74 38T56 117T50 254V274Q50 359 55 410T74 490T108 527T163 536H175V500H164Q143 500 129 494T106 464T93 394T89 270V258Q89 180 93 134T105 65T128 35T164 28H175V-8Z"  />
<glyph unicode="&#xE0D9;" horiz-adv-x="197" d="M22 -8V28H33Q54 28 68 34T91 64T104 134T108 258V270Q108 348 104 394T92 463T69 493T33 500H22V536H33Q66 536 88 527T123 490T141 411T147 274V254Q147 169 142 118T123 38T88 1T33 -8H22Z"  />
<glyph unicode="&#xE0E1;" horiz-adv-x="234" d="M92 337H46V419Q46 467 56 493T102 528V501Q85 496 80 479T74 423V416H92V337ZM185 337H139V419Q139 467 149 493T195 528V501Q178 496 173 479T167 423V416H185V337Z"  />
<glyph unicode="&#xE0E2;" horiz-adv-x="234" d="M95 446Q95 398 85 372T39 337V364Q56 369 61 386T67 442V449H49V528H95V446ZM188 446Q188 398 178 372T132 337V364Q149 369 154 386T160 442V449H142V528H188V446Z"  />
<glyph unicode="&#xE0E3;" horiz-adv-x="141" d="M92 337H46V419Q46 467 56 493T102 528V501Q85 496 80 479T74 423V416H92V337Z"  />
<glyph unicode="&#xE0E4;" horiz-adv-x="141" d="M95 446Q95 398 85 372T39 337V364Q56 369 61 386T67 442V449H49V528H95V446Z"  />
<glyph unicode="&#xE10A;" horiz-adv-x="352" d="M180 33Q208 33 225 38T251 63T263 124T266 238V290Q266 362 263 403T251 465T225 490T180 495H171Q144 495 128 490T102 465T90 404T87 290V238Q87 166 90 125T102 63T127 38T171 33H180ZM171 -4Q132 -4 108 3T69 34T49 107T44 240V288Q44 372 49 420T68 493T107 525T171 532H181Q220 532 244 525T283 494T303 421T308 288V240Q308 156 303 108T284 35T245 3T181 -4H171Z"  />
<glyph unicode="&#xE10B;" horiz-adv-x="252" d="M169 0H126V472H124L49 327L15 347L111 528H169V0Z"  />
<glyph unicode="&#xE10C;" horiz-adv-x="337" d="M294 0H46V65Q46 114 50 145T67 195T101 227T159 250Q190 260 209 269T238 292T251 326T254 376V390Q254 424 252 444T241 476T216 491T174 495H165Q140 495 125 491T102 474T91 437T88 371V351H47V370Q47 419 51 450T67 500T103 525T165 532H174Q213 532 237 526T275 504T292 461T297 391V378Q297 341 292 315T272 271T233 239T168 213Q143 205 128 197T104 173T92 133T89 67V36H294V0Z"  />
<glyph unicode="&#xE10D;" horiz-adv-x="346" d="M302 137Q302 95 297 68T279 24T240 2T176 -4H167Q128 -4 104 3T67 28T50 77T46 156V177H87V155Q87 114 90 90T101 54T125 37T166 33H174Q201 33 217 36T243 51T255 82T259 137V153Q259 184 256 204T246 235T228 251T199 255H133V290H187Q208 290 220 293T240 306T249 332T252 376V393Q252 426 250 446T239 477T215 491T172 495H164Q140 495 125 492T102 475T91 438T88 374V352H48V373Q48 421 52 452T69 500T105 525T164 532H174Q213 532 237 526T274 505T291 462T295 393V378Q295 350 293 332T285 303T273 285T255 274V273Q280 265 291 240T302 152V137Z"  />
<glyph unicode="&#xE10E;" horiz-adv-x="351" d="M276 0H234V127H38V167L212 528H276V162H320V127H276V0ZM234 162V490H233L79 163V162H234Z"  />
<glyph unicode="&#xE10F;" horiz-adv-x="328" d="M293 160Q293 109 288 77T269 27T230 3T166 -4H156Q118 -4 96 2T60 26T43 72T39 148V164H79V149Q79 111 82 88T93 53T117 37T157 33H166Q193 33 209 37T235 54T247 93T250 160V178Q250 222 248 248T236 288T211 306T167 310H159Q124 310 109 303T86 269H45V528H283V493H86V315H87Q104 347 168 347H177Q214 347 236 341T271 317T288 267T293 184V160Z"  />
<glyph unicode="&#xE110;" horiz-adv-x="341" d="M166 -4Q128 -4 104 3T67 29T49 79T44 160V285Q44 367 49 415T67 490T105 524T169 532H179Q215 532 238 526T274 505T291 462T296 392V369H255V390Q255 424 253 444T242 476T218 491T179 495H171Q144 495 128 490T102 466T90 408T87 303V263H88Q109 307 175 307H184Q218 307 241 302T277 281T297 236T303 159V141Q303 97 298 69T278 25T240 3T176 -4H166ZM176 33Q202 33 218 36T244 51T257 84T261 141V155Q261 191 258 213T246 248T220 265T176 270H168Q148 270 133 266T107 252T92 223T87 174V157Q87 116 90 92T102 54T126 37T168 33H176Z"  />
<glyph unicode="&#xE111;" horiz-adv-x="315" d="M122 0H78L240 490V492H32V528H284V495L122 0Z"  />
<glyph unicode="&#xE112;" horiz-adv-x="348" d="M167 -4Q130 -4 107 1T69 22T50 65T44 134V145Q44 210 55 239T95 277V278Q72 284 60 308T48 394V406Q48 446 54 471T75 509T112 527T165 532H181Q213 532 235 528T272 510T293 471T300 406V394Q300 333 288 309T251 278V277Q264 273 274 266T290 243T300 205T304 145V134Q304 92 299 65T279 23T241 2T180 -4H167ZM179 295Q203 295 218 298T243 311T255 340T258 391V403Q258 433 254 451T241 480T217 493T180 496H166Q144 496 130 493T106 480T94 452T90 403V391Q90 359 93 340T105 311T129 298T168 295H179ZM179 33Q205 33 221 36T247 51T259 83T262 138V149Q262 184 259 206T246 240T221 256T179 260H168Q142 260 126 256T101 240T89 206T86 149V138Q86 104 89 84T102 52T127 37T168 33H179Z"  />
<glyph unicode="&#xE113;" horiz-adv-x="341" d="M161 -4Q124 -4 101 2T64 23T46 66T41 137V159H82V138Q82 104 85 84T96 52T120 37T161 33H170Q197 33 213 38T239 62T251 120T254 226V265H253Q232 221 166 221H156Q122 221 100 226T63 248T43 293T37 369V387Q37 430 42 458T62 503T101 525T164 532H175Q213 532 237 525T274 499T291 449T296 368V243Q296 161 291 113T273 38T235 4T171 -4H161ZM173 258Q193 258 208 262T234 276T249 305T254 354V371Q254 412 251 436T239 474T214 491T173 495H165Q139 495 122 492T96 477T83 444T79 387V373Q79 337 82 315T94 280T121 263T165 258H173Z"  />
<glyph unicode="&#xE114;" horiz-adv-x="417" d="M202 -4Q153 -4 124 5T78 46T56 141T50 311V371Q50 477 55 539T77 634T123 675T203 684H215Q264 684 293 675T339 634T361 540T367 371V311Q367 204 362 141T340 46T294 5T214 -4H202ZM214 36Q250 36 271 42T304 75T318 156T322 306V374Q322 470 319 524T304 605T272 638T214 644H203Q167 644 146 638T113 605T99 524T95 374V306Q95 210 98 156T113 75T145 42T203 36H214Z"  />
<glyph unicode="&#xE115;" horiz-adv-x="417" d="M260 0H214V622H212L115 431L78 451L197 680H260V0Z"  />
<glyph unicode="&#xE116;" horiz-adv-x="417" d="M360 0H60V80Q60 144 65 184T84 250T126 291T197 319Q236 331 259 342T295 372T311 416T315 484V507Q315 552 312 579T299 620T268 640T214 645H204Q172 645 152 640T122 617T108 568T104 480V456H60V478Q60 540 65 580T85 643T128 675T204 684H214Q261 684 290 676T334 648T355 592T361 504V487Q361 437 356 404T334 348T287 309T207 278Q173 268 153 257T123 225T109 172T106 83V39H360V0Z"  />
<glyph unicode="&#xE117;" horiz-adv-x="417" d="M365 173Q365 120 358 86T334 31T287 4T210 -4H199Q152 -4 124 4T80 36T59 98T54 199V223H97V197Q97 144 101 112T116 63T147 41T200 36H210Q244 36 265 40T299 60T315 102T319 174V195Q319 236 315 262T302 303T277 323T241 329H161V369H227Q254 369 270 372T295 388T307 423T310 485V506Q310 550 307 577T293 619T262 639T208 644H198Q166 644 147 639T117 617T103 568T99 483V457H56V482Q56 543 60 582T79 643T122 675T197 684H209Q256 684 285 677T329 649T350 594T356 505V488Q356 449 353 425T344 386T327 364T304 350V348Q320 343 331 334T350 306T361 261T365 193V173Z"  />
<glyph unicode="&#xE118;" horiz-adv-x="417" d="M333 0H288V165H45V212L262 680H333V203H387V165H333V0ZM288 203V642H287L87 205V203H288Z"  />
<glyph unicode="&#xE119;" horiz-adv-x="417" d="M201 -4Q154 -4 126 4T83 33T62 92T57 189V206H99V190Q99 139 103 109T118 62T149 41T202 36H213Q247 36 267 41T299 65T314 116T318 204V226Q318 287 315 322T300 376T269 400T215 405H205Q158 405 138 394T107 350H63V680H353V641H107V398H108Q119 423 143 434T215 445H227Q269 445 295 438T337 408T358 344T364 235V204Q364 139 358 99T335 35T289 4T213 -4H201Z"  />
<glyph unicode="&#xE11A;" horiz-adv-x="417" d="M201 -4Q154 -4 125 5T81 38T60 102T54 204V366Q54 474 59 537T81 632T127 674T205 684H217Q262 684 289 677T332 649T352 593T357 504V480H315V503Q315 548 312 575T298 618T268 639T217 644H206Q172 644 151 638T119 607T103 533T99 397V325H100Q113 361 140 376T211 391H223Q264 391 291 385T336 358T360 300T368 203V179Q368 124 361 89T337 33T290 4T214 -4H201ZM213 36Q247 36 268 41T302 61T318 104T323 180V197Q323 246 319 276T303 322T270 345T213 351H203Q177 351 158 346T125 326T106 287T99 222V201Q99 146 103 114T118 64T150 41T203 36H213Z"  />
<glyph unicode="&#xE11B;" horiz-adv-x="417" d="M165 0H118L322 639V641H61V680H368V644L165 0Z"  />
<glyph unicode="&#xE11C;" horiz-adv-x="417" d="M223 376Q254 376 273 380T303 397T318 436T322 503V520Q322 560 318 584T302 622T272 639T224 644H206Q177 644 158 640T128 622T113 585T108 520V503Q108 461 112 436T126 398T156 380T208 376H223ZM223 36Q256 36 277 40T309 60T324 102T328 174V191Q328 237 324 266T309 310T277 331T223 337H208Q175 337 154 332T122 311T107 266T103 191V174Q103 129 107 102T122 60T154 41T208 36H223ZM207 -4Q162 -4 133 3T87 29T64 82T57 169V183Q57 236 62 268T77 319T101 345T134 356V357Q116 360 103 367T81 390T68 435T63 507V523Q63 574 71 606T96 655T140 678T205 684H225Q264 684 291 678T335 655T359 606T367 523V507Q367 463 363 435T350 391T328 367T296 357V356Q314 353 328 346T352 319T367 268T373 183V169Q373 116 367 82T343 29T298 3T224 -4H207Z"  />
<glyph unicode="&#xE11D;" horiz-adv-x="417" d="M197 -4Q152 -4 125 3T82 31T62 87T56 176V200H99V177Q99 132 102 105T116 62T146 41T198 36H208Q243 36 264 42T298 73T314 147T318 283V355H317Q304 319 277 305T206 290H194Q153 290 126 296T81 323T57 380T50 478V501Q50 556 56 591T80 647T127 676T203 684H216Q263 684 292 675T336 642T357 578T363 476V314Q363 208 358 145T336 49T289 6T209 -4H197ZM214 330Q240 330 259 335T292 354T311 394T318 458V479Q318 534 314 566T299 616T267 638T214 644H204Q170 644 149 639T115 619T99 576T95 501V483Q95 435 99 405T114 359T147 336T204 330H214Z"  />
<glyph unicode="&#xE13C;" horiz-adv-x="218" d="M162 308H128V636H127L68 536L43 552L119 680H162V308Z"  />
<glyph unicode="&#xE13D;" horiz-adv-x="260" d="M228 308H41V353Q41 388 44 410T56 446T82 468T127 485Q148 491 161 497T182 513T192 537T195 571V582Q195 625 183 639T135 653H130Q98 653 86 639T74 579V559H41V579Q41 636 60 659T130 682H136Q164 682 182 677T210 661T225 630T229 582V572Q229 545 225 527T209 496T180 474T134 457Q114 451 102 445T84 429T76 401T74 356V337H228V308Z"  />
<glyph unicode="&#xE13E;" horiz-adv-x="265" d="M130 306Q102 306 84 310T55 327T40 362T36 418V431H68V417Q68 391 70 375T80 350T99 338T129 335H135Q154 335 166 338T185 348T194 369T197 404V416Q197 456 185 471T148 487H107V513H148Q171 513 181 525T192 573V584Q192 607 190 620T181 641T163 651T134 653H128Q111 653 100 651T83 641T74 620T71 583V557H40V582Q40 611 44 630T58 661T85 677T129 682H135Q162 682 179 678T207 662T222 632T226 585V575Q226 539 217 524T191 501V500Q208 495 219 478T231 415V404Q231 375 227 357T211 327T182 311T136 306H130Z"  />
<glyph unicode="&#xE13F;" horiz-adv-x="268" d="M207 308H174V394H28V426L156 680H207V422H243V394H207V308ZM174 422V650H173L60 423V422H174Z"  />
<glyph unicode="&#xE140;" horiz-adv-x="263" d="M128 306Q101 306 84 311T57 327T44 358T40 407V420H72V407Q72 363 82 349T128 335H134Q153 335 164 338T183 350T192 378T195 427V438Q195 466 193 484T185 512T169 525T141 529H135Q120 529 110 528T94 523T85 514T77 501H45V680H226V651H77V528H78Q85 542 98 550T140 558H147Q171 558 187 553T212 534T225 497T229 440V427Q229 389 225 366T209 329T180 311T135 306H128Z"  />
<glyph unicode="&#xE141;" horiz-adv-x="267" d="M138 335Q156 335 167 337T185 348T194 370T197 410V420Q197 444 195 459T186 482T167 493T136 496H130Q116 496 106 494T88 485T76 465T72 431V419Q72 391 74 375T84 349T102 338T132 335H138ZM131 306Q104 306 86 310T58 328T43 363T39 421V530Q39 578 42 608T56 654T84 676T131 682H138Q164 682 181 678T207 662T221 632T225 582V569H192V582Q192 626 182 639T137 653H131Q113 653 102 650T84 635T75 601T72 539V494H73Q83 525 136 525H143Q168 525 184 521T211 506T225 475T230 424V410Q230 378 226 358T210 327T182 311T138 306H131Z"  />
<glyph unicode="&#xE142;" horiz-adv-x="245" d="M94 308H59L179 650V651H25V680H215V653L94 308Z"  />
<glyph unicode="&#xE143;" horiz-adv-x="268" d="M130 306Q105 306 88 310T59 324T42 354T37 402V410Q37 437 40 454T49 481T63 496T83 503V504Q62 509 51 524T40 584V594Q40 645 59 663T129 682H140Q189 682 209 664T229 594V584Q229 540 218 525T186 504V503Q197 501 205 496T219 481T228 454T231 410V402Q231 373 226 354T210 325T182 310T139 306H130ZM139 518Q170 518 183 530T196 582V592Q196 630 185 641T139 653H129Q95 653 84 642T73 592V582Q73 542 85 530T130 518H139ZM139 335Q157 335 168 337T187 347T196 368T199 404V413Q199 460 187 474T139 489H130Q112 489 101 486T82 475T73 452T70 413V404Q70 360 82 348T130 335H139Z"  />
<glyph unicode="&#xE144;" horiz-adv-x="267" d="M137 492Q151 492 161 494T179 503T191 523T195 557V569Q195 597 193 613T183 639T164 650T134 653H128Q110 653 99 651T81 641T72 619T69 580V571Q69 546 71 531T81 507T100 495T131 492H137ZM129 306Q102 306 85 310T58 325T44 356T40 406V419H73V406Q73 384 75 371T83 349T100 338T129 335H135Q154 335 165 338T183 353T192 387T195 449V494H194Q189 480 174 472T131 463H124Q100 463 83 467T56 482T41 514T36 567V580Q36 611 40 631T56 662T84 677T128 682H135Q162 682 180 677T208 660T223 625T228 567V458Q228 410 225 380T211 334T182 312T136 306H129Z"  />
<glyph unicode="&#xE145;" horiz-adv-x="270" d="M138 335Q159 335 171 340T190 360T198 404T200 477V511Q200 556 198 584T190 627T171 648T138 653H132Q111 653 99 648T81 628T73 584T71 511V477Q71 432 73 404T81 361T99 340T132 335H138ZM132 306Q100 306 82 314T53 341T40 394T37 479V510Q37 561 40 594T53 646T81 674T132 682H138Q169 682 188 674T217 647T230 594T233 510V479Q233 428 230 395T217 342T188 314T138 306H132Z"  />
<glyph unicode="&#xE146;" horiz-adv-x="218" d="M162 0H128V328H127L68 228L43 244L119 372H162V0Z"  />
<glyph unicode="&#xE147;" horiz-adv-x="260" d="M228 0H41V45Q41 80 44 102T56 138T82 160T127 177Q148 183 161 189T182 205T192 229T195 263V274Q195 317 183 331T135 345H130Q98 345 86 331T74 271V251H41V271Q41 328 60 351T130 374H136Q164 374 182 369T210 353T225 322T229 274V264Q229 237 225 219T209 188T180 166T134 149Q114 143 102 137T84 121T76 93T74 48V29H228V0Z"  />
<glyph unicode="&#xE148;" horiz-adv-x="265" d="M130 -2Q102 -2 84 2T55 19T40 54T36 110V123H68V109Q68 83 70 67T80 42T99 30T129 27H135Q154 27 166 30T185 40T194 61T197 96V108Q197 148 185 163T148 179H107V205H148Q171 205 181 217T192 265V276Q192 299 190 312T181 333T163 343T134 345H128Q111 345 100 343T83 333T74 312T71 275V249H40V274Q40 303 44 322T58 353T85 369T129 374H135Q162 374 179 370T207 354T222 324T226 277V267Q226 231 217 216T191 193V192Q208 187 219 170T231 107V96Q231 67 227 49T211 19T182 3T136 -2H130Z"  />
<glyph unicode="&#xE149;" horiz-adv-x="268" d="M207 0H174V86H28V118L156 372H207V114H243V86H207V0ZM174 114V342H173L60 115V114H174Z"  />
<glyph unicode="&#xE14A;" horiz-adv-x="263" d="M128 -2Q101 -2 84 3T57 19T44 50T40 99V112H72V99Q72 55 82 41T128 27H134Q153 27 164 30T183 42T192 70T195 119V130Q195 158 193 176T185 204T169 217T141 221H135Q120 221 110 220T94 215T85 206T77 193H45V372H226V343H77V220H78Q85 234 98 242T140 250H147Q171 250 187 245T212 226T225 189T229 132V119Q229 81 225 58T209 21T180 3T135 -2H128Z"  />
<glyph unicode="&#xE14B;" horiz-adv-x="267" d="M138 27Q156 27 167 29T185 40T194 62T197 102V112Q197 136 195 151T186 174T167 185T136 188H130Q116 188 106 186T88 177T76 157T72 123V111Q72 83 74 67T84 41T102 30T132 27H138ZM131 -2Q104 -2 86 2T58 20T43 55T39 113V222Q39 270 42 300T56 346T84 368T131 374H138Q164 374 181 370T207 354T221 324T225 274V261H192V274Q192 318 182 331T137 345H131Q113 345 102 342T84 327T75 293T72 231V186H73Q83 217 136 217H143Q168 217 184 213T211 198T225 167T230 116V102Q230 70 226 50T210 19T182 3T138 -2H131Z"  />
<glyph unicode="&#xE14C;" horiz-adv-x="245" d="M94 0H59L179 342V343H25V372H215V345L94 0Z"  />
<glyph unicode="&#xE14D;" horiz-adv-x="268" d="M130 -2Q105 -2 88 2T59 16T42 46T37 94V102Q37 129 40 146T49 173T63 188T83 195V196Q62 201 51 216T40 276V286Q40 337 59 355T129 374H140Q189 374 209 356T229 286V276Q229 232 218 217T186 196V195Q197 193 205 188T219 173T228 146T231 102V94Q231 65 226 46T210 17T182 2T139 -2H130ZM139 210Q170 210 183 222T196 274V284Q196 322 185 333T139 345H129Q95 345 84 334T73 284V274Q73 234 85 222T130 210H139ZM139 27Q157 27 168 29T187 39T196 60T199 96V105Q199 152 187 166T139 181H130Q112 181 101 178T82 167T73 144T70 105V96Q70 52 82 40T130 27H139Z"  />
<glyph unicode="&#xE14E;" horiz-adv-x="267" d="M137 184Q151 184 161 186T179 195T191 215T195 249V261Q195 289 193 305T183 331T164 342T134 345H128Q110 345 99 343T81 333T72 311T69 272V263Q69 238 71 223T81 199T100 187T131 184H137ZM129 -2Q102 -2 85 2T58 17T44 48T40 98V111H73V98Q73 76 75 63T83 41T100 30T129 27H135Q154 27 165 30T183 45T192 79T195 141V186H194Q189 172 174 164T131 155H124Q100 155 83 159T56 174T41 206T36 259V272Q36 303 40 323T56 354T84 369T128 374H135Q162 374 180 369T208 352T223 317T228 259V150Q228 102 225 72T211 26T182 4T136 -2H129Z"  />
<glyph unicode="&#xE14F;" horiz-adv-x="270" d="M138 27Q159 27 171 32T190 52T198 96T200 169V203Q200 248 198 276T190 319T171 340T138 345H132Q111 345 99 340T81 320T73 276T71 203V169Q71 124 73 96T81 53T99 32T132 27H138ZM132 -2Q100 -2 82 6T53 33T40 86T37 171V202Q37 253 40 286T53 338T81 366T132 374H138Q169 374 188 366T217 339T230 286T233 202V171Q233 120 230 87T217 34T188 6T138 -2H132Z"  />
<glyph unicode="&#xE1FB;" horiz-adv-x="417" d="M220 -81H194V-4Q148 -3 120 5T76 33T55 89T49 181V215H94V184Q94 138 97 109T111 64T142 41T194 35V330Q152 339 125 351T82 382T59 427T52 490V508Q52 558 59 592T82 646T126 675T194 684V750H220V684Q262 683 288 674T330 644T350 588T356 500V479H311V498Q311 542 308 570T295 614T267 637T220 645V369Q263 360 291 349T336 318T360 271T367 201V185Q367 128 361 92T339 34T294 5T220 -4V-81ZM220 35Q253 35 273 40T304 61T318 105T322 182V199Q322 229 318 249T302 284T271 307T220 324V35ZM97 491Q97 466 101 448T115 416T145 393T194 375V645Q165 645 147 639T117 618T102 576T97 508V491Z"  />
<glyph unicode="&#xE1FC;" horiz-adv-x="417" d="M382 167Q382 119 377 86T356 33T312 5T238 -4H233Q182 -4 151 4T103 41T80 125T74 275H22V303H74V393H22V421H74Q74 508 80 559T104 639T153 675T233 684H243Q285 684 311 676T351 648T371 598T376 522V508H332V533Q332 594 315 618T244 643H234Q199 643 177 638T143 611T126 545T121 421H264V393H121V303H264V275H121Q121 190 125 142T142 71T176 43T233 37H243Q273 37 292 43T321 64T334 104T338 167V187H382V167Z"  />
<glyph unicode="&#xE1FD;" horiz-adv-x="417" d="M362 0H51V44Q67 53 78 64T96 101T106 174T109 302H49V338H110V375Q110 474 115 534T134 628T172 672T235 684H250Q285 684 307 676T342 650T359 600T364 524V510H323V524Q323 560 320 583T309 620T287 639T249 645H238Q212 645 196 638T170 603T158 522T155 379V338H302V302H155Q155 222 151 176T139 103T119 65T90 43V41H362V0Z"  />
<glyph unicode="&#xE1FE;" horiz-adv-x="417" d="M232 0H187V218H63V250H184L142 373H63V404H131L38 680H83L209 285H211L336 680H381L287 405H356V373H276L234 250H356V218H232V0Z"  />
<glyph unicode="&#xE300;" horiz-adv-x="269" d="M200 742L59 831L80 863L213 761L200 742Z"  />
<glyph unicode="&#xE301;" horiz-adv-x="269" d="M216 831L74 742L61 761L195 863L216 831Z"  />
<glyph unicode="&#xE302;" horiz-adv-x="269" d="M217 747L134 825L52 747L32 765L134 867L237 765L217 747Z"  />
<glyph unicode="&#xE303;" horiz-adv-x="269" d="M134 735L32 837L52 855L134 778L217 855L237 837L134 735Z"  />
<glyph unicode="&#xE304;" horiz-adv-x="269" d="M232 836Q230 801 218 782T179 762Q161 762 149 770T126 788Q118 796 111 801T93 807Q79 807 72 797T62 761L38 764Q40 799 52 819T90 839Q107 839 118 831T140 814Q149 806 157 800T177 793Q192 793 199 803T208 840L232 836Z"  />
<glyph unicode="&#xE305;" horiz-adv-x="269" d="M94 758H52V832H94V758ZM214 758H172V832H214V758Z"  />
<glyph unicode="&#xE306;" horiz-adv-x="269" d="M209 780H63V814H209V780Z"  />
<glyph unicode="&#xE307;" horiz-adv-x="269" d="M222 843Q222 786 201 762T134 738Q87 738 67 761T46 843H74Q75 800 89 786T134 771Q164 771 178 785T194 843H222Z"  />
<glyph unicode="&#xE308;" horiz-adv-x="269" d="M136 726Q98 726 80 742T62 796V802Q62 839 80 855T136 872H141Q179 872 197 856T215 802V796Q215 759 197 743T141 726H136ZM141 748Q165 748 176 759T187 796V802Q187 828 176 838T141 849H136Q112 849 101 839T90 802V796Q90 770 101 759T136 748H141Z"  />
<glyph unicode="&#xE309;" horiz-adv-x="269" d="M69 733L53 751L147 871L171 847L69 733ZM164 733L147 750L241 870L266 846L164 733Z"  />
<glyph unicode="&#xE30A;" horiz-adv-x="269" d="M155 758H111V832H155V758Z"  />
<glyph unicode="&#xE30B;" horiz-adv-x="269" d="M159 612Q159 585 157 568T149 540T136 524T115 516V541Q120 543 123 546T129 557T132 576T133 609V616H120V680H159V612Z"  />
<glyph unicode="&#xE30C;" horiz-adv-x="269" d="M107 -49H146V-117Q146 -167 136 -186T95 -210V-187Q102 -185 107 -182T115 -171T119 -152T121 -119V-113H107V-49Z"  />
<glyph unicode="&#xE30D;" horiz-adv-x="269" d="M151 546H112V614Q112 639 114 656T122 683T138 699T163 707V684Q155 682 150 679T142 668T138 649T137 616V610H151V546Z"  />
<glyph unicode="&#xE320;" horiz-adv-x="269" d="M192 594L71 709L97 736L209 611L192 594Z"  />
<glyph unicode="&#xE321;" horiz-adv-x="269" d="M87 595L71 612L183 737L209 709L87 595Z"  />
<glyph unicode="&#xE322;" horiz-adv-x="269" d="M208 601L135 694L61 601L40 620L134 739L229 620L208 601Z"  />
<glyph unicode="&#xE323;" horiz-adv-x="269" d="M134 589L40 708L61 727L135 634L208 727L229 708L134 589Z"  />
<glyph unicode="&#xE324;" horiz-adv-x="269" d="M232 694Q230 659 218 640T179 620Q161 620 149 628T126 646Q118 654 111 659T93 665Q79 665 72 655T62 619L38 622Q40 657 52 677T90 697Q107 697 118 689T140 672Q149 664 157 658T177 651Q192 651 199 661T208 698L232 694Z"  />
<glyph unicode="&#xE325;" horiz-adv-x="269" d="M95 625H53V699H95V625ZM215 625H173V699H215V625Z"  />
<glyph unicode="&#xE326;" horiz-adv-x="269" d="M211 646H65V680H211V646Z"  />
<glyph unicode="&#xE327;" horiz-adv-x="269" d="M228 709Q228 652 207 628T140 604Q93 604 73 627T52 709H80Q81 666 95 652T140 637Q170 637 184 651T200 709H228Z"  />
<glyph unicode="&#xE328;" horiz-adv-x="269" d="M136 593Q98 593 80 609T62 663V669Q62 706 80 722T136 738H141Q179 738 197 722T215 669V663Q215 625 197 609T141 593H136ZM141 615Q165 615 176 625T187 662V668Q187 694 176 705T141 716H136Q112 716 101 705T90 668V662Q90 636 101 626T136 615H141Z"  />
<glyph unicode="&#xE329;" horiz-adv-x="269" d="M74 601L56 617L137 748L164 728L74 601ZM163 599L145 614L226 746L253 725L163 599Z"  />
<glyph unicode="&#xE32A;" horiz-adv-x="269" d="M155 625H111V699H155V625Z"  />
<glyph unicode="&#xE33C;" horiz-adv-x="417" d="M225 -40H199V84Q161 84 136 92T97 125T78 193T72 311V343Q72 417 77 462T97 531T136 564T199 572V680H225V572Q259 572 282 566T318 544T338 500T344 425V407H304V423Q304 459 301 480T289 514T265 530T225 534V123Q250 123 266 127T291 144T303 180T306 242V255H346V242Q346 194 340 163T319 115T282 91T225 84V-40ZM115 310Q115 246 118 209T131 153T156 129T199 123V534Q173 534 157 529T131 504T119 447T115 345V310Z"  />
<glyph unicode="&#xF8FF;" horiz-adv-x="485" d="M210 111V174H263V111H210ZM211 222V238Q211 263 213 281T222 313T240 341T268 369Q298 399 306 415T314 449Q314 483 293 506T242 529Q213 529 192 509T165 439L117 447Q124 516 159 546T245 577Q297 577 330 544T363 453Q363 422 351 398T303 340Q286 325 277 315T264 294T258 271T257 239V222H211ZM438 47V632H47V47H438ZM485 680V0H0V680H485Z"  />
<glyph unicode="&#xFB01;" horiz-adv-x="353" d="M115 0H71V444H26V480H71V523Q71 571 75 602T91 651T122 676T170 684Q178 684 188 684T205 681V646Q200 647 194 647T178 648Q159 648 147 644T128 626T118 587T115 522V480H200V444H115V0ZM292 0H248V480H292V0ZM292 606H248V680H292V606Z"  />
<glyph unicode="&#xFB02;" horiz-adv-x="353" d="M115 0H71V444H26V480H71V523Q71 571 75 602T91 651T122 676T170 684Q178 684 188 684T205 681V646Q200 647 194 647T178 648Q159 648 147 644T128 626T118 587T115 522V480H200V444H115V0ZM292 0H248V680H292V0Z"  />


</font>
</defs>
</svg>
